G04 #@! TF.GenerationSoftware,KiCad,Pcbnew,5.1.9*
G04 #@! TF.CreationDate,2021-01-24T20:38:43+01:00*
G04 #@! TF.ProjectId,Shoto,53686f74-6f2e-46b6-9963-61645f706362,rev?*
G04 #@! TF.SameCoordinates,Original*
G04 #@! TF.FileFunction,Paste,Bot*
G04 #@! TF.FilePolarity,Positive*
%FSLAX46Y46*%
G04 Gerber Fmt 4.6, Leading zero omitted, Abs format (unit mm)*
G04 Created by KiCad (PCBNEW 5.1.9) date 2021-01-24 20:38:43*
%MOMM*%
%LPD*%
G01*
G04 APERTURE LIST*
%ADD10R,2.550000X2.500000*%
%ADD11R,0.900000X1.200000*%
%ADD12R,1.200000X0.900000*%
%ADD13R,1.060000X0.650000*%
%ADD14R,0.800000X1.200000*%
%ADD15R,1.700000X1.000000*%
%ADD16R,0.600000X1.450000*%
%ADD17R,0.300000X1.450000*%
%ADD18R,0.800000X0.900000*%
%ADD19R,0.900000X0.800000*%
G04 APERTURE END LIST*
D10*
X175517000Y-92460000D03*
X188967000Y-89920000D03*
X228237000Y-97540000D03*
X214787000Y-100080000D03*
X251987000Y-97540000D03*
X238537000Y-100080000D03*
X275737000Y-97540000D03*
X262287000Y-100080000D03*
X292360000Y-78540000D03*
X278910000Y-81080000D03*
X273360000Y-78540000D03*
X259910000Y-81080000D03*
X254360000Y-78540000D03*
X240910000Y-81080000D03*
X235360000Y-78540000D03*
X221910000Y-81080000D03*
X216360000Y-78540000D03*
X202910000Y-81080000D03*
X197360000Y-78540000D03*
X183910000Y-81080000D03*
X178360000Y-78540000D03*
X164910000Y-81080000D03*
X61987000Y-97540000D03*
X48537000Y-100080000D03*
X85737000Y-97540000D03*
X72287000Y-100080000D03*
X109487000Y-97540000D03*
X96037000Y-100080000D03*
X128017000Y-92460000D03*
X141467000Y-89920000D03*
X159360000Y-78540000D03*
X145910000Y-81080000D03*
X140360000Y-78540000D03*
X126910000Y-81080000D03*
X121360000Y-78540000D03*
X107910000Y-81080000D03*
X102360000Y-78540000D03*
X88910000Y-81080000D03*
X83360000Y-78540000D03*
X69910000Y-81080000D03*
X64360000Y-78540000D03*
X50910000Y-81080000D03*
X45360000Y-78540000D03*
X31910000Y-81080000D03*
X50110000Y-59540000D03*
X36660000Y-62080000D03*
X69110000Y-59540000D03*
X55660000Y-62080000D03*
X88110000Y-59540000D03*
X74660000Y-62080000D03*
X107110000Y-59540000D03*
X93660000Y-62080000D03*
X126110000Y-59540000D03*
X112660000Y-62080000D03*
X145110000Y-59540000D03*
X131660000Y-62080000D03*
X168860000Y-59540000D03*
X155410000Y-62080000D03*
X192610000Y-59540000D03*
X179160000Y-62080000D03*
X211610000Y-59540000D03*
X198160000Y-62080000D03*
X230610000Y-59540000D03*
X217160000Y-62080000D03*
X249610000Y-59540000D03*
X236160000Y-62080000D03*
X268610000Y-59540000D03*
X255160000Y-62080000D03*
X287610000Y-59540000D03*
X274160000Y-62080000D03*
X282860000Y-40540000D03*
X269410000Y-43080000D03*
X263860000Y-40540000D03*
X250410000Y-43080000D03*
X244860000Y-40540000D03*
X231410000Y-43080000D03*
X225860000Y-40540000D03*
X212410000Y-43080000D03*
X54860000Y-40540000D03*
X41410000Y-43080000D03*
X73860000Y-40540000D03*
X60410000Y-43080000D03*
X92860000Y-40540000D03*
X79410000Y-43080000D03*
X111860000Y-40540000D03*
X98410000Y-43080000D03*
X130860000Y-40540000D03*
X117410000Y-43080000D03*
X149860000Y-40540000D03*
X136410000Y-43080000D03*
X168860000Y-40540000D03*
X155410000Y-43080000D03*
X187860000Y-40540000D03*
X174410000Y-43080000D03*
X206860000Y-40540000D03*
X193410000Y-43080000D03*
D11*
X153405800Y-48973160D03*
X150105800Y-48973160D03*
D12*
X86731800Y-31003660D03*
X86731800Y-34303660D03*
G36*
G01*
X84626300Y-31878660D02*
X83376300Y-31878660D01*
G75*
G02*
X83126300Y-31628660I0J250000D01*
G01*
X83126300Y-30878660D01*
G75*
G02*
X83376300Y-30628660I250000J0D01*
G01*
X84626300Y-30628660D01*
G75*
G02*
X84876300Y-30878660I0J-250000D01*
G01*
X84876300Y-31628660D01*
G75*
G02*
X84626300Y-31878660I-250000J0D01*
G01*
G37*
G36*
G01*
X84626300Y-34678660D02*
X83376300Y-34678660D01*
G75*
G02*
X83126300Y-34428660I0J250000D01*
G01*
X83126300Y-33678660D01*
G75*
G02*
X83376300Y-33428660I250000J0D01*
G01*
X84626300Y-33428660D01*
G75*
G02*
X84876300Y-33678660I0J-250000D01*
G01*
X84876300Y-34428660D01*
G75*
G02*
X84626300Y-34678660I-250000J0D01*
G01*
G37*
D13*
X76973300Y-36400160D03*
X76973300Y-37350160D03*
X76973300Y-35450160D03*
X74773300Y-35450160D03*
X74773300Y-36400160D03*
X74773300Y-37350160D03*
D14*
X274665800Y-73133160D03*
X275615800Y-70533160D03*
X276565800Y-73133160D03*
D15*
X168338800Y-52972660D03*
X174638800Y-52972660D03*
X168338800Y-49172660D03*
X174638800Y-49172660D03*
D16*
X79147200Y-31224600D03*
X78347200Y-31224600D03*
X73447200Y-31224600D03*
X72647200Y-31224600D03*
X72647200Y-31224600D03*
X73447200Y-31224600D03*
X78347200Y-31224600D03*
X79147200Y-31224600D03*
D17*
X74147200Y-31224600D03*
X74647200Y-31224600D03*
X75147200Y-31224600D03*
X76147200Y-31224600D03*
X76647200Y-31224600D03*
X77147200Y-31224600D03*
X77647200Y-31224600D03*
X75647200Y-31224600D03*
G36*
G01*
X66424800Y-32516660D02*
X66424800Y-31266660D01*
G75*
G02*
X66674800Y-31016660I250000J0D01*
G01*
X67424800Y-31016660D01*
G75*
G02*
X67674800Y-31266660I0J-250000D01*
G01*
X67674800Y-32516660D01*
G75*
G02*
X67424800Y-32766660I-250000J0D01*
G01*
X66674800Y-32766660D01*
G75*
G02*
X66424800Y-32516660I0J250000D01*
G01*
G37*
G36*
G01*
X63624800Y-32516660D02*
X63624800Y-31266660D01*
G75*
G02*
X63874800Y-31016660I250000J0D01*
G01*
X64624800Y-31016660D01*
G75*
G02*
X64874800Y-31266660I0J-250000D01*
G01*
X64874800Y-32516660D01*
G75*
G02*
X64624800Y-32766660I-250000J0D01*
G01*
X63874800Y-32766660D01*
G75*
G02*
X63624800Y-32516660I0J250000D01*
G01*
G37*
D14*
X57956180Y-43080840D03*
X57006180Y-45680840D03*
X56056180Y-43080840D03*
X95956180Y-43080840D03*
X95006180Y-45680840D03*
X94056180Y-43080840D03*
X133956180Y-43080840D03*
X133006180Y-45680840D03*
X132056180Y-43080840D03*
X190956180Y-43080840D03*
X190006180Y-45680840D03*
X189056180Y-43080840D03*
X228956180Y-43080840D03*
X228006180Y-45680840D03*
X227056180Y-43080840D03*
X266956180Y-43080840D03*
X266006180Y-45680840D03*
X265056180Y-43080840D03*
X53137800Y-63675160D03*
X52187800Y-66275160D03*
X51237800Y-63675160D03*
X91137800Y-63675160D03*
X90187800Y-66275160D03*
X89237800Y-63675160D03*
X129137800Y-63675160D03*
X128187800Y-66275160D03*
X127237800Y-63675160D03*
X195637800Y-63675160D03*
X194687800Y-66275160D03*
X193737800Y-63675160D03*
X233637800Y-63675160D03*
X232687800Y-66275160D03*
X231737800Y-63675160D03*
X271637800Y-63675160D03*
X270687800Y-66275160D03*
X269737800Y-63675160D03*
X46665800Y-73133160D03*
X47615800Y-70533160D03*
X48565800Y-73133160D03*
X84665800Y-73133160D03*
X85615800Y-70533160D03*
X86565800Y-73133160D03*
X122665800Y-73133160D03*
X123615800Y-70533160D03*
X124565800Y-73133160D03*
X198665800Y-73133160D03*
X199615800Y-70533160D03*
X200565800Y-73133160D03*
X236665800Y-73133160D03*
X237615800Y-70533160D03*
X238565800Y-73133160D03*
D18*
X150615300Y-51846660D03*
X152515300Y-51846660D03*
X151565300Y-53846660D03*
G36*
G01*
X168756250Y-94900000D02*
X168243750Y-94900000D01*
G75*
G02*
X168025000Y-94681250I0J218750D01*
G01*
X168025000Y-94243750D01*
G75*
G02*
X168243750Y-94025000I218750J0D01*
G01*
X168756250Y-94025000D01*
G75*
G02*
X168975000Y-94243750I0J-218750D01*
G01*
X168975000Y-94681250D01*
G75*
G02*
X168756250Y-94900000I-218750J0D01*
G01*
G37*
G36*
G01*
X168756250Y-96475000D02*
X168243750Y-96475000D01*
G75*
G02*
X168025000Y-96256250I0J218750D01*
G01*
X168025000Y-95818750D01*
G75*
G02*
X168243750Y-95600000I218750J0D01*
G01*
X168756250Y-95600000D01*
G75*
G02*
X168975000Y-95818750I0J-218750D01*
G01*
X168975000Y-96256250D01*
G75*
G02*
X168756250Y-96475000I-218750J0D01*
G01*
G37*
G36*
G01*
X150503550Y-95678160D02*
X151016050Y-95678160D01*
G75*
G02*
X151234800Y-95896910I0J-218750D01*
G01*
X151234800Y-96334410D01*
G75*
G02*
X151016050Y-96553160I-218750J0D01*
G01*
X150503550Y-96553160D01*
G75*
G02*
X150284800Y-96334410I0J218750D01*
G01*
X150284800Y-95896910D01*
G75*
G02*
X150503550Y-95678160I218750J0D01*
G01*
G37*
G36*
G01*
X150503550Y-94103160D02*
X151016050Y-94103160D01*
G75*
G02*
X151234800Y-94321910I0J-218750D01*
G01*
X151234800Y-94759410D01*
G75*
G02*
X151016050Y-94978160I-218750J0D01*
G01*
X150503550Y-94978160D01*
G75*
G02*
X150284800Y-94759410I0J218750D01*
G01*
X150284800Y-94321910D01*
G75*
G02*
X150503550Y-94103160I218750J0D01*
G01*
G37*
G36*
G01*
X159183242Y-85812910D02*
X159183242Y-86325410D01*
G75*
G02*
X158964492Y-86544160I-218750J0D01*
G01*
X158526992Y-86544160D01*
G75*
G02*
X158308242Y-86325410I0J218750D01*
G01*
X158308242Y-85812910D01*
G75*
G02*
X158526992Y-85594160I218750J0D01*
G01*
X158964492Y-85594160D01*
G75*
G02*
X159183242Y-85812910I0J-218750D01*
G01*
G37*
G36*
G01*
X157608242Y-85812910D02*
X157608242Y-86325410D01*
G75*
G02*
X157389492Y-86544160I-218750J0D01*
G01*
X156951992Y-86544160D01*
G75*
G02*
X156733242Y-86325410I0J218750D01*
G01*
X156733242Y-85812910D01*
G75*
G02*
X156951992Y-85594160I218750J0D01*
G01*
X157389492Y-85594160D01*
G75*
G02*
X157608242Y-85812910I0J-218750D01*
G01*
G37*
G36*
G01*
X160525000Y-103006250D02*
X160525000Y-102493750D01*
G75*
G02*
X160743750Y-102275000I218750J0D01*
G01*
X161181250Y-102275000D01*
G75*
G02*
X161400000Y-102493750I0J-218750D01*
G01*
X161400000Y-103006250D01*
G75*
G02*
X161181250Y-103225000I-218750J0D01*
G01*
X160743750Y-103225000D01*
G75*
G02*
X160525000Y-103006250I0J218750D01*
G01*
G37*
G36*
G01*
X162100000Y-103006250D02*
X162100000Y-102493750D01*
G75*
G02*
X162318750Y-102275000I218750J0D01*
G01*
X162756250Y-102275000D01*
G75*
G02*
X162975000Y-102493750I0J-218750D01*
G01*
X162975000Y-103006250D01*
G75*
G02*
X162756250Y-103225000I-218750J0D01*
G01*
X162318750Y-103225000D01*
G75*
G02*
X162100000Y-103006250I0J218750D01*
G01*
G37*
G36*
G01*
X69462050Y-33053160D02*
X68949550Y-33053160D01*
G75*
G02*
X68730800Y-32834410I0J218750D01*
G01*
X68730800Y-32396910D01*
G75*
G02*
X68949550Y-32178160I218750J0D01*
G01*
X69462050Y-32178160D01*
G75*
G02*
X69680800Y-32396910I0J-218750D01*
G01*
X69680800Y-32834410D01*
G75*
G02*
X69462050Y-33053160I-218750J0D01*
G01*
G37*
G36*
G01*
X69462050Y-31478160D02*
X68949550Y-31478160D01*
G75*
G02*
X68730800Y-31259410I0J218750D01*
G01*
X68730800Y-30821910D01*
G75*
G02*
X68949550Y-30603160I218750J0D01*
G01*
X69462050Y-30603160D01*
G75*
G02*
X69680800Y-30821910I0J-218750D01*
G01*
X69680800Y-31259410D01*
G75*
G02*
X69462050Y-31478160I-218750J0D01*
G01*
G37*
G36*
G01*
X159183243Y-87521206D02*
X159183243Y-88033706D01*
G75*
G02*
X158964493Y-88252456I-218750J0D01*
G01*
X158526993Y-88252456D01*
G75*
G02*
X158308243Y-88033706I0J218750D01*
G01*
X158308243Y-87521206D01*
G75*
G02*
X158526993Y-87302456I218750J0D01*
G01*
X158964493Y-87302456D01*
G75*
G02*
X159183243Y-87521206I0J-218750D01*
G01*
G37*
G36*
G01*
X157608243Y-87521206D02*
X157608243Y-88033706D01*
G75*
G02*
X157389493Y-88252456I-218750J0D01*
G01*
X156951993Y-88252456D01*
G75*
G02*
X156733243Y-88033706I0J218750D01*
G01*
X156733243Y-87521206D01*
G75*
G02*
X156951993Y-87302456I218750J0D01*
G01*
X157389493Y-87302456D01*
G75*
G02*
X157608243Y-87521206I0J-218750D01*
G01*
G37*
G36*
G01*
X157900000Y-102493750D02*
X157900000Y-103006250D01*
G75*
G02*
X157681250Y-103225000I-218750J0D01*
G01*
X157243750Y-103225000D01*
G75*
G02*
X157025000Y-103006250I0J218750D01*
G01*
X157025000Y-102493750D01*
G75*
G02*
X157243750Y-102275000I218750J0D01*
G01*
X157681250Y-102275000D01*
G75*
G02*
X157900000Y-102493750I0J-218750D01*
G01*
G37*
G36*
G01*
X159475000Y-102493750D02*
X159475000Y-103006250D01*
G75*
G02*
X159256250Y-103225000I-218750J0D01*
G01*
X158818750Y-103225000D01*
G75*
G02*
X158600000Y-103006250I0J218750D01*
G01*
X158600000Y-102493750D01*
G75*
G02*
X158818750Y-102275000I218750J0D01*
G01*
X159256250Y-102275000D01*
G75*
G02*
X159475000Y-102493750I0J-218750D01*
G01*
G37*
G36*
G01*
X148789050Y-95678160D02*
X149301550Y-95678160D01*
G75*
G02*
X149520300Y-95896910I0J-218750D01*
G01*
X149520300Y-96334410D01*
G75*
G02*
X149301550Y-96553160I-218750J0D01*
G01*
X148789050Y-96553160D01*
G75*
G02*
X148570300Y-96334410I0J218750D01*
G01*
X148570300Y-95896910D01*
G75*
G02*
X148789050Y-95678160I218750J0D01*
G01*
G37*
G36*
G01*
X148789050Y-94103160D02*
X149301550Y-94103160D01*
G75*
G02*
X149520300Y-94321910I0J-218750D01*
G01*
X149520300Y-94759410D01*
G75*
G02*
X149301550Y-94978160I-218750J0D01*
G01*
X148789050Y-94978160D01*
G75*
G02*
X148570300Y-94759410I0J218750D01*
G01*
X148570300Y-94321910D01*
G75*
G02*
X148789050Y-94103160I218750J0D01*
G01*
G37*
G36*
G01*
X148329050Y-54325660D02*
X147816550Y-54325660D01*
G75*
G02*
X147597800Y-54106910I0J218750D01*
G01*
X147597800Y-53669410D01*
G75*
G02*
X147816550Y-53450660I218750J0D01*
G01*
X148329050Y-53450660D01*
G75*
G02*
X148547800Y-53669410I0J-218750D01*
G01*
X148547800Y-54106910D01*
G75*
G02*
X148329050Y-54325660I-218750J0D01*
G01*
G37*
G36*
G01*
X148329050Y-52750660D02*
X147816550Y-52750660D01*
G75*
G02*
X147597800Y-52531910I0J218750D01*
G01*
X147597800Y-52094410D01*
G75*
G02*
X147816550Y-51875660I218750J0D01*
G01*
X148329050Y-51875660D01*
G75*
G02*
X148547800Y-52094410I0J-218750D01*
G01*
X148547800Y-52531910D01*
G75*
G02*
X148329050Y-52750660I-218750J0D01*
G01*
G37*
G36*
G01*
X154357050Y-53196660D02*
X154869550Y-53196660D01*
G75*
G02*
X155088300Y-53415410I0J-218750D01*
G01*
X155088300Y-53852910D01*
G75*
G02*
X154869550Y-54071660I-218750J0D01*
G01*
X154357050Y-54071660D01*
G75*
G02*
X154138300Y-53852910I0J218750D01*
G01*
X154138300Y-53415410D01*
G75*
G02*
X154357050Y-53196660I218750J0D01*
G01*
G37*
G36*
G01*
X154357050Y-51621660D02*
X154869550Y-51621660D01*
G75*
G02*
X155088300Y-51840410I0J-218750D01*
G01*
X155088300Y-52277910D01*
G75*
G02*
X154869550Y-52496660I-218750J0D01*
G01*
X154357050Y-52496660D01*
G75*
G02*
X154138300Y-52277910I0J218750D01*
G01*
X154138300Y-51840410D01*
G75*
G02*
X154357050Y-51621660I218750J0D01*
G01*
G37*
G36*
G01*
X183475000Y-47993750D02*
X183475000Y-48506250D01*
G75*
G02*
X183256250Y-48725000I-218750J0D01*
G01*
X182818750Y-48725000D01*
G75*
G02*
X182600000Y-48506250I0J218750D01*
G01*
X182600000Y-47993750D01*
G75*
G02*
X182818750Y-47775000I218750J0D01*
G01*
X183256250Y-47775000D01*
G75*
G02*
X183475000Y-47993750I0J-218750D01*
G01*
G37*
G36*
G01*
X181900000Y-47993750D02*
X181900000Y-48506250D01*
G75*
G02*
X181681250Y-48725000I-218750J0D01*
G01*
X181243750Y-48725000D01*
G75*
G02*
X181025000Y-48506250I0J218750D01*
G01*
X181025000Y-47993750D01*
G75*
G02*
X181243750Y-47775000I218750J0D01*
G01*
X181681250Y-47775000D01*
G75*
G02*
X181900000Y-47993750I0J-218750D01*
G01*
G37*
G36*
G01*
X183256250Y-50900000D02*
X182743750Y-50900000D01*
G75*
G02*
X182525000Y-50681250I0J218750D01*
G01*
X182525000Y-50243750D01*
G75*
G02*
X182743750Y-50025000I218750J0D01*
G01*
X183256250Y-50025000D01*
G75*
G02*
X183475000Y-50243750I0J-218750D01*
G01*
X183475000Y-50681250D01*
G75*
G02*
X183256250Y-50900000I-218750J0D01*
G01*
G37*
G36*
G01*
X183256250Y-52475000D02*
X182743750Y-52475000D01*
G75*
G02*
X182525000Y-52256250I0J218750D01*
G01*
X182525000Y-51818750D01*
G75*
G02*
X182743750Y-51600000I218750J0D01*
G01*
X183256250Y-51600000D01*
G75*
G02*
X183475000Y-51818750I0J-218750D01*
G01*
X183475000Y-52256250D01*
G75*
G02*
X183256250Y-52475000I-218750J0D01*
G01*
G37*
G36*
G01*
X166756250Y-94900000D02*
X166243750Y-94900000D01*
G75*
G02*
X166025000Y-94681250I0J218750D01*
G01*
X166025000Y-94243750D01*
G75*
G02*
X166243750Y-94025000I218750J0D01*
G01*
X166756250Y-94025000D01*
G75*
G02*
X166975000Y-94243750I0J-218750D01*
G01*
X166975000Y-94681250D01*
G75*
G02*
X166756250Y-94900000I-218750J0D01*
G01*
G37*
G36*
G01*
X166756250Y-96475000D02*
X166243750Y-96475000D01*
G75*
G02*
X166025000Y-96256250I0J218750D01*
G01*
X166025000Y-95818750D01*
G75*
G02*
X166243750Y-95600000I218750J0D01*
G01*
X166756250Y-95600000D01*
G75*
G02*
X166975000Y-95818750I0J-218750D01*
G01*
X166975000Y-96256250D01*
G75*
G02*
X166756250Y-96475000I-218750J0D01*
G01*
G37*
G36*
G01*
X70838300Y-33671910D02*
X70838300Y-33159410D01*
G75*
G02*
X71057050Y-32940660I218750J0D01*
G01*
X71494550Y-32940660D01*
G75*
G02*
X71713300Y-33159410I0J-218750D01*
G01*
X71713300Y-33671910D01*
G75*
G02*
X71494550Y-33890660I-218750J0D01*
G01*
X71057050Y-33890660D01*
G75*
G02*
X70838300Y-33671910I0J218750D01*
G01*
G37*
G36*
G01*
X72413300Y-33671910D02*
X72413300Y-33159410D01*
G75*
G02*
X72632050Y-32940660I218750J0D01*
G01*
X73069550Y-32940660D01*
G75*
G02*
X73288300Y-33159410I0J-218750D01*
G01*
X73288300Y-33671910D01*
G75*
G02*
X73069550Y-33890660I-218750J0D01*
G01*
X72632050Y-33890660D01*
G75*
G02*
X72413300Y-33671910I0J218750D01*
G01*
G37*
G36*
G01*
X80971800Y-33159410D02*
X80971800Y-33671910D01*
G75*
G02*
X80753050Y-33890660I-218750J0D01*
G01*
X80315550Y-33890660D01*
G75*
G02*
X80096800Y-33671910I0J218750D01*
G01*
X80096800Y-33159410D01*
G75*
G02*
X80315550Y-32940660I218750J0D01*
G01*
X80753050Y-32940660D01*
G75*
G02*
X80971800Y-33159410I0J-218750D01*
G01*
G37*
G36*
G01*
X79396800Y-33159410D02*
X79396800Y-33671910D01*
G75*
G02*
X79178050Y-33890660I-218750J0D01*
G01*
X78740550Y-33890660D01*
G75*
G02*
X78521800Y-33671910I0J218750D01*
G01*
X78521800Y-33159410D01*
G75*
G02*
X78740550Y-32940660I218750J0D01*
G01*
X79178050Y-32940660D01*
G75*
G02*
X79396800Y-33159410I0J-218750D01*
G01*
G37*
G36*
G01*
X180350000Y-54506250D02*
X180350000Y-53993750D01*
G75*
G02*
X180568750Y-53775000I218750J0D01*
G01*
X181006250Y-53775000D01*
G75*
G02*
X181225000Y-53993750I0J-218750D01*
G01*
X181225000Y-54506250D01*
G75*
G02*
X181006250Y-54725000I-218750J0D01*
G01*
X180568750Y-54725000D01*
G75*
G02*
X180350000Y-54506250I0J218750D01*
G01*
G37*
G36*
G01*
X178775000Y-54506250D02*
X178775000Y-53993750D01*
G75*
G02*
X178993750Y-53775000I218750J0D01*
G01*
X179431250Y-53775000D01*
G75*
G02*
X179650000Y-53993750I0J-218750D01*
G01*
X179650000Y-54506250D01*
G75*
G02*
X179431250Y-54725000I-218750J0D01*
G01*
X178993750Y-54725000D01*
G75*
G02*
X178775000Y-54506250I0J218750D01*
G01*
G37*
D19*
X179000000Y-52200000D03*
X179000000Y-50300000D03*
X181000000Y-51250000D03*
G36*
G01*
X174675000Y-55775000D02*
X174675000Y-55225000D01*
G75*
G02*
X174875000Y-55025000I200000J0D01*
G01*
X175275000Y-55025000D01*
G75*
G02*
X175475000Y-55225000I0J-200000D01*
G01*
X175475000Y-55775000D01*
G75*
G02*
X175275000Y-55975000I-200000J0D01*
G01*
X174875000Y-55975000D01*
G75*
G02*
X174675000Y-55775000I0J200000D01*
G01*
G37*
G36*
G01*
X173025000Y-55775000D02*
X173025000Y-55225000D01*
G75*
G02*
X173225000Y-55025000I200000J0D01*
G01*
X173625000Y-55025000D01*
G75*
G02*
X173825000Y-55225000I0J-200000D01*
G01*
X173825000Y-55775000D01*
G75*
G02*
X173625000Y-55975000I-200000J0D01*
G01*
X173225000Y-55975000D01*
G75*
G02*
X173025000Y-55775000I0J200000D01*
G01*
G37*
G36*
G01*
X177275000Y-52475000D02*
X176725000Y-52475000D01*
G75*
G02*
X176525000Y-52275000I0J200000D01*
G01*
X176525000Y-51875000D01*
G75*
G02*
X176725000Y-51675000I200000J0D01*
G01*
X177275000Y-51675000D01*
G75*
G02*
X177475000Y-51875000I0J-200000D01*
G01*
X177475000Y-52275000D01*
G75*
G02*
X177275000Y-52475000I-200000J0D01*
G01*
G37*
G36*
G01*
X177275000Y-50825000D02*
X176725000Y-50825000D01*
G75*
G02*
X176525000Y-50625000I0J200000D01*
G01*
X176525000Y-50225000D01*
G75*
G02*
X176725000Y-50025000I200000J0D01*
G01*
X177275000Y-50025000D01*
G75*
G02*
X177475000Y-50225000I0J-200000D01*
G01*
X177475000Y-50625000D01*
G75*
G02*
X177275000Y-50825000I-200000J0D01*
G01*
G37*
D12*
X151959000Y-43100000D03*
X151959000Y-46400000D03*
X151882800Y-66400000D03*
X151882800Y-63100000D03*
X142611800Y-73900000D03*
X142611800Y-70600000D03*
X180500000Y-82350000D03*
X180500000Y-85650000D03*
X51556000Y-84506000D03*
X51556000Y-87806000D03*
X75306000Y-87806000D03*
X75306000Y-84506000D03*
X99056000Y-84506000D03*
X99056000Y-87806000D03*
X141468800Y-85650000D03*
X141468800Y-82350000D03*
X199888800Y-84506000D03*
X199888800Y-87806000D03*
X217821200Y-87806000D03*
X217821200Y-84506000D03*
X241571200Y-84506000D03*
X241571200Y-87806000D03*
X265321200Y-84350000D03*
X265321200Y-87650000D03*
G36*
G01*
X164158240Y-96783395D02*
X164052174Y-96889461D01*
G75*
G02*
X163946108Y-96889461I-53033J53033D01*
G01*
X163009192Y-95952545D01*
G75*
G02*
X163009192Y-95846479I53033J53033D01*
G01*
X163115258Y-95740413D01*
G75*
G02*
X163221324Y-95740413I53033J-53033D01*
G01*
X164158240Y-96677329D01*
G75*
G02*
X164158240Y-96783395I-53033J-53033D01*
G01*
G37*
G36*
G01*
X163804686Y-97136949D02*
X163698620Y-97243015D01*
G75*
G02*
X163592554Y-97243015I-53033J53033D01*
G01*
X162655638Y-96306099D01*
G75*
G02*
X162655638Y-96200033I53033J53033D01*
G01*
X162761704Y-96093967D01*
G75*
G02*
X162867770Y-96093967I53033J-53033D01*
G01*
X163804686Y-97030883D01*
G75*
G02*
X163804686Y-97136949I-53033J-53033D01*
G01*
G37*
G36*
G01*
X163451133Y-97490502D02*
X163345067Y-97596568D01*
G75*
G02*
X163239001Y-97596568I-53033J53033D01*
G01*
X162302085Y-96659652D01*
G75*
G02*
X162302085Y-96553586I53033J53033D01*
G01*
X162408151Y-96447520D01*
G75*
G02*
X162514217Y-96447520I53033J-53033D01*
G01*
X163451133Y-97384436D01*
G75*
G02*
X163451133Y-97490502I-53033J-53033D01*
G01*
G37*
G36*
G01*
X163097579Y-97844056D02*
X162991513Y-97950122D01*
G75*
G02*
X162885447Y-97950122I-53033J53033D01*
G01*
X161948531Y-97013206D01*
G75*
G02*
X161948531Y-96907140I53033J53033D01*
G01*
X162054597Y-96801074D01*
G75*
G02*
X162160663Y-96801074I53033J-53033D01*
G01*
X163097579Y-97737990D01*
G75*
G02*
X163097579Y-97844056I-53033J-53033D01*
G01*
G37*
G36*
G01*
X162744026Y-98197609D02*
X162637960Y-98303675D01*
G75*
G02*
X162531894Y-98303675I-53033J53033D01*
G01*
X161594978Y-97366759D01*
G75*
G02*
X161594978Y-97260693I53033J53033D01*
G01*
X161701044Y-97154627D01*
G75*
G02*
X161807110Y-97154627I53033J-53033D01*
G01*
X162744026Y-98091543D01*
G75*
G02*
X162744026Y-98197609I-53033J-53033D01*
G01*
G37*
G36*
G01*
X162390473Y-98551162D02*
X162284407Y-98657228D01*
G75*
G02*
X162178341Y-98657228I-53033J53033D01*
G01*
X161241425Y-97720312D01*
G75*
G02*
X161241425Y-97614246I53033J53033D01*
G01*
X161347491Y-97508180D01*
G75*
G02*
X161453557Y-97508180I53033J-53033D01*
G01*
X162390473Y-98445096D01*
G75*
G02*
X162390473Y-98551162I-53033J-53033D01*
G01*
G37*
G36*
G01*
X162036919Y-98904716D02*
X161930853Y-99010782D01*
G75*
G02*
X161824787Y-99010782I-53033J53033D01*
G01*
X160887871Y-98073866D01*
G75*
G02*
X160887871Y-97967800I53033J53033D01*
G01*
X160993937Y-97861734D01*
G75*
G02*
X161100003Y-97861734I53033J-53033D01*
G01*
X162036919Y-98798650D01*
G75*
G02*
X162036919Y-98904716I-53033J-53033D01*
G01*
G37*
G36*
G01*
X161683366Y-99258269D02*
X161577300Y-99364335D01*
G75*
G02*
X161471234Y-99364335I-53033J53033D01*
G01*
X160534318Y-98427419D01*
G75*
G02*
X160534318Y-98321353I53033J53033D01*
G01*
X160640384Y-98215287D01*
G75*
G02*
X160746450Y-98215287I53033J-53033D01*
G01*
X161683366Y-99152203D01*
G75*
G02*
X161683366Y-99258269I-53033J-53033D01*
G01*
G37*
G36*
G01*
X161329813Y-99611822D02*
X161223747Y-99717888D01*
G75*
G02*
X161117681Y-99717888I-53033J53033D01*
G01*
X160180765Y-98780972D01*
G75*
G02*
X160180765Y-98674906I53033J53033D01*
G01*
X160286831Y-98568840D01*
G75*
G02*
X160392897Y-98568840I53033J-53033D01*
G01*
X161329813Y-99505756D01*
G75*
G02*
X161329813Y-99611822I-53033J-53033D01*
G01*
G37*
G36*
G01*
X160976259Y-99965376D02*
X160870193Y-100071442D01*
G75*
G02*
X160764127Y-100071442I-53033J53033D01*
G01*
X159827211Y-99134526D01*
G75*
G02*
X159827211Y-99028460I53033J53033D01*
G01*
X159933277Y-98922394D01*
G75*
G02*
X160039343Y-98922394I53033J-53033D01*
G01*
X160976259Y-99859310D01*
G75*
G02*
X160976259Y-99965376I-53033J-53033D01*
G01*
G37*
G36*
G01*
X160622706Y-100318929D02*
X160516640Y-100424995D01*
G75*
G02*
X160410574Y-100424995I-53033J53033D01*
G01*
X159473658Y-99488079D01*
G75*
G02*
X159473658Y-99382013I53033J53033D01*
G01*
X159579724Y-99275947D01*
G75*
G02*
X159685790Y-99275947I53033J-53033D01*
G01*
X160622706Y-100212863D01*
G75*
G02*
X160622706Y-100318929I-53033J-53033D01*
G01*
G37*
G36*
G01*
X160269152Y-100672483D02*
X160163086Y-100778549D01*
G75*
G02*
X160057020Y-100778549I-53033J53033D01*
G01*
X159120104Y-99841633D01*
G75*
G02*
X159120104Y-99735567I53033J53033D01*
G01*
X159226170Y-99629501D01*
G75*
G02*
X159332236Y-99629501I53033J-53033D01*
G01*
X160269152Y-100566417D01*
G75*
G02*
X160269152Y-100672483I-53033J-53033D01*
G01*
G37*
G36*
G01*
X158271576Y-99841633D02*
X157334660Y-100778549D01*
G75*
G02*
X157228594Y-100778549I-53033J53033D01*
G01*
X157122528Y-100672483D01*
G75*
G02*
X157122528Y-100566417I53033J53033D01*
G01*
X158059444Y-99629501D01*
G75*
G02*
X158165510Y-99629501I53033J-53033D01*
G01*
X158271576Y-99735567D01*
G75*
G02*
X158271576Y-99841633I-53033J-53033D01*
G01*
G37*
G36*
G01*
X157918022Y-99488079D02*
X156981106Y-100424995D01*
G75*
G02*
X156875040Y-100424995I-53033J53033D01*
G01*
X156768974Y-100318929D01*
G75*
G02*
X156768974Y-100212863I53033J53033D01*
G01*
X157705890Y-99275947D01*
G75*
G02*
X157811956Y-99275947I53033J-53033D01*
G01*
X157918022Y-99382013D01*
G75*
G02*
X157918022Y-99488079I-53033J-53033D01*
G01*
G37*
G36*
G01*
X157564469Y-99134526D02*
X156627553Y-100071442D01*
G75*
G02*
X156521487Y-100071442I-53033J53033D01*
G01*
X156415421Y-99965376D01*
G75*
G02*
X156415421Y-99859310I53033J53033D01*
G01*
X157352337Y-98922394D01*
G75*
G02*
X157458403Y-98922394I53033J-53033D01*
G01*
X157564469Y-99028460D01*
G75*
G02*
X157564469Y-99134526I-53033J-53033D01*
G01*
G37*
G36*
G01*
X157210915Y-98780972D02*
X156273999Y-99717888D01*
G75*
G02*
X156167933Y-99717888I-53033J53033D01*
G01*
X156061867Y-99611822D01*
G75*
G02*
X156061867Y-99505756I53033J53033D01*
G01*
X156998783Y-98568840D01*
G75*
G02*
X157104849Y-98568840I53033J-53033D01*
G01*
X157210915Y-98674906D01*
G75*
G02*
X157210915Y-98780972I-53033J-53033D01*
G01*
G37*
G36*
G01*
X156857362Y-98427419D02*
X155920446Y-99364335D01*
G75*
G02*
X155814380Y-99364335I-53033J53033D01*
G01*
X155708314Y-99258269D01*
G75*
G02*
X155708314Y-99152203I53033J53033D01*
G01*
X156645230Y-98215287D01*
G75*
G02*
X156751296Y-98215287I53033J-53033D01*
G01*
X156857362Y-98321353D01*
G75*
G02*
X156857362Y-98427419I-53033J-53033D01*
G01*
G37*
G36*
G01*
X156503809Y-98073866D02*
X155566893Y-99010782D01*
G75*
G02*
X155460827Y-99010782I-53033J53033D01*
G01*
X155354761Y-98904716D01*
G75*
G02*
X155354761Y-98798650I53033J53033D01*
G01*
X156291677Y-97861734D01*
G75*
G02*
X156397743Y-97861734I53033J-53033D01*
G01*
X156503809Y-97967800D01*
G75*
G02*
X156503809Y-98073866I-53033J-53033D01*
G01*
G37*
G36*
G01*
X156150255Y-97720312D02*
X155213339Y-98657228D01*
G75*
G02*
X155107273Y-98657228I-53033J53033D01*
G01*
X155001207Y-98551162D01*
G75*
G02*
X155001207Y-98445096I53033J53033D01*
G01*
X155938123Y-97508180D01*
G75*
G02*
X156044189Y-97508180I53033J-53033D01*
G01*
X156150255Y-97614246D01*
G75*
G02*
X156150255Y-97720312I-53033J-53033D01*
G01*
G37*
G36*
G01*
X155796702Y-97366759D02*
X154859786Y-98303675D01*
G75*
G02*
X154753720Y-98303675I-53033J53033D01*
G01*
X154647654Y-98197609D01*
G75*
G02*
X154647654Y-98091543I53033J53033D01*
G01*
X155584570Y-97154627D01*
G75*
G02*
X155690636Y-97154627I53033J-53033D01*
G01*
X155796702Y-97260693D01*
G75*
G02*
X155796702Y-97366759I-53033J-53033D01*
G01*
G37*
G36*
G01*
X155443149Y-97013206D02*
X154506233Y-97950122D01*
G75*
G02*
X154400167Y-97950122I-53033J53033D01*
G01*
X154294101Y-97844056D01*
G75*
G02*
X154294101Y-97737990I53033J53033D01*
G01*
X155231017Y-96801074D01*
G75*
G02*
X155337083Y-96801074I53033J-53033D01*
G01*
X155443149Y-96907140D01*
G75*
G02*
X155443149Y-97013206I-53033J-53033D01*
G01*
G37*
G36*
G01*
X155089595Y-96659652D02*
X154152679Y-97596568D01*
G75*
G02*
X154046613Y-97596568I-53033J53033D01*
G01*
X153940547Y-97490502D01*
G75*
G02*
X153940547Y-97384436I53033J53033D01*
G01*
X154877463Y-96447520D01*
G75*
G02*
X154983529Y-96447520I53033J-53033D01*
G01*
X155089595Y-96553586D01*
G75*
G02*
X155089595Y-96659652I-53033J-53033D01*
G01*
G37*
G36*
G01*
X154736042Y-96306099D02*
X153799126Y-97243015D01*
G75*
G02*
X153693060Y-97243015I-53033J53033D01*
G01*
X153586994Y-97136949D01*
G75*
G02*
X153586994Y-97030883I53033J53033D01*
G01*
X154523910Y-96093967D01*
G75*
G02*
X154629976Y-96093967I53033J-53033D01*
G01*
X154736042Y-96200033D01*
G75*
G02*
X154736042Y-96306099I-53033J-53033D01*
G01*
G37*
G36*
G01*
X154382488Y-95952545D02*
X153445572Y-96889461D01*
G75*
G02*
X153339506Y-96889461I-53033J53033D01*
G01*
X153233440Y-96783395D01*
G75*
G02*
X153233440Y-96677329I53033J53033D01*
G01*
X154170356Y-95740413D01*
G75*
G02*
X154276422Y-95740413I53033J-53033D01*
G01*
X154382488Y-95846479D01*
G75*
G02*
X154382488Y-95952545I-53033J-53033D01*
G01*
G37*
G36*
G01*
X154382488Y-94785819D02*
X154276422Y-94891885D01*
G75*
G02*
X154170356Y-94891885I-53033J53033D01*
G01*
X153233440Y-93954969D01*
G75*
G02*
X153233440Y-93848903I53033J53033D01*
G01*
X153339506Y-93742837D01*
G75*
G02*
X153445572Y-93742837I53033J-53033D01*
G01*
X154382488Y-94679753D01*
G75*
G02*
X154382488Y-94785819I-53033J-53033D01*
G01*
G37*
G36*
G01*
X154736042Y-94432265D02*
X154629976Y-94538331D01*
G75*
G02*
X154523910Y-94538331I-53033J53033D01*
G01*
X153586994Y-93601415D01*
G75*
G02*
X153586994Y-93495349I53033J53033D01*
G01*
X153693060Y-93389283D01*
G75*
G02*
X153799126Y-93389283I53033J-53033D01*
G01*
X154736042Y-94326199D01*
G75*
G02*
X154736042Y-94432265I-53033J-53033D01*
G01*
G37*
G36*
G01*
X155089595Y-94078712D02*
X154983529Y-94184778D01*
G75*
G02*
X154877463Y-94184778I-53033J53033D01*
G01*
X153940547Y-93247862D01*
G75*
G02*
X153940547Y-93141796I53033J53033D01*
G01*
X154046613Y-93035730D01*
G75*
G02*
X154152679Y-93035730I53033J-53033D01*
G01*
X155089595Y-93972646D01*
G75*
G02*
X155089595Y-94078712I-53033J-53033D01*
G01*
G37*
G36*
G01*
X155443149Y-93725158D02*
X155337083Y-93831224D01*
G75*
G02*
X155231017Y-93831224I-53033J53033D01*
G01*
X154294101Y-92894308D01*
G75*
G02*
X154294101Y-92788242I53033J53033D01*
G01*
X154400167Y-92682176D01*
G75*
G02*
X154506233Y-92682176I53033J-53033D01*
G01*
X155443149Y-93619092D01*
G75*
G02*
X155443149Y-93725158I-53033J-53033D01*
G01*
G37*
G36*
G01*
X155796702Y-93371605D02*
X155690636Y-93477671D01*
G75*
G02*
X155584570Y-93477671I-53033J53033D01*
G01*
X154647654Y-92540755D01*
G75*
G02*
X154647654Y-92434689I53033J53033D01*
G01*
X154753720Y-92328623D01*
G75*
G02*
X154859786Y-92328623I53033J-53033D01*
G01*
X155796702Y-93265539D01*
G75*
G02*
X155796702Y-93371605I-53033J-53033D01*
G01*
G37*
G36*
G01*
X156150255Y-93018052D02*
X156044189Y-93124118D01*
G75*
G02*
X155938123Y-93124118I-53033J53033D01*
G01*
X155001207Y-92187202D01*
G75*
G02*
X155001207Y-92081136I53033J53033D01*
G01*
X155107273Y-91975070D01*
G75*
G02*
X155213339Y-91975070I53033J-53033D01*
G01*
X156150255Y-92911986D01*
G75*
G02*
X156150255Y-93018052I-53033J-53033D01*
G01*
G37*
G36*
G01*
X156503809Y-92664498D02*
X156397743Y-92770564D01*
G75*
G02*
X156291677Y-92770564I-53033J53033D01*
G01*
X155354761Y-91833648D01*
G75*
G02*
X155354761Y-91727582I53033J53033D01*
G01*
X155460827Y-91621516D01*
G75*
G02*
X155566893Y-91621516I53033J-53033D01*
G01*
X156503809Y-92558432D01*
G75*
G02*
X156503809Y-92664498I-53033J-53033D01*
G01*
G37*
G36*
G01*
X156857362Y-92310945D02*
X156751296Y-92417011D01*
G75*
G02*
X156645230Y-92417011I-53033J53033D01*
G01*
X155708314Y-91480095D01*
G75*
G02*
X155708314Y-91374029I53033J53033D01*
G01*
X155814380Y-91267963D01*
G75*
G02*
X155920446Y-91267963I53033J-53033D01*
G01*
X156857362Y-92204879D01*
G75*
G02*
X156857362Y-92310945I-53033J-53033D01*
G01*
G37*
G36*
G01*
X157210915Y-91957392D02*
X157104849Y-92063458D01*
G75*
G02*
X156998783Y-92063458I-53033J53033D01*
G01*
X156061867Y-91126542D01*
G75*
G02*
X156061867Y-91020476I53033J53033D01*
G01*
X156167933Y-90914410D01*
G75*
G02*
X156273999Y-90914410I53033J-53033D01*
G01*
X157210915Y-91851326D01*
G75*
G02*
X157210915Y-91957392I-53033J-53033D01*
G01*
G37*
G36*
G01*
X157564469Y-91603838D02*
X157458403Y-91709904D01*
G75*
G02*
X157352337Y-91709904I-53033J53033D01*
G01*
X156415421Y-90772988D01*
G75*
G02*
X156415421Y-90666922I53033J53033D01*
G01*
X156521487Y-90560856D01*
G75*
G02*
X156627553Y-90560856I53033J-53033D01*
G01*
X157564469Y-91497772D01*
G75*
G02*
X157564469Y-91603838I-53033J-53033D01*
G01*
G37*
G36*
G01*
X157918022Y-91250285D02*
X157811956Y-91356351D01*
G75*
G02*
X157705890Y-91356351I-53033J53033D01*
G01*
X156768974Y-90419435D01*
G75*
G02*
X156768974Y-90313369I53033J53033D01*
G01*
X156875040Y-90207303D01*
G75*
G02*
X156981106Y-90207303I53033J-53033D01*
G01*
X157918022Y-91144219D01*
G75*
G02*
X157918022Y-91250285I-53033J-53033D01*
G01*
G37*
G36*
G01*
X158271576Y-90896731D02*
X158165510Y-91002797D01*
G75*
G02*
X158059444Y-91002797I-53033J53033D01*
G01*
X157122528Y-90065881D01*
G75*
G02*
X157122528Y-89959815I53033J53033D01*
G01*
X157228594Y-89853749D01*
G75*
G02*
X157334660Y-89853749I53033J-53033D01*
G01*
X158271576Y-90790665D01*
G75*
G02*
X158271576Y-90896731I-53033J-53033D01*
G01*
G37*
G36*
G01*
X160269152Y-90065881D02*
X159332236Y-91002797D01*
G75*
G02*
X159226170Y-91002797I-53033J53033D01*
G01*
X159120104Y-90896731D01*
G75*
G02*
X159120104Y-90790665I53033J53033D01*
G01*
X160057020Y-89853749D01*
G75*
G02*
X160163086Y-89853749I53033J-53033D01*
G01*
X160269152Y-89959815D01*
G75*
G02*
X160269152Y-90065881I-53033J-53033D01*
G01*
G37*
G36*
G01*
X160622706Y-90419435D02*
X159685790Y-91356351D01*
G75*
G02*
X159579724Y-91356351I-53033J53033D01*
G01*
X159473658Y-91250285D01*
G75*
G02*
X159473658Y-91144219I53033J53033D01*
G01*
X160410574Y-90207303D01*
G75*
G02*
X160516640Y-90207303I53033J-53033D01*
G01*
X160622706Y-90313369D01*
G75*
G02*
X160622706Y-90419435I-53033J-53033D01*
G01*
G37*
G36*
G01*
X160976259Y-90772988D02*
X160039343Y-91709904D01*
G75*
G02*
X159933277Y-91709904I-53033J53033D01*
G01*
X159827211Y-91603838D01*
G75*
G02*
X159827211Y-91497772I53033J53033D01*
G01*
X160764127Y-90560856D01*
G75*
G02*
X160870193Y-90560856I53033J-53033D01*
G01*
X160976259Y-90666922D01*
G75*
G02*
X160976259Y-90772988I-53033J-53033D01*
G01*
G37*
G36*
G01*
X161329813Y-91126542D02*
X160392897Y-92063458D01*
G75*
G02*
X160286831Y-92063458I-53033J53033D01*
G01*
X160180765Y-91957392D01*
G75*
G02*
X160180765Y-91851326I53033J53033D01*
G01*
X161117681Y-90914410D01*
G75*
G02*
X161223747Y-90914410I53033J-53033D01*
G01*
X161329813Y-91020476D01*
G75*
G02*
X161329813Y-91126542I-53033J-53033D01*
G01*
G37*
G36*
G01*
X161683366Y-91480095D02*
X160746450Y-92417011D01*
G75*
G02*
X160640384Y-92417011I-53033J53033D01*
G01*
X160534318Y-92310945D01*
G75*
G02*
X160534318Y-92204879I53033J53033D01*
G01*
X161471234Y-91267963D01*
G75*
G02*
X161577300Y-91267963I53033J-53033D01*
G01*
X161683366Y-91374029D01*
G75*
G02*
X161683366Y-91480095I-53033J-53033D01*
G01*
G37*
G36*
G01*
X162036919Y-91833648D02*
X161100003Y-92770564D01*
G75*
G02*
X160993937Y-92770564I-53033J53033D01*
G01*
X160887871Y-92664498D01*
G75*
G02*
X160887871Y-92558432I53033J53033D01*
G01*
X161824787Y-91621516D01*
G75*
G02*
X161930853Y-91621516I53033J-53033D01*
G01*
X162036919Y-91727582D01*
G75*
G02*
X162036919Y-91833648I-53033J-53033D01*
G01*
G37*
G36*
G01*
X162390473Y-92187202D02*
X161453557Y-93124118D01*
G75*
G02*
X161347491Y-93124118I-53033J53033D01*
G01*
X161241425Y-93018052D01*
G75*
G02*
X161241425Y-92911986I53033J53033D01*
G01*
X162178341Y-91975070D01*
G75*
G02*
X162284407Y-91975070I53033J-53033D01*
G01*
X162390473Y-92081136D01*
G75*
G02*
X162390473Y-92187202I-53033J-53033D01*
G01*
G37*
G36*
G01*
X162744026Y-92540755D02*
X161807110Y-93477671D01*
G75*
G02*
X161701044Y-93477671I-53033J53033D01*
G01*
X161594978Y-93371605D01*
G75*
G02*
X161594978Y-93265539I53033J53033D01*
G01*
X162531894Y-92328623D01*
G75*
G02*
X162637960Y-92328623I53033J-53033D01*
G01*
X162744026Y-92434689D01*
G75*
G02*
X162744026Y-92540755I-53033J-53033D01*
G01*
G37*
G36*
G01*
X163097579Y-92894308D02*
X162160663Y-93831224D01*
G75*
G02*
X162054597Y-93831224I-53033J53033D01*
G01*
X161948531Y-93725158D01*
G75*
G02*
X161948531Y-93619092I53033J53033D01*
G01*
X162885447Y-92682176D01*
G75*
G02*
X162991513Y-92682176I53033J-53033D01*
G01*
X163097579Y-92788242D01*
G75*
G02*
X163097579Y-92894308I-53033J-53033D01*
G01*
G37*
G36*
G01*
X163451133Y-93247862D02*
X162514217Y-94184778D01*
G75*
G02*
X162408151Y-94184778I-53033J53033D01*
G01*
X162302085Y-94078712D01*
G75*
G02*
X162302085Y-93972646I53033J53033D01*
G01*
X163239001Y-93035730D01*
G75*
G02*
X163345067Y-93035730I53033J-53033D01*
G01*
X163451133Y-93141796D01*
G75*
G02*
X163451133Y-93247862I-53033J-53033D01*
G01*
G37*
G36*
G01*
X163804686Y-93601415D02*
X162867770Y-94538331D01*
G75*
G02*
X162761704Y-94538331I-53033J53033D01*
G01*
X162655638Y-94432265D01*
G75*
G02*
X162655638Y-94326199I53033J53033D01*
G01*
X163592554Y-93389283D01*
G75*
G02*
X163698620Y-93389283I53033J-53033D01*
G01*
X163804686Y-93495349D01*
G75*
G02*
X163804686Y-93601415I-53033J-53033D01*
G01*
G37*
G36*
G01*
X164158240Y-93954969D02*
X163221324Y-94891885D01*
G75*
G02*
X163115258Y-94891885I-53033J53033D01*
G01*
X163009192Y-94785819D01*
G75*
G02*
X163009192Y-94679753I53033J53033D01*
G01*
X163946108Y-93742837D01*
G75*
G02*
X164052174Y-93742837I53033J-53033D01*
G01*
X164158240Y-93848903D01*
G75*
G02*
X164158240Y-93954969I-53033J-53033D01*
G01*
G37*
M02*
