G04 #@! TF.GenerationSoftware,KiCad,Pcbnew,5.1.9*
G04 #@! TF.CreationDate,2021-01-24T20:38:43+01:00*
G04 #@! TF.ProjectId,Shoto,53686f74-6f2e-46b6-9963-61645f706362,rev?*
G04 #@! TF.SameCoordinates,Original*
G04 #@! TF.FileFunction,Legend,Bot*
G04 #@! TF.FilePolarity,Positive*
%FSLAX46Y46*%
G04 Gerber Fmt 4.6, Leading zero omitted, Abs format (unit mm)*
G04 Created by KiCad (PCBNEW 5.1.9) date 2021-01-24 20:38:43*
%MOMM*%
%LPD*%
G01*
G04 APERTURE LIST*
%ADD10C,0.150000*%
%ADD11C,0.120000*%
%ADD12C,0.127000*%
%ADD13C,0.304800*%
G04 APERTURE END LIST*
D10*
X176742000Y-94135000D02*
X180337000Y-94135000D01*
X176742000Y-89920000D02*
X176742000Y-94135000D01*
X187742000Y-88250000D02*
X187742000Y-92460000D01*
X178417000Y-88245000D02*
X187742000Y-88245000D01*
X182012000Y-92460000D02*
X187742000Y-92460000D01*
X180337000Y-94135000D02*
G75*
G02*
X182012000Y-92460000I1675000J0D01*
G01*
X176742000Y-89920000D02*
G75*
G02*
X178417000Y-88245000I1675000J0D01*
G01*
X227012000Y-95865000D02*
X223417000Y-95865000D01*
X227012000Y-100080000D02*
X227012000Y-95865000D01*
X216012000Y-101750000D02*
X216012000Y-97540000D01*
X225337000Y-101755000D02*
X216012000Y-101755000D01*
X221742000Y-97540000D02*
X216012000Y-97540000D01*
X223417000Y-95865000D02*
G75*
G02*
X221742000Y-97540000I-1675000J0D01*
G01*
X227012000Y-100080000D02*
G75*
G02*
X225337000Y-101755000I-1675000J0D01*
G01*
X250762000Y-95865000D02*
X247167000Y-95865000D01*
X250762000Y-100080000D02*
X250762000Y-95865000D01*
X239762000Y-101750000D02*
X239762000Y-97540000D01*
X249087000Y-101755000D02*
X239762000Y-101755000D01*
X245492000Y-97540000D02*
X239762000Y-97540000D01*
X247167000Y-95865000D02*
G75*
G02*
X245492000Y-97540000I-1675000J0D01*
G01*
X250762000Y-100080000D02*
G75*
G02*
X249087000Y-101755000I-1675000J0D01*
G01*
X274512000Y-95865000D02*
X270917000Y-95865000D01*
X274512000Y-100080000D02*
X274512000Y-95865000D01*
X263512000Y-101750000D02*
X263512000Y-97540000D01*
X272837000Y-101755000D02*
X263512000Y-101755000D01*
X269242000Y-97540000D02*
X263512000Y-97540000D01*
X270917000Y-95865000D02*
G75*
G02*
X269242000Y-97540000I-1675000J0D01*
G01*
X274512000Y-100080000D02*
G75*
G02*
X272837000Y-101755000I-1675000J0D01*
G01*
X291135000Y-76865000D02*
X287540000Y-76865000D01*
X291135000Y-81080000D02*
X291135000Y-76865000D01*
X280135000Y-82750000D02*
X280135000Y-78540000D01*
X289460000Y-82755000D02*
X280135000Y-82755000D01*
X285865000Y-78540000D02*
X280135000Y-78540000D01*
X287540000Y-76865000D02*
G75*
G02*
X285865000Y-78540000I-1675000J0D01*
G01*
X291135000Y-81080000D02*
G75*
G02*
X289460000Y-82755000I-1675000J0D01*
G01*
X272135000Y-76865000D02*
X268540000Y-76865000D01*
X272135000Y-81080000D02*
X272135000Y-76865000D01*
X261135000Y-82750000D02*
X261135000Y-78540000D01*
X270460000Y-82755000D02*
X261135000Y-82755000D01*
X266865000Y-78540000D02*
X261135000Y-78540000D01*
X268540000Y-76865000D02*
G75*
G02*
X266865000Y-78540000I-1675000J0D01*
G01*
X272135000Y-81080000D02*
G75*
G02*
X270460000Y-82755000I-1675000J0D01*
G01*
X253135000Y-76865000D02*
X249540000Y-76865000D01*
X253135000Y-81080000D02*
X253135000Y-76865000D01*
X242135000Y-82750000D02*
X242135000Y-78540000D01*
X251460000Y-82755000D02*
X242135000Y-82755000D01*
X247865000Y-78540000D02*
X242135000Y-78540000D01*
X249540000Y-76865000D02*
G75*
G02*
X247865000Y-78540000I-1675000J0D01*
G01*
X253135000Y-81080000D02*
G75*
G02*
X251460000Y-82755000I-1675000J0D01*
G01*
X234135000Y-76865000D02*
X230540000Y-76865000D01*
X234135000Y-81080000D02*
X234135000Y-76865000D01*
X223135000Y-82750000D02*
X223135000Y-78540000D01*
X232460000Y-82755000D02*
X223135000Y-82755000D01*
X228865000Y-78540000D02*
X223135000Y-78540000D01*
X230540000Y-76865000D02*
G75*
G02*
X228865000Y-78540000I-1675000J0D01*
G01*
X234135000Y-81080000D02*
G75*
G02*
X232460000Y-82755000I-1675000J0D01*
G01*
X215135000Y-76865000D02*
X211540000Y-76865000D01*
X215135000Y-81080000D02*
X215135000Y-76865000D01*
X204135000Y-82750000D02*
X204135000Y-78540000D01*
X213460000Y-82755000D02*
X204135000Y-82755000D01*
X209865000Y-78540000D02*
X204135000Y-78540000D01*
X211540000Y-76865000D02*
G75*
G02*
X209865000Y-78540000I-1675000J0D01*
G01*
X215135000Y-81080000D02*
G75*
G02*
X213460000Y-82755000I-1675000J0D01*
G01*
X196135000Y-76865000D02*
X192540000Y-76865000D01*
X196135000Y-81080000D02*
X196135000Y-76865000D01*
X185135000Y-82750000D02*
X185135000Y-78540000D01*
X194460000Y-82755000D02*
X185135000Y-82755000D01*
X190865000Y-78540000D02*
X185135000Y-78540000D01*
X192540000Y-76865000D02*
G75*
G02*
X190865000Y-78540000I-1675000J0D01*
G01*
X196135000Y-81080000D02*
G75*
G02*
X194460000Y-82755000I-1675000J0D01*
G01*
X177135000Y-76865000D02*
X173540000Y-76865000D01*
X177135000Y-81080000D02*
X177135000Y-76865000D01*
X166135000Y-82750000D02*
X166135000Y-78540000D01*
X175460000Y-82755000D02*
X166135000Y-82755000D01*
X171865000Y-78540000D02*
X166135000Y-78540000D01*
X173540000Y-76865000D02*
G75*
G02*
X171865000Y-78540000I-1675000J0D01*
G01*
X177135000Y-81080000D02*
G75*
G02*
X175460000Y-82755000I-1675000J0D01*
G01*
X60762000Y-95865000D02*
X57167000Y-95865000D01*
X60762000Y-100080000D02*
X60762000Y-95865000D01*
X49762000Y-101750000D02*
X49762000Y-97540000D01*
X59087000Y-101755000D02*
X49762000Y-101755000D01*
X55492000Y-97540000D02*
X49762000Y-97540000D01*
X57167000Y-95865000D02*
G75*
G02*
X55492000Y-97540000I-1675000J0D01*
G01*
X60762000Y-100080000D02*
G75*
G02*
X59087000Y-101755000I-1675000J0D01*
G01*
X84512000Y-95865000D02*
X80917000Y-95865000D01*
X84512000Y-100080000D02*
X84512000Y-95865000D01*
X73512000Y-101750000D02*
X73512000Y-97540000D01*
X82837000Y-101755000D02*
X73512000Y-101755000D01*
X79242000Y-97540000D02*
X73512000Y-97540000D01*
X80917000Y-95865000D02*
G75*
G02*
X79242000Y-97540000I-1675000J0D01*
G01*
X84512000Y-100080000D02*
G75*
G02*
X82837000Y-101755000I-1675000J0D01*
G01*
X108262000Y-95865000D02*
X104667000Y-95865000D01*
X108262000Y-100080000D02*
X108262000Y-95865000D01*
X97262000Y-101750000D02*
X97262000Y-97540000D01*
X106587000Y-101755000D02*
X97262000Y-101755000D01*
X102992000Y-97540000D02*
X97262000Y-97540000D01*
X104667000Y-95865000D02*
G75*
G02*
X102992000Y-97540000I-1675000J0D01*
G01*
X108262000Y-100080000D02*
G75*
G02*
X106587000Y-101755000I-1675000J0D01*
G01*
X129242000Y-94135000D02*
X132837000Y-94135000D01*
X129242000Y-89920000D02*
X129242000Y-94135000D01*
X140242000Y-88250000D02*
X140242000Y-92460000D01*
X130917000Y-88245000D02*
X140242000Y-88245000D01*
X134512000Y-92460000D02*
X140242000Y-92460000D01*
X132837000Y-94135000D02*
G75*
G02*
X134512000Y-92460000I1675000J0D01*
G01*
X129242000Y-89920000D02*
G75*
G02*
X130917000Y-88245000I1675000J0D01*
G01*
X158135000Y-76865000D02*
X154540000Y-76865000D01*
X158135000Y-81080000D02*
X158135000Y-76865000D01*
X147135000Y-82750000D02*
X147135000Y-78540000D01*
X156460000Y-82755000D02*
X147135000Y-82755000D01*
X152865000Y-78540000D02*
X147135000Y-78540000D01*
X154540000Y-76865000D02*
G75*
G02*
X152865000Y-78540000I-1675000J0D01*
G01*
X158135000Y-81080000D02*
G75*
G02*
X156460000Y-82755000I-1675000J0D01*
G01*
X139135000Y-76865000D02*
X135540000Y-76865000D01*
X139135000Y-81080000D02*
X139135000Y-76865000D01*
X128135000Y-82750000D02*
X128135000Y-78540000D01*
X137460000Y-82755000D02*
X128135000Y-82755000D01*
X133865000Y-78540000D02*
X128135000Y-78540000D01*
X135540000Y-76865000D02*
G75*
G02*
X133865000Y-78540000I-1675000J0D01*
G01*
X139135000Y-81080000D02*
G75*
G02*
X137460000Y-82755000I-1675000J0D01*
G01*
X120135000Y-76865000D02*
X116540000Y-76865000D01*
X120135000Y-81080000D02*
X120135000Y-76865000D01*
X109135000Y-82750000D02*
X109135000Y-78540000D01*
X118460000Y-82755000D02*
X109135000Y-82755000D01*
X114865000Y-78540000D02*
X109135000Y-78540000D01*
X116540000Y-76865000D02*
G75*
G02*
X114865000Y-78540000I-1675000J0D01*
G01*
X120135000Y-81080000D02*
G75*
G02*
X118460000Y-82755000I-1675000J0D01*
G01*
X101135000Y-76865000D02*
X97540000Y-76865000D01*
X101135000Y-81080000D02*
X101135000Y-76865000D01*
X90135000Y-82750000D02*
X90135000Y-78540000D01*
X99460000Y-82755000D02*
X90135000Y-82755000D01*
X95865000Y-78540000D02*
X90135000Y-78540000D01*
X97540000Y-76865000D02*
G75*
G02*
X95865000Y-78540000I-1675000J0D01*
G01*
X101135000Y-81080000D02*
G75*
G02*
X99460000Y-82755000I-1675000J0D01*
G01*
X82135000Y-76865000D02*
X78540000Y-76865000D01*
X82135000Y-81080000D02*
X82135000Y-76865000D01*
X71135000Y-82750000D02*
X71135000Y-78540000D01*
X80460000Y-82755000D02*
X71135000Y-82755000D01*
X76865000Y-78540000D02*
X71135000Y-78540000D01*
X78540000Y-76865000D02*
G75*
G02*
X76865000Y-78540000I-1675000J0D01*
G01*
X82135000Y-81080000D02*
G75*
G02*
X80460000Y-82755000I-1675000J0D01*
G01*
X63135000Y-76865000D02*
X59540000Y-76865000D01*
X63135000Y-81080000D02*
X63135000Y-76865000D01*
X52135000Y-82750000D02*
X52135000Y-78540000D01*
X61460000Y-82755000D02*
X52135000Y-82755000D01*
X57865000Y-78540000D02*
X52135000Y-78540000D01*
X59540000Y-76865000D02*
G75*
G02*
X57865000Y-78540000I-1675000J0D01*
G01*
X63135000Y-81080000D02*
G75*
G02*
X61460000Y-82755000I-1675000J0D01*
G01*
X44135000Y-76865000D02*
X40540000Y-76865000D01*
X44135000Y-81080000D02*
X44135000Y-76865000D01*
X33135000Y-82750000D02*
X33135000Y-78540000D01*
X42460000Y-82755000D02*
X33135000Y-82755000D01*
X38865000Y-78540000D02*
X33135000Y-78540000D01*
X40540000Y-76865000D02*
G75*
G02*
X38865000Y-78540000I-1675000J0D01*
G01*
X44135000Y-81080000D02*
G75*
G02*
X42460000Y-82755000I-1675000J0D01*
G01*
X48885000Y-57865000D02*
X45290000Y-57865000D01*
X48885000Y-62080000D02*
X48885000Y-57865000D01*
X37885000Y-63750000D02*
X37885000Y-59540000D01*
X47210000Y-63755000D02*
X37885000Y-63755000D01*
X43615000Y-59540000D02*
X37885000Y-59540000D01*
X45290000Y-57865000D02*
G75*
G02*
X43615000Y-59540000I-1675000J0D01*
G01*
X48885000Y-62080000D02*
G75*
G02*
X47210000Y-63755000I-1675000J0D01*
G01*
X67885000Y-57865000D02*
X64290000Y-57865000D01*
X67885000Y-62080000D02*
X67885000Y-57865000D01*
X56885000Y-63750000D02*
X56885000Y-59540000D01*
X66210000Y-63755000D02*
X56885000Y-63755000D01*
X62615000Y-59540000D02*
X56885000Y-59540000D01*
X64290000Y-57865000D02*
G75*
G02*
X62615000Y-59540000I-1675000J0D01*
G01*
X67885000Y-62080000D02*
G75*
G02*
X66210000Y-63755000I-1675000J0D01*
G01*
X86885000Y-57865000D02*
X83290000Y-57865000D01*
X86885000Y-62080000D02*
X86885000Y-57865000D01*
X75885000Y-63750000D02*
X75885000Y-59540000D01*
X85210000Y-63755000D02*
X75885000Y-63755000D01*
X81615000Y-59540000D02*
X75885000Y-59540000D01*
X83290000Y-57865000D02*
G75*
G02*
X81615000Y-59540000I-1675000J0D01*
G01*
X86885000Y-62080000D02*
G75*
G02*
X85210000Y-63755000I-1675000J0D01*
G01*
X105885000Y-57865000D02*
X102290000Y-57865000D01*
X105885000Y-62080000D02*
X105885000Y-57865000D01*
X94885000Y-63750000D02*
X94885000Y-59540000D01*
X104210000Y-63755000D02*
X94885000Y-63755000D01*
X100615000Y-59540000D02*
X94885000Y-59540000D01*
X102290000Y-57865000D02*
G75*
G02*
X100615000Y-59540000I-1675000J0D01*
G01*
X105885000Y-62080000D02*
G75*
G02*
X104210000Y-63755000I-1675000J0D01*
G01*
X124885000Y-57865000D02*
X121290000Y-57865000D01*
X124885000Y-62080000D02*
X124885000Y-57865000D01*
X113885000Y-63750000D02*
X113885000Y-59540000D01*
X123210000Y-63755000D02*
X113885000Y-63755000D01*
X119615000Y-59540000D02*
X113885000Y-59540000D01*
X121290000Y-57865000D02*
G75*
G02*
X119615000Y-59540000I-1675000J0D01*
G01*
X124885000Y-62080000D02*
G75*
G02*
X123210000Y-63755000I-1675000J0D01*
G01*
X143885000Y-57865000D02*
X140290000Y-57865000D01*
X143885000Y-62080000D02*
X143885000Y-57865000D01*
X132885000Y-63750000D02*
X132885000Y-59540000D01*
X142210000Y-63755000D02*
X132885000Y-63755000D01*
X138615000Y-59540000D02*
X132885000Y-59540000D01*
X140290000Y-57865000D02*
G75*
G02*
X138615000Y-59540000I-1675000J0D01*
G01*
X143885000Y-62080000D02*
G75*
G02*
X142210000Y-63755000I-1675000J0D01*
G01*
X167635000Y-57865000D02*
X164040000Y-57865000D01*
X167635000Y-62080000D02*
X167635000Y-57865000D01*
X156635000Y-63750000D02*
X156635000Y-59540000D01*
X165960000Y-63755000D02*
X156635000Y-63755000D01*
X162365000Y-59540000D02*
X156635000Y-59540000D01*
X164040000Y-57865000D02*
G75*
G02*
X162365000Y-59540000I-1675000J0D01*
G01*
X167635000Y-62080000D02*
G75*
G02*
X165960000Y-63755000I-1675000J0D01*
G01*
X191385000Y-57865000D02*
X187790000Y-57865000D01*
X191385000Y-62080000D02*
X191385000Y-57865000D01*
X180385000Y-63750000D02*
X180385000Y-59540000D01*
X189710000Y-63755000D02*
X180385000Y-63755000D01*
X186115000Y-59540000D02*
X180385000Y-59540000D01*
X187790000Y-57865000D02*
G75*
G02*
X186115000Y-59540000I-1675000J0D01*
G01*
X191385000Y-62080000D02*
G75*
G02*
X189710000Y-63755000I-1675000J0D01*
G01*
X210385000Y-57865000D02*
X206790000Y-57865000D01*
X210385000Y-62080000D02*
X210385000Y-57865000D01*
X199385000Y-63750000D02*
X199385000Y-59540000D01*
X208710000Y-63755000D02*
X199385000Y-63755000D01*
X205115000Y-59540000D02*
X199385000Y-59540000D01*
X206790000Y-57865000D02*
G75*
G02*
X205115000Y-59540000I-1675000J0D01*
G01*
X210385000Y-62080000D02*
G75*
G02*
X208710000Y-63755000I-1675000J0D01*
G01*
X229385000Y-57865000D02*
X225790000Y-57865000D01*
X229385000Y-62080000D02*
X229385000Y-57865000D01*
X218385000Y-63750000D02*
X218385000Y-59540000D01*
X227710000Y-63755000D02*
X218385000Y-63755000D01*
X224115000Y-59540000D02*
X218385000Y-59540000D01*
X225790000Y-57865000D02*
G75*
G02*
X224115000Y-59540000I-1675000J0D01*
G01*
X229385000Y-62080000D02*
G75*
G02*
X227710000Y-63755000I-1675000J0D01*
G01*
X248385000Y-57865000D02*
X244790000Y-57865000D01*
X248385000Y-62080000D02*
X248385000Y-57865000D01*
X237385000Y-63750000D02*
X237385000Y-59540000D01*
X246710000Y-63755000D02*
X237385000Y-63755000D01*
X243115000Y-59540000D02*
X237385000Y-59540000D01*
X244790000Y-57865000D02*
G75*
G02*
X243115000Y-59540000I-1675000J0D01*
G01*
X248385000Y-62080000D02*
G75*
G02*
X246710000Y-63755000I-1675000J0D01*
G01*
X267385000Y-57865000D02*
X263790000Y-57865000D01*
X267385000Y-62080000D02*
X267385000Y-57865000D01*
X256385000Y-63750000D02*
X256385000Y-59540000D01*
X265710000Y-63755000D02*
X256385000Y-63755000D01*
X262115000Y-59540000D02*
X256385000Y-59540000D01*
X263790000Y-57865000D02*
G75*
G02*
X262115000Y-59540000I-1675000J0D01*
G01*
X267385000Y-62080000D02*
G75*
G02*
X265710000Y-63755000I-1675000J0D01*
G01*
X286385000Y-57865000D02*
X282790000Y-57865000D01*
X286385000Y-62080000D02*
X286385000Y-57865000D01*
X275385000Y-63750000D02*
X275385000Y-59540000D01*
X284710000Y-63755000D02*
X275385000Y-63755000D01*
X281115000Y-59540000D02*
X275385000Y-59540000D01*
X282790000Y-57865000D02*
G75*
G02*
X281115000Y-59540000I-1675000J0D01*
G01*
X286385000Y-62080000D02*
G75*
G02*
X284710000Y-63755000I-1675000J0D01*
G01*
X281635000Y-38865000D02*
X278040000Y-38865000D01*
X281635000Y-43080000D02*
X281635000Y-38865000D01*
X270635000Y-44750000D02*
X270635000Y-40540000D01*
X279960000Y-44755000D02*
X270635000Y-44755000D01*
X276365000Y-40540000D02*
X270635000Y-40540000D01*
X278040000Y-38865000D02*
G75*
G02*
X276365000Y-40540000I-1675000J0D01*
G01*
X281635000Y-43080000D02*
G75*
G02*
X279960000Y-44755000I-1675000J0D01*
G01*
X262635000Y-38865000D02*
X259040000Y-38865000D01*
X262635000Y-43080000D02*
X262635000Y-38865000D01*
X251635000Y-44750000D02*
X251635000Y-40540000D01*
X260960000Y-44755000D02*
X251635000Y-44755000D01*
X257365000Y-40540000D02*
X251635000Y-40540000D01*
X259040000Y-38865000D02*
G75*
G02*
X257365000Y-40540000I-1675000J0D01*
G01*
X262635000Y-43080000D02*
G75*
G02*
X260960000Y-44755000I-1675000J0D01*
G01*
X243635000Y-38865000D02*
X240040000Y-38865000D01*
X243635000Y-43080000D02*
X243635000Y-38865000D01*
X232635000Y-44750000D02*
X232635000Y-40540000D01*
X241960000Y-44755000D02*
X232635000Y-44755000D01*
X238365000Y-40540000D02*
X232635000Y-40540000D01*
X240040000Y-38865000D02*
G75*
G02*
X238365000Y-40540000I-1675000J0D01*
G01*
X243635000Y-43080000D02*
G75*
G02*
X241960000Y-44755000I-1675000J0D01*
G01*
X224635000Y-38865000D02*
X221040000Y-38865000D01*
X224635000Y-43080000D02*
X224635000Y-38865000D01*
X213635000Y-44750000D02*
X213635000Y-40540000D01*
X222960000Y-44755000D02*
X213635000Y-44755000D01*
X219365000Y-40540000D02*
X213635000Y-40540000D01*
X221040000Y-38865000D02*
G75*
G02*
X219365000Y-40540000I-1675000J0D01*
G01*
X224635000Y-43080000D02*
G75*
G02*
X222960000Y-44755000I-1675000J0D01*
G01*
X53635000Y-38865000D02*
X50040000Y-38865000D01*
X53635000Y-43080000D02*
X53635000Y-38865000D01*
X42635000Y-44750000D02*
X42635000Y-40540000D01*
X51960000Y-44755000D02*
X42635000Y-44755000D01*
X48365000Y-40540000D02*
X42635000Y-40540000D01*
X50040000Y-38865000D02*
G75*
G02*
X48365000Y-40540000I-1675000J0D01*
G01*
X53635000Y-43080000D02*
G75*
G02*
X51960000Y-44755000I-1675000J0D01*
G01*
X72635000Y-38865000D02*
X69040000Y-38865000D01*
X72635000Y-43080000D02*
X72635000Y-38865000D01*
X61635000Y-44750000D02*
X61635000Y-40540000D01*
X70960000Y-44755000D02*
X61635000Y-44755000D01*
X67365000Y-40540000D02*
X61635000Y-40540000D01*
X69040000Y-38865000D02*
G75*
G02*
X67365000Y-40540000I-1675000J0D01*
G01*
X72635000Y-43080000D02*
G75*
G02*
X70960000Y-44755000I-1675000J0D01*
G01*
X91635000Y-38865000D02*
X88040000Y-38865000D01*
X91635000Y-43080000D02*
X91635000Y-38865000D01*
X80635000Y-44750000D02*
X80635000Y-40540000D01*
X89960000Y-44755000D02*
X80635000Y-44755000D01*
X86365000Y-40540000D02*
X80635000Y-40540000D01*
X88040000Y-38865000D02*
G75*
G02*
X86365000Y-40540000I-1675000J0D01*
G01*
X91635000Y-43080000D02*
G75*
G02*
X89960000Y-44755000I-1675000J0D01*
G01*
X110635000Y-38865000D02*
X107040000Y-38865000D01*
X110635000Y-43080000D02*
X110635000Y-38865000D01*
X99635000Y-44750000D02*
X99635000Y-40540000D01*
X108960000Y-44755000D02*
X99635000Y-44755000D01*
X105365000Y-40540000D02*
X99635000Y-40540000D01*
X107040000Y-38865000D02*
G75*
G02*
X105365000Y-40540000I-1675000J0D01*
G01*
X110635000Y-43080000D02*
G75*
G02*
X108960000Y-44755000I-1675000J0D01*
G01*
X129635000Y-38865000D02*
X126040000Y-38865000D01*
X129635000Y-43080000D02*
X129635000Y-38865000D01*
X118635000Y-44750000D02*
X118635000Y-40540000D01*
X127960000Y-44755000D02*
X118635000Y-44755000D01*
X124365000Y-40540000D02*
X118635000Y-40540000D01*
X126040000Y-38865000D02*
G75*
G02*
X124365000Y-40540000I-1675000J0D01*
G01*
X129635000Y-43080000D02*
G75*
G02*
X127960000Y-44755000I-1675000J0D01*
G01*
X148635000Y-38865000D02*
X145040000Y-38865000D01*
X148635000Y-43080000D02*
X148635000Y-38865000D01*
X137635000Y-44750000D02*
X137635000Y-40540000D01*
X146960000Y-44755000D02*
X137635000Y-44755000D01*
X143365000Y-40540000D02*
X137635000Y-40540000D01*
X145040000Y-38865000D02*
G75*
G02*
X143365000Y-40540000I-1675000J0D01*
G01*
X148635000Y-43080000D02*
G75*
G02*
X146960000Y-44755000I-1675000J0D01*
G01*
X167635000Y-38865000D02*
X164040000Y-38865000D01*
X167635000Y-43080000D02*
X167635000Y-38865000D01*
X156635000Y-44750000D02*
X156635000Y-40540000D01*
X165960000Y-44755000D02*
X156635000Y-44755000D01*
X162365000Y-40540000D02*
X156635000Y-40540000D01*
X164040000Y-38865000D02*
G75*
G02*
X162365000Y-40540000I-1675000J0D01*
G01*
X167635000Y-43080000D02*
G75*
G02*
X165960000Y-44755000I-1675000J0D01*
G01*
X186635000Y-38865000D02*
X183040000Y-38865000D01*
X186635000Y-43080000D02*
X186635000Y-38865000D01*
X175635000Y-44750000D02*
X175635000Y-40540000D01*
X184960000Y-44755000D02*
X175635000Y-44755000D01*
X181365000Y-40540000D02*
X175635000Y-40540000D01*
X183040000Y-38865000D02*
G75*
G02*
X181365000Y-40540000I-1675000J0D01*
G01*
X186635000Y-43080000D02*
G75*
G02*
X184960000Y-44755000I-1675000J0D01*
G01*
X205635000Y-38865000D02*
X202040000Y-38865000D01*
X205635000Y-43080000D02*
X205635000Y-38865000D01*
X194635000Y-44750000D02*
X194635000Y-40540000D01*
X203960000Y-44755000D02*
X194635000Y-44755000D01*
X200365000Y-40540000D02*
X194635000Y-40540000D01*
X202040000Y-38865000D02*
G75*
G02*
X200365000Y-40540000I-1675000J0D01*
G01*
X205635000Y-43080000D02*
G75*
G02*
X203960000Y-44755000I-1675000J0D01*
G01*
D11*
X149505800Y-49973160D02*
X149505800Y-47973160D01*
X149505800Y-47973160D02*
X153405800Y-47973160D01*
X149505800Y-49973160D02*
X153405800Y-49973160D01*
X87731800Y-34903660D02*
X85731800Y-34903660D01*
X85731800Y-34903660D02*
X85731800Y-31003660D01*
X87731800Y-34903660D02*
X87731800Y-31003660D01*
X83091300Y-33255724D02*
X83091300Y-32051596D01*
X84911300Y-33255724D02*
X84911300Y-32051596D01*
X76773300Y-38010160D02*
X74323300Y-38010160D01*
X74973300Y-34790160D02*
X76773300Y-34790160D01*
D12*
X277114400Y-72531660D02*
X277114400Y-71134660D01*
X274117200Y-72531660D02*
X277114400Y-72531660D01*
X274117200Y-71134660D02*
X274117200Y-72531660D01*
X277114400Y-71134660D02*
X274117200Y-71134660D01*
X275615800Y-71134660D02*
X275615800Y-70474260D01*
X276568300Y-72531660D02*
X276568300Y-73192060D01*
X274663300Y-72531660D02*
X274663300Y-73192060D01*
D11*
X170238800Y-53822660D02*
X172738800Y-53822660D01*
X168738800Y-52072660D02*
X168738800Y-50072660D01*
X170238800Y-48322660D02*
X172738800Y-48322660D01*
X174238800Y-52072660D02*
X174238800Y-50072660D01*
X169788800Y-53372660D02*
X170238800Y-53822660D01*
X173188800Y-53372660D02*
X172738800Y-53822660D01*
X173188800Y-48772660D02*
X172738800Y-48322660D01*
X169788800Y-48772660D02*
X170238800Y-48322660D01*
X71197200Y-25179600D02*
X71197200Y-23279600D01*
X71197200Y-29079600D02*
X71197200Y-27079600D01*
X80597200Y-25179600D02*
X80597200Y-23279600D01*
X80597200Y-29079600D02*
X80597200Y-27079600D01*
X71197200Y-23279600D02*
X80597200Y-23279600D01*
X65047736Y-32801660D02*
X66251864Y-32801660D01*
X65047736Y-30981660D02*
X66251864Y-30981660D01*
D12*
X57958680Y-43682340D02*
X57958680Y-43021940D01*
X56053680Y-43682340D02*
X56053680Y-43021940D01*
X57006180Y-45079340D02*
X57006180Y-45739740D01*
X55507580Y-45079340D02*
X58504780Y-45079340D01*
X58504780Y-45079340D02*
X58504780Y-43682340D01*
X58504780Y-43682340D02*
X55507580Y-43682340D01*
X55507580Y-43682340D02*
X55507580Y-45079340D01*
X95958680Y-43682340D02*
X95958680Y-43021940D01*
X94053680Y-43682340D02*
X94053680Y-43021940D01*
X95006180Y-45079340D02*
X95006180Y-45739740D01*
X93507580Y-45079340D02*
X96504780Y-45079340D01*
X96504780Y-45079340D02*
X96504780Y-43682340D01*
X96504780Y-43682340D02*
X93507580Y-43682340D01*
X93507580Y-43682340D02*
X93507580Y-45079340D01*
X133958680Y-43682340D02*
X133958680Y-43021940D01*
X132053680Y-43682340D02*
X132053680Y-43021940D01*
X133006180Y-45079340D02*
X133006180Y-45739740D01*
X131507580Y-45079340D02*
X134504780Y-45079340D01*
X134504780Y-45079340D02*
X134504780Y-43682340D01*
X134504780Y-43682340D02*
X131507580Y-43682340D01*
X131507580Y-43682340D02*
X131507580Y-45079340D01*
X190958680Y-43682340D02*
X190958680Y-43021940D01*
X189053680Y-43682340D02*
X189053680Y-43021940D01*
X190006180Y-45079340D02*
X190006180Y-45739740D01*
X188507580Y-45079340D02*
X191504780Y-45079340D01*
X191504780Y-45079340D02*
X191504780Y-43682340D01*
X191504780Y-43682340D02*
X188507580Y-43682340D01*
X188507580Y-43682340D02*
X188507580Y-45079340D01*
X228958680Y-43682340D02*
X228958680Y-43021940D01*
X227053680Y-43682340D02*
X227053680Y-43021940D01*
X228006180Y-45079340D02*
X228006180Y-45739740D01*
X226507580Y-45079340D02*
X229504780Y-45079340D01*
X229504780Y-45079340D02*
X229504780Y-43682340D01*
X229504780Y-43682340D02*
X226507580Y-43682340D01*
X226507580Y-43682340D02*
X226507580Y-45079340D01*
X266958680Y-43682340D02*
X266958680Y-43021940D01*
X265053680Y-43682340D02*
X265053680Y-43021940D01*
X266006180Y-45079340D02*
X266006180Y-45739740D01*
X264507580Y-45079340D02*
X267504780Y-45079340D01*
X267504780Y-45079340D02*
X267504780Y-43682340D01*
X267504780Y-43682340D02*
X264507580Y-43682340D01*
X264507580Y-43682340D02*
X264507580Y-45079340D01*
X53140300Y-64276660D02*
X53140300Y-63616260D01*
X51235300Y-64276660D02*
X51235300Y-63616260D01*
X52187800Y-65673660D02*
X52187800Y-66334060D01*
X50689200Y-65673660D02*
X53686400Y-65673660D01*
X53686400Y-65673660D02*
X53686400Y-64276660D01*
X53686400Y-64276660D02*
X50689200Y-64276660D01*
X50689200Y-64276660D02*
X50689200Y-65673660D01*
X91140300Y-64276660D02*
X91140300Y-63616260D01*
X89235300Y-64276660D02*
X89235300Y-63616260D01*
X90187800Y-65673660D02*
X90187800Y-66334060D01*
X88689200Y-65673660D02*
X91686400Y-65673660D01*
X91686400Y-65673660D02*
X91686400Y-64276660D01*
X91686400Y-64276660D02*
X88689200Y-64276660D01*
X88689200Y-64276660D02*
X88689200Y-65673660D01*
X129140300Y-64276660D02*
X129140300Y-63616260D01*
X127235300Y-64276660D02*
X127235300Y-63616260D01*
X128187800Y-65673660D02*
X128187800Y-66334060D01*
X126689200Y-65673660D02*
X129686400Y-65673660D01*
X129686400Y-65673660D02*
X129686400Y-64276660D01*
X129686400Y-64276660D02*
X126689200Y-64276660D01*
X126689200Y-64276660D02*
X126689200Y-65673660D01*
X195640300Y-64276660D02*
X195640300Y-63616260D01*
X193735300Y-64276660D02*
X193735300Y-63616260D01*
X194687800Y-65673660D02*
X194687800Y-66334060D01*
X193189200Y-65673660D02*
X196186400Y-65673660D01*
X196186400Y-65673660D02*
X196186400Y-64276660D01*
X196186400Y-64276660D02*
X193189200Y-64276660D01*
X193189200Y-64276660D02*
X193189200Y-65673660D01*
X233640300Y-64276660D02*
X233640300Y-63616260D01*
X231735300Y-64276660D02*
X231735300Y-63616260D01*
X232687800Y-65673660D02*
X232687800Y-66334060D01*
X231189200Y-65673660D02*
X234186400Y-65673660D01*
X234186400Y-65673660D02*
X234186400Y-64276660D01*
X234186400Y-64276660D02*
X231189200Y-64276660D01*
X231189200Y-64276660D02*
X231189200Y-65673660D01*
X271640300Y-64276660D02*
X271640300Y-63616260D01*
X269735300Y-64276660D02*
X269735300Y-63616260D01*
X270687800Y-65673660D02*
X270687800Y-66334060D01*
X269189200Y-65673660D02*
X272186400Y-65673660D01*
X272186400Y-65673660D02*
X272186400Y-64276660D01*
X272186400Y-64276660D02*
X269189200Y-64276660D01*
X269189200Y-64276660D02*
X269189200Y-65673660D01*
X46663300Y-72531660D02*
X46663300Y-73192060D01*
X48568300Y-72531660D02*
X48568300Y-73192060D01*
X47615800Y-71134660D02*
X47615800Y-70474260D01*
X49114400Y-71134660D02*
X46117200Y-71134660D01*
X46117200Y-71134660D02*
X46117200Y-72531660D01*
X46117200Y-72531660D02*
X49114400Y-72531660D01*
X49114400Y-72531660D02*
X49114400Y-71134660D01*
X84663300Y-72531660D02*
X84663300Y-73192060D01*
X86568300Y-72531660D02*
X86568300Y-73192060D01*
X85615800Y-71134660D02*
X85615800Y-70474260D01*
X87114400Y-71134660D02*
X84117200Y-71134660D01*
X84117200Y-71134660D02*
X84117200Y-72531660D01*
X84117200Y-72531660D02*
X87114400Y-72531660D01*
X87114400Y-72531660D02*
X87114400Y-71134660D01*
X122663300Y-72531660D02*
X122663300Y-73192060D01*
X124568300Y-72531660D02*
X124568300Y-73192060D01*
X123615800Y-71134660D02*
X123615800Y-70474260D01*
X125114400Y-71134660D02*
X122117200Y-71134660D01*
X122117200Y-71134660D02*
X122117200Y-72531660D01*
X122117200Y-72531660D02*
X125114400Y-72531660D01*
X125114400Y-72531660D02*
X125114400Y-71134660D01*
X198663300Y-72531660D02*
X198663300Y-73192060D01*
X200568300Y-72531660D02*
X200568300Y-73192060D01*
X199615800Y-71134660D02*
X199615800Y-70474260D01*
X201114400Y-71134660D02*
X198117200Y-71134660D01*
X198117200Y-71134660D02*
X198117200Y-72531660D01*
X198117200Y-72531660D02*
X201114400Y-72531660D01*
X201114400Y-72531660D02*
X201114400Y-71134660D01*
X236663300Y-72531660D02*
X236663300Y-73192060D01*
X238568300Y-72531660D02*
X238568300Y-73192060D01*
X237615800Y-71134660D02*
X237615800Y-70474260D01*
X239114400Y-71134660D02*
X236117200Y-71134660D01*
X236117200Y-71134660D02*
X236117200Y-72531660D01*
X236117200Y-72531660D02*
X239114400Y-72531660D01*
X239114400Y-72531660D02*
X239114400Y-71134660D01*
D11*
X153145300Y-53606660D02*
X153145300Y-52146660D01*
X149985300Y-53606660D02*
X149985300Y-51446660D01*
X149985300Y-53606660D02*
X150915300Y-53606660D01*
X153145300Y-53606660D02*
X152215300Y-53606660D01*
X169010000Y-95412779D02*
X169010000Y-95087221D01*
X167990000Y-95412779D02*
X167990000Y-95087221D01*
X150249800Y-95165381D02*
X150249800Y-95490939D01*
X151269800Y-95165381D02*
X151269800Y-95490939D01*
X158121021Y-86579160D02*
X157795463Y-86579160D01*
X158121021Y-85559160D02*
X157795463Y-85559160D01*
X161587221Y-102240000D02*
X161912779Y-102240000D01*
X161587221Y-103260000D02*
X161912779Y-103260000D01*
X68695800Y-31990939D02*
X68695800Y-31665381D01*
X69715800Y-31990939D02*
X69715800Y-31665381D01*
X158121022Y-88287456D02*
X157795464Y-88287456D01*
X158121022Y-87267456D02*
X157795464Y-87267456D01*
X158412779Y-102240000D02*
X158087221Y-102240000D01*
X158412779Y-103260000D02*
X158087221Y-103260000D01*
X148535300Y-95165381D02*
X148535300Y-95490939D01*
X149555300Y-95165381D02*
X149555300Y-95490939D01*
X147562800Y-53263439D02*
X147562800Y-52937881D01*
X148582800Y-53263439D02*
X148582800Y-52937881D01*
X154103300Y-52683881D02*
X154103300Y-53009439D01*
X155123300Y-52683881D02*
X155123300Y-53009439D01*
X182412779Y-48760000D02*
X182087221Y-48760000D01*
X182412779Y-47740000D02*
X182087221Y-47740000D01*
X183510000Y-51412779D02*
X183510000Y-51087221D01*
X182490000Y-51412779D02*
X182490000Y-51087221D01*
X167010000Y-95412779D02*
X167010000Y-95087221D01*
X165990000Y-95412779D02*
X165990000Y-95087221D01*
X71900521Y-32905660D02*
X72226079Y-32905660D01*
X71900521Y-33925660D02*
X72226079Y-33925660D01*
X79909579Y-33925660D02*
X79584021Y-33925660D01*
X79909579Y-32905660D02*
X79584021Y-32905660D01*
X179837221Y-54760000D02*
X180162779Y-54760000D01*
X179837221Y-53740000D02*
X180162779Y-53740000D01*
X180760000Y-49670000D02*
X179300000Y-49670000D01*
X180760000Y-52830000D02*
X178600000Y-52830000D01*
X180760000Y-52830000D02*
X180760000Y-51900000D01*
X180760000Y-49670000D02*
X180760000Y-50600000D01*
X174012742Y-56022500D02*
X174487258Y-56022500D01*
X174012742Y-54977500D02*
X174487258Y-54977500D01*
X176477500Y-51487258D02*
X176477500Y-51012742D01*
X177522500Y-51487258D02*
X177522500Y-51012742D01*
X152959000Y-47000000D02*
X150959000Y-47000000D01*
X150959000Y-47000000D02*
X150959000Y-43100000D01*
X152959000Y-47000000D02*
X152959000Y-43100000D01*
X152882800Y-67000000D02*
X152882800Y-63100000D01*
X150882800Y-67000000D02*
X150882800Y-63100000D01*
X152882800Y-67000000D02*
X150882800Y-67000000D01*
X141611800Y-70000000D02*
X143611800Y-70000000D01*
X143611800Y-70000000D02*
X143611800Y-73900000D01*
X141611800Y-70000000D02*
X141611800Y-73900000D01*
X181500000Y-86250000D02*
X179500000Y-86250000D01*
X179500000Y-86250000D02*
X179500000Y-82350000D01*
X181500000Y-86250000D02*
X181500000Y-82350000D01*
X50556000Y-83906000D02*
X50556000Y-87806000D01*
X52556000Y-83906000D02*
X52556000Y-87806000D01*
X50556000Y-83906000D02*
X52556000Y-83906000D01*
X74306000Y-83906000D02*
X76306000Y-83906000D01*
X76306000Y-83906000D02*
X76306000Y-87806000D01*
X74306000Y-83906000D02*
X74306000Y-87806000D01*
X98056000Y-83906000D02*
X98056000Y-87806000D01*
X100056000Y-83906000D02*
X100056000Y-87806000D01*
X98056000Y-83906000D02*
X100056000Y-83906000D01*
X140468800Y-81750000D02*
X142468800Y-81750000D01*
X142468800Y-81750000D02*
X142468800Y-85650000D01*
X140468800Y-81750000D02*
X140468800Y-85650000D01*
X198888800Y-83906000D02*
X198888800Y-87806000D01*
X200888800Y-83906000D02*
X200888800Y-87806000D01*
X198888800Y-83906000D02*
X200888800Y-83906000D01*
X216821200Y-83906000D02*
X218821200Y-83906000D01*
X218821200Y-83906000D02*
X218821200Y-87806000D01*
X216821200Y-83906000D02*
X216821200Y-87806000D01*
X240571200Y-83906000D02*
X240571200Y-87806000D01*
X242571200Y-83906000D02*
X242571200Y-87806000D01*
X240571200Y-83906000D02*
X242571200Y-83906000D01*
X264321200Y-83750000D02*
X264321200Y-87650000D01*
X266321200Y-83750000D02*
X266321200Y-87650000D01*
X264321200Y-83750000D02*
X266321200Y-83750000D01*
X153908727Y-95634347D02*
X153590529Y-95316149D01*
X153590529Y-95316149D02*
X153908727Y-94997951D01*
X158377642Y-100103262D02*
X158695840Y-100421460D01*
X158695840Y-100421460D02*
X159014038Y-100103262D01*
X159014038Y-90529036D02*
X158695840Y-90210838D01*
X158695840Y-90210838D02*
X158377642Y-90529036D01*
X163482953Y-94997951D02*
X163801151Y-95316149D01*
X163801151Y-95316149D02*
X163482953Y-95634347D01*
X163482953Y-95634347D02*
X164395121Y-96546515D01*
D13*
X185453285Y-102050088D02*
X185453285Y-100526088D01*
X184582428Y-102050088D02*
X185235571Y-101179231D01*
X184582428Y-100526088D02*
X185453285Y-101396945D01*
X184001857Y-100671231D02*
X183929285Y-100598660D01*
X183784142Y-100526088D01*
X183421285Y-100526088D01*
X183276142Y-100598660D01*
X183203571Y-100671231D01*
X183131000Y-100816374D01*
X183131000Y-100961517D01*
X183203571Y-101179231D01*
X184074428Y-102050088D01*
X183131000Y-102050088D01*
X181824714Y-101034088D02*
X181824714Y-102050088D01*
X182187571Y-100453517D02*
X182550428Y-101542088D01*
X181607000Y-101542088D01*
X180300714Y-100526088D02*
X181026428Y-100526088D01*
X181099000Y-101251802D01*
X181026428Y-101179231D01*
X180881285Y-101106660D01*
X180518428Y-101106660D01*
X180373285Y-101179231D01*
X180300714Y-101251802D01*
X180228142Y-101396945D01*
X180228142Y-101759802D01*
X180300714Y-101904945D01*
X180373285Y-101977517D01*
X180518428Y-102050088D01*
X180881285Y-102050088D01*
X181026428Y-101977517D01*
X181099000Y-101904945D01*
X219833785Y-92277428D02*
X219833785Y-90753428D01*
X218962928Y-92277428D02*
X219616071Y-91406571D01*
X218962928Y-90753428D02*
X219833785Y-91624285D01*
X218382357Y-90898571D02*
X218309785Y-90826000D01*
X218164642Y-90753428D01*
X217801785Y-90753428D01*
X217656642Y-90826000D01*
X217584071Y-90898571D01*
X217511500Y-91043714D01*
X217511500Y-91188857D01*
X217584071Y-91406571D01*
X218454928Y-92277428D01*
X217511500Y-92277428D01*
X216205214Y-91261428D02*
X216205214Y-92277428D01*
X216568071Y-90680857D02*
X216930928Y-91769428D01*
X215987500Y-91769428D01*
X214753785Y-90753428D02*
X215044071Y-90753428D01*
X215189214Y-90826000D01*
X215261785Y-90898571D01*
X215406928Y-91116285D01*
X215479500Y-91406571D01*
X215479500Y-91987142D01*
X215406928Y-92132285D01*
X215334357Y-92204857D01*
X215189214Y-92277428D01*
X214898928Y-92277428D01*
X214753785Y-92204857D01*
X214681214Y-92132285D01*
X214608642Y-91987142D01*
X214608642Y-91624285D01*
X214681214Y-91479142D01*
X214753785Y-91406571D01*
X214898928Y-91334000D01*
X215189214Y-91334000D01*
X215334357Y-91406571D01*
X215406928Y-91479142D01*
X215479500Y-91624285D01*
X243583785Y-92277428D02*
X243583785Y-90753428D01*
X242712928Y-92277428D02*
X243366071Y-91406571D01*
X242712928Y-90753428D02*
X243583785Y-91624285D01*
X242132357Y-90898571D02*
X242059785Y-90826000D01*
X241914642Y-90753428D01*
X241551785Y-90753428D01*
X241406642Y-90826000D01*
X241334071Y-90898571D01*
X241261500Y-91043714D01*
X241261500Y-91188857D01*
X241334071Y-91406571D01*
X242204928Y-92277428D01*
X241261500Y-92277428D01*
X239955214Y-91261428D02*
X239955214Y-92277428D01*
X240318071Y-90680857D02*
X240680928Y-91769428D01*
X239737500Y-91769428D01*
X239302071Y-90753428D02*
X238286071Y-90753428D01*
X238939214Y-92277428D01*
X267333785Y-92277428D02*
X267333785Y-90753428D01*
X266462928Y-92277428D02*
X267116071Y-91406571D01*
X266462928Y-90753428D02*
X267333785Y-91624285D01*
X265882357Y-90898571D02*
X265809785Y-90826000D01*
X265664642Y-90753428D01*
X265301785Y-90753428D01*
X265156642Y-90826000D01*
X265084071Y-90898571D01*
X265011500Y-91043714D01*
X265011500Y-91188857D01*
X265084071Y-91406571D01*
X265954928Y-92277428D01*
X265011500Y-92277428D01*
X263705214Y-91261428D02*
X263705214Y-92277428D01*
X264068071Y-90680857D02*
X264430928Y-91769428D01*
X263487500Y-91769428D01*
X262689214Y-91406571D02*
X262834357Y-91334000D01*
X262906928Y-91261428D01*
X262979500Y-91116285D01*
X262979500Y-91043714D01*
X262906928Y-90898571D01*
X262834357Y-90826000D01*
X262689214Y-90753428D01*
X262398928Y-90753428D01*
X262253785Y-90826000D01*
X262181214Y-90898571D01*
X262108642Y-91043714D01*
X262108642Y-91116285D01*
X262181214Y-91261428D01*
X262253785Y-91334000D01*
X262398928Y-91406571D01*
X262689214Y-91406571D01*
X262834357Y-91479142D01*
X262906928Y-91551714D01*
X262979500Y-91696857D01*
X262979500Y-91987142D01*
X262906928Y-92132285D01*
X262834357Y-92204857D01*
X262689214Y-92277428D01*
X262398928Y-92277428D01*
X262253785Y-92204857D01*
X262181214Y-92132285D01*
X262108642Y-91987142D01*
X262108642Y-91696857D01*
X262181214Y-91551714D01*
X262253785Y-91479142D01*
X262398928Y-91406571D01*
X283956785Y-73277428D02*
X283956785Y-71753428D01*
X283085928Y-73277428D02*
X283739071Y-72406571D01*
X283085928Y-71753428D02*
X283956785Y-72624285D01*
X282505357Y-71898571D02*
X282432785Y-71826000D01*
X282287642Y-71753428D01*
X281924785Y-71753428D01*
X281779642Y-71826000D01*
X281707071Y-71898571D01*
X281634500Y-72043714D01*
X281634500Y-72188857D01*
X281707071Y-72406571D01*
X282577928Y-73277428D01*
X281634500Y-73277428D01*
X281126500Y-71753428D02*
X280183071Y-71753428D01*
X280691071Y-72334000D01*
X280473357Y-72334000D01*
X280328214Y-72406571D01*
X280255642Y-72479142D01*
X280183071Y-72624285D01*
X280183071Y-72987142D01*
X280255642Y-73132285D01*
X280328214Y-73204857D01*
X280473357Y-73277428D01*
X280908785Y-73277428D01*
X281053928Y-73204857D01*
X281126500Y-73132285D01*
X279457357Y-73277428D02*
X279167071Y-73277428D01*
X279021928Y-73204857D01*
X278949357Y-73132285D01*
X278804214Y-72914571D01*
X278731642Y-72624285D01*
X278731642Y-72043714D01*
X278804214Y-71898571D01*
X278876785Y-71826000D01*
X279021928Y-71753428D01*
X279312214Y-71753428D01*
X279457357Y-71826000D01*
X279529928Y-71898571D01*
X279602500Y-72043714D01*
X279602500Y-72406571D01*
X279529928Y-72551714D01*
X279457357Y-72624285D01*
X279312214Y-72696857D01*
X279021928Y-72696857D01*
X278876785Y-72624285D01*
X278804214Y-72551714D01*
X278731642Y-72406571D01*
X264956785Y-73277428D02*
X264956785Y-71753428D01*
X264085928Y-73277428D02*
X264739071Y-72406571D01*
X264085928Y-71753428D02*
X264956785Y-72624285D01*
X263505357Y-71898571D02*
X263432785Y-71826000D01*
X263287642Y-71753428D01*
X262924785Y-71753428D01*
X262779642Y-71826000D01*
X262707071Y-71898571D01*
X262634500Y-72043714D01*
X262634500Y-72188857D01*
X262707071Y-72406571D01*
X263577928Y-73277428D01*
X262634500Y-73277428D01*
X262126500Y-71753428D02*
X261183071Y-71753428D01*
X261691071Y-72334000D01*
X261473357Y-72334000D01*
X261328214Y-72406571D01*
X261255642Y-72479142D01*
X261183071Y-72624285D01*
X261183071Y-72987142D01*
X261255642Y-73132285D01*
X261328214Y-73204857D01*
X261473357Y-73277428D01*
X261908785Y-73277428D01*
X262053928Y-73204857D01*
X262126500Y-73132285D01*
X260312214Y-72406571D02*
X260457357Y-72334000D01*
X260529928Y-72261428D01*
X260602500Y-72116285D01*
X260602500Y-72043714D01*
X260529928Y-71898571D01*
X260457357Y-71826000D01*
X260312214Y-71753428D01*
X260021928Y-71753428D01*
X259876785Y-71826000D01*
X259804214Y-71898571D01*
X259731642Y-72043714D01*
X259731642Y-72116285D01*
X259804214Y-72261428D01*
X259876785Y-72334000D01*
X260021928Y-72406571D01*
X260312214Y-72406571D01*
X260457357Y-72479142D01*
X260529928Y-72551714D01*
X260602500Y-72696857D01*
X260602500Y-72987142D01*
X260529928Y-73132285D01*
X260457357Y-73204857D01*
X260312214Y-73277428D01*
X260021928Y-73277428D01*
X259876785Y-73204857D01*
X259804214Y-73132285D01*
X259731642Y-72987142D01*
X259731642Y-72696857D01*
X259804214Y-72551714D01*
X259876785Y-72479142D01*
X260021928Y-72406571D01*
X245956785Y-73277428D02*
X245956785Y-71753428D01*
X245085928Y-73277428D02*
X245739071Y-72406571D01*
X245085928Y-71753428D02*
X245956785Y-72624285D01*
X244505357Y-71898571D02*
X244432785Y-71826000D01*
X244287642Y-71753428D01*
X243924785Y-71753428D01*
X243779642Y-71826000D01*
X243707071Y-71898571D01*
X243634500Y-72043714D01*
X243634500Y-72188857D01*
X243707071Y-72406571D01*
X244577928Y-73277428D01*
X243634500Y-73277428D01*
X243126500Y-71753428D02*
X242183071Y-71753428D01*
X242691071Y-72334000D01*
X242473357Y-72334000D01*
X242328214Y-72406571D01*
X242255642Y-72479142D01*
X242183071Y-72624285D01*
X242183071Y-72987142D01*
X242255642Y-73132285D01*
X242328214Y-73204857D01*
X242473357Y-73277428D01*
X242908785Y-73277428D01*
X243053928Y-73204857D01*
X243126500Y-73132285D01*
X241675071Y-71753428D02*
X240659071Y-71753428D01*
X241312214Y-73277428D01*
X226956785Y-73277428D02*
X226956785Y-71753428D01*
X226085928Y-73277428D02*
X226739071Y-72406571D01*
X226085928Y-71753428D02*
X226956785Y-72624285D01*
X225505357Y-71898571D02*
X225432785Y-71826000D01*
X225287642Y-71753428D01*
X224924785Y-71753428D01*
X224779642Y-71826000D01*
X224707071Y-71898571D01*
X224634500Y-72043714D01*
X224634500Y-72188857D01*
X224707071Y-72406571D01*
X225577928Y-73277428D01*
X224634500Y-73277428D01*
X224126500Y-71753428D02*
X223183071Y-71753428D01*
X223691071Y-72334000D01*
X223473357Y-72334000D01*
X223328214Y-72406571D01*
X223255642Y-72479142D01*
X223183071Y-72624285D01*
X223183071Y-72987142D01*
X223255642Y-73132285D01*
X223328214Y-73204857D01*
X223473357Y-73277428D01*
X223908785Y-73277428D01*
X224053928Y-73204857D01*
X224126500Y-73132285D01*
X221876785Y-71753428D02*
X222167071Y-71753428D01*
X222312214Y-71826000D01*
X222384785Y-71898571D01*
X222529928Y-72116285D01*
X222602500Y-72406571D01*
X222602500Y-72987142D01*
X222529928Y-73132285D01*
X222457357Y-73204857D01*
X222312214Y-73277428D01*
X222021928Y-73277428D01*
X221876785Y-73204857D01*
X221804214Y-73132285D01*
X221731642Y-72987142D01*
X221731642Y-72624285D01*
X221804214Y-72479142D01*
X221876785Y-72406571D01*
X222021928Y-72334000D01*
X222312214Y-72334000D01*
X222457357Y-72406571D01*
X222529928Y-72479142D01*
X222602500Y-72624285D01*
X207956785Y-73277428D02*
X207956785Y-71753428D01*
X207085928Y-73277428D02*
X207739071Y-72406571D01*
X207085928Y-71753428D02*
X207956785Y-72624285D01*
X206505357Y-71898571D02*
X206432785Y-71826000D01*
X206287642Y-71753428D01*
X205924785Y-71753428D01*
X205779642Y-71826000D01*
X205707071Y-71898571D01*
X205634500Y-72043714D01*
X205634500Y-72188857D01*
X205707071Y-72406571D01*
X206577928Y-73277428D01*
X205634500Y-73277428D01*
X205126500Y-71753428D02*
X204183071Y-71753428D01*
X204691071Y-72334000D01*
X204473357Y-72334000D01*
X204328214Y-72406571D01*
X204255642Y-72479142D01*
X204183071Y-72624285D01*
X204183071Y-72987142D01*
X204255642Y-73132285D01*
X204328214Y-73204857D01*
X204473357Y-73277428D01*
X204908785Y-73277428D01*
X205053928Y-73204857D01*
X205126500Y-73132285D01*
X202804214Y-71753428D02*
X203529928Y-71753428D01*
X203602500Y-72479142D01*
X203529928Y-72406571D01*
X203384785Y-72334000D01*
X203021928Y-72334000D01*
X202876785Y-72406571D01*
X202804214Y-72479142D01*
X202731642Y-72624285D01*
X202731642Y-72987142D01*
X202804214Y-73132285D01*
X202876785Y-73204857D01*
X203021928Y-73277428D01*
X203384785Y-73277428D01*
X203529928Y-73204857D01*
X203602500Y-73132285D01*
X188956785Y-73277428D02*
X188956785Y-71753428D01*
X188085928Y-73277428D02*
X188739071Y-72406571D01*
X188085928Y-71753428D02*
X188956785Y-72624285D01*
X187505357Y-71898571D02*
X187432785Y-71826000D01*
X187287642Y-71753428D01*
X186924785Y-71753428D01*
X186779642Y-71826000D01*
X186707071Y-71898571D01*
X186634500Y-72043714D01*
X186634500Y-72188857D01*
X186707071Y-72406571D01*
X187577928Y-73277428D01*
X186634500Y-73277428D01*
X186126500Y-71753428D02*
X185183071Y-71753428D01*
X185691071Y-72334000D01*
X185473357Y-72334000D01*
X185328214Y-72406571D01*
X185255642Y-72479142D01*
X185183071Y-72624285D01*
X185183071Y-72987142D01*
X185255642Y-73132285D01*
X185328214Y-73204857D01*
X185473357Y-73277428D01*
X185908785Y-73277428D01*
X186053928Y-73204857D01*
X186126500Y-73132285D01*
X183876785Y-72261428D02*
X183876785Y-73277428D01*
X184239642Y-71680857D02*
X184602500Y-72769428D01*
X183659071Y-72769428D01*
X169956785Y-73277428D02*
X169956785Y-71753428D01*
X169085928Y-73277428D02*
X169739071Y-72406571D01*
X169085928Y-71753428D02*
X169956785Y-72624285D01*
X168505357Y-71898571D02*
X168432785Y-71826000D01*
X168287642Y-71753428D01*
X167924785Y-71753428D01*
X167779642Y-71826000D01*
X167707071Y-71898571D01*
X167634500Y-72043714D01*
X167634500Y-72188857D01*
X167707071Y-72406571D01*
X168577928Y-73277428D01*
X167634500Y-73277428D01*
X166328214Y-72261428D02*
X166328214Y-73277428D01*
X166691071Y-71680857D02*
X167053928Y-72769428D01*
X166110500Y-72769428D01*
X165239642Y-71753428D02*
X165094500Y-71753428D01*
X164949357Y-71826000D01*
X164876785Y-71898571D01*
X164804214Y-72043714D01*
X164731642Y-72334000D01*
X164731642Y-72696857D01*
X164804214Y-72987142D01*
X164876785Y-73132285D01*
X164949357Y-73204857D01*
X165094500Y-73277428D01*
X165239642Y-73277428D01*
X165384785Y-73204857D01*
X165457357Y-73132285D01*
X165529928Y-72987142D01*
X165602500Y-72696857D01*
X165602500Y-72334000D01*
X165529928Y-72043714D01*
X165457357Y-71898571D01*
X165384785Y-71826000D01*
X165239642Y-71753428D01*
X53583785Y-92277428D02*
X53583785Y-90753428D01*
X52712928Y-92277428D02*
X53366071Y-91406571D01*
X52712928Y-90753428D02*
X53583785Y-91624285D01*
X52132357Y-90898571D02*
X52059785Y-90826000D01*
X51914642Y-90753428D01*
X51551785Y-90753428D01*
X51406642Y-90826000D01*
X51334071Y-90898571D01*
X51261500Y-91043714D01*
X51261500Y-91188857D01*
X51334071Y-91406571D01*
X52204928Y-92277428D01*
X51261500Y-92277428D01*
X49955214Y-91261428D02*
X49955214Y-92277428D01*
X50318071Y-90680857D02*
X50680928Y-91769428D01*
X49737500Y-91769428D01*
X48358642Y-92277428D02*
X49229500Y-92277428D01*
X48794071Y-92277428D02*
X48794071Y-90753428D01*
X48939214Y-90971142D01*
X49084357Y-91116285D01*
X49229500Y-91188857D01*
X77333785Y-92277428D02*
X77333785Y-90753428D01*
X76462928Y-92277428D02*
X77116071Y-91406571D01*
X76462928Y-90753428D02*
X77333785Y-91624285D01*
X75882357Y-90898571D02*
X75809785Y-90826000D01*
X75664642Y-90753428D01*
X75301785Y-90753428D01*
X75156642Y-90826000D01*
X75084071Y-90898571D01*
X75011500Y-91043714D01*
X75011500Y-91188857D01*
X75084071Y-91406571D01*
X75954928Y-92277428D01*
X75011500Y-92277428D01*
X73705214Y-91261428D02*
X73705214Y-92277428D01*
X74068071Y-90680857D02*
X74430928Y-91769428D01*
X73487500Y-91769428D01*
X72979500Y-90898571D02*
X72906928Y-90826000D01*
X72761785Y-90753428D01*
X72398928Y-90753428D01*
X72253785Y-90826000D01*
X72181214Y-90898571D01*
X72108642Y-91043714D01*
X72108642Y-91188857D01*
X72181214Y-91406571D01*
X73052071Y-92277428D01*
X72108642Y-92277428D01*
X101083785Y-92277428D02*
X101083785Y-90753428D01*
X100212928Y-92277428D02*
X100866071Y-91406571D01*
X100212928Y-90753428D02*
X101083785Y-91624285D01*
X99632357Y-90898571D02*
X99559785Y-90826000D01*
X99414642Y-90753428D01*
X99051785Y-90753428D01*
X98906642Y-90826000D01*
X98834071Y-90898571D01*
X98761500Y-91043714D01*
X98761500Y-91188857D01*
X98834071Y-91406571D01*
X99704928Y-92277428D01*
X98761500Y-92277428D01*
X97455214Y-91261428D02*
X97455214Y-92277428D01*
X97818071Y-90680857D02*
X98180928Y-91769428D01*
X97237500Y-91769428D01*
X96802071Y-90753428D02*
X95858642Y-90753428D01*
X96366642Y-91334000D01*
X96148928Y-91334000D01*
X96003785Y-91406571D01*
X95931214Y-91479142D01*
X95858642Y-91624285D01*
X95858642Y-91987142D01*
X95931214Y-92132285D01*
X96003785Y-92204857D01*
X96148928Y-92277428D01*
X96584357Y-92277428D01*
X96729500Y-92204857D01*
X96802071Y-92132285D01*
X137953285Y-102558088D02*
X137953285Y-101034088D01*
X137082428Y-102558088D02*
X137735571Y-101687231D01*
X137082428Y-101034088D02*
X137953285Y-101904945D01*
X136501857Y-101179231D02*
X136429285Y-101106660D01*
X136284142Y-101034088D01*
X135921285Y-101034088D01*
X135776142Y-101106660D01*
X135703571Y-101179231D01*
X135631000Y-101324374D01*
X135631000Y-101469517D01*
X135703571Y-101687231D01*
X136574428Y-102558088D01*
X135631000Y-102558088D01*
X134324714Y-101542088D02*
X134324714Y-102558088D01*
X134687571Y-100961517D02*
X135050428Y-102050088D01*
X134107000Y-102050088D01*
X132873285Y-101542088D02*
X132873285Y-102558088D01*
X133236142Y-100961517D02*
X133599000Y-102050088D01*
X132655571Y-102050088D01*
X150956785Y-73277428D02*
X150956785Y-71753428D01*
X150085928Y-73277428D02*
X150739071Y-72406571D01*
X150085928Y-71753428D02*
X150956785Y-72624285D01*
X149505357Y-71898571D02*
X149432785Y-71826000D01*
X149287642Y-71753428D01*
X148924785Y-71753428D01*
X148779642Y-71826000D01*
X148707071Y-71898571D01*
X148634500Y-72043714D01*
X148634500Y-72188857D01*
X148707071Y-72406571D01*
X149577928Y-73277428D01*
X148634500Y-73277428D01*
X148126500Y-71753428D02*
X147183071Y-71753428D01*
X147691071Y-72334000D01*
X147473357Y-72334000D01*
X147328214Y-72406571D01*
X147255642Y-72479142D01*
X147183071Y-72624285D01*
X147183071Y-72987142D01*
X147255642Y-73132285D01*
X147328214Y-73204857D01*
X147473357Y-73277428D01*
X147908785Y-73277428D01*
X148053928Y-73204857D01*
X148126500Y-73132285D01*
X146675071Y-71753428D02*
X145731642Y-71753428D01*
X146239642Y-72334000D01*
X146021928Y-72334000D01*
X145876785Y-72406571D01*
X145804214Y-72479142D01*
X145731642Y-72624285D01*
X145731642Y-72987142D01*
X145804214Y-73132285D01*
X145876785Y-73204857D01*
X146021928Y-73277428D01*
X146457357Y-73277428D01*
X146602500Y-73204857D01*
X146675071Y-73132285D01*
X131956785Y-73277428D02*
X131956785Y-71753428D01*
X131085928Y-73277428D02*
X131739071Y-72406571D01*
X131085928Y-71753428D02*
X131956785Y-72624285D01*
X130505357Y-71898571D02*
X130432785Y-71826000D01*
X130287642Y-71753428D01*
X129924785Y-71753428D01*
X129779642Y-71826000D01*
X129707071Y-71898571D01*
X129634500Y-72043714D01*
X129634500Y-72188857D01*
X129707071Y-72406571D01*
X130577928Y-73277428D01*
X129634500Y-73277428D01*
X129126500Y-71753428D02*
X128183071Y-71753428D01*
X128691071Y-72334000D01*
X128473357Y-72334000D01*
X128328214Y-72406571D01*
X128255642Y-72479142D01*
X128183071Y-72624285D01*
X128183071Y-72987142D01*
X128255642Y-73132285D01*
X128328214Y-73204857D01*
X128473357Y-73277428D01*
X128908785Y-73277428D01*
X129053928Y-73204857D01*
X129126500Y-73132285D01*
X127602500Y-71898571D02*
X127529928Y-71826000D01*
X127384785Y-71753428D01*
X127021928Y-71753428D01*
X126876785Y-71826000D01*
X126804214Y-71898571D01*
X126731642Y-72043714D01*
X126731642Y-72188857D01*
X126804214Y-72406571D01*
X127675071Y-73277428D01*
X126731642Y-73277428D01*
X112956785Y-73277428D02*
X112956785Y-71753428D01*
X112085928Y-73277428D02*
X112739071Y-72406571D01*
X112085928Y-71753428D02*
X112956785Y-72624285D01*
X111505357Y-71898571D02*
X111432785Y-71826000D01*
X111287642Y-71753428D01*
X110924785Y-71753428D01*
X110779642Y-71826000D01*
X110707071Y-71898571D01*
X110634500Y-72043714D01*
X110634500Y-72188857D01*
X110707071Y-72406571D01*
X111577928Y-73277428D01*
X110634500Y-73277428D01*
X110126500Y-71753428D02*
X109183071Y-71753428D01*
X109691071Y-72334000D01*
X109473357Y-72334000D01*
X109328214Y-72406571D01*
X109255642Y-72479142D01*
X109183071Y-72624285D01*
X109183071Y-72987142D01*
X109255642Y-73132285D01*
X109328214Y-73204857D01*
X109473357Y-73277428D01*
X109908785Y-73277428D01*
X110053928Y-73204857D01*
X110126500Y-73132285D01*
X107731642Y-73277428D02*
X108602500Y-73277428D01*
X108167071Y-73277428D02*
X108167071Y-71753428D01*
X108312214Y-71971142D01*
X108457357Y-72116285D01*
X108602500Y-72188857D01*
X93956785Y-73277428D02*
X93956785Y-71753428D01*
X93085928Y-73277428D02*
X93739071Y-72406571D01*
X93085928Y-71753428D02*
X93956785Y-72624285D01*
X92505357Y-71898571D02*
X92432785Y-71826000D01*
X92287642Y-71753428D01*
X91924785Y-71753428D01*
X91779642Y-71826000D01*
X91707071Y-71898571D01*
X91634500Y-72043714D01*
X91634500Y-72188857D01*
X91707071Y-72406571D01*
X92577928Y-73277428D01*
X91634500Y-73277428D01*
X91126500Y-71753428D02*
X90183071Y-71753428D01*
X90691071Y-72334000D01*
X90473357Y-72334000D01*
X90328214Y-72406571D01*
X90255642Y-72479142D01*
X90183071Y-72624285D01*
X90183071Y-72987142D01*
X90255642Y-73132285D01*
X90328214Y-73204857D01*
X90473357Y-73277428D01*
X90908785Y-73277428D01*
X91053928Y-73204857D01*
X91126500Y-73132285D01*
X89239642Y-71753428D02*
X89094500Y-71753428D01*
X88949357Y-71826000D01*
X88876785Y-71898571D01*
X88804214Y-72043714D01*
X88731642Y-72334000D01*
X88731642Y-72696857D01*
X88804214Y-72987142D01*
X88876785Y-73132285D01*
X88949357Y-73204857D01*
X89094500Y-73277428D01*
X89239642Y-73277428D01*
X89384785Y-73204857D01*
X89457357Y-73132285D01*
X89529928Y-72987142D01*
X89602500Y-72696857D01*
X89602500Y-72334000D01*
X89529928Y-72043714D01*
X89457357Y-71898571D01*
X89384785Y-71826000D01*
X89239642Y-71753428D01*
X74956785Y-73277428D02*
X74956785Y-71753428D01*
X74085928Y-73277428D02*
X74739071Y-72406571D01*
X74085928Y-71753428D02*
X74956785Y-72624285D01*
X73505357Y-71898571D02*
X73432785Y-71826000D01*
X73287642Y-71753428D01*
X72924785Y-71753428D01*
X72779642Y-71826000D01*
X72707071Y-71898571D01*
X72634500Y-72043714D01*
X72634500Y-72188857D01*
X72707071Y-72406571D01*
X73577928Y-73277428D01*
X72634500Y-73277428D01*
X72053928Y-71898571D02*
X71981357Y-71826000D01*
X71836214Y-71753428D01*
X71473357Y-71753428D01*
X71328214Y-71826000D01*
X71255642Y-71898571D01*
X71183071Y-72043714D01*
X71183071Y-72188857D01*
X71255642Y-72406571D01*
X72126500Y-73277428D01*
X71183071Y-73277428D01*
X70457357Y-73277428D02*
X70167071Y-73277428D01*
X70021928Y-73204857D01*
X69949357Y-73132285D01*
X69804214Y-72914571D01*
X69731642Y-72624285D01*
X69731642Y-72043714D01*
X69804214Y-71898571D01*
X69876785Y-71826000D01*
X70021928Y-71753428D01*
X70312214Y-71753428D01*
X70457357Y-71826000D01*
X70529928Y-71898571D01*
X70602500Y-72043714D01*
X70602500Y-72406571D01*
X70529928Y-72551714D01*
X70457357Y-72624285D01*
X70312214Y-72696857D01*
X70021928Y-72696857D01*
X69876785Y-72624285D01*
X69804214Y-72551714D01*
X69731642Y-72406571D01*
X55956785Y-73277428D02*
X55956785Y-71753428D01*
X55085928Y-73277428D02*
X55739071Y-72406571D01*
X55085928Y-71753428D02*
X55956785Y-72624285D01*
X54505357Y-71898571D02*
X54432785Y-71826000D01*
X54287642Y-71753428D01*
X53924785Y-71753428D01*
X53779642Y-71826000D01*
X53707071Y-71898571D01*
X53634500Y-72043714D01*
X53634500Y-72188857D01*
X53707071Y-72406571D01*
X54577928Y-73277428D01*
X53634500Y-73277428D01*
X53053928Y-71898571D02*
X52981357Y-71826000D01*
X52836214Y-71753428D01*
X52473357Y-71753428D01*
X52328214Y-71826000D01*
X52255642Y-71898571D01*
X52183071Y-72043714D01*
X52183071Y-72188857D01*
X52255642Y-72406571D01*
X53126500Y-73277428D01*
X52183071Y-73277428D01*
X51312214Y-72406571D02*
X51457357Y-72334000D01*
X51529928Y-72261428D01*
X51602500Y-72116285D01*
X51602500Y-72043714D01*
X51529928Y-71898571D01*
X51457357Y-71826000D01*
X51312214Y-71753428D01*
X51021928Y-71753428D01*
X50876785Y-71826000D01*
X50804214Y-71898571D01*
X50731642Y-72043714D01*
X50731642Y-72116285D01*
X50804214Y-72261428D01*
X50876785Y-72334000D01*
X51021928Y-72406571D01*
X51312214Y-72406571D01*
X51457357Y-72479142D01*
X51529928Y-72551714D01*
X51602500Y-72696857D01*
X51602500Y-72987142D01*
X51529928Y-73132285D01*
X51457357Y-73204857D01*
X51312214Y-73277428D01*
X51021928Y-73277428D01*
X50876785Y-73204857D01*
X50804214Y-73132285D01*
X50731642Y-72987142D01*
X50731642Y-72696857D01*
X50804214Y-72551714D01*
X50876785Y-72479142D01*
X51021928Y-72406571D01*
X36956785Y-73277428D02*
X36956785Y-71753428D01*
X36085928Y-73277428D02*
X36739071Y-72406571D01*
X36085928Y-71753428D02*
X36956785Y-72624285D01*
X35505357Y-71898571D02*
X35432785Y-71826000D01*
X35287642Y-71753428D01*
X34924785Y-71753428D01*
X34779642Y-71826000D01*
X34707071Y-71898571D01*
X34634500Y-72043714D01*
X34634500Y-72188857D01*
X34707071Y-72406571D01*
X35577928Y-73277428D01*
X34634500Y-73277428D01*
X34053928Y-71898571D02*
X33981357Y-71826000D01*
X33836214Y-71753428D01*
X33473357Y-71753428D01*
X33328214Y-71826000D01*
X33255642Y-71898571D01*
X33183071Y-72043714D01*
X33183071Y-72188857D01*
X33255642Y-72406571D01*
X34126500Y-73277428D01*
X33183071Y-73277428D01*
X32675071Y-71753428D02*
X31659071Y-71753428D01*
X32312214Y-73277428D01*
X41706785Y-54277428D02*
X41706785Y-52753428D01*
X40835928Y-54277428D02*
X41489071Y-53406571D01*
X40835928Y-52753428D02*
X41706785Y-53624285D01*
X40255357Y-52898571D02*
X40182785Y-52826000D01*
X40037642Y-52753428D01*
X39674785Y-52753428D01*
X39529642Y-52826000D01*
X39457071Y-52898571D01*
X39384500Y-53043714D01*
X39384500Y-53188857D01*
X39457071Y-53406571D01*
X40327928Y-54277428D01*
X39384500Y-54277428D01*
X37933071Y-54277428D02*
X38803928Y-54277428D01*
X38368500Y-54277428D02*
X38368500Y-52753428D01*
X38513642Y-52971142D01*
X38658785Y-53116285D01*
X38803928Y-53188857D01*
X36626785Y-53261428D02*
X36626785Y-54277428D01*
X36989642Y-52680857D02*
X37352500Y-53769428D01*
X36409071Y-53769428D01*
X60706785Y-54277428D02*
X60706785Y-52753428D01*
X59835928Y-54277428D02*
X60489071Y-53406571D01*
X59835928Y-52753428D02*
X60706785Y-53624285D01*
X59255357Y-52898571D02*
X59182785Y-52826000D01*
X59037642Y-52753428D01*
X58674785Y-52753428D01*
X58529642Y-52826000D01*
X58457071Y-52898571D01*
X58384500Y-53043714D01*
X58384500Y-53188857D01*
X58457071Y-53406571D01*
X59327928Y-54277428D01*
X58384500Y-54277428D01*
X56933071Y-54277428D02*
X57803928Y-54277428D01*
X57368500Y-54277428D02*
X57368500Y-52753428D01*
X57513642Y-52971142D01*
X57658785Y-53116285D01*
X57803928Y-53188857D01*
X55554214Y-52753428D02*
X56279928Y-52753428D01*
X56352500Y-53479142D01*
X56279928Y-53406571D01*
X56134785Y-53334000D01*
X55771928Y-53334000D01*
X55626785Y-53406571D01*
X55554214Y-53479142D01*
X55481642Y-53624285D01*
X55481642Y-53987142D01*
X55554214Y-54132285D01*
X55626785Y-54204857D01*
X55771928Y-54277428D01*
X56134785Y-54277428D01*
X56279928Y-54204857D01*
X56352500Y-54132285D01*
X79706785Y-54277428D02*
X79706785Y-52753428D01*
X78835928Y-54277428D02*
X79489071Y-53406571D01*
X78835928Y-52753428D02*
X79706785Y-53624285D01*
X78255357Y-52898571D02*
X78182785Y-52826000D01*
X78037642Y-52753428D01*
X77674785Y-52753428D01*
X77529642Y-52826000D01*
X77457071Y-52898571D01*
X77384500Y-53043714D01*
X77384500Y-53188857D01*
X77457071Y-53406571D01*
X78327928Y-54277428D01*
X77384500Y-54277428D01*
X75933071Y-54277428D02*
X76803928Y-54277428D01*
X76368500Y-54277428D02*
X76368500Y-52753428D01*
X76513642Y-52971142D01*
X76658785Y-53116285D01*
X76803928Y-53188857D01*
X74626785Y-52753428D02*
X74917071Y-52753428D01*
X75062214Y-52826000D01*
X75134785Y-52898571D01*
X75279928Y-53116285D01*
X75352500Y-53406571D01*
X75352500Y-53987142D01*
X75279928Y-54132285D01*
X75207357Y-54204857D01*
X75062214Y-54277428D01*
X74771928Y-54277428D01*
X74626785Y-54204857D01*
X74554214Y-54132285D01*
X74481642Y-53987142D01*
X74481642Y-53624285D01*
X74554214Y-53479142D01*
X74626785Y-53406571D01*
X74771928Y-53334000D01*
X75062214Y-53334000D01*
X75207357Y-53406571D01*
X75279928Y-53479142D01*
X75352500Y-53624285D01*
X98706785Y-54277428D02*
X98706785Y-52753428D01*
X97835928Y-54277428D02*
X98489071Y-53406571D01*
X97835928Y-52753428D02*
X98706785Y-53624285D01*
X97255357Y-52898571D02*
X97182785Y-52826000D01*
X97037642Y-52753428D01*
X96674785Y-52753428D01*
X96529642Y-52826000D01*
X96457071Y-52898571D01*
X96384500Y-53043714D01*
X96384500Y-53188857D01*
X96457071Y-53406571D01*
X97327928Y-54277428D01*
X96384500Y-54277428D01*
X94933071Y-54277428D02*
X95803928Y-54277428D01*
X95368500Y-54277428D02*
X95368500Y-52753428D01*
X95513642Y-52971142D01*
X95658785Y-53116285D01*
X95803928Y-53188857D01*
X94425071Y-52753428D02*
X93409071Y-52753428D01*
X94062214Y-54277428D01*
X117706785Y-54277428D02*
X117706785Y-52753428D01*
X116835928Y-54277428D02*
X117489071Y-53406571D01*
X116835928Y-52753428D02*
X117706785Y-53624285D01*
X116255357Y-52898571D02*
X116182785Y-52826000D01*
X116037642Y-52753428D01*
X115674785Y-52753428D01*
X115529642Y-52826000D01*
X115457071Y-52898571D01*
X115384500Y-53043714D01*
X115384500Y-53188857D01*
X115457071Y-53406571D01*
X116327928Y-54277428D01*
X115384500Y-54277428D01*
X113933071Y-54277428D02*
X114803928Y-54277428D01*
X114368500Y-54277428D02*
X114368500Y-52753428D01*
X114513642Y-52971142D01*
X114658785Y-53116285D01*
X114803928Y-53188857D01*
X113062214Y-53406571D02*
X113207357Y-53334000D01*
X113279928Y-53261428D01*
X113352500Y-53116285D01*
X113352500Y-53043714D01*
X113279928Y-52898571D01*
X113207357Y-52826000D01*
X113062214Y-52753428D01*
X112771928Y-52753428D01*
X112626785Y-52826000D01*
X112554214Y-52898571D01*
X112481642Y-53043714D01*
X112481642Y-53116285D01*
X112554214Y-53261428D01*
X112626785Y-53334000D01*
X112771928Y-53406571D01*
X113062214Y-53406571D01*
X113207357Y-53479142D01*
X113279928Y-53551714D01*
X113352500Y-53696857D01*
X113352500Y-53987142D01*
X113279928Y-54132285D01*
X113207357Y-54204857D01*
X113062214Y-54277428D01*
X112771928Y-54277428D01*
X112626785Y-54204857D01*
X112554214Y-54132285D01*
X112481642Y-53987142D01*
X112481642Y-53696857D01*
X112554214Y-53551714D01*
X112626785Y-53479142D01*
X112771928Y-53406571D01*
X136706785Y-54277428D02*
X136706785Y-52753428D01*
X135835928Y-54277428D02*
X136489071Y-53406571D01*
X135835928Y-52753428D02*
X136706785Y-53624285D01*
X135255357Y-52898571D02*
X135182785Y-52826000D01*
X135037642Y-52753428D01*
X134674785Y-52753428D01*
X134529642Y-52826000D01*
X134457071Y-52898571D01*
X134384500Y-53043714D01*
X134384500Y-53188857D01*
X134457071Y-53406571D01*
X135327928Y-54277428D01*
X134384500Y-54277428D01*
X132933071Y-54277428D02*
X133803928Y-54277428D01*
X133368500Y-54277428D02*
X133368500Y-52753428D01*
X133513642Y-52971142D01*
X133658785Y-53116285D01*
X133803928Y-53188857D01*
X132207357Y-54277428D02*
X131917071Y-54277428D01*
X131771928Y-54204857D01*
X131699357Y-54132285D01*
X131554214Y-53914571D01*
X131481642Y-53624285D01*
X131481642Y-53043714D01*
X131554214Y-52898571D01*
X131626785Y-52826000D01*
X131771928Y-52753428D01*
X132062214Y-52753428D01*
X132207357Y-52826000D01*
X132279928Y-52898571D01*
X132352500Y-53043714D01*
X132352500Y-53406571D01*
X132279928Y-53551714D01*
X132207357Y-53624285D01*
X132062214Y-53696857D01*
X131771928Y-53696857D01*
X131626785Y-53624285D01*
X131554214Y-53551714D01*
X131481642Y-53406571D01*
X163412585Y-53472588D02*
X163412585Y-51948588D01*
X162541728Y-53472588D02*
X163194871Y-52601731D01*
X162541728Y-51948588D02*
X163412585Y-52819445D01*
X161961157Y-52093731D02*
X161888585Y-52021160D01*
X161743442Y-51948588D01*
X161380585Y-51948588D01*
X161235442Y-52021160D01*
X161162871Y-52093731D01*
X161090300Y-52238874D01*
X161090300Y-52384017D01*
X161162871Y-52601731D01*
X162033728Y-53472588D01*
X161090300Y-53472588D01*
X160509728Y-52093731D02*
X160437157Y-52021160D01*
X160292014Y-51948588D01*
X159929157Y-51948588D01*
X159784014Y-52021160D01*
X159711442Y-52093731D01*
X159638871Y-52238874D01*
X159638871Y-52384017D01*
X159711442Y-52601731D01*
X160582300Y-53472588D01*
X159638871Y-53472588D01*
X158695442Y-51948588D02*
X158550300Y-51948588D01*
X158405157Y-52021160D01*
X158332585Y-52093731D01*
X158260014Y-52238874D01*
X158187442Y-52529160D01*
X158187442Y-52892017D01*
X158260014Y-53182302D01*
X158332585Y-53327445D01*
X158405157Y-53400017D01*
X158550300Y-53472588D01*
X158695442Y-53472588D01*
X158840585Y-53400017D01*
X158913157Y-53327445D01*
X158985728Y-53182302D01*
X159058300Y-52892017D01*
X159058300Y-52529160D01*
X158985728Y-52238874D01*
X158913157Y-52093731D01*
X158840585Y-52021160D01*
X158695442Y-51948588D01*
X192940085Y-55123588D02*
X192940085Y-53599588D01*
X192069228Y-55123588D02*
X192722371Y-54252731D01*
X192069228Y-53599588D02*
X192940085Y-54470445D01*
X191488657Y-53744731D02*
X191416085Y-53672160D01*
X191270942Y-53599588D01*
X190908085Y-53599588D01*
X190762942Y-53672160D01*
X190690371Y-53744731D01*
X190617800Y-53889874D01*
X190617800Y-54035017D01*
X190690371Y-54252731D01*
X191561228Y-55123588D01*
X190617800Y-55123588D01*
X190037228Y-53744731D02*
X189964657Y-53672160D01*
X189819514Y-53599588D01*
X189456657Y-53599588D01*
X189311514Y-53672160D01*
X189238942Y-53744731D01*
X189166371Y-53889874D01*
X189166371Y-54035017D01*
X189238942Y-54252731D01*
X190109800Y-55123588D01*
X189166371Y-55123588D01*
X187714942Y-55123588D02*
X188585800Y-55123588D01*
X188150371Y-55123588D02*
X188150371Y-53599588D01*
X188295514Y-53817302D01*
X188440657Y-53962445D01*
X188585800Y-54035017D01*
X203206785Y-54277428D02*
X203206785Y-52753428D01*
X202335928Y-54277428D02*
X202989071Y-53406571D01*
X202335928Y-52753428D02*
X203206785Y-53624285D01*
X201755357Y-52898571D02*
X201682785Y-52826000D01*
X201537642Y-52753428D01*
X201174785Y-52753428D01*
X201029642Y-52826000D01*
X200957071Y-52898571D01*
X200884500Y-53043714D01*
X200884500Y-53188857D01*
X200957071Y-53406571D01*
X201827928Y-54277428D01*
X200884500Y-54277428D01*
X200303928Y-52898571D02*
X200231357Y-52826000D01*
X200086214Y-52753428D01*
X199723357Y-52753428D01*
X199578214Y-52826000D01*
X199505642Y-52898571D01*
X199433071Y-53043714D01*
X199433071Y-53188857D01*
X199505642Y-53406571D01*
X200376500Y-54277428D01*
X199433071Y-54277428D01*
X198852500Y-52898571D02*
X198779928Y-52826000D01*
X198634785Y-52753428D01*
X198271928Y-52753428D01*
X198126785Y-52826000D01*
X198054214Y-52898571D01*
X197981642Y-53043714D01*
X197981642Y-53188857D01*
X198054214Y-53406571D01*
X198925071Y-54277428D01*
X197981642Y-54277428D01*
X222206785Y-54277428D02*
X222206785Y-52753428D01*
X221335928Y-54277428D02*
X221989071Y-53406571D01*
X221335928Y-52753428D02*
X222206785Y-53624285D01*
X220755357Y-52898571D02*
X220682785Y-52826000D01*
X220537642Y-52753428D01*
X220174785Y-52753428D01*
X220029642Y-52826000D01*
X219957071Y-52898571D01*
X219884500Y-53043714D01*
X219884500Y-53188857D01*
X219957071Y-53406571D01*
X220827928Y-54277428D01*
X219884500Y-54277428D01*
X219303928Y-52898571D02*
X219231357Y-52826000D01*
X219086214Y-52753428D01*
X218723357Y-52753428D01*
X218578214Y-52826000D01*
X218505642Y-52898571D01*
X218433071Y-53043714D01*
X218433071Y-53188857D01*
X218505642Y-53406571D01*
X219376500Y-54277428D01*
X218433071Y-54277428D01*
X217925071Y-52753428D02*
X216981642Y-52753428D01*
X217489642Y-53334000D01*
X217271928Y-53334000D01*
X217126785Y-53406571D01*
X217054214Y-53479142D01*
X216981642Y-53624285D01*
X216981642Y-53987142D01*
X217054214Y-54132285D01*
X217126785Y-54204857D01*
X217271928Y-54277428D01*
X217707357Y-54277428D01*
X217852500Y-54204857D01*
X217925071Y-54132285D01*
X241206785Y-54277428D02*
X241206785Y-52753428D01*
X240335928Y-54277428D02*
X240989071Y-53406571D01*
X240335928Y-52753428D02*
X241206785Y-53624285D01*
X239755357Y-52898571D02*
X239682785Y-52826000D01*
X239537642Y-52753428D01*
X239174785Y-52753428D01*
X239029642Y-52826000D01*
X238957071Y-52898571D01*
X238884500Y-53043714D01*
X238884500Y-53188857D01*
X238957071Y-53406571D01*
X239827928Y-54277428D01*
X238884500Y-54277428D01*
X238303928Y-52898571D02*
X238231357Y-52826000D01*
X238086214Y-52753428D01*
X237723357Y-52753428D01*
X237578214Y-52826000D01*
X237505642Y-52898571D01*
X237433071Y-53043714D01*
X237433071Y-53188857D01*
X237505642Y-53406571D01*
X238376500Y-54277428D01*
X237433071Y-54277428D01*
X236126785Y-53261428D02*
X236126785Y-54277428D01*
X236489642Y-52680857D02*
X236852500Y-53769428D01*
X235909071Y-53769428D01*
X260206785Y-54277428D02*
X260206785Y-52753428D01*
X259335928Y-54277428D02*
X259989071Y-53406571D01*
X259335928Y-52753428D02*
X260206785Y-53624285D01*
X258755357Y-52898571D02*
X258682785Y-52826000D01*
X258537642Y-52753428D01*
X258174785Y-52753428D01*
X258029642Y-52826000D01*
X257957071Y-52898571D01*
X257884500Y-53043714D01*
X257884500Y-53188857D01*
X257957071Y-53406571D01*
X258827928Y-54277428D01*
X257884500Y-54277428D01*
X257303928Y-52898571D02*
X257231357Y-52826000D01*
X257086214Y-52753428D01*
X256723357Y-52753428D01*
X256578214Y-52826000D01*
X256505642Y-52898571D01*
X256433071Y-53043714D01*
X256433071Y-53188857D01*
X256505642Y-53406571D01*
X257376500Y-54277428D01*
X256433071Y-54277428D01*
X255054214Y-52753428D02*
X255779928Y-52753428D01*
X255852500Y-53479142D01*
X255779928Y-53406571D01*
X255634785Y-53334000D01*
X255271928Y-53334000D01*
X255126785Y-53406571D01*
X255054214Y-53479142D01*
X254981642Y-53624285D01*
X254981642Y-53987142D01*
X255054214Y-54132285D01*
X255126785Y-54204857D01*
X255271928Y-54277428D01*
X255634785Y-54277428D01*
X255779928Y-54204857D01*
X255852500Y-54132285D01*
X279206785Y-54277428D02*
X279206785Y-52753428D01*
X278335928Y-54277428D02*
X278989071Y-53406571D01*
X278335928Y-52753428D02*
X279206785Y-53624285D01*
X277755357Y-52898571D02*
X277682785Y-52826000D01*
X277537642Y-52753428D01*
X277174785Y-52753428D01*
X277029642Y-52826000D01*
X276957071Y-52898571D01*
X276884500Y-53043714D01*
X276884500Y-53188857D01*
X276957071Y-53406571D01*
X277827928Y-54277428D01*
X276884500Y-54277428D01*
X276303928Y-52898571D02*
X276231357Y-52826000D01*
X276086214Y-52753428D01*
X275723357Y-52753428D01*
X275578214Y-52826000D01*
X275505642Y-52898571D01*
X275433071Y-53043714D01*
X275433071Y-53188857D01*
X275505642Y-53406571D01*
X276376500Y-54277428D01*
X275433071Y-54277428D01*
X274126785Y-52753428D02*
X274417071Y-52753428D01*
X274562214Y-52826000D01*
X274634785Y-52898571D01*
X274779928Y-53116285D01*
X274852500Y-53406571D01*
X274852500Y-53987142D01*
X274779928Y-54132285D01*
X274707357Y-54204857D01*
X274562214Y-54277428D01*
X274271928Y-54277428D01*
X274126785Y-54204857D01*
X274054214Y-54132285D01*
X273981642Y-53987142D01*
X273981642Y-53624285D01*
X274054214Y-53479142D01*
X274126785Y-53406571D01*
X274271928Y-53334000D01*
X274562214Y-53334000D01*
X274707357Y-53406571D01*
X274779928Y-53479142D01*
X274852500Y-53624285D01*
X274456785Y-35277428D02*
X274456785Y-33753428D01*
X273585928Y-35277428D02*
X274239071Y-34406571D01*
X273585928Y-33753428D02*
X274456785Y-34624285D01*
X273005357Y-33898571D02*
X272932785Y-33826000D01*
X272787642Y-33753428D01*
X272424785Y-33753428D01*
X272279642Y-33826000D01*
X272207071Y-33898571D01*
X272134500Y-34043714D01*
X272134500Y-34188857D01*
X272207071Y-34406571D01*
X273077928Y-35277428D01*
X272134500Y-35277428D01*
X270683071Y-35277428D02*
X271553928Y-35277428D01*
X271118500Y-35277428D02*
X271118500Y-33753428D01*
X271263642Y-33971142D01*
X271408785Y-34116285D01*
X271553928Y-34188857D01*
X270175071Y-33753428D02*
X269231642Y-33753428D01*
X269739642Y-34334000D01*
X269521928Y-34334000D01*
X269376785Y-34406571D01*
X269304214Y-34479142D01*
X269231642Y-34624285D01*
X269231642Y-34987142D01*
X269304214Y-35132285D01*
X269376785Y-35204857D01*
X269521928Y-35277428D01*
X269957357Y-35277428D01*
X270102500Y-35204857D01*
X270175071Y-35132285D01*
X255456785Y-35277428D02*
X255456785Y-33753428D01*
X254585928Y-35277428D02*
X255239071Y-34406571D01*
X254585928Y-33753428D02*
X255456785Y-34624285D01*
X254005357Y-33898571D02*
X253932785Y-33826000D01*
X253787642Y-33753428D01*
X253424785Y-33753428D01*
X253279642Y-33826000D01*
X253207071Y-33898571D01*
X253134500Y-34043714D01*
X253134500Y-34188857D01*
X253207071Y-34406571D01*
X254077928Y-35277428D01*
X253134500Y-35277428D01*
X251683071Y-35277428D02*
X252553928Y-35277428D01*
X252118500Y-35277428D02*
X252118500Y-33753428D01*
X252263642Y-33971142D01*
X252408785Y-34116285D01*
X252553928Y-34188857D01*
X251102500Y-33898571D02*
X251029928Y-33826000D01*
X250884785Y-33753428D01*
X250521928Y-33753428D01*
X250376785Y-33826000D01*
X250304214Y-33898571D01*
X250231642Y-34043714D01*
X250231642Y-34188857D01*
X250304214Y-34406571D01*
X251175071Y-35277428D01*
X250231642Y-35277428D01*
X236456785Y-35277428D02*
X236456785Y-33753428D01*
X235585928Y-35277428D02*
X236239071Y-34406571D01*
X235585928Y-33753428D02*
X236456785Y-34624285D01*
X235005357Y-33898571D02*
X234932785Y-33826000D01*
X234787642Y-33753428D01*
X234424785Y-33753428D01*
X234279642Y-33826000D01*
X234207071Y-33898571D01*
X234134500Y-34043714D01*
X234134500Y-34188857D01*
X234207071Y-34406571D01*
X235077928Y-35277428D01*
X234134500Y-35277428D01*
X232683071Y-35277428D02*
X233553928Y-35277428D01*
X233118500Y-35277428D02*
X233118500Y-33753428D01*
X233263642Y-33971142D01*
X233408785Y-34116285D01*
X233553928Y-34188857D01*
X231231642Y-35277428D02*
X232102500Y-35277428D01*
X231667071Y-35277428D02*
X231667071Y-33753428D01*
X231812214Y-33971142D01*
X231957357Y-34116285D01*
X232102500Y-34188857D01*
X217456785Y-35277428D02*
X217456785Y-33753428D01*
X216585928Y-35277428D02*
X217239071Y-34406571D01*
X216585928Y-33753428D02*
X217456785Y-34624285D01*
X216005357Y-33898571D02*
X215932785Y-33826000D01*
X215787642Y-33753428D01*
X215424785Y-33753428D01*
X215279642Y-33826000D01*
X215207071Y-33898571D01*
X215134500Y-34043714D01*
X215134500Y-34188857D01*
X215207071Y-34406571D01*
X216077928Y-35277428D01*
X215134500Y-35277428D01*
X213683071Y-35277428D02*
X214553928Y-35277428D01*
X214118500Y-35277428D02*
X214118500Y-33753428D01*
X214263642Y-33971142D01*
X214408785Y-34116285D01*
X214553928Y-34188857D01*
X212739642Y-33753428D02*
X212594500Y-33753428D01*
X212449357Y-33826000D01*
X212376785Y-33898571D01*
X212304214Y-34043714D01*
X212231642Y-34334000D01*
X212231642Y-34696857D01*
X212304214Y-34987142D01*
X212376785Y-35132285D01*
X212449357Y-35204857D01*
X212594500Y-35277428D01*
X212739642Y-35277428D01*
X212884785Y-35204857D01*
X212957357Y-35132285D01*
X213029928Y-34987142D01*
X213102500Y-34696857D01*
X213102500Y-34334000D01*
X213029928Y-34043714D01*
X212957357Y-33898571D01*
X212884785Y-33826000D01*
X212739642Y-33753428D01*
X46456785Y-35277428D02*
X46456785Y-33753428D01*
X45585928Y-35277428D02*
X46239071Y-34406571D01*
X45585928Y-33753428D02*
X46456785Y-34624285D01*
X45005357Y-33898571D02*
X44932785Y-33826000D01*
X44787642Y-33753428D01*
X44424785Y-33753428D01*
X44279642Y-33826000D01*
X44207071Y-33898571D01*
X44134500Y-34043714D01*
X44134500Y-34188857D01*
X44207071Y-34406571D01*
X45077928Y-35277428D01*
X44134500Y-35277428D01*
X43191071Y-33753428D02*
X43045928Y-33753428D01*
X42900785Y-33826000D01*
X42828214Y-33898571D01*
X42755642Y-34043714D01*
X42683071Y-34334000D01*
X42683071Y-34696857D01*
X42755642Y-34987142D01*
X42828214Y-35132285D01*
X42900785Y-35204857D01*
X43045928Y-35277428D01*
X43191071Y-35277428D01*
X43336214Y-35204857D01*
X43408785Y-35132285D01*
X43481357Y-34987142D01*
X43553928Y-34696857D01*
X43553928Y-34334000D01*
X43481357Y-34043714D01*
X43408785Y-33898571D01*
X43336214Y-33826000D01*
X43191071Y-33753428D01*
X41231642Y-35277428D02*
X42102500Y-35277428D01*
X41667071Y-35277428D02*
X41667071Y-33753428D01*
X41812214Y-33971142D01*
X41957357Y-34116285D01*
X42102500Y-34188857D01*
X65456785Y-35277428D02*
X65456785Y-33753428D01*
X64585928Y-35277428D02*
X65239071Y-34406571D01*
X64585928Y-33753428D02*
X65456785Y-34624285D01*
X64005357Y-33898571D02*
X63932785Y-33826000D01*
X63787642Y-33753428D01*
X63424785Y-33753428D01*
X63279642Y-33826000D01*
X63207071Y-33898571D01*
X63134500Y-34043714D01*
X63134500Y-34188857D01*
X63207071Y-34406571D01*
X64077928Y-35277428D01*
X63134500Y-35277428D01*
X62191071Y-33753428D02*
X62045928Y-33753428D01*
X61900785Y-33826000D01*
X61828214Y-33898571D01*
X61755642Y-34043714D01*
X61683071Y-34334000D01*
X61683071Y-34696857D01*
X61755642Y-34987142D01*
X61828214Y-35132285D01*
X61900785Y-35204857D01*
X62045928Y-35277428D01*
X62191071Y-35277428D01*
X62336214Y-35204857D01*
X62408785Y-35132285D01*
X62481357Y-34987142D01*
X62553928Y-34696857D01*
X62553928Y-34334000D01*
X62481357Y-34043714D01*
X62408785Y-33898571D01*
X62336214Y-33826000D01*
X62191071Y-33753428D01*
X61102500Y-33898571D02*
X61029928Y-33826000D01*
X60884785Y-33753428D01*
X60521928Y-33753428D01*
X60376785Y-33826000D01*
X60304214Y-33898571D01*
X60231642Y-34043714D01*
X60231642Y-34188857D01*
X60304214Y-34406571D01*
X61175071Y-35277428D01*
X60231642Y-35277428D01*
X94388085Y-36581588D02*
X94388085Y-35057588D01*
X93517228Y-36581588D02*
X94170371Y-35710731D01*
X93517228Y-35057588D02*
X94388085Y-35928445D01*
X92936657Y-35202731D02*
X92864085Y-35130160D01*
X92718942Y-35057588D01*
X92356085Y-35057588D01*
X92210942Y-35130160D01*
X92138371Y-35202731D01*
X92065800Y-35347874D01*
X92065800Y-35493017D01*
X92138371Y-35710731D01*
X93009228Y-36581588D01*
X92065800Y-36581588D01*
X91122371Y-35057588D02*
X90977228Y-35057588D01*
X90832085Y-35130160D01*
X90759514Y-35202731D01*
X90686942Y-35347874D01*
X90614371Y-35638160D01*
X90614371Y-36001017D01*
X90686942Y-36291302D01*
X90759514Y-36436445D01*
X90832085Y-36509017D01*
X90977228Y-36581588D01*
X91122371Y-36581588D01*
X91267514Y-36509017D01*
X91340085Y-36436445D01*
X91412657Y-36291302D01*
X91485228Y-36001017D01*
X91485228Y-35638160D01*
X91412657Y-35347874D01*
X91340085Y-35202731D01*
X91267514Y-35130160D01*
X91122371Y-35057588D01*
X90106371Y-35057588D02*
X89162942Y-35057588D01*
X89670942Y-35638160D01*
X89453228Y-35638160D01*
X89308085Y-35710731D01*
X89235514Y-35783302D01*
X89162942Y-35928445D01*
X89162942Y-36291302D01*
X89235514Y-36436445D01*
X89308085Y-36509017D01*
X89453228Y-36581588D01*
X89888657Y-36581588D01*
X90033800Y-36509017D01*
X90106371Y-36436445D01*
X103456785Y-35277428D02*
X103456785Y-33753428D01*
X102585928Y-35277428D02*
X103239071Y-34406571D01*
X102585928Y-33753428D02*
X103456785Y-34624285D01*
X102005357Y-33898571D02*
X101932785Y-33826000D01*
X101787642Y-33753428D01*
X101424785Y-33753428D01*
X101279642Y-33826000D01*
X101207071Y-33898571D01*
X101134500Y-34043714D01*
X101134500Y-34188857D01*
X101207071Y-34406571D01*
X102077928Y-35277428D01*
X101134500Y-35277428D01*
X100191071Y-33753428D02*
X100045928Y-33753428D01*
X99900785Y-33826000D01*
X99828214Y-33898571D01*
X99755642Y-34043714D01*
X99683071Y-34334000D01*
X99683071Y-34696857D01*
X99755642Y-34987142D01*
X99828214Y-35132285D01*
X99900785Y-35204857D01*
X100045928Y-35277428D01*
X100191071Y-35277428D01*
X100336214Y-35204857D01*
X100408785Y-35132285D01*
X100481357Y-34987142D01*
X100553928Y-34696857D01*
X100553928Y-34334000D01*
X100481357Y-34043714D01*
X100408785Y-33898571D01*
X100336214Y-33826000D01*
X100191071Y-33753428D01*
X98376785Y-34261428D02*
X98376785Y-35277428D01*
X98739642Y-33680857D02*
X99102500Y-34769428D01*
X98159071Y-34769428D01*
X122456785Y-35277428D02*
X122456785Y-33753428D01*
X121585928Y-35277428D02*
X122239071Y-34406571D01*
X121585928Y-33753428D02*
X122456785Y-34624285D01*
X121005357Y-33898571D02*
X120932785Y-33826000D01*
X120787642Y-33753428D01*
X120424785Y-33753428D01*
X120279642Y-33826000D01*
X120207071Y-33898571D01*
X120134500Y-34043714D01*
X120134500Y-34188857D01*
X120207071Y-34406571D01*
X121077928Y-35277428D01*
X120134500Y-35277428D01*
X119191071Y-33753428D02*
X119045928Y-33753428D01*
X118900785Y-33826000D01*
X118828214Y-33898571D01*
X118755642Y-34043714D01*
X118683071Y-34334000D01*
X118683071Y-34696857D01*
X118755642Y-34987142D01*
X118828214Y-35132285D01*
X118900785Y-35204857D01*
X119045928Y-35277428D01*
X119191071Y-35277428D01*
X119336214Y-35204857D01*
X119408785Y-35132285D01*
X119481357Y-34987142D01*
X119553928Y-34696857D01*
X119553928Y-34334000D01*
X119481357Y-34043714D01*
X119408785Y-33898571D01*
X119336214Y-33826000D01*
X119191071Y-33753428D01*
X117304214Y-33753428D02*
X118029928Y-33753428D01*
X118102500Y-34479142D01*
X118029928Y-34406571D01*
X117884785Y-34334000D01*
X117521928Y-34334000D01*
X117376785Y-34406571D01*
X117304214Y-34479142D01*
X117231642Y-34624285D01*
X117231642Y-34987142D01*
X117304214Y-35132285D01*
X117376785Y-35204857D01*
X117521928Y-35277428D01*
X117884785Y-35277428D01*
X118029928Y-35204857D01*
X118102500Y-35132285D01*
X141456785Y-35277428D02*
X141456785Y-33753428D01*
X140585928Y-35277428D02*
X141239071Y-34406571D01*
X140585928Y-33753428D02*
X141456785Y-34624285D01*
X140005357Y-33898571D02*
X139932785Y-33826000D01*
X139787642Y-33753428D01*
X139424785Y-33753428D01*
X139279642Y-33826000D01*
X139207071Y-33898571D01*
X139134500Y-34043714D01*
X139134500Y-34188857D01*
X139207071Y-34406571D01*
X140077928Y-35277428D01*
X139134500Y-35277428D01*
X138191071Y-33753428D02*
X138045928Y-33753428D01*
X137900785Y-33826000D01*
X137828214Y-33898571D01*
X137755642Y-34043714D01*
X137683071Y-34334000D01*
X137683071Y-34696857D01*
X137755642Y-34987142D01*
X137828214Y-35132285D01*
X137900785Y-35204857D01*
X138045928Y-35277428D01*
X138191071Y-35277428D01*
X138336214Y-35204857D01*
X138408785Y-35132285D01*
X138481357Y-34987142D01*
X138553928Y-34696857D01*
X138553928Y-34334000D01*
X138481357Y-34043714D01*
X138408785Y-33898571D01*
X138336214Y-33826000D01*
X138191071Y-33753428D01*
X136376785Y-33753428D02*
X136667071Y-33753428D01*
X136812214Y-33826000D01*
X136884785Y-33898571D01*
X137029928Y-34116285D01*
X137102500Y-34406571D01*
X137102500Y-34987142D01*
X137029928Y-35132285D01*
X136957357Y-35204857D01*
X136812214Y-35277428D01*
X136521928Y-35277428D01*
X136376785Y-35204857D01*
X136304214Y-35132285D01*
X136231642Y-34987142D01*
X136231642Y-34624285D01*
X136304214Y-34479142D01*
X136376785Y-34406571D01*
X136521928Y-34334000D01*
X136812214Y-34334000D01*
X136957357Y-34406571D01*
X137029928Y-34479142D01*
X137102500Y-34624285D01*
X160456785Y-35277428D02*
X160456785Y-33753428D01*
X159585928Y-35277428D02*
X160239071Y-34406571D01*
X159585928Y-33753428D02*
X160456785Y-34624285D01*
X159005357Y-33898571D02*
X158932785Y-33826000D01*
X158787642Y-33753428D01*
X158424785Y-33753428D01*
X158279642Y-33826000D01*
X158207071Y-33898571D01*
X158134500Y-34043714D01*
X158134500Y-34188857D01*
X158207071Y-34406571D01*
X159077928Y-35277428D01*
X158134500Y-35277428D01*
X157191071Y-33753428D02*
X157045928Y-33753428D01*
X156900785Y-33826000D01*
X156828214Y-33898571D01*
X156755642Y-34043714D01*
X156683071Y-34334000D01*
X156683071Y-34696857D01*
X156755642Y-34987142D01*
X156828214Y-35132285D01*
X156900785Y-35204857D01*
X157045928Y-35277428D01*
X157191071Y-35277428D01*
X157336214Y-35204857D01*
X157408785Y-35132285D01*
X157481357Y-34987142D01*
X157553928Y-34696857D01*
X157553928Y-34334000D01*
X157481357Y-34043714D01*
X157408785Y-33898571D01*
X157336214Y-33826000D01*
X157191071Y-33753428D01*
X156175071Y-33753428D02*
X155159071Y-33753428D01*
X155812214Y-35277428D01*
X179456785Y-35277428D02*
X179456785Y-33753428D01*
X178585928Y-35277428D02*
X179239071Y-34406571D01*
X178585928Y-33753428D02*
X179456785Y-34624285D01*
X178005357Y-33898571D02*
X177932785Y-33826000D01*
X177787642Y-33753428D01*
X177424785Y-33753428D01*
X177279642Y-33826000D01*
X177207071Y-33898571D01*
X177134500Y-34043714D01*
X177134500Y-34188857D01*
X177207071Y-34406571D01*
X178077928Y-35277428D01*
X177134500Y-35277428D01*
X176191071Y-33753428D02*
X176045928Y-33753428D01*
X175900785Y-33826000D01*
X175828214Y-33898571D01*
X175755642Y-34043714D01*
X175683071Y-34334000D01*
X175683071Y-34696857D01*
X175755642Y-34987142D01*
X175828214Y-35132285D01*
X175900785Y-35204857D01*
X176045928Y-35277428D01*
X176191071Y-35277428D01*
X176336214Y-35204857D01*
X176408785Y-35132285D01*
X176481357Y-34987142D01*
X176553928Y-34696857D01*
X176553928Y-34334000D01*
X176481357Y-34043714D01*
X176408785Y-33898571D01*
X176336214Y-33826000D01*
X176191071Y-33753428D01*
X174812214Y-34406571D02*
X174957357Y-34334000D01*
X175029928Y-34261428D01*
X175102500Y-34116285D01*
X175102500Y-34043714D01*
X175029928Y-33898571D01*
X174957357Y-33826000D01*
X174812214Y-33753428D01*
X174521928Y-33753428D01*
X174376785Y-33826000D01*
X174304214Y-33898571D01*
X174231642Y-34043714D01*
X174231642Y-34116285D01*
X174304214Y-34261428D01*
X174376785Y-34334000D01*
X174521928Y-34406571D01*
X174812214Y-34406571D01*
X174957357Y-34479142D01*
X175029928Y-34551714D01*
X175102500Y-34696857D01*
X175102500Y-34987142D01*
X175029928Y-35132285D01*
X174957357Y-35204857D01*
X174812214Y-35277428D01*
X174521928Y-35277428D01*
X174376785Y-35204857D01*
X174304214Y-35132285D01*
X174231642Y-34987142D01*
X174231642Y-34696857D01*
X174304214Y-34551714D01*
X174376785Y-34479142D01*
X174521928Y-34406571D01*
X198456785Y-35277428D02*
X198456785Y-33753428D01*
X197585928Y-35277428D02*
X198239071Y-34406571D01*
X197585928Y-33753428D02*
X198456785Y-34624285D01*
X197005357Y-33898571D02*
X196932785Y-33826000D01*
X196787642Y-33753428D01*
X196424785Y-33753428D01*
X196279642Y-33826000D01*
X196207071Y-33898571D01*
X196134500Y-34043714D01*
X196134500Y-34188857D01*
X196207071Y-34406571D01*
X197077928Y-35277428D01*
X196134500Y-35277428D01*
X195191071Y-33753428D02*
X195045928Y-33753428D01*
X194900785Y-33826000D01*
X194828214Y-33898571D01*
X194755642Y-34043714D01*
X194683071Y-34334000D01*
X194683071Y-34696857D01*
X194755642Y-34987142D01*
X194828214Y-35132285D01*
X194900785Y-35204857D01*
X195045928Y-35277428D01*
X195191071Y-35277428D01*
X195336214Y-35204857D01*
X195408785Y-35132285D01*
X195481357Y-34987142D01*
X195553928Y-34696857D01*
X195553928Y-34334000D01*
X195481357Y-34043714D01*
X195408785Y-33898571D01*
X195336214Y-33826000D01*
X195191071Y-33753428D01*
X193957357Y-35277428D02*
X193667071Y-35277428D01*
X193521928Y-35204857D01*
X193449357Y-35132285D01*
X193304214Y-34914571D01*
X193231642Y-34624285D01*
X193231642Y-34043714D01*
X193304214Y-33898571D01*
X193376785Y-33826000D01*
X193521928Y-33753428D01*
X193812214Y-33753428D01*
X193957357Y-33826000D01*
X194029928Y-33898571D01*
X194102500Y-34043714D01*
X194102500Y-34406571D01*
X194029928Y-34551714D01*
X193957357Y-34624285D01*
X193812214Y-34696857D01*
X193521928Y-34696857D01*
X193376785Y-34624285D01*
X193304214Y-34551714D01*
X193231642Y-34406571D01*
D10*
X153382776Y-47647540D02*
X153382776Y-46647540D01*
X153144680Y-46647540D01*
X153001823Y-46695160D01*
X152906585Y-46790398D01*
X152858966Y-46885636D01*
X152811347Y-47076112D01*
X152811347Y-47218969D01*
X152858966Y-47409445D01*
X152906585Y-47504683D01*
X153001823Y-47599921D01*
X153144680Y-47647540D01*
X153382776Y-47647540D01*
X151858966Y-47647540D02*
X152430395Y-47647540D01*
X152144680Y-47647540D02*
X152144680Y-46647540D01*
X152239919Y-46790398D01*
X152335157Y-46885636D01*
X152430395Y-46933255D01*
X151239919Y-46647540D02*
X151144680Y-46647540D01*
X151049442Y-46695160D01*
X151001823Y-46742779D01*
X150954204Y-46838017D01*
X150906585Y-47028493D01*
X150906585Y-47266588D01*
X150954204Y-47457064D01*
X151001823Y-47552302D01*
X151049442Y-47599921D01*
X151144680Y-47647540D01*
X151239919Y-47647540D01*
X151335157Y-47599921D01*
X151382776Y-47552302D01*
X151430395Y-47457064D01*
X151478014Y-47266588D01*
X151478014Y-47028493D01*
X151430395Y-46838017D01*
X151382776Y-46742779D01*
X151335157Y-46695160D01*
X151239919Y-46647540D01*
X150525633Y-46742779D02*
X150478014Y-46695160D01*
X150382776Y-46647540D01*
X150144680Y-46647540D01*
X150049442Y-46695160D01*
X150001823Y-46742779D01*
X149954204Y-46838017D01*
X149954204Y-46933255D01*
X150001823Y-47076112D01*
X150573252Y-47647540D01*
X149954204Y-47647540D01*
X89184180Y-30963183D02*
X88184180Y-30963183D01*
X88184180Y-31201279D01*
X88231800Y-31344136D01*
X88327038Y-31439374D01*
X88422276Y-31486993D01*
X88612752Y-31534612D01*
X88755609Y-31534612D01*
X88946085Y-31486993D01*
X89041323Y-31439374D01*
X89136561Y-31344136D01*
X89184180Y-31201279D01*
X89184180Y-30963183D01*
X89184180Y-32486993D02*
X89184180Y-31915564D01*
X89184180Y-32201279D02*
X88184180Y-32201279D01*
X88327038Y-32106040D01*
X88422276Y-32010802D01*
X88469895Y-31915564D01*
X88184180Y-33106040D02*
X88184180Y-33201279D01*
X88231800Y-33296517D01*
X88279419Y-33344136D01*
X88374657Y-33391755D01*
X88565133Y-33439374D01*
X88803228Y-33439374D01*
X88993704Y-33391755D01*
X89088942Y-33344136D01*
X89136561Y-33296517D01*
X89184180Y-33201279D01*
X89184180Y-33106040D01*
X89136561Y-33010802D01*
X89088942Y-32963183D01*
X88993704Y-32915564D01*
X88803228Y-32867945D01*
X88565133Y-32867945D01*
X88374657Y-32915564D01*
X88279419Y-32963183D01*
X88231800Y-33010802D01*
X88184180Y-33106040D01*
X89184180Y-34391755D02*
X89184180Y-33820326D01*
X89184180Y-34106040D02*
X88184180Y-34106040D01*
X88327038Y-34010802D01*
X88422276Y-33915564D01*
X88469895Y-33820326D01*
X82215371Y-31431445D02*
X82215371Y-31098112D01*
X82739180Y-31098112D02*
X81739180Y-31098112D01*
X81739180Y-31574302D01*
X82739180Y-32479064D02*
X82739180Y-31907636D01*
X82739180Y-32193350D02*
X81739180Y-32193350D01*
X81882038Y-32098112D01*
X81977276Y-32002874D01*
X82024895Y-31907636D01*
X81739180Y-33098112D02*
X81739180Y-33193350D01*
X81786800Y-33288588D01*
X81834419Y-33336207D01*
X81929657Y-33383826D01*
X82120133Y-33431445D01*
X82358228Y-33431445D01*
X82548704Y-33383826D01*
X82643942Y-33336207D01*
X82691561Y-33288588D01*
X82739180Y-33193350D01*
X82739180Y-33098112D01*
X82691561Y-33002874D01*
X82643942Y-32955255D01*
X82548704Y-32907636D01*
X82358228Y-32860017D01*
X82120133Y-32860017D01*
X81929657Y-32907636D01*
X81834419Y-32955255D01*
X81786800Y-33002874D01*
X81739180Y-33098112D01*
X82739180Y-34383826D02*
X82739180Y-33812398D01*
X82739180Y-34098112D02*
X81739180Y-34098112D01*
X81882038Y-34002874D01*
X81977276Y-33907636D01*
X82024895Y-33812398D01*
X76595680Y-38559374D02*
X77405204Y-38559374D01*
X77500442Y-38606993D01*
X77548061Y-38654612D01*
X77595680Y-38749850D01*
X77595680Y-38940326D01*
X77548061Y-39035564D01*
X77500442Y-39083183D01*
X77405204Y-39130802D01*
X76595680Y-39130802D01*
X77595680Y-40130802D02*
X77595680Y-39559374D01*
X77595680Y-39845088D02*
X76595680Y-39845088D01*
X76738538Y-39749850D01*
X76833776Y-39654612D01*
X76881395Y-39559374D01*
X76595680Y-40749850D02*
X76595680Y-40845088D01*
X76643300Y-40940326D01*
X76690919Y-40987945D01*
X76786157Y-41035564D01*
X76976633Y-41083183D01*
X77214728Y-41083183D01*
X77405204Y-41035564D01*
X77500442Y-40987945D01*
X77548061Y-40940326D01*
X77595680Y-40845088D01*
X77595680Y-40749850D01*
X77548061Y-40654612D01*
X77500442Y-40606993D01*
X77405204Y-40559374D01*
X77214728Y-40511755D01*
X76976633Y-40511755D01*
X76786157Y-40559374D01*
X76690919Y-40606993D01*
X76643300Y-40654612D01*
X76595680Y-40749850D01*
X76595680Y-41416517D02*
X76595680Y-42035564D01*
X76976633Y-41702231D01*
X76976633Y-41845088D01*
X77024252Y-41940326D01*
X77071871Y-41987945D01*
X77167109Y-42035564D01*
X77405204Y-42035564D01*
X77500442Y-41987945D01*
X77548061Y-41940326D01*
X77595680Y-41845088D01*
X77595680Y-41559374D01*
X77548061Y-41464136D01*
X77500442Y-41416517D01*
X277368180Y-72195064D02*
X277368180Y-71395064D01*
X277177704Y-71395064D01*
X277063419Y-71433160D01*
X276987228Y-71509350D01*
X276949133Y-71585540D01*
X276911038Y-71737921D01*
X276911038Y-71852207D01*
X276949133Y-72004588D01*
X276987228Y-72080779D01*
X277063419Y-72156969D01*
X277177704Y-72195064D01*
X277368180Y-72195064D01*
X276568180Y-72195064D02*
X276568180Y-71395064D01*
X276377704Y-71395064D01*
X276263419Y-71433160D01*
X276187228Y-71509350D01*
X276149133Y-71585540D01*
X276111038Y-71737921D01*
X276111038Y-71852207D01*
X276149133Y-72004588D01*
X276187228Y-72080779D01*
X276263419Y-72156969D01*
X276377704Y-72195064D01*
X276568180Y-72195064D01*
X275806276Y-71471255D02*
X275768180Y-71433160D01*
X275691990Y-71395064D01*
X275501514Y-71395064D01*
X275425323Y-71433160D01*
X275387228Y-71471255D01*
X275349133Y-71547445D01*
X275349133Y-71623636D01*
X275387228Y-71737921D01*
X275844371Y-72195064D01*
X275349133Y-72195064D01*
X275044371Y-71471255D02*
X275006276Y-71433160D01*
X274930085Y-71395064D01*
X274739609Y-71395064D01*
X274663419Y-71433160D01*
X274625323Y-71471255D01*
X274587228Y-71547445D01*
X274587228Y-71623636D01*
X274625323Y-71737921D01*
X275082466Y-72195064D01*
X274587228Y-72195064D01*
X273825323Y-72195064D02*
X274282466Y-72195064D01*
X274053895Y-72195064D02*
X274053895Y-71395064D01*
X274130085Y-71509350D01*
X274206276Y-71585540D01*
X274282466Y-71623636D01*
X173774514Y-47603921D02*
X173631657Y-47651540D01*
X173393561Y-47651540D01*
X173298323Y-47603921D01*
X173250704Y-47556302D01*
X173203085Y-47461064D01*
X173203085Y-47365826D01*
X173250704Y-47270588D01*
X173298323Y-47222969D01*
X173393561Y-47175350D01*
X173584038Y-47127731D01*
X173679276Y-47080112D01*
X173726895Y-47032493D01*
X173774514Y-46937255D01*
X173774514Y-46842017D01*
X173726895Y-46746779D01*
X173679276Y-46699160D01*
X173584038Y-46651540D01*
X173345942Y-46651540D01*
X173203085Y-46699160D01*
X172869752Y-46651540D02*
X172631657Y-47651540D01*
X172441180Y-46937255D01*
X172250704Y-47651540D01*
X172012609Y-46651540D01*
X171107847Y-47651540D02*
X171679276Y-47651540D01*
X171393561Y-47651540D02*
X171393561Y-46651540D01*
X171488800Y-46794398D01*
X171584038Y-46889636D01*
X171679276Y-46937255D01*
X170488800Y-46651540D02*
X170393561Y-46651540D01*
X170298323Y-46699160D01*
X170250704Y-46746779D01*
X170203085Y-46842017D01*
X170155466Y-47032493D01*
X170155466Y-47270588D01*
X170203085Y-47461064D01*
X170250704Y-47556302D01*
X170298323Y-47603921D01*
X170393561Y-47651540D01*
X170488800Y-47651540D01*
X170584038Y-47603921D01*
X170631657Y-47556302D01*
X170679276Y-47461064D01*
X170726895Y-47270588D01*
X170726895Y-47032493D01*
X170679276Y-46842017D01*
X170631657Y-46746779D01*
X170584038Y-46699160D01*
X170488800Y-46651540D01*
X169203085Y-47651540D02*
X169774514Y-47651540D01*
X169488800Y-47651540D02*
X169488800Y-46651540D01*
X169584038Y-46794398D01*
X169679276Y-46889636D01*
X169774514Y-46937255D01*
X77182914Y-32276980D02*
X77182914Y-32991266D01*
X77230533Y-33134123D01*
X77325771Y-33229361D01*
X77468628Y-33276980D01*
X77563866Y-33276980D01*
X76182914Y-33276980D02*
X76754342Y-33276980D01*
X76468628Y-33276980D02*
X76468628Y-32276980D01*
X76563866Y-32419838D01*
X76659104Y-32515076D01*
X76754342Y-32562695D01*
X75563866Y-32276980D02*
X75468628Y-32276980D01*
X75373390Y-32324600D01*
X75325771Y-32372219D01*
X75278152Y-32467457D01*
X75230533Y-32657933D01*
X75230533Y-32896028D01*
X75278152Y-33086504D01*
X75325771Y-33181742D01*
X75373390Y-33229361D01*
X75468628Y-33276980D01*
X75563866Y-33276980D01*
X75659104Y-33229361D01*
X75706723Y-33181742D01*
X75754342Y-33086504D01*
X75801961Y-32896028D01*
X75801961Y-32657933D01*
X75754342Y-32467457D01*
X75706723Y-32372219D01*
X75659104Y-32324600D01*
X75563866Y-32276980D01*
X74278152Y-33276980D02*
X74849580Y-33276980D01*
X74563866Y-33276980D02*
X74563866Y-32276980D01*
X74659104Y-32419838D01*
X74754342Y-32515076D01*
X74849580Y-32562695D01*
X58299514Y-33845540D02*
X58299514Y-34559826D01*
X58347133Y-34702683D01*
X58442371Y-34797921D01*
X58585228Y-34845540D01*
X58680466Y-34845540D01*
X57299514Y-34845540D02*
X57870942Y-34845540D01*
X57585228Y-34845540D02*
X57585228Y-33845540D01*
X57680466Y-33988398D01*
X57775704Y-34083636D01*
X57870942Y-34131255D01*
X56680466Y-33845540D02*
X56585228Y-33845540D01*
X56489990Y-33893160D01*
X56442371Y-33940779D01*
X56394752Y-34036017D01*
X56347133Y-34226493D01*
X56347133Y-34464588D01*
X56394752Y-34655064D01*
X56442371Y-34750302D01*
X56489990Y-34797921D01*
X56585228Y-34845540D01*
X56680466Y-34845540D01*
X56775704Y-34797921D01*
X56823323Y-34750302D01*
X56870942Y-34655064D01*
X56918561Y-34464588D01*
X56918561Y-34226493D01*
X56870942Y-34036017D01*
X56823323Y-33940779D01*
X56775704Y-33893160D01*
X56680466Y-33845540D01*
X55966180Y-33940779D02*
X55918561Y-33893160D01*
X55823323Y-33845540D01*
X55585228Y-33845540D01*
X55489990Y-33893160D01*
X55442371Y-33940779D01*
X55394752Y-34036017D01*
X55394752Y-34131255D01*
X55442371Y-34274112D01*
X56013800Y-34845540D01*
X55394752Y-34845540D01*
X62990680Y-30455112D02*
X62514490Y-30121779D01*
X62990680Y-29883683D02*
X61990680Y-29883683D01*
X61990680Y-30264636D01*
X62038300Y-30359874D01*
X62085919Y-30407493D01*
X62181157Y-30455112D01*
X62324014Y-30455112D01*
X62419252Y-30407493D01*
X62466871Y-30359874D01*
X62514490Y-30264636D01*
X62514490Y-29883683D01*
X62990680Y-31407493D02*
X62990680Y-30836064D01*
X62990680Y-31121779D02*
X61990680Y-31121779D01*
X62133538Y-31026540D01*
X62228776Y-30931302D01*
X62276395Y-30836064D01*
X61990680Y-32026540D02*
X61990680Y-32121779D01*
X62038300Y-32217017D01*
X62085919Y-32264636D01*
X62181157Y-32312255D01*
X62371633Y-32359874D01*
X62609728Y-32359874D01*
X62800204Y-32312255D01*
X62895442Y-32264636D01*
X62943061Y-32217017D01*
X62990680Y-32121779D01*
X62990680Y-32026540D01*
X62943061Y-31931302D01*
X62895442Y-31883683D01*
X62800204Y-31836064D01*
X62609728Y-31788445D01*
X62371633Y-31788445D01*
X62181157Y-31836064D01*
X62085919Y-31883683D01*
X62038300Y-31931302D01*
X61990680Y-32026540D01*
X61990680Y-32693207D02*
X61990680Y-33312255D01*
X62371633Y-32978921D01*
X62371633Y-33121779D01*
X62419252Y-33217017D01*
X62466871Y-33264636D01*
X62562109Y-33312255D01*
X62800204Y-33312255D01*
X62895442Y-33264636D01*
X62943061Y-33217017D01*
X62990680Y-33121779D01*
X62990680Y-32836064D01*
X62943061Y-32740826D01*
X62895442Y-32693207D01*
X58758560Y-44742744D02*
X58758560Y-43942744D01*
X58568084Y-43942744D01*
X58453799Y-43980840D01*
X58377608Y-44057030D01*
X58339513Y-44133220D01*
X58301418Y-44285601D01*
X58301418Y-44399887D01*
X58339513Y-44552268D01*
X58377608Y-44628459D01*
X58453799Y-44704649D01*
X58568084Y-44742744D01*
X58758560Y-44742744D01*
X57958560Y-44742744D02*
X57958560Y-43942744D01*
X57768084Y-43942744D01*
X57653799Y-43980840D01*
X57577608Y-44057030D01*
X57539513Y-44133220D01*
X57501418Y-44285601D01*
X57501418Y-44399887D01*
X57539513Y-44552268D01*
X57577608Y-44628459D01*
X57653799Y-44704649D01*
X57768084Y-44742744D01*
X57958560Y-44742744D01*
X57196656Y-44018935D02*
X57158560Y-43980840D01*
X57082370Y-43942744D01*
X56891894Y-43942744D01*
X56815703Y-43980840D01*
X56777608Y-44018935D01*
X56739513Y-44095125D01*
X56739513Y-44171316D01*
X56777608Y-44285601D01*
X57234751Y-44742744D01*
X56739513Y-44742744D01*
X56244275Y-43942744D02*
X56168084Y-43942744D01*
X56091894Y-43980840D01*
X56053799Y-44018935D01*
X56015703Y-44095125D01*
X55977608Y-44247506D01*
X55977608Y-44437982D01*
X56015703Y-44590363D01*
X56053799Y-44666554D01*
X56091894Y-44704649D01*
X56168084Y-44742744D01*
X56244275Y-44742744D01*
X56320465Y-44704649D01*
X56358560Y-44666554D01*
X56396656Y-44590363D01*
X56434751Y-44437982D01*
X56434751Y-44247506D01*
X56396656Y-44095125D01*
X56358560Y-44018935D01*
X56320465Y-43980840D01*
X56244275Y-43942744D01*
X55672846Y-44018935D02*
X55634751Y-43980840D01*
X55558560Y-43942744D01*
X55368084Y-43942744D01*
X55291894Y-43980840D01*
X55253799Y-44018935D01*
X55215703Y-44095125D01*
X55215703Y-44171316D01*
X55253799Y-44285601D01*
X55710941Y-44742744D01*
X55215703Y-44742744D01*
X96758560Y-44742744D02*
X96758560Y-43942744D01*
X96568084Y-43942744D01*
X96453799Y-43980840D01*
X96377608Y-44057030D01*
X96339513Y-44133220D01*
X96301418Y-44285601D01*
X96301418Y-44399887D01*
X96339513Y-44552268D01*
X96377608Y-44628459D01*
X96453799Y-44704649D01*
X96568084Y-44742744D01*
X96758560Y-44742744D01*
X95958560Y-44742744D02*
X95958560Y-43942744D01*
X95768084Y-43942744D01*
X95653799Y-43980840D01*
X95577608Y-44057030D01*
X95539513Y-44133220D01*
X95501418Y-44285601D01*
X95501418Y-44399887D01*
X95539513Y-44552268D01*
X95577608Y-44628459D01*
X95653799Y-44704649D01*
X95768084Y-44742744D01*
X95958560Y-44742744D01*
X95196656Y-44018935D02*
X95158560Y-43980840D01*
X95082370Y-43942744D01*
X94891894Y-43942744D01*
X94815703Y-43980840D01*
X94777608Y-44018935D01*
X94739513Y-44095125D01*
X94739513Y-44171316D01*
X94777608Y-44285601D01*
X95234751Y-44742744D01*
X94739513Y-44742744D01*
X94244275Y-43942744D02*
X94168084Y-43942744D01*
X94091894Y-43980840D01*
X94053799Y-44018935D01*
X94015703Y-44095125D01*
X93977608Y-44247506D01*
X93977608Y-44437982D01*
X94015703Y-44590363D01*
X94053799Y-44666554D01*
X94091894Y-44704649D01*
X94168084Y-44742744D01*
X94244275Y-44742744D01*
X94320465Y-44704649D01*
X94358560Y-44666554D01*
X94396656Y-44590363D01*
X94434751Y-44437982D01*
X94434751Y-44247506D01*
X94396656Y-44095125D01*
X94358560Y-44018935D01*
X94320465Y-43980840D01*
X94244275Y-43942744D01*
X93710941Y-43942744D02*
X93215703Y-43942744D01*
X93482370Y-44247506D01*
X93368084Y-44247506D01*
X93291894Y-44285601D01*
X93253799Y-44323697D01*
X93215703Y-44399887D01*
X93215703Y-44590363D01*
X93253799Y-44666554D01*
X93291894Y-44704649D01*
X93368084Y-44742744D01*
X93596656Y-44742744D01*
X93672846Y-44704649D01*
X93710941Y-44666554D01*
X134758560Y-44742744D02*
X134758560Y-43942744D01*
X134568084Y-43942744D01*
X134453799Y-43980840D01*
X134377608Y-44057030D01*
X134339513Y-44133220D01*
X134301418Y-44285601D01*
X134301418Y-44399887D01*
X134339513Y-44552268D01*
X134377608Y-44628459D01*
X134453799Y-44704649D01*
X134568084Y-44742744D01*
X134758560Y-44742744D01*
X133958560Y-44742744D02*
X133958560Y-43942744D01*
X133768084Y-43942744D01*
X133653799Y-43980840D01*
X133577608Y-44057030D01*
X133539513Y-44133220D01*
X133501418Y-44285601D01*
X133501418Y-44399887D01*
X133539513Y-44552268D01*
X133577608Y-44628459D01*
X133653799Y-44704649D01*
X133768084Y-44742744D01*
X133958560Y-44742744D01*
X133196656Y-44018935D02*
X133158560Y-43980840D01*
X133082370Y-43942744D01*
X132891894Y-43942744D01*
X132815703Y-43980840D01*
X132777608Y-44018935D01*
X132739513Y-44095125D01*
X132739513Y-44171316D01*
X132777608Y-44285601D01*
X133234751Y-44742744D01*
X132739513Y-44742744D01*
X132244275Y-43942744D02*
X132168084Y-43942744D01*
X132091894Y-43980840D01*
X132053799Y-44018935D01*
X132015703Y-44095125D01*
X131977608Y-44247506D01*
X131977608Y-44437982D01*
X132015703Y-44590363D01*
X132053799Y-44666554D01*
X132091894Y-44704649D01*
X132168084Y-44742744D01*
X132244275Y-44742744D01*
X132320465Y-44704649D01*
X132358560Y-44666554D01*
X132396656Y-44590363D01*
X132434751Y-44437982D01*
X132434751Y-44247506D01*
X132396656Y-44095125D01*
X132358560Y-44018935D01*
X132320465Y-43980840D01*
X132244275Y-43942744D01*
X131291894Y-44209411D02*
X131291894Y-44742744D01*
X131482370Y-43904649D02*
X131672846Y-44476078D01*
X131177608Y-44476078D01*
X191758560Y-44742744D02*
X191758560Y-43942744D01*
X191568084Y-43942744D01*
X191453799Y-43980840D01*
X191377608Y-44057030D01*
X191339513Y-44133220D01*
X191301418Y-44285601D01*
X191301418Y-44399887D01*
X191339513Y-44552268D01*
X191377608Y-44628459D01*
X191453799Y-44704649D01*
X191568084Y-44742744D01*
X191758560Y-44742744D01*
X190958560Y-44742744D02*
X190958560Y-43942744D01*
X190768084Y-43942744D01*
X190653799Y-43980840D01*
X190577608Y-44057030D01*
X190539513Y-44133220D01*
X190501418Y-44285601D01*
X190501418Y-44399887D01*
X190539513Y-44552268D01*
X190577608Y-44628459D01*
X190653799Y-44704649D01*
X190768084Y-44742744D01*
X190958560Y-44742744D01*
X190196656Y-44018935D02*
X190158560Y-43980840D01*
X190082370Y-43942744D01*
X189891894Y-43942744D01*
X189815703Y-43980840D01*
X189777608Y-44018935D01*
X189739513Y-44095125D01*
X189739513Y-44171316D01*
X189777608Y-44285601D01*
X190234751Y-44742744D01*
X189739513Y-44742744D01*
X189244275Y-43942744D02*
X189168084Y-43942744D01*
X189091894Y-43980840D01*
X189053799Y-44018935D01*
X189015703Y-44095125D01*
X188977608Y-44247506D01*
X188977608Y-44437982D01*
X189015703Y-44590363D01*
X189053799Y-44666554D01*
X189091894Y-44704649D01*
X189168084Y-44742744D01*
X189244275Y-44742744D01*
X189320465Y-44704649D01*
X189358560Y-44666554D01*
X189396656Y-44590363D01*
X189434751Y-44437982D01*
X189434751Y-44247506D01*
X189396656Y-44095125D01*
X189358560Y-44018935D01*
X189320465Y-43980840D01*
X189244275Y-43942744D01*
X188253799Y-43942744D02*
X188634751Y-43942744D01*
X188672846Y-44323697D01*
X188634751Y-44285601D01*
X188558560Y-44247506D01*
X188368084Y-44247506D01*
X188291894Y-44285601D01*
X188253799Y-44323697D01*
X188215703Y-44399887D01*
X188215703Y-44590363D01*
X188253799Y-44666554D01*
X188291894Y-44704649D01*
X188368084Y-44742744D01*
X188558560Y-44742744D01*
X188634751Y-44704649D01*
X188672846Y-44666554D01*
X229758560Y-44742744D02*
X229758560Y-43942744D01*
X229568084Y-43942744D01*
X229453799Y-43980840D01*
X229377608Y-44057030D01*
X229339513Y-44133220D01*
X229301418Y-44285601D01*
X229301418Y-44399887D01*
X229339513Y-44552268D01*
X229377608Y-44628459D01*
X229453799Y-44704649D01*
X229568084Y-44742744D01*
X229758560Y-44742744D01*
X228958560Y-44742744D02*
X228958560Y-43942744D01*
X228768084Y-43942744D01*
X228653799Y-43980840D01*
X228577608Y-44057030D01*
X228539513Y-44133220D01*
X228501418Y-44285601D01*
X228501418Y-44399887D01*
X228539513Y-44552268D01*
X228577608Y-44628459D01*
X228653799Y-44704649D01*
X228768084Y-44742744D01*
X228958560Y-44742744D01*
X228196656Y-44018935D02*
X228158560Y-43980840D01*
X228082370Y-43942744D01*
X227891894Y-43942744D01*
X227815703Y-43980840D01*
X227777608Y-44018935D01*
X227739513Y-44095125D01*
X227739513Y-44171316D01*
X227777608Y-44285601D01*
X228234751Y-44742744D01*
X227739513Y-44742744D01*
X227244275Y-43942744D02*
X227168084Y-43942744D01*
X227091894Y-43980840D01*
X227053799Y-44018935D01*
X227015703Y-44095125D01*
X226977608Y-44247506D01*
X226977608Y-44437982D01*
X227015703Y-44590363D01*
X227053799Y-44666554D01*
X227091894Y-44704649D01*
X227168084Y-44742744D01*
X227244275Y-44742744D01*
X227320465Y-44704649D01*
X227358560Y-44666554D01*
X227396656Y-44590363D01*
X227434751Y-44437982D01*
X227434751Y-44247506D01*
X227396656Y-44095125D01*
X227358560Y-44018935D01*
X227320465Y-43980840D01*
X227244275Y-43942744D01*
X226291894Y-43942744D02*
X226444275Y-43942744D01*
X226520465Y-43980840D01*
X226558560Y-44018935D01*
X226634751Y-44133220D01*
X226672846Y-44285601D01*
X226672846Y-44590363D01*
X226634751Y-44666554D01*
X226596656Y-44704649D01*
X226520465Y-44742744D01*
X226368084Y-44742744D01*
X226291894Y-44704649D01*
X226253799Y-44666554D01*
X226215703Y-44590363D01*
X226215703Y-44399887D01*
X226253799Y-44323697D01*
X226291894Y-44285601D01*
X226368084Y-44247506D01*
X226520465Y-44247506D01*
X226596656Y-44285601D01*
X226634751Y-44323697D01*
X226672846Y-44399887D01*
X267758560Y-44742744D02*
X267758560Y-43942744D01*
X267568084Y-43942744D01*
X267453799Y-43980840D01*
X267377608Y-44057030D01*
X267339513Y-44133220D01*
X267301418Y-44285601D01*
X267301418Y-44399887D01*
X267339513Y-44552268D01*
X267377608Y-44628459D01*
X267453799Y-44704649D01*
X267568084Y-44742744D01*
X267758560Y-44742744D01*
X266958560Y-44742744D02*
X266958560Y-43942744D01*
X266768084Y-43942744D01*
X266653799Y-43980840D01*
X266577608Y-44057030D01*
X266539513Y-44133220D01*
X266501418Y-44285601D01*
X266501418Y-44399887D01*
X266539513Y-44552268D01*
X266577608Y-44628459D01*
X266653799Y-44704649D01*
X266768084Y-44742744D01*
X266958560Y-44742744D01*
X266196656Y-44018935D02*
X266158560Y-43980840D01*
X266082370Y-43942744D01*
X265891894Y-43942744D01*
X265815703Y-43980840D01*
X265777608Y-44018935D01*
X265739513Y-44095125D01*
X265739513Y-44171316D01*
X265777608Y-44285601D01*
X266234751Y-44742744D01*
X265739513Y-44742744D01*
X265244275Y-43942744D02*
X265168084Y-43942744D01*
X265091894Y-43980840D01*
X265053799Y-44018935D01*
X265015703Y-44095125D01*
X264977608Y-44247506D01*
X264977608Y-44437982D01*
X265015703Y-44590363D01*
X265053799Y-44666554D01*
X265091894Y-44704649D01*
X265168084Y-44742744D01*
X265244275Y-44742744D01*
X265320465Y-44704649D01*
X265358560Y-44666554D01*
X265396656Y-44590363D01*
X265434751Y-44437982D01*
X265434751Y-44247506D01*
X265396656Y-44095125D01*
X265358560Y-44018935D01*
X265320465Y-43980840D01*
X265244275Y-43942744D01*
X264710941Y-43942744D02*
X264177608Y-43942744D01*
X264520465Y-44742744D01*
X53940180Y-65337064D02*
X53940180Y-64537064D01*
X53749704Y-64537064D01*
X53635419Y-64575160D01*
X53559228Y-64651350D01*
X53521133Y-64727540D01*
X53483038Y-64879921D01*
X53483038Y-64994207D01*
X53521133Y-65146588D01*
X53559228Y-65222779D01*
X53635419Y-65298969D01*
X53749704Y-65337064D01*
X53940180Y-65337064D01*
X53140180Y-65337064D02*
X53140180Y-64537064D01*
X52949704Y-64537064D01*
X52835419Y-64575160D01*
X52759228Y-64651350D01*
X52721133Y-64727540D01*
X52683038Y-64879921D01*
X52683038Y-64994207D01*
X52721133Y-65146588D01*
X52759228Y-65222779D01*
X52835419Y-65298969D01*
X52949704Y-65337064D01*
X53140180Y-65337064D01*
X52378276Y-64613255D02*
X52340180Y-64575160D01*
X52263990Y-64537064D01*
X52073514Y-64537064D01*
X51997323Y-64575160D01*
X51959228Y-64613255D01*
X51921133Y-64689445D01*
X51921133Y-64765636D01*
X51959228Y-64879921D01*
X52416371Y-65337064D01*
X51921133Y-65337064D01*
X51425895Y-64537064D02*
X51349704Y-64537064D01*
X51273514Y-64575160D01*
X51235419Y-64613255D01*
X51197323Y-64689445D01*
X51159228Y-64841826D01*
X51159228Y-65032302D01*
X51197323Y-65184683D01*
X51235419Y-65260874D01*
X51273514Y-65298969D01*
X51349704Y-65337064D01*
X51425895Y-65337064D01*
X51502085Y-65298969D01*
X51540180Y-65260874D01*
X51578276Y-65184683D01*
X51616371Y-65032302D01*
X51616371Y-64841826D01*
X51578276Y-64689445D01*
X51540180Y-64613255D01*
X51502085Y-64575160D01*
X51425895Y-64537064D01*
X50778276Y-65337064D02*
X50625895Y-65337064D01*
X50549704Y-65298969D01*
X50511609Y-65260874D01*
X50435419Y-65146588D01*
X50397323Y-64994207D01*
X50397323Y-64689445D01*
X50435419Y-64613255D01*
X50473514Y-64575160D01*
X50549704Y-64537064D01*
X50702085Y-64537064D01*
X50778276Y-64575160D01*
X50816371Y-64613255D01*
X50854466Y-64689445D01*
X50854466Y-64879921D01*
X50816371Y-64956112D01*
X50778276Y-64994207D01*
X50702085Y-65032302D01*
X50549704Y-65032302D01*
X50473514Y-64994207D01*
X50435419Y-64956112D01*
X50397323Y-64879921D01*
X91940180Y-65337064D02*
X91940180Y-64537064D01*
X91749704Y-64537064D01*
X91635419Y-64575160D01*
X91559228Y-64651350D01*
X91521133Y-64727540D01*
X91483038Y-64879921D01*
X91483038Y-64994207D01*
X91521133Y-65146588D01*
X91559228Y-65222779D01*
X91635419Y-65298969D01*
X91749704Y-65337064D01*
X91940180Y-65337064D01*
X91140180Y-65337064D02*
X91140180Y-64537064D01*
X90949704Y-64537064D01*
X90835419Y-64575160D01*
X90759228Y-64651350D01*
X90721133Y-64727540D01*
X90683038Y-64879921D01*
X90683038Y-64994207D01*
X90721133Y-65146588D01*
X90759228Y-65222779D01*
X90835419Y-65298969D01*
X90949704Y-65337064D01*
X91140180Y-65337064D01*
X90378276Y-64613255D02*
X90340180Y-64575160D01*
X90263990Y-64537064D01*
X90073514Y-64537064D01*
X89997323Y-64575160D01*
X89959228Y-64613255D01*
X89921133Y-64689445D01*
X89921133Y-64765636D01*
X89959228Y-64879921D01*
X90416371Y-65337064D01*
X89921133Y-65337064D01*
X89159228Y-65337064D02*
X89616371Y-65337064D01*
X89387800Y-65337064D02*
X89387800Y-64537064D01*
X89463990Y-64651350D01*
X89540180Y-64727540D01*
X89616371Y-64765636D01*
X88663990Y-64537064D02*
X88587800Y-64537064D01*
X88511609Y-64575160D01*
X88473514Y-64613255D01*
X88435419Y-64689445D01*
X88397323Y-64841826D01*
X88397323Y-65032302D01*
X88435419Y-65184683D01*
X88473514Y-65260874D01*
X88511609Y-65298969D01*
X88587800Y-65337064D01*
X88663990Y-65337064D01*
X88740180Y-65298969D01*
X88778276Y-65260874D01*
X88816371Y-65184683D01*
X88854466Y-65032302D01*
X88854466Y-64841826D01*
X88816371Y-64689445D01*
X88778276Y-64613255D01*
X88740180Y-64575160D01*
X88663990Y-64537064D01*
X129940180Y-65337064D02*
X129940180Y-64537064D01*
X129749704Y-64537064D01*
X129635419Y-64575160D01*
X129559228Y-64651350D01*
X129521133Y-64727540D01*
X129483038Y-64879921D01*
X129483038Y-64994207D01*
X129521133Y-65146588D01*
X129559228Y-65222779D01*
X129635419Y-65298969D01*
X129749704Y-65337064D01*
X129940180Y-65337064D01*
X129140180Y-65337064D02*
X129140180Y-64537064D01*
X128949704Y-64537064D01*
X128835419Y-64575160D01*
X128759228Y-64651350D01*
X128721133Y-64727540D01*
X128683038Y-64879921D01*
X128683038Y-64994207D01*
X128721133Y-65146588D01*
X128759228Y-65222779D01*
X128835419Y-65298969D01*
X128949704Y-65337064D01*
X129140180Y-65337064D01*
X128378276Y-64613255D02*
X128340180Y-64575160D01*
X128263990Y-64537064D01*
X128073514Y-64537064D01*
X127997323Y-64575160D01*
X127959228Y-64613255D01*
X127921133Y-64689445D01*
X127921133Y-64765636D01*
X127959228Y-64879921D01*
X128416371Y-65337064D01*
X127921133Y-65337064D01*
X127159228Y-65337064D02*
X127616371Y-65337064D01*
X127387800Y-65337064D02*
X127387800Y-64537064D01*
X127463990Y-64651350D01*
X127540180Y-64727540D01*
X127616371Y-64765636D01*
X126397323Y-65337064D02*
X126854466Y-65337064D01*
X126625895Y-65337064D02*
X126625895Y-64537064D01*
X126702085Y-64651350D01*
X126778276Y-64727540D01*
X126854466Y-64765636D01*
X196440180Y-65337064D02*
X196440180Y-64537064D01*
X196249704Y-64537064D01*
X196135419Y-64575160D01*
X196059228Y-64651350D01*
X196021133Y-64727540D01*
X195983038Y-64879921D01*
X195983038Y-64994207D01*
X196021133Y-65146588D01*
X196059228Y-65222779D01*
X196135419Y-65298969D01*
X196249704Y-65337064D01*
X196440180Y-65337064D01*
X195640180Y-65337064D02*
X195640180Y-64537064D01*
X195449704Y-64537064D01*
X195335419Y-64575160D01*
X195259228Y-64651350D01*
X195221133Y-64727540D01*
X195183038Y-64879921D01*
X195183038Y-64994207D01*
X195221133Y-65146588D01*
X195259228Y-65222779D01*
X195335419Y-65298969D01*
X195449704Y-65337064D01*
X195640180Y-65337064D01*
X194878276Y-64613255D02*
X194840180Y-64575160D01*
X194763990Y-64537064D01*
X194573514Y-64537064D01*
X194497323Y-64575160D01*
X194459228Y-64613255D01*
X194421133Y-64689445D01*
X194421133Y-64765636D01*
X194459228Y-64879921D01*
X194916371Y-65337064D01*
X194421133Y-65337064D01*
X193659228Y-65337064D02*
X194116371Y-65337064D01*
X193887800Y-65337064D02*
X193887800Y-64537064D01*
X193963990Y-64651350D01*
X194040180Y-64727540D01*
X194116371Y-64765636D01*
X193354466Y-64613255D02*
X193316371Y-64575160D01*
X193240180Y-64537064D01*
X193049704Y-64537064D01*
X192973514Y-64575160D01*
X192935419Y-64613255D01*
X192897323Y-64689445D01*
X192897323Y-64765636D01*
X192935419Y-64879921D01*
X193392561Y-65337064D01*
X192897323Y-65337064D01*
X234440180Y-65337064D02*
X234440180Y-64537064D01*
X234249704Y-64537064D01*
X234135419Y-64575160D01*
X234059228Y-64651350D01*
X234021133Y-64727540D01*
X233983038Y-64879921D01*
X233983038Y-64994207D01*
X234021133Y-65146588D01*
X234059228Y-65222779D01*
X234135419Y-65298969D01*
X234249704Y-65337064D01*
X234440180Y-65337064D01*
X233640180Y-65337064D02*
X233640180Y-64537064D01*
X233449704Y-64537064D01*
X233335419Y-64575160D01*
X233259228Y-64651350D01*
X233221133Y-64727540D01*
X233183038Y-64879921D01*
X233183038Y-64994207D01*
X233221133Y-65146588D01*
X233259228Y-65222779D01*
X233335419Y-65298969D01*
X233449704Y-65337064D01*
X233640180Y-65337064D01*
X232878276Y-64613255D02*
X232840180Y-64575160D01*
X232763990Y-64537064D01*
X232573514Y-64537064D01*
X232497323Y-64575160D01*
X232459228Y-64613255D01*
X232421133Y-64689445D01*
X232421133Y-64765636D01*
X232459228Y-64879921D01*
X232916371Y-65337064D01*
X232421133Y-65337064D01*
X231659228Y-65337064D02*
X232116371Y-65337064D01*
X231887800Y-65337064D02*
X231887800Y-64537064D01*
X231963990Y-64651350D01*
X232040180Y-64727540D01*
X232116371Y-64765636D01*
X231392561Y-64537064D02*
X230897323Y-64537064D01*
X231163990Y-64841826D01*
X231049704Y-64841826D01*
X230973514Y-64879921D01*
X230935419Y-64918017D01*
X230897323Y-64994207D01*
X230897323Y-65184683D01*
X230935419Y-65260874D01*
X230973514Y-65298969D01*
X231049704Y-65337064D01*
X231278276Y-65337064D01*
X231354466Y-65298969D01*
X231392561Y-65260874D01*
X272440180Y-65337064D02*
X272440180Y-64537064D01*
X272249704Y-64537064D01*
X272135419Y-64575160D01*
X272059228Y-64651350D01*
X272021133Y-64727540D01*
X271983038Y-64879921D01*
X271983038Y-64994207D01*
X272021133Y-65146588D01*
X272059228Y-65222779D01*
X272135419Y-65298969D01*
X272249704Y-65337064D01*
X272440180Y-65337064D01*
X271640180Y-65337064D02*
X271640180Y-64537064D01*
X271449704Y-64537064D01*
X271335419Y-64575160D01*
X271259228Y-64651350D01*
X271221133Y-64727540D01*
X271183038Y-64879921D01*
X271183038Y-64994207D01*
X271221133Y-65146588D01*
X271259228Y-65222779D01*
X271335419Y-65298969D01*
X271449704Y-65337064D01*
X271640180Y-65337064D01*
X270878276Y-64613255D02*
X270840180Y-64575160D01*
X270763990Y-64537064D01*
X270573514Y-64537064D01*
X270497323Y-64575160D01*
X270459228Y-64613255D01*
X270421133Y-64689445D01*
X270421133Y-64765636D01*
X270459228Y-64879921D01*
X270916371Y-65337064D01*
X270421133Y-65337064D01*
X269659228Y-65337064D02*
X270116371Y-65337064D01*
X269887800Y-65337064D02*
X269887800Y-64537064D01*
X269963990Y-64651350D01*
X270040180Y-64727540D01*
X270116371Y-64765636D01*
X268973514Y-64803731D02*
X268973514Y-65337064D01*
X269163990Y-64498969D02*
X269354466Y-65070398D01*
X268859228Y-65070398D01*
X49368180Y-72195064D02*
X49368180Y-71395064D01*
X49177704Y-71395064D01*
X49063419Y-71433160D01*
X48987228Y-71509350D01*
X48949133Y-71585540D01*
X48911038Y-71737921D01*
X48911038Y-71852207D01*
X48949133Y-72004588D01*
X48987228Y-72080779D01*
X49063419Y-72156969D01*
X49177704Y-72195064D01*
X49368180Y-72195064D01*
X48568180Y-72195064D02*
X48568180Y-71395064D01*
X48377704Y-71395064D01*
X48263419Y-71433160D01*
X48187228Y-71509350D01*
X48149133Y-71585540D01*
X48111038Y-71737921D01*
X48111038Y-71852207D01*
X48149133Y-72004588D01*
X48187228Y-72080779D01*
X48263419Y-72156969D01*
X48377704Y-72195064D01*
X48568180Y-72195064D01*
X47806276Y-71471255D02*
X47768180Y-71433160D01*
X47691990Y-71395064D01*
X47501514Y-71395064D01*
X47425323Y-71433160D01*
X47387228Y-71471255D01*
X47349133Y-71547445D01*
X47349133Y-71623636D01*
X47387228Y-71737921D01*
X47844371Y-72195064D01*
X47349133Y-72195064D01*
X46587228Y-72195064D02*
X47044371Y-72195064D01*
X46815800Y-72195064D02*
X46815800Y-71395064D01*
X46891990Y-71509350D01*
X46968180Y-71585540D01*
X47044371Y-71623636D01*
X45901514Y-71395064D02*
X46053895Y-71395064D01*
X46130085Y-71433160D01*
X46168180Y-71471255D01*
X46244371Y-71585540D01*
X46282466Y-71737921D01*
X46282466Y-72042683D01*
X46244371Y-72118874D01*
X46206276Y-72156969D01*
X46130085Y-72195064D01*
X45977704Y-72195064D01*
X45901514Y-72156969D01*
X45863419Y-72118874D01*
X45825323Y-72042683D01*
X45825323Y-71852207D01*
X45863419Y-71776017D01*
X45901514Y-71737921D01*
X45977704Y-71699826D01*
X46130085Y-71699826D01*
X46206276Y-71737921D01*
X46244371Y-71776017D01*
X46282466Y-71852207D01*
X87368180Y-72195064D02*
X87368180Y-71395064D01*
X87177704Y-71395064D01*
X87063419Y-71433160D01*
X86987228Y-71509350D01*
X86949133Y-71585540D01*
X86911038Y-71737921D01*
X86911038Y-71852207D01*
X86949133Y-72004588D01*
X86987228Y-72080779D01*
X87063419Y-72156969D01*
X87177704Y-72195064D01*
X87368180Y-72195064D01*
X86568180Y-72195064D02*
X86568180Y-71395064D01*
X86377704Y-71395064D01*
X86263419Y-71433160D01*
X86187228Y-71509350D01*
X86149133Y-71585540D01*
X86111038Y-71737921D01*
X86111038Y-71852207D01*
X86149133Y-72004588D01*
X86187228Y-72080779D01*
X86263419Y-72156969D01*
X86377704Y-72195064D01*
X86568180Y-72195064D01*
X85806276Y-71471255D02*
X85768180Y-71433160D01*
X85691990Y-71395064D01*
X85501514Y-71395064D01*
X85425323Y-71433160D01*
X85387228Y-71471255D01*
X85349133Y-71547445D01*
X85349133Y-71623636D01*
X85387228Y-71737921D01*
X85844371Y-72195064D01*
X85349133Y-72195064D01*
X84587228Y-72195064D02*
X85044371Y-72195064D01*
X84815800Y-72195064D02*
X84815800Y-71395064D01*
X84891990Y-71509350D01*
X84968180Y-71585540D01*
X85044371Y-71623636D01*
X84320561Y-71395064D02*
X83787228Y-71395064D01*
X84130085Y-72195064D01*
X125368180Y-72195064D02*
X125368180Y-71395064D01*
X125177704Y-71395064D01*
X125063419Y-71433160D01*
X124987228Y-71509350D01*
X124949133Y-71585540D01*
X124911038Y-71737921D01*
X124911038Y-71852207D01*
X124949133Y-72004588D01*
X124987228Y-72080779D01*
X125063419Y-72156969D01*
X125177704Y-72195064D01*
X125368180Y-72195064D01*
X124568180Y-72195064D02*
X124568180Y-71395064D01*
X124377704Y-71395064D01*
X124263419Y-71433160D01*
X124187228Y-71509350D01*
X124149133Y-71585540D01*
X124111038Y-71737921D01*
X124111038Y-71852207D01*
X124149133Y-72004588D01*
X124187228Y-72080779D01*
X124263419Y-72156969D01*
X124377704Y-72195064D01*
X124568180Y-72195064D01*
X123806276Y-71471255D02*
X123768180Y-71433160D01*
X123691990Y-71395064D01*
X123501514Y-71395064D01*
X123425323Y-71433160D01*
X123387228Y-71471255D01*
X123349133Y-71547445D01*
X123349133Y-71623636D01*
X123387228Y-71737921D01*
X123844371Y-72195064D01*
X123349133Y-72195064D01*
X122587228Y-72195064D02*
X123044371Y-72195064D01*
X122815800Y-72195064D02*
X122815800Y-71395064D01*
X122891990Y-71509350D01*
X122968180Y-71585540D01*
X123044371Y-71623636D01*
X122130085Y-71737921D02*
X122206276Y-71699826D01*
X122244371Y-71661731D01*
X122282466Y-71585540D01*
X122282466Y-71547445D01*
X122244371Y-71471255D01*
X122206276Y-71433160D01*
X122130085Y-71395064D01*
X121977704Y-71395064D01*
X121901514Y-71433160D01*
X121863419Y-71471255D01*
X121825323Y-71547445D01*
X121825323Y-71585540D01*
X121863419Y-71661731D01*
X121901514Y-71699826D01*
X121977704Y-71737921D01*
X122130085Y-71737921D01*
X122206276Y-71776017D01*
X122244371Y-71814112D01*
X122282466Y-71890302D01*
X122282466Y-72042683D01*
X122244371Y-72118874D01*
X122206276Y-72156969D01*
X122130085Y-72195064D01*
X121977704Y-72195064D01*
X121901514Y-72156969D01*
X121863419Y-72118874D01*
X121825323Y-72042683D01*
X121825323Y-71890302D01*
X121863419Y-71814112D01*
X121901514Y-71776017D01*
X121977704Y-71737921D01*
X201368180Y-72195064D02*
X201368180Y-71395064D01*
X201177704Y-71395064D01*
X201063419Y-71433160D01*
X200987228Y-71509350D01*
X200949133Y-71585540D01*
X200911038Y-71737921D01*
X200911038Y-71852207D01*
X200949133Y-72004588D01*
X200987228Y-72080779D01*
X201063419Y-72156969D01*
X201177704Y-72195064D01*
X201368180Y-72195064D01*
X200568180Y-72195064D02*
X200568180Y-71395064D01*
X200377704Y-71395064D01*
X200263419Y-71433160D01*
X200187228Y-71509350D01*
X200149133Y-71585540D01*
X200111038Y-71737921D01*
X200111038Y-71852207D01*
X200149133Y-72004588D01*
X200187228Y-72080779D01*
X200263419Y-72156969D01*
X200377704Y-72195064D01*
X200568180Y-72195064D01*
X199806276Y-71471255D02*
X199768180Y-71433160D01*
X199691990Y-71395064D01*
X199501514Y-71395064D01*
X199425323Y-71433160D01*
X199387228Y-71471255D01*
X199349133Y-71547445D01*
X199349133Y-71623636D01*
X199387228Y-71737921D01*
X199844371Y-72195064D01*
X199349133Y-72195064D01*
X198587228Y-72195064D02*
X199044371Y-72195064D01*
X198815800Y-72195064D02*
X198815800Y-71395064D01*
X198891990Y-71509350D01*
X198968180Y-71585540D01*
X199044371Y-71623636D01*
X198206276Y-72195064D02*
X198053895Y-72195064D01*
X197977704Y-72156969D01*
X197939609Y-72118874D01*
X197863419Y-72004588D01*
X197825323Y-71852207D01*
X197825323Y-71547445D01*
X197863419Y-71471255D01*
X197901514Y-71433160D01*
X197977704Y-71395064D01*
X198130085Y-71395064D01*
X198206276Y-71433160D01*
X198244371Y-71471255D01*
X198282466Y-71547445D01*
X198282466Y-71737921D01*
X198244371Y-71814112D01*
X198206276Y-71852207D01*
X198130085Y-71890302D01*
X197977704Y-71890302D01*
X197901514Y-71852207D01*
X197863419Y-71814112D01*
X197825323Y-71737921D01*
X239368180Y-72195064D02*
X239368180Y-71395064D01*
X239177704Y-71395064D01*
X239063419Y-71433160D01*
X238987228Y-71509350D01*
X238949133Y-71585540D01*
X238911038Y-71737921D01*
X238911038Y-71852207D01*
X238949133Y-72004588D01*
X238987228Y-72080779D01*
X239063419Y-72156969D01*
X239177704Y-72195064D01*
X239368180Y-72195064D01*
X238568180Y-72195064D02*
X238568180Y-71395064D01*
X238377704Y-71395064D01*
X238263419Y-71433160D01*
X238187228Y-71509350D01*
X238149133Y-71585540D01*
X238111038Y-71737921D01*
X238111038Y-71852207D01*
X238149133Y-72004588D01*
X238187228Y-72080779D01*
X238263419Y-72156969D01*
X238377704Y-72195064D01*
X238568180Y-72195064D01*
X237806276Y-71471255D02*
X237768180Y-71433160D01*
X237691990Y-71395064D01*
X237501514Y-71395064D01*
X237425323Y-71433160D01*
X237387228Y-71471255D01*
X237349133Y-71547445D01*
X237349133Y-71623636D01*
X237387228Y-71737921D01*
X237844371Y-72195064D01*
X237349133Y-72195064D01*
X237044371Y-71471255D02*
X237006276Y-71433160D01*
X236930085Y-71395064D01*
X236739609Y-71395064D01*
X236663419Y-71433160D01*
X236625323Y-71471255D01*
X236587228Y-71547445D01*
X236587228Y-71623636D01*
X236625323Y-71737921D01*
X237082466Y-72195064D01*
X236587228Y-72195064D01*
X236091990Y-71395064D02*
X236015800Y-71395064D01*
X235939609Y-71433160D01*
X235901514Y-71471255D01*
X235863419Y-71547445D01*
X235825323Y-71699826D01*
X235825323Y-71890302D01*
X235863419Y-72042683D01*
X235901514Y-72118874D01*
X235939609Y-72156969D01*
X236015800Y-72195064D01*
X236091990Y-72195064D01*
X236168180Y-72156969D01*
X236206276Y-72118874D01*
X236244371Y-72042683D01*
X236282466Y-71890302D01*
X236282466Y-71699826D01*
X236244371Y-71547445D01*
X236206276Y-71471255D01*
X236168180Y-71433160D01*
X236091990Y-71395064D01*
X153279585Y-54839040D02*
X153279585Y-55648564D01*
X153231966Y-55743802D01*
X153184347Y-55791421D01*
X153089109Y-55839040D01*
X152898633Y-55839040D01*
X152803395Y-55791421D01*
X152755776Y-55743802D01*
X152708157Y-55648564D01*
X152708157Y-54839040D01*
X151708157Y-55839040D02*
X152279585Y-55839040D01*
X151993871Y-55839040D02*
X151993871Y-54839040D01*
X152089109Y-54981898D01*
X152184347Y-55077136D01*
X152279585Y-55124755D01*
X151089109Y-54839040D02*
X150993871Y-54839040D01*
X150898633Y-54886660D01*
X150851014Y-54934279D01*
X150803395Y-55029517D01*
X150755776Y-55219993D01*
X150755776Y-55458088D01*
X150803395Y-55648564D01*
X150851014Y-55743802D01*
X150898633Y-55791421D01*
X150993871Y-55839040D01*
X151089109Y-55839040D01*
X151184347Y-55791421D01*
X151231966Y-55743802D01*
X151279585Y-55648564D01*
X151327204Y-55458088D01*
X151327204Y-55219993D01*
X151279585Y-55029517D01*
X151231966Y-54934279D01*
X151184347Y-54886660D01*
X151089109Y-54839040D01*
X150374823Y-54934279D02*
X150327204Y-54886660D01*
X150231966Y-54839040D01*
X149993871Y-54839040D01*
X149898633Y-54886660D01*
X149851014Y-54934279D01*
X149803395Y-55029517D01*
X149803395Y-55124755D01*
X149851014Y-55267612D01*
X150422442Y-55839040D01*
X149803395Y-55839040D01*
X168920642Y-90193952D02*
X168968261Y-90146333D01*
X169015880Y-90003476D01*
X169015880Y-89908238D01*
X168968261Y-89765380D01*
X168873023Y-89670142D01*
X168777785Y-89622523D01*
X168587309Y-89574904D01*
X168444452Y-89574904D01*
X168253976Y-89622523D01*
X168158738Y-89670142D01*
X168063500Y-89765380D01*
X168015880Y-89908238D01*
X168015880Y-90003476D01*
X168063500Y-90146333D01*
X168111119Y-90193952D01*
X169015880Y-91146333D02*
X169015880Y-90574904D01*
X169015880Y-90860619D02*
X168015880Y-90860619D01*
X168158738Y-90765380D01*
X168253976Y-90670142D01*
X168301595Y-90574904D01*
X168015880Y-91765380D02*
X168015880Y-91860619D01*
X168063500Y-91955857D01*
X168111119Y-92003476D01*
X168206357Y-92051095D01*
X168396833Y-92098714D01*
X168634928Y-92098714D01*
X168825404Y-92051095D01*
X168920642Y-92003476D01*
X168968261Y-91955857D01*
X169015880Y-91860619D01*
X169015880Y-91765380D01*
X168968261Y-91670142D01*
X168920642Y-91622523D01*
X168825404Y-91574904D01*
X168634928Y-91527285D01*
X168396833Y-91527285D01*
X168206357Y-91574904D01*
X168111119Y-91622523D01*
X168063500Y-91670142D01*
X168015880Y-91765380D01*
X169015880Y-93051095D02*
X169015880Y-92479666D01*
X169015880Y-92765380D02*
X168015880Y-92765380D01*
X168158738Y-92670142D01*
X168253976Y-92574904D01*
X168301595Y-92479666D01*
X151243942Y-97765112D02*
X151291561Y-97717493D01*
X151339180Y-97574636D01*
X151339180Y-97479398D01*
X151291561Y-97336540D01*
X151196323Y-97241302D01*
X151101085Y-97193683D01*
X150910609Y-97146064D01*
X150767752Y-97146064D01*
X150577276Y-97193683D01*
X150482038Y-97241302D01*
X150386800Y-97336540D01*
X150339180Y-97479398D01*
X150339180Y-97574636D01*
X150386800Y-97717493D01*
X150434419Y-97765112D01*
X151339180Y-98717493D02*
X151339180Y-98146064D01*
X151339180Y-98431779D02*
X150339180Y-98431779D01*
X150482038Y-98336540D01*
X150577276Y-98241302D01*
X150624895Y-98146064D01*
X150339180Y-99336540D02*
X150339180Y-99431779D01*
X150386800Y-99527017D01*
X150434419Y-99574636D01*
X150529657Y-99622255D01*
X150720133Y-99669874D01*
X150958228Y-99669874D01*
X151148704Y-99622255D01*
X151243942Y-99574636D01*
X151291561Y-99527017D01*
X151339180Y-99431779D01*
X151339180Y-99336540D01*
X151291561Y-99241302D01*
X151243942Y-99193683D01*
X151148704Y-99146064D01*
X150958228Y-99098445D01*
X150720133Y-99098445D01*
X150529657Y-99146064D01*
X150434419Y-99193683D01*
X150386800Y-99241302D01*
X150339180Y-99336540D01*
X150434419Y-100050826D02*
X150386800Y-100098445D01*
X150339180Y-100193683D01*
X150339180Y-100431779D01*
X150386800Y-100527017D01*
X150434419Y-100574636D01*
X150529657Y-100622255D01*
X150624895Y-100622255D01*
X150767752Y-100574636D01*
X151339180Y-100003207D01*
X151339180Y-100622255D01*
X155426847Y-86426302D02*
X155474466Y-86473921D01*
X155617323Y-86521540D01*
X155712561Y-86521540D01*
X155855419Y-86473921D01*
X155950657Y-86378683D01*
X155998276Y-86283445D01*
X156045895Y-86092969D01*
X156045895Y-85950112D01*
X155998276Y-85759636D01*
X155950657Y-85664398D01*
X155855419Y-85569160D01*
X155712561Y-85521540D01*
X155617323Y-85521540D01*
X155474466Y-85569160D01*
X155426847Y-85616779D01*
X154474466Y-86521540D02*
X155045895Y-86521540D01*
X154760180Y-86521540D02*
X154760180Y-85521540D01*
X154855419Y-85664398D01*
X154950657Y-85759636D01*
X155045895Y-85807255D01*
X153855419Y-85521540D02*
X153760180Y-85521540D01*
X153664942Y-85569160D01*
X153617323Y-85616779D01*
X153569704Y-85712017D01*
X153522085Y-85902493D01*
X153522085Y-86140588D01*
X153569704Y-86331064D01*
X153617323Y-86426302D01*
X153664942Y-86473921D01*
X153760180Y-86521540D01*
X153855419Y-86521540D01*
X153950657Y-86473921D01*
X153998276Y-86426302D01*
X154045895Y-86331064D01*
X154093514Y-86140588D01*
X154093514Y-85902493D01*
X154045895Y-85712017D01*
X153998276Y-85616779D01*
X153950657Y-85569160D01*
X153855419Y-85521540D01*
X153188752Y-85521540D02*
X152569704Y-85521540D01*
X152903038Y-85902493D01*
X152760180Y-85902493D01*
X152664942Y-85950112D01*
X152617323Y-85997731D01*
X152569704Y-86092969D01*
X152569704Y-86331064D01*
X152617323Y-86426302D01*
X152664942Y-86473921D01*
X152760180Y-86521540D01*
X153045895Y-86521540D01*
X153141133Y-86473921D01*
X153188752Y-86426302D01*
X167256396Y-103101240D02*
X167304015Y-103148859D01*
X167446872Y-103196478D01*
X167542110Y-103196478D01*
X167684968Y-103148859D01*
X167780206Y-103053621D01*
X167827825Y-102958383D01*
X167875444Y-102767907D01*
X167875444Y-102625050D01*
X167827825Y-102434574D01*
X167780206Y-102339336D01*
X167684968Y-102244098D01*
X167542110Y-102196478D01*
X167446872Y-102196478D01*
X167304015Y-102244098D01*
X167256396Y-102291717D01*
X166304015Y-103196478D02*
X166875444Y-103196478D01*
X166589729Y-103196478D02*
X166589729Y-102196478D01*
X166684968Y-102339336D01*
X166780206Y-102434574D01*
X166875444Y-102482193D01*
X165684968Y-102196478D02*
X165589729Y-102196478D01*
X165494491Y-102244098D01*
X165446872Y-102291717D01*
X165399253Y-102386955D01*
X165351634Y-102577431D01*
X165351634Y-102815526D01*
X165399253Y-103006002D01*
X165446872Y-103101240D01*
X165494491Y-103148859D01*
X165589729Y-103196478D01*
X165684968Y-103196478D01*
X165780206Y-103148859D01*
X165827825Y-103101240D01*
X165875444Y-103006002D01*
X165923063Y-102815526D01*
X165923063Y-102577431D01*
X165875444Y-102386955D01*
X165827825Y-102291717D01*
X165780206Y-102244098D01*
X165684968Y-102196478D01*
X164494491Y-102529812D02*
X164494491Y-103196478D01*
X164732587Y-102148859D02*
X164970682Y-102863145D01*
X164351634Y-102863145D01*
X69626442Y-34265112D02*
X69674061Y-34217493D01*
X69721680Y-34074636D01*
X69721680Y-33979398D01*
X69674061Y-33836540D01*
X69578823Y-33741302D01*
X69483585Y-33693683D01*
X69293109Y-33646064D01*
X69150252Y-33646064D01*
X68959776Y-33693683D01*
X68864538Y-33741302D01*
X68769300Y-33836540D01*
X68721680Y-33979398D01*
X68721680Y-34074636D01*
X68769300Y-34217493D01*
X68816919Y-34265112D01*
X69721680Y-35217493D02*
X69721680Y-34646064D01*
X69721680Y-34931779D02*
X68721680Y-34931779D01*
X68864538Y-34836540D01*
X68959776Y-34741302D01*
X69007395Y-34646064D01*
X68721680Y-35836540D02*
X68721680Y-35931779D01*
X68769300Y-36027017D01*
X68816919Y-36074636D01*
X68912157Y-36122255D01*
X69102633Y-36169874D01*
X69340728Y-36169874D01*
X69531204Y-36122255D01*
X69626442Y-36074636D01*
X69674061Y-36027017D01*
X69721680Y-35931779D01*
X69721680Y-35836540D01*
X69674061Y-35741302D01*
X69626442Y-35693683D01*
X69531204Y-35646064D01*
X69340728Y-35598445D01*
X69102633Y-35598445D01*
X68912157Y-35646064D01*
X68816919Y-35693683D01*
X68769300Y-35741302D01*
X68721680Y-35836540D01*
X69721680Y-36646064D02*
X69721680Y-36836540D01*
X69674061Y-36931779D01*
X69626442Y-36979398D01*
X69483585Y-37074636D01*
X69293109Y-37122255D01*
X68912157Y-37122255D01*
X68816919Y-37074636D01*
X68769300Y-37027017D01*
X68721680Y-36931779D01*
X68721680Y-36741302D01*
X68769300Y-36646064D01*
X68816919Y-36598445D01*
X68912157Y-36550826D01*
X69150252Y-36550826D01*
X69245490Y-36598445D01*
X69293109Y-36646064D01*
X69340728Y-36741302D01*
X69340728Y-36931779D01*
X69293109Y-37027017D01*
X69245490Y-37074636D01*
X69150252Y-37122255D01*
X155363347Y-88140802D02*
X155410966Y-88188421D01*
X155553823Y-88236040D01*
X155649061Y-88236040D01*
X155791919Y-88188421D01*
X155887157Y-88093183D01*
X155934776Y-87997945D01*
X155982395Y-87807469D01*
X155982395Y-87664612D01*
X155934776Y-87474136D01*
X155887157Y-87378898D01*
X155791919Y-87283660D01*
X155649061Y-87236040D01*
X155553823Y-87236040D01*
X155410966Y-87283660D01*
X155363347Y-87331279D01*
X154410966Y-88236040D02*
X154982395Y-88236040D01*
X154696680Y-88236040D02*
X154696680Y-87236040D01*
X154791919Y-87378898D01*
X154887157Y-87474136D01*
X154982395Y-87521755D01*
X153791919Y-87236040D02*
X153696680Y-87236040D01*
X153601442Y-87283660D01*
X153553823Y-87331279D01*
X153506204Y-87426517D01*
X153458585Y-87616993D01*
X153458585Y-87855088D01*
X153506204Y-88045564D01*
X153553823Y-88140802D01*
X153601442Y-88188421D01*
X153696680Y-88236040D01*
X153791919Y-88236040D01*
X153887157Y-88188421D01*
X153934776Y-88140802D01*
X153982395Y-88045564D01*
X154030014Y-87855088D01*
X154030014Y-87616993D01*
X153982395Y-87426517D01*
X153934776Y-87331279D01*
X153887157Y-87283660D01*
X153791919Y-87236040D01*
X152601442Y-87236040D02*
X152791919Y-87236040D01*
X152887157Y-87283660D01*
X152934776Y-87331279D01*
X153030014Y-87474136D01*
X153077633Y-87664612D01*
X153077633Y-88045564D01*
X153030014Y-88140802D01*
X152982395Y-88188421D01*
X152887157Y-88236040D01*
X152696680Y-88236040D01*
X152601442Y-88188421D01*
X152553823Y-88140802D01*
X152506204Y-88045564D01*
X152506204Y-87807469D01*
X152553823Y-87712231D01*
X152601442Y-87664612D01*
X152696680Y-87616993D01*
X152887157Y-87616993D01*
X152982395Y-87664612D01*
X153030014Y-87712231D01*
X153077633Y-87807469D01*
X154987547Y-103107142D02*
X155035166Y-103154761D01*
X155178023Y-103202380D01*
X155273261Y-103202380D01*
X155416119Y-103154761D01*
X155511357Y-103059523D01*
X155558976Y-102964285D01*
X155606595Y-102773809D01*
X155606595Y-102630952D01*
X155558976Y-102440476D01*
X155511357Y-102345238D01*
X155416119Y-102250000D01*
X155273261Y-102202380D01*
X155178023Y-102202380D01*
X155035166Y-102250000D01*
X154987547Y-102297619D01*
X154035166Y-103202380D02*
X154606595Y-103202380D01*
X154320880Y-103202380D02*
X154320880Y-102202380D01*
X154416119Y-102345238D01*
X154511357Y-102440476D01*
X154606595Y-102488095D01*
X153416119Y-102202380D02*
X153320880Y-102202380D01*
X153225642Y-102250000D01*
X153178023Y-102297619D01*
X153130404Y-102392857D01*
X153082785Y-102583333D01*
X153082785Y-102821428D01*
X153130404Y-103011904D01*
X153178023Y-103107142D01*
X153225642Y-103154761D01*
X153320880Y-103202380D01*
X153416119Y-103202380D01*
X153511357Y-103154761D01*
X153558976Y-103107142D01*
X153606595Y-103011904D01*
X153654214Y-102821428D01*
X153654214Y-102583333D01*
X153606595Y-102392857D01*
X153558976Y-102297619D01*
X153511357Y-102250000D01*
X153416119Y-102202380D01*
X152749452Y-102202380D02*
X152082785Y-102202380D01*
X152511357Y-103202380D01*
X149402442Y-97828612D02*
X149450061Y-97780993D01*
X149497680Y-97638136D01*
X149497680Y-97542898D01*
X149450061Y-97400040D01*
X149354823Y-97304802D01*
X149259585Y-97257183D01*
X149069109Y-97209564D01*
X148926252Y-97209564D01*
X148735776Y-97257183D01*
X148640538Y-97304802D01*
X148545300Y-97400040D01*
X148497680Y-97542898D01*
X148497680Y-97638136D01*
X148545300Y-97780993D01*
X148592919Y-97828612D01*
X149497680Y-98780993D02*
X149497680Y-98209564D01*
X149497680Y-98495279D02*
X148497680Y-98495279D01*
X148640538Y-98400040D01*
X148735776Y-98304802D01*
X148783395Y-98209564D01*
X148497680Y-99400040D02*
X148497680Y-99495279D01*
X148545300Y-99590517D01*
X148592919Y-99638136D01*
X148688157Y-99685755D01*
X148878633Y-99733374D01*
X149116728Y-99733374D01*
X149307204Y-99685755D01*
X149402442Y-99638136D01*
X149450061Y-99590517D01*
X149497680Y-99495279D01*
X149497680Y-99400040D01*
X149450061Y-99304802D01*
X149402442Y-99257183D01*
X149307204Y-99209564D01*
X149116728Y-99161945D01*
X148878633Y-99161945D01*
X148688157Y-99209564D01*
X148592919Y-99257183D01*
X148545300Y-99304802D01*
X148497680Y-99400040D01*
X148926252Y-100304802D02*
X148878633Y-100209564D01*
X148831014Y-100161945D01*
X148735776Y-100114326D01*
X148688157Y-100114326D01*
X148592919Y-100161945D01*
X148545300Y-100209564D01*
X148497680Y-100304802D01*
X148497680Y-100495279D01*
X148545300Y-100590517D01*
X148592919Y-100638136D01*
X148688157Y-100685755D01*
X148735776Y-100685755D01*
X148831014Y-100638136D01*
X148878633Y-100590517D01*
X148926252Y-100495279D01*
X148926252Y-100304802D01*
X148973871Y-100209564D01*
X149021490Y-100161945D01*
X149116728Y-100114326D01*
X149307204Y-100114326D01*
X149402442Y-100161945D01*
X149450061Y-100209564D01*
X149497680Y-100304802D01*
X149497680Y-100495279D01*
X149450061Y-100590517D01*
X149402442Y-100638136D01*
X149307204Y-100685755D01*
X149116728Y-100685755D01*
X149021490Y-100638136D01*
X148973871Y-100590517D01*
X148926252Y-100495279D01*
X150080942Y-51410112D02*
X150128561Y-51362493D01*
X150176180Y-51219636D01*
X150176180Y-51124398D01*
X150128561Y-50981540D01*
X150033323Y-50886302D01*
X149938085Y-50838683D01*
X149747609Y-50791064D01*
X149604752Y-50791064D01*
X149414276Y-50838683D01*
X149319038Y-50886302D01*
X149223800Y-50981540D01*
X149176180Y-51124398D01*
X149176180Y-51219636D01*
X149223800Y-51362493D01*
X149271419Y-51410112D01*
X150176180Y-52362493D02*
X150176180Y-51791064D01*
X150176180Y-52076779D02*
X149176180Y-52076779D01*
X149319038Y-51981540D01*
X149414276Y-51886302D01*
X149461895Y-51791064D01*
X150176180Y-53314874D02*
X150176180Y-52743445D01*
X150176180Y-53029160D02*
X149176180Y-53029160D01*
X149319038Y-52933921D01*
X149414276Y-52838683D01*
X149461895Y-52743445D01*
X149176180Y-53933921D02*
X149176180Y-54029160D01*
X149223800Y-54124398D01*
X149271419Y-54172017D01*
X149366657Y-54219636D01*
X149557133Y-54267255D01*
X149795228Y-54267255D01*
X149985704Y-54219636D01*
X150080942Y-54172017D01*
X150128561Y-54124398D01*
X150176180Y-54029160D01*
X150176180Y-53933921D01*
X150128561Y-53838683D01*
X150080942Y-53791064D01*
X149985704Y-53743445D01*
X149795228Y-53695826D01*
X149557133Y-53695826D01*
X149366657Y-53743445D01*
X149271419Y-53791064D01*
X149223800Y-53838683D01*
X149176180Y-53933921D01*
X156557942Y-51854612D02*
X156605561Y-51806993D01*
X156653180Y-51664136D01*
X156653180Y-51568898D01*
X156605561Y-51426040D01*
X156510323Y-51330802D01*
X156415085Y-51283183D01*
X156224609Y-51235564D01*
X156081752Y-51235564D01*
X155891276Y-51283183D01*
X155796038Y-51330802D01*
X155700800Y-51426040D01*
X155653180Y-51568898D01*
X155653180Y-51664136D01*
X155700800Y-51806993D01*
X155748419Y-51854612D01*
X156653180Y-52806993D02*
X156653180Y-52235564D01*
X156653180Y-52521279D02*
X155653180Y-52521279D01*
X155796038Y-52426040D01*
X155891276Y-52330802D01*
X155938895Y-52235564D01*
X156653180Y-53759374D02*
X156653180Y-53187945D01*
X156653180Y-53473660D02*
X155653180Y-53473660D01*
X155796038Y-53378421D01*
X155891276Y-53283183D01*
X155938895Y-53187945D01*
X156653180Y-54711755D02*
X156653180Y-54140326D01*
X156653180Y-54426040D02*
X155653180Y-54426040D01*
X155796038Y-54330802D01*
X155891276Y-54235564D01*
X155938895Y-54140326D01*
X183369047Y-47177142D02*
X183416666Y-47224761D01*
X183559523Y-47272380D01*
X183654761Y-47272380D01*
X183797619Y-47224761D01*
X183892857Y-47129523D01*
X183940476Y-47034285D01*
X183988095Y-46843809D01*
X183988095Y-46700952D01*
X183940476Y-46510476D01*
X183892857Y-46415238D01*
X183797619Y-46320000D01*
X183654761Y-46272380D01*
X183559523Y-46272380D01*
X183416666Y-46320000D01*
X183369047Y-46367619D01*
X182416666Y-47272380D02*
X182988095Y-47272380D01*
X182702380Y-47272380D02*
X182702380Y-46272380D01*
X182797619Y-46415238D01*
X182892857Y-46510476D01*
X182988095Y-46558095D01*
X181464285Y-47272380D02*
X182035714Y-47272380D01*
X181750000Y-47272380D02*
X181750000Y-46272380D01*
X181845238Y-46415238D01*
X181940476Y-46510476D01*
X182035714Y-46558095D01*
X181083333Y-46367619D02*
X181035714Y-46320000D01*
X180940476Y-46272380D01*
X180702380Y-46272380D01*
X180607142Y-46320000D01*
X180559523Y-46367619D01*
X180511904Y-46462857D01*
X180511904Y-46558095D01*
X180559523Y-46700952D01*
X181130952Y-47272380D01*
X180511904Y-47272380D01*
X183420642Y-46638452D02*
X183468261Y-46590833D01*
X183515880Y-46447976D01*
X183515880Y-46352738D01*
X183468261Y-46209880D01*
X183373023Y-46114642D01*
X183277785Y-46067023D01*
X183087309Y-46019404D01*
X182944452Y-46019404D01*
X182753976Y-46067023D01*
X182658738Y-46114642D01*
X182563500Y-46209880D01*
X182515880Y-46352738D01*
X182515880Y-46447976D01*
X182563500Y-46590833D01*
X182611119Y-46638452D01*
X183515880Y-47590833D02*
X183515880Y-47019404D01*
X183515880Y-47305119D02*
X182515880Y-47305119D01*
X182658738Y-47209880D01*
X182753976Y-47114642D01*
X182801595Y-47019404D01*
X183515880Y-48543214D02*
X183515880Y-47971785D01*
X183515880Y-48257500D02*
X182515880Y-48257500D01*
X182658738Y-48162261D01*
X182753976Y-48067023D01*
X182801595Y-47971785D01*
X182515880Y-48876547D02*
X182515880Y-49495595D01*
X182896833Y-49162261D01*
X182896833Y-49305119D01*
X182944452Y-49400357D01*
X182992071Y-49447976D01*
X183087309Y-49495595D01*
X183325404Y-49495595D01*
X183420642Y-49447976D01*
X183468261Y-49400357D01*
X183515880Y-49305119D01*
X183515880Y-49019404D01*
X183468261Y-48924166D01*
X183420642Y-48876547D01*
X166857142Y-90193952D02*
X166904761Y-90146333D01*
X166952380Y-90003476D01*
X166952380Y-89908238D01*
X166904761Y-89765380D01*
X166809523Y-89670142D01*
X166714285Y-89622523D01*
X166523809Y-89574904D01*
X166380952Y-89574904D01*
X166190476Y-89622523D01*
X166095238Y-89670142D01*
X166000000Y-89765380D01*
X165952380Y-89908238D01*
X165952380Y-90003476D01*
X166000000Y-90146333D01*
X166047619Y-90193952D01*
X166952380Y-91146333D02*
X166952380Y-90574904D01*
X166952380Y-90860619D02*
X165952380Y-90860619D01*
X166095238Y-90765380D01*
X166190476Y-90670142D01*
X166238095Y-90574904D01*
X165952380Y-91765380D02*
X165952380Y-91860619D01*
X166000000Y-91955857D01*
X166047619Y-92003476D01*
X166142857Y-92051095D01*
X166333333Y-92098714D01*
X166571428Y-92098714D01*
X166761904Y-92051095D01*
X166857142Y-92003476D01*
X166904761Y-91955857D01*
X166952380Y-91860619D01*
X166952380Y-91765380D01*
X166904761Y-91670142D01*
X166857142Y-91622523D01*
X166761904Y-91574904D01*
X166571428Y-91527285D01*
X166333333Y-91527285D01*
X166142857Y-91574904D01*
X166047619Y-91622523D01*
X166000000Y-91670142D01*
X165952380Y-91765380D01*
X165952380Y-93003476D02*
X165952380Y-92527285D01*
X166428571Y-92479666D01*
X166380952Y-92527285D01*
X166333333Y-92622523D01*
X166333333Y-92860619D01*
X166380952Y-92955857D01*
X166428571Y-93003476D01*
X166523809Y-93051095D01*
X166761904Y-93051095D01*
X166857142Y-93003476D01*
X166904761Y-92955857D01*
X166952380Y-92860619D01*
X166952380Y-92622523D01*
X166904761Y-92527285D01*
X166857142Y-92479666D01*
X73182347Y-35298040D02*
X73515680Y-34821850D01*
X73753776Y-35298040D02*
X73753776Y-34298040D01*
X73372823Y-34298040D01*
X73277585Y-34345660D01*
X73229966Y-34393279D01*
X73182347Y-34488517D01*
X73182347Y-34631374D01*
X73229966Y-34726612D01*
X73277585Y-34774231D01*
X73372823Y-34821850D01*
X73753776Y-34821850D01*
X72229966Y-35298040D02*
X72801395Y-35298040D01*
X72515680Y-35298040D02*
X72515680Y-34298040D01*
X72610919Y-34440898D01*
X72706157Y-34536136D01*
X72801395Y-34583755D01*
X71610919Y-34298040D02*
X71515680Y-34298040D01*
X71420442Y-34345660D01*
X71372823Y-34393279D01*
X71325204Y-34488517D01*
X71277585Y-34678993D01*
X71277585Y-34917088D01*
X71325204Y-35107564D01*
X71372823Y-35202802D01*
X71420442Y-35250421D01*
X71515680Y-35298040D01*
X71610919Y-35298040D01*
X71706157Y-35250421D01*
X71753776Y-35202802D01*
X71801395Y-35107564D01*
X71849014Y-34917088D01*
X71849014Y-34678993D01*
X71801395Y-34488517D01*
X71753776Y-34393279D01*
X71706157Y-34345660D01*
X71610919Y-34298040D01*
X70325204Y-35298040D02*
X70896633Y-35298040D01*
X70610919Y-35298040D02*
X70610919Y-34298040D01*
X70706157Y-34440898D01*
X70801395Y-34536136D01*
X70896633Y-34583755D01*
X80929347Y-35392040D02*
X81262680Y-34915850D01*
X81500776Y-35392040D02*
X81500776Y-34392040D01*
X81119823Y-34392040D01*
X81024585Y-34439660D01*
X80976966Y-34487279D01*
X80929347Y-34582517D01*
X80929347Y-34725374D01*
X80976966Y-34820612D01*
X81024585Y-34868231D01*
X81119823Y-34915850D01*
X81500776Y-34915850D01*
X79976966Y-35392040D02*
X80548395Y-35392040D01*
X80262680Y-35392040D02*
X80262680Y-34392040D01*
X80357919Y-34534898D01*
X80453157Y-34630136D01*
X80548395Y-34677755D01*
X79357919Y-34392040D02*
X79262680Y-34392040D01*
X79167442Y-34439660D01*
X79119823Y-34487279D01*
X79072204Y-34582517D01*
X79024585Y-34772993D01*
X79024585Y-35011088D01*
X79072204Y-35201564D01*
X79119823Y-35296802D01*
X79167442Y-35344421D01*
X79262680Y-35392040D01*
X79357919Y-35392040D01*
X79453157Y-35344421D01*
X79500776Y-35296802D01*
X79548395Y-35201564D01*
X79596014Y-35011088D01*
X79596014Y-34772993D01*
X79548395Y-34582517D01*
X79500776Y-34487279D01*
X79453157Y-34439660D01*
X79357919Y-34392040D01*
X78643633Y-34487279D02*
X78596014Y-34439660D01*
X78500776Y-34392040D01*
X78262680Y-34392040D01*
X78167442Y-34439660D01*
X78119823Y-34487279D01*
X78072204Y-34582517D01*
X78072204Y-34677755D01*
X78119823Y-34820612D01*
X78691252Y-35392040D01*
X78072204Y-35392040D01*
X184548047Y-54765880D02*
X184881380Y-54289690D01*
X185119476Y-54765880D02*
X185119476Y-53765880D01*
X184738523Y-53765880D01*
X184643285Y-53813500D01*
X184595666Y-53861119D01*
X184548047Y-53956357D01*
X184548047Y-54099214D01*
X184595666Y-54194452D01*
X184643285Y-54242071D01*
X184738523Y-54289690D01*
X185119476Y-54289690D01*
X183595666Y-54765880D02*
X184167095Y-54765880D01*
X183881380Y-54765880D02*
X183881380Y-53765880D01*
X183976619Y-53908738D01*
X184071857Y-54003976D01*
X184167095Y-54051595D01*
X182976619Y-53765880D02*
X182881380Y-53765880D01*
X182786142Y-53813500D01*
X182738523Y-53861119D01*
X182690904Y-53956357D01*
X182643285Y-54146833D01*
X182643285Y-54384928D01*
X182690904Y-54575404D01*
X182738523Y-54670642D01*
X182786142Y-54718261D01*
X182881380Y-54765880D01*
X182976619Y-54765880D01*
X183071857Y-54718261D01*
X183119476Y-54670642D01*
X183167095Y-54575404D01*
X183214714Y-54384928D01*
X183214714Y-54146833D01*
X183167095Y-53956357D01*
X183119476Y-53861119D01*
X183071857Y-53813500D01*
X182976619Y-53765880D01*
X181786142Y-53765880D02*
X181976619Y-53765880D01*
X182071857Y-53813500D01*
X182119476Y-53861119D01*
X182214714Y-54003976D01*
X182262333Y-54194452D01*
X182262333Y-54575404D01*
X182214714Y-54670642D01*
X182167095Y-54718261D01*
X182071857Y-54765880D01*
X181881380Y-54765880D01*
X181786142Y-54718261D01*
X181738523Y-54670642D01*
X181690904Y-54575404D01*
X181690904Y-54337309D01*
X181738523Y-54242071D01*
X181786142Y-54194452D01*
X181881380Y-54146833D01*
X182071857Y-54146833D01*
X182167095Y-54194452D01*
X182214714Y-54242071D01*
X182262333Y-54337309D01*
X181047619Y-54297619D02*
X181142857Y-54250000D01*
X181238095Y-54154761D01*
X181380952Y-54011904D01*
X181476190Y-53964285D01*
X181571428Y-53964285D01*
X181523809Y-54202380D02*
X181619047Y-54154761D01*
X181714285Y-54059523D01*
X181761904Y-53869047D01*
X181761904Y-53535714D01*
X181714285Y-53345238D01*
X181619047Y-53250000D01*
X181523809Y-53202380D01*
X181333333Y-53202380D01*
X181238095Y-53250000D01*
X181142857Y-53345238D01*
X181095238Y-53535714D01*
X181095238Y-53869047D01*
X181142857Y-54059523D01*
X181238095Y-54154761D01*
X181333333Y-54202380D01*
X181523809Y-54202380D01*
X180142857Y-54202380D02*
X180714285Y-54202380D01*
X180428571Y-54202380D02*
X180428571Y-53202380D01*
X180523809Y-53345238D01*
X180619047Y-53440476D01*
X180714285Y-53488095D01*
X179523809Y-53202380D02*
X179428571Y-53202380D01*
X179333333Y-53250000D01*
X179285714Y-53297619D01*
X179238095Y-53392857D01*
X179190476Y-53583333D01*
X179190476Y-53821428D01*
X179238095Y-54011904D01*
X179285714Y-54107142D01*
X179333333Y-54154761D01*
X179428571Y-54202380D01*
X179523809Y-54202380D01*
X179619047Y-54154761D01*
X179666666Y-54107142D01*
X179714285Y-54011904D01*
X179761904Y-53821428D01*
X179761904Y-53583333D01*
X179714285Y-53392857D01*
X179666666Y-53297619D01*
X179619047Y-53250000D01*
X179523809Y-53202380D01*
X178238095Y-54202380D02*
X178809523Y-54202380D01*
X178523809Y-54202380D02*
X178523809Y-53202380D01*
X178619047Y-53345238D01*
X178714285Y-53440476D01*
X178809523Y-53488095D01*
X175369047Y-57382380D02*
X175702380Y-56906190D01*
X175940476Y-57382380D02*
X175940476Y-56382380D01*
X175559523Y-56382380D01*
X175464285Y-56430000D01*
X175416666Y-56477619D01*
X175369047Y-56572857D01*
X175369047Y-56715714D01*
X175416666Y-56810952D01*
X175464285Y-56858571D01*
X175559523Y-56906190D01*
X175940476Y-56906190D01*
X174416666Y-57382380D02*
X174988095Y-57382380D01*
X174702380Y-57382380D02*
X174702380Y-56382380D01*
X174797619Y-56525238D01*
X174892857Y-56620476D01*
X174988095Y-56668095D01*
X173797619Y-56382380D02*
X173702380Y-56382380D01*
X173607142Y-56430000D01*
X173559523Y-56477619D01*
X173511904Y-56572857D01*
X173464285Y-56763333D01*
X173464285Y-57001428D01*
X173511904Y-57191904D01*
X173559523Y-57287142D01*
X173607142Y-57334761D01*
X173702380Y-57382380D01*
X173797619Y-57382380D01*
X173892857Y-57334761D01*
X173940476Y-57287142D01*
X173988095Y-57191904D01*
X174035714Y-57001428D01*
X174035714Y-56763333D01*
X173988095Y-56572857D01*
X173940476Y-56477619D01*
X173892857Y-56430000D01*
X173797619Y-56382380D01*
X172607142Y-56715714D02*
X172607142Y-57382380D01*
X172845238Y-56334761D02*
X173083333Y-57049047D01*
X172464285Y-57049047D01*
X178882380Y-50130952D02*
X178406190Y-49797619D01*
X178882380Y-49559523D02*
X177882380Y-49559523D01*
X177882380Y-49940476D01*
X177930000Y-50035714D01*
X177977619Y-50083333D01*
X178072857Y-50130952D01*
X178215714Y-50130952D01*
X178310952Y-50083333D01*
X178358571Y-50035714D01*
X178406190Y-49940476D01*
X178406190Y-49559523D01*
X178882380Y-51083333D02*
X178882380Y-50511904D01*
X178882380Y-50797619D02*
X177882380Y-50797619D01*
X178025238Y-50702380D01*
X178120476Y-50607142D01*
X178168095Y-50511904D01*
X177882380Y-51702380D02*
X177882380Y-51797619D01*
X177930000Y-51892857D01*
X177977619Y-51940476D01*
X178072857Y-51988095D01*
X178263333Y-52035714D01*
X178501428Y-52035714D01*
X178691904Y-51988095D01*
X178787142Y-51940476D01*
X178834761Y-51892857D01*
X178882380Y-51797619D01*
X178882380Y-51702380D01*
X178834761Y-51607142D01*
X178787142Y-51559523D01*
X178691904Y-51511904D01*
X178501428Y-51464285D01*
X178263333Y-51464285D01*
X178072857Y-51511904D01*
X177977619Y-51559523D01*
X177930000Y-51607142D01*
X177882380Y-51702380D01*
X177882380Y-52940476D02*
X177882380Y-52464285D01*
X178358571Y-52416666D01*
X178310952Y-52464285D01*
X178263333Y-52559523D01*
X178263333Y-52797619D01*
X178310952Y-52892857D01*
X178358571Y-52940476D01*
X178453809Y-52988095D01*
X178691904Y-52988095D01*
X178787142Y-52940476D01*
X178834761Y-52892857D01*
X178882380Y-52797619D01*
X178882380Y-52559523D01*
X178834761Y-52464285D01*
X178787142Y-52416666D01*
X154411380Y-43059523D02*
X153411380Y-43059523D01*
X153411380Y-43297619D01*
X153459000Y-43440476D01*
X153554238Y-43535714D01*
X153649476Y-43583333D01*
X153839952Y-43630952D01*
X153982809Y-43630952D01*
X154173285Y-43583333D01*
X154268523Y-43535714D01*
X154363761Y-43440476D01*
X154411380Y-43297619D01*
X154411380Y-43059523D01*
X153506619Y-44011904D02*
X153459000Y-44059523D01*
X153411380Y-44154761D01*
X153411380Y-44392857D01*
X153459000Y-44488095D01*
X153506619Y-44535714D01*
X153601857Y-44583333D01*
X153697095Y-44583333D01*
X153839952Y-44535714D01*
X154411380Y-43964285D01*
X154411380Y-44583333D01*
X153411380Y-45202380D02*
X153411380Y-45297619D01*
X153459000Y-45392857D01*
X153506619Y-45440476D01*
X153601857Y-45488095D01*
X153792333Y-45535714D01*
X154030428Y-45535714D01*
X154220904Y-45488095D01*
X154316142Y-45440476D01*
X154363761Y-45392857D01*
X154411380Y-45297619D01*
X154411380Y-45202380D01*
X154363761Y-45107142D01*
X154316142Y-45059523D01*
X154220904Y-45011904D01*
X154030428Y-44964285D01*
X153792333Y-44964285D01*
X153601857Y-45011904D01*
X153506619Y-45059523D01*
X153459000Y-45107142D01*
X153411380Y-45202380D01*
X154411380Y-46488095D02*
X154411380Y-45916666D01*
X154411380Y-46202380D02*
X153411380Y-46202380D01*
X153554238Y-46107142D01*
X153649476Y-46011904D01*
X153697095Y-45916666D01*
X154335180Y-63059523D02*
X153335180Y-63059523D01*
X153335180Y-63297619D01*
X153382800Y-63440476D01*
X153478038Y-63535714D01*
X153573276Y-63583333D01*
X153763752Y-63630952D01*
X153906609Y-63630952D01*
X154097085Y-63583333D01*
X154192323Y-63535714D01*
X154287561Y-63440476D01*
X154335180Y-63297619D01*
X154335180Y-63059523D01*
X153430419Y-64011904D02*
X153382800Y-64059523D01*
X153335180Y-64154761D01*
X153335180Y-64392857D01*
X153382800Y-64488095D01*
X153430419Y-64535714D01*
X153525657Y-64583333D01*
X153620895Y-64583333D01*
X153763752Y-64535714D01*
X154335180Y-63964285D01*
X154335180Y-64583333D01*
X153335180Y-65202380D02*
X153335180Y-65297619D01*
X153382800Y-65392857D01*
X153430419Y-65440476D01*
X153525657Y-65488095D01*
X153716133Y-65535714D01*
X153954228Y-65535714D01*
X154144704Y-65488095D01*
X154239942Y-65440476D01*
X154287561Y-65392857D01*
X154335180Y-65297619D01*
X154335180Y-65202380D01*
X154287561Y-65107142D01*
X154239942Y-65059523D01*
X154144704Y-65011904D01*
X153954228Y-64964285D01*
X153716133Y-64964285D01*
X153525657Y-65011904D01*
X153430419Y-65059523D01*
X153382800Y-65107142D01*
X153335180Y-65202380D01*
X153763752Y-66107142D02*
X153716133Y-66011904D01*
X153668514Y-65964285D01*
X153573276Y-65916666D01*
X153525657Y-65916666D01*
X153430419Y-65964285D01*
X153382800Y-66011904D01*
X153335180Y-66107142D01*
X153335180Y-66297619D01*
X153382800Y-66392857D01*
X153430419Y-66440476D01*
X153525657Y-66488095D01*
X153573276Y-66488095D01*
X153668514Y-66440476D01*
X153716133Y-66392857D01*
X153763752Y-66297619D01*
X153763752Y-66107142D01*
X153811371Y-66011904D01*
X153858990Y-65964285D01*
X153954228Y-65916666D01*
X154144704Y-65916666D01*
X154239942Y-65964285D01*
X154287561Y-66011904D01*
X154335180Y-66107142D01*
X154335180Y-66297619D01*
X154287561Y-66392857D01*
X154239942Y-66440476D01*
X154144704Y-66488095D01*
X153954228Y-66488095D01*
X153858990Y-66440476D01*
X153811371Y-66392857D01*
X153763752Y-66297619D01*
X141064180Y-70559523D02*
X140064180Y-70559523D01*
X140064180Y-70797619D01*
X140111800Y-70940476D01*
X140207038Y-71035714D01*
X140302276Y-71083333D01*
X140492752Y-71130952D01*
X140635609Y-71130952D01*
X140826085Y-71083333D01*
X140921323Y-71035714D01*
X141016561Y-70940476D01*
X141064180Y-70797619D01*
X141064180Y-70559523D01*
X140159419Y-71511904D02*
X140111800Y-71559523D01*
X140064180Y-71654761D01*
X140064180Y-71892857D01*
X140111800Y-71988095D01*
X140159419Y-72035714D01*
X140254657Y-72083333D01*
X140349895Y-72083333D01*
X140492752Y-72035714D01*
X141064180Y-71464285D01*
X141064180Y-72083333D01*
X141064180Y-73035714D02*
X141064180Y-72464285D01*
X141064180Y-72750000D02*
X140064180Y-72750000D01*
X140207038Y-72654761D01*
X140302276Y-72559523D01*
X140349895Y-72464285D01*
X140064180Y-73940476D02*
X140064180Y-73464285D01*
X140540371Y-73416666D01*
X140492752Y-73464285D01*
X140445133Y-73559523D01*
X140445133Y-73797619D01*
X140492752Y-73892857D01*
X140540371Y-73940476D01*
X140635609Y-73988095D01*
X140873704Y-73988095D01*
X140968942Y-73940476D01*
X141016561Y-73892857D01*
X141064180Y-73797619D01*
X141064180Y-73559523D01*
X141016561Y-73464285D01*
X140968942Y-73416666D01*
X182952380Y-82309523D02*
X181952380Y-82309523D01*
X181952380Y-82547619D01*
X182000000Y-82690476D01*
X182095238Y-82785714D01*
X182190476Y-82833333D01*
X182380952Y-82880952D01*
X182523809Y-82880952D01*
X182714285Y-82833333D01*
X182809523Y-82785714D01*
X182904761Y-82690476D01*
X182952380Y-82547619D01*
X182952380Y-82309523D01*
X182047619Y-83261904D02*
X182000000Y-83309523D01*
X181952380Y-83404761D01*
X181952380Y-83642857D01*
X182000000Y-83738095D01*
X182047619Y-83785714D01*
X182142857Y-83833333D01*
X182238095Y-83833333D01*
X182380952Y-83785714D01*
X182952380Y-83214285D01*
X182952380Y-83833333D01*
X182047619Y-84214285D02*
X182000000Y-84261904D01*
X181952380Y-84357142D01*
X181952380Y-84595238D01*
X182000000Y-84690476D01*
X182047619Y-84738095D01*
X182142857Y-84785714D01*
X182238095Y-84785714D01*
X182380952Y-84738095D01*
X182952380Y-84166666D01*
X182952380Y-84785714D01*
X182047619Y-85166666D02*
X182000000Y-85214285D01*
X181952380Y-85309523D01*
X181952380Y-85547619D01*
X182000000Y-85642857D01*
X182047619Y-85690476D01*
X182142857Y-85738095D01*
X182238095Y-85738095D01*
X182380952Y-85690476D01*
X182952380Y-85119047D01*
X182952380Y-85738095D01*
X50008380Y-84465523D02*
X49008380Y-84465523D01*
X49008380Y-84703619D01*
X49056000Y-84846476D01*
X49151238Y-84941714D01*
X49246476Y-84989333D01*
X49436952Y-85036952D01*
X49579809Y-85036952D01*
X49770285Y-84989333D01*
X49865523Y-84941714D01*
X49960761Y-84846476D01*
X50008380Y-84703619D01*
X50008380Y-84465523D01*
X49103619Y-85417904D02*
X49056000Y-85465523D01*
X49008380Y-85560761D01*
X49008380Y-85798857D01*
X49056000Y-85894095D01*
X49103619Y-85941714D01*
X49198857Y-85989333D01*
X49294095Y-85989333D01*
X49436952Y-85941714D01*
X50008380Y-85370285D01*
X50008380Y-85989333D01*
X49103619Y-86370285D02*
X49056000Y-86417904D01*
X49008380Y-86513142D01*
X49008380Y-86751238D01*
X49056000Y-86846476D01*
X49103619Y-86894095D01*
X49198857Y-86941714D01*
X49294095Y-86941714D01*
X49436952Y-86894095D01*
X50008380Y-86322666D01*
X50008380Y-86941714D01*
X49008380Y-87275047D02*
X49008380Y-87894095D01*
X49389333Y-87560761D01*
X49389333Y-87703619D01*
X49436952Y-87798857D01*
X49484571Y-87846476D01*
X49579809Y-87894095D01*
X49817904Y-87894095D01*
X49913142Y-87846476D01*
X49960761Y-87798857D01*
X50008380Y-87703619D01*
X50008380Y-87417904D01*
X49960761Y-87322666D01*
X49913142Y-87275047D01*
X73758380Y-84465523D02*
X72758380Y-84465523D01*
X72758380Y-84703619D01*
X72806000Y-84846476D01*
X72901238Y-84941714D01*
X72996476Y-84989333D01*
X73186952Y-85036952D01*
X73329809Y-85036952D01*
X73520285Y-84989333D01*
X73615523Y-84941714D01*
X73710761Y-84846476D01*
X73758380Y-84703619D01*
X73758380Y-84465523D01*
X72853619Y-85417904D02*
X72806000Y-85465523D01*
X72758380Y-85560761D01*
X72758380Y-85798857D01*
X72806000Y-85894095D01*
X72853619Y-85941714D01*
X72948857Y-85989333D01*
X73044095Y-85989333D01*
X73186952Y-85941714D01*
X73758380Y-85370285D01*
X73758380Y-85989333D01*
X72853619Y-86370285D02*
X72806000Y-86417904D01*
X72758380Y-86513142D01*
X72758380Y-86751238D01*
X72806000Y-86846476D01*
X72853619Y-86894095D01*
X72948857Y-86941714D01*
X73044095Y-86941714D01*
X73186952Y-86894095D01*
X73758380Y-86322666D01*
X73758380Y-86941714D01*
X73091714Y-87798857D02*
X73758380Y-87798857D01*
X72710761Y-87560761D02*
X73425047Y-87322666D01*
X73425047Y-87941714D01*
X97508380Y-84465523D02*
X96508380Y-84465523D01*
X96508380Y-84703619D01*
X96556000Y-84846476D01*
X96651238Y-84941714D01*
X96746476Y-84989333D01*
X96936952Y-85036952D01*
X97079809Y-85036952D01*
X97270285Y-84989333D01*
X97365523Y-84941714D01*
X97460761Y-84846476D01*
X97508380Y-84703619D01*
X97508380Y-84465523D01*
X96603619Y-85417904D02*
X96556000Y-85465523D01*
X96508380Y-85560761D01*
X96508380Y-85798857D01*
X96556000Y-85894095D01*
X96603619Y-85941714D01*
X96698857Y-85989333D01*
X96794095Y-85989333D01*
X96936952Y-85941714D01*
X97508380Y-85370285D01*
X97508380Y-85989333D01*
X96603619Y-86370285D02*
X96556000Y-86417904D01*
X96508380Y-86513142D01*
X96508380Y-86751238D01*
X96556000Y-86846476D01*
X96603619Y-86894095D01*
X96698857Y-86941714D01*
X96794095Y-86941714D01*
X96936952Y-86894095D01*
X97508380Y-86322666D01*
X97508380Y-86941714D01*
X96508380Y-87846476D02*
X96508380Y-87370285D01*
X96984571Y-87322666D01*
X96936952Y-87370285D01*
X96889333Y-87465523D01*
X96889333Y-87703619D01*
X96936952Y-87798857D01*
X96984571Y-87846476D01*
X97079809Y-87894095D01*
X97317904Y-87894095D01*
X97413142Y-87846476D01*
X97460761Y-87798857D01*
X97508380Y-87703619D01*
X97508380Y-87465523D01*
X97460761Y-87370285D01*
X97413142Y-87322666D01*
X139921180Y-82309523D02*
X138921180Y-82309523D01*
X138921180Y-82547619D01*
X138968800Y-82690476D01*
X139064038Y-82785714D01*
X139159276Y-82833333D01*
X139349752Y-82880952D01*
X139492609Y-82880952D01*
X139683085Y-82833333D01*
X139778323Y-82785714D01*
X139873561Y-82690476D01*
X139921180Y-82547619D01*
X139921180Y-82309523D01*
X139016419Y-83261904D02*
X138968800Y-83309523D01*
X138921180Y-83404761D01*
X138921180Y-83642857D01*
X138968800Y-83738095D01*
X139016419Y-83785714D01*
X139111657Y-83833333D01*
X139206895Y-83833333D01*
X139349752Y-83785714D01*
X139921180Y-83214285D01*
X139921180Y-83833333D01*
X139016419Y-84214285D02*
X138968800Y-84261904D01*
X138921180Y-84357142D01*
X138921180Y-84595238D01*
X138968800Y-84690476D01*
X139016419Y-84738095D01*
X139111657Y-84785714D01*
X139206895Y-84785714D01*
X139349752Y-84738095D01*
X139921180Y-84166666D01*
X139921180Y-84785714D01*
X138921180Y-85642857D02*
X138921180Y-85452380D01*
X138968800Y-85357142D01*
X139016419Y-85309523D01*
X139159276Y-85214285D01*
X139349752Y-85166666D01*
X139730704Y-85166666D01*
X139825942Y-85214285D01*
X139873561Y-85261904D01*
X139921180Y-85357142D01*
X139921180Y-85547619D01*
X139873561Y-85642857D01*
X139825942Y-85690476D01*
X139730704Y-85738095D01*
X139492609Y-85738095D01*
X139397371Y-85690476D01*
X139349752Y-85642857D01*
X139302133Y-85547619D01*
X139302133Y-85357142D01*
X139349752Y-85261904D01*
X139397371Y-85214285D01*
X139492609Y-85166666D01*
X198341180Y-84465523D02*
X197341180Y-84465523D01*
X197341180Y-84703619D01*
X197388800Y-84846476D01*
X197484038Y-84941714D01*
X197579276Y-84989333D01*
X197769752Y-85036952D01*
X197912609Y-85036952D01*
X198103085Y-84989333D01*
X198198323Y-84941714D01*
X198293561Y-84846476D01*
X198341180Y-84703619D01*
X198341180Y-84465523D01*
X197436419Y-85417904D02*
X197388800Y-85465523D01*
X197341180Y-85560761D01*
X197341180Y-85798857D01*
X197388800Y-85894095D01*
X197436419Y-85941714D01*
X197531657Y-85989333D01*
X197626895Y-85989333D01*
X197769752Y-85941714D01*
X198341180Y-85370285D01*
X198341180Y-85989333D01*
X197436419Y-86370285D02*
X197388800Y-86417904D01*
X197341180Y-86513142D01*
X197341180Y-86751238D01*
X197388800Y-86846476D01*
X197436419Y-86894095D01*
X197531657Y-86941714D01*
X197626895Y-86941714D01*
X197769752Y-86894095D01*
X198341180Y-86322666D01*
X198341180Y-86941714D01*
X197341180Y-87275047D02*
X197341180Y-87941714D01*
X198341180Y-87513142D01*
X216273580Y-84465523D02*
X215273580Y-84465523D01*
X215273580Y-84703619D01*
X215321200Y-84846476D01*
X215416438Y-84941714D01*
X215511676Y-84989333D01*
X215702152Y-85036952D01*
X215845009Y-85036952D01*
X216035485Y-84989333D01*
X216130723Y-84941714D01*
X216225961Y-84846476D01*
X216273580Y-84703619D01*
X216273580Y-84465523D01*
X215368819Y-85417904D02*
X215321200Y-85465523D01*
X215273580Y-85560761D01*
X215273580Y-85798857D01*
X215321200Y-85894095D01*
X215368819Y-85941714D01*
X215464057Y-85989333D01*
X215559295Y-85989333D01*
X215702152Y-85941714D01*
X216273580Y-85370285D01*
X216273580Y-85989333D01*
X215368819Y-86370285D02*
X215321200Y-86417904D01*
X215273580Y-86513142D01*
X215273580Y-86751238D01*
X215321200Y-86846476D01*
X215368819Y-86894095D01*
X215464057Y-86941714D01*
X215559295Y-86941714D01*
X215702152Y-86894095D01*
X216273580Y-86322666D01*
X216273580Y-86941714D01*
X215702152Y-87513142D02*
X215654533Y-87417904D01*
X215606914Y-87370285D01*
X215511676Y-87322666D01*
X215464057Y-87322666D01*
X215368819Y-87370285D01*
X215321200Y-87417904D01*
X215273580Y-87513142D01*
X215273580Y-87703619D01*
X215321200Y-87798857D01*
X215368819Y-87846476D01*
X215464057Y-87894095D01*
X215511676Y-87894095D01*
X215606914Y-87846476D01*
X215654533Y-87798857D01*
X215702152Y-87703619D01*
X215702152Y-87513142D01*
X215749771Y-87417904D01*
X215797390Y-87370285D01*
X215892628Y-87322666D01*
X216083104Y-87322666D01*
X216178342Y-87370285D01*
X216225961Y-87417904D01*
X216273580Y-87513142D01*
X216273580Y-87703619D01*
X216225961Y-87798857D01*
X216178342Y-87846476D01*
X216083104Y-87894095D01*
X215892628Y-87894095D01*
X215797390Y-87846476D01*
X215749771Y-87798857D01*
X215702152Y-87703619D01*
X240023580Y-84465523D02*
X239023580Y-84465523D01*
X239023580Y-84703619D01*
X239071200Y-84846476D01*
X239166438Y-84941714D01*
X239261676Y-84989333D01*
X239452152Y-85036952D01*
X239595009Y-85036952D01*
X239785485Y-84989333D01*
X239880723Y-84941714D01*
X239975961Y-84846476D01*
X240023580Y-84703619D01*
X240023580Y-84465523D01*
X239118819Y-85417904D02*
X239071200Y-85465523D01*
X239023580Y-85560761D01*
X239023580Y-85798857D01*
X239071200Y-85894095D01*
X239118819Y-85941714D01*
X239214057Y-85989333D01*
X239309295Y-85989333D01*
X239452152Y-85941714D01*
X240023580Y-85370285D01*
X240023580Y-85989333D01*
X239118819Y-86370285D02*
X239071200Y-86417904D01*
X239023580Y-86513142D01*
X239023580Y-86751238D01*
X239071200Y-86846476D01*
X239118819Y-86894095D01*
X239214057Y-86941714D01*
X239309295Y-86941714D01*
X239452152Y-86894095D01*
X240023580Y-86322666D01*
X240023580Y-86941714D01*
X240023580Y-87417904D02*
X240023580Y-87608380D01*
X239975961Y-87703619D01*
X239928342Y-87751238D01*
X239785485Y-87846476D01*
X239595009Y-87894095D01*
X239214057Y-87894095D01*
X239118819Y-87846476D01*
X239071200Y-87798857D01*
X239023580Y-87703619D01*
X239023580Y-87513142D01*
X239071200Y-87417904D01*
X239118819Y-87370285D01*
X239214057Y-87322666D01*
X239452152Y-87322666D01*
X239547390Y-87370285D01*
X239595009Y-87417904D01*
X239642628Y-87513142D01*
X239642628Y-87703619D01*
X239595009Y-87798857D01*
X239547390Y-87846476D01*
X239452152Y-87894095D01*
X263773580Y-84309523D02*
X262773580Y-84309523D01*
X262773580Y-84547619D01*
X262821200Y-84690476D01*
X262916438Y-84785714D01*
X263011676Y-84833333D01*
X263202152Y-84880952D01*
X263345009Y-84880952D01*
X263535485Y-84833333D01*
X263630723Y-84785714D01*
X263725961Y-84690476D01*
X263773580Y-84547619D01*
X263773580Y-84309523D01*
X262868819Y-85261904D02*
X262821200Y-85309523D01*
X262773580Y-85404761D01*
X262773580Y-85642857D01*
X262821200Y-85738095D01*
X262868819Y-85785714D01*
X262964057Y-85833333D01*
X263059295Y-85833333D01*
X263202152Y-85785714D01*
X263773580Y-85214285D01*
X263773580Y-85833333D01*
X262773580Y-86166666D02*
X262773580Y-86785714D01*
X263154533Y-86452380D01*
X263154533Y-86595238D01*
X263202152Y-86690476D01*
X263249771Y-86738095D01*
X263345009Y-86785714D01*
X263583104Y-86785714D01*
X263678342Y-86738095D01*
X263725961Y-86690476D01*
X263773580Y-86595238D01*
X263773580Y-86309523D01*
X263725961Y-86214285D01*
X263678342Y-86166666D01*
X262773580Y-87404761D02*
X262773580Y-87500000D01*
X262821200Y-87595238D01*
X262868819Y-87642857D01*
X262964057Y-87690476D01*
X263154533Y-87738095D01*
X263392628Y-87738095D01*
X263583104Y-87690476D01*
X263678342Y-87642857D01*
X263725961Y-87595238D01*
X263773580Y-87500000D01*
X263773580Y-87404761D01*
X263725961Y-87309523D01*
X263678342Y-87261904D01*
X263583104Y-87214285D01*
X263392628Y-87166666D01*
X263154533Y-87166666D01*
X262964057Y-87214285D01*
X262868819Y-87261904D01*
X262821200Y-87309523D01*
X262773580Y-87404761D01*
X164431823Y-92004531D02*
X163859403Y-92576951D01*
X163758388Y-92610623D01*
X163691044Y-92610623D01*
X163590029Y-92576951D01*
X163455342Y-92442264D01*
X163421670Y-92341249D01*
X163421670Y-92273905D01*
X163455342Y-92172890D01*
X164027762Y-91600470D01*
X162613548Y-91600470D02*
X163017609Y-92004531D01*
X162815579Y-91802501D02*
X163522685Y-91095394D01*
X163489014Y-91263753D01*
X163489014Y-91398440D01*
X163522685Y-91499455D01*
X162882922Y-90455631D02*
X162815579Y-90388287D01*
X162714563Y-90354616D01*
X162647220Y-90354616D01*
X162546205Y-90388287D01*
X162377846Y-90489303D01*
X162209487Y-90657661D01*
X162108472Y-90826020D01*
X162074800Y-90927035D01*
X162074800Y-90994379D01*
X162108472Y-91095394D01*
X162175815Y-91162738D01*
X162276831Y-91196409D01*
X162344174Y-91196409D01*
X162445189Y-91162738D01*
X162613548Y-91061722D01*
X162781907Y-90893364D01*
X162882922Y-90725005D01*
X162916594Y-90623990D01*
X162916594Y-90556646D01*
X162882922Y-90455631D01*
X161266678Y-90253600D02*
X161670739Y-90657661D01*
X161468709Y-90455631D02*
X162175815Y-89748524D01*
X162142144Y-89916883D01*
X162142144Y-90051570D01*
X162175815Y-90152585D01*
M02*
