M48
; DRILL file {KiCad 5.1.9} date Tue Jan 26 11:46:53 2021
; FORMAT={-:-/ absolute / inch / decimal}
; #@! TF.CreationDate,2021-01-26T11:46:53+01:00
; #@! TF.GenerationSoftware,Kicad,Pcbnew,5.1.9
; #@! TF.FileFunction,Plated,1,2,PTH
FMAT,2
INCH
T1C0.0157
T2C0.0236
T3C0.0866
%
G90
G05
T1
X0.0244Y-1.5753
X0.1369Y-1.2578
X0.1369Y-1.5778
X0.1469Y-0.9878
X0.3269Y-0.4778
X0.7069Y-1.7478
X0.7069Y-2.2828
X0.7969Y-1.1178
X0.8969Y-1.0078
X1.0794Y-0.4453
X1.4569Y-1.7478
X1.4969Y-1.9778
X1.5369Y-2.2453
X1.6069Y-1.2478
X1.6469Y-1.0178
X1.7669Y-0.4778
X2.2069Y-1.7578
X2.2369Y-1.9678
X2.3869Y-1.2178
X2.3969Y-1.0078
X2.4803Y-2.2835
X2.5744Y-0.4453
X2.9569Y-1.7578
X3.1344Y-1.2028
X3.1369Y-1.0178
X3.2669Y-0.4978
X3.6944Y-2.5528
X3.6944Y-2.6278
X3.6969Y-1.7678
X3.7219Y-2.5178
X3.7244Y-2.5903
X3.7244Y-2.6653
X3.8769Y-1.2278
X3.8869Y-1.0078
X4.0694Y-0.4453
X4.0748Y-2.7461
X4.3602Y-0.6988
X4.3969Y-2.0578
X4.5472Y-1.25
X4.6358Y-1.122
X4.6519Y-2.3028
X4.685Y-0.7972
X4.7423Y-0.5681
X4.7638Y-2.5197
X4.7769Y-2.3678
X4.8169Y-0.4878
X4.8169Y-0.9878
X4.8425Y-2.2539
X4.9606Y-2.3819
X4.9606Y-2.5492
X4.962Y-2.7278
X4.9744Y-2.1203
X5.0357Y-1.5466
X5.0394Y-2.1193
X5.0657Y-1.3791
X5.0698Y-2.1528
X5.0969Y-2.1203
X5.1083Y-1.2403
X5.1152Y-2.7727
X5.1269Y-2.1528
X5.1869Y-1.7678
X5.1919Y-1.9528
X5.2167Y-2.2886
X5.4613Y-2.5616
X5.4769Y-0.1828
X5.4969Y-0.6978
X5.6569Y-0.4978
X5.7569Y-0.9978
X5.8469Y-1.3078
X5.9369Y-1.7378
X5.9869Y-1.9753
X6.1619Y-2.2653
X6.3419Y-2.3253
X6.3419Y-2.7072
X6.3844Y-0.4378
X6.4969Y-0.9978
X6.5319Y-1.2278
X6.6869Y-1.7278
X6.6894Y-1.9678
X6.7244Y-2.4173
X7.0276Y-2.2047
X7.1169Y-0.5178
X7.1569Y-2.5078
X7.2469Y-1.0078
X7.3469Y-1.2378
X7.4269Y-1.7478
X7.4369Y-1.9778
X7.6919Y-2.2403
X7.6944Y-2.4078
X7.8669Y-2.5453
X7.8869Y-0.4403
X7.9969Y-1.0078
X8.0769Y-1.2278
X8.0969Y-2.4978
X8.1769Y-1.7478
X8.1869Y-1.9678
X8.2494Y0.0147
X8.2969Y-0.1553
X8.4069Y0.0797
X8.4144Y-0.5678
X8.5019Y-2.4028
X8.5039Y-2.2756
X8.5469Y-0.5678
X8.6269Y-0.4778
X8.6604Y-0.1518
X8.6819Y-1.3803
X8.7469Y-1.0078
X8.7744Y-1.5478
X8.7844Y-2.0903
X8.8169Y-1.2378
X8.8294Y-1.3803
X8.8819Y-2.0903
X8.8844Y-1.5478
X8.9269Y-1.7478
X8.9869Y-1.9778
X9.0169Y-2.4978
X9.1831Y-2.2047
X9.1831Y-2.3917
X9.3819Y-0.4403
X9.4193Y-2.2835
X9.4319Y-2.4003
X9.4869Y-1.0078
X9.5369Y-1.2278
X9.6769Y-1.7478
T3
X9.2219Y0.0022
T2
G00X8.3084Y0.1898
M15
G01X8.3084Y0.2134
M16
G05
G00X8.3084Y0.0154
M15
G01X8.3084Y0.0587
M16
G05
G00X8.6485Y0.1898
M15
G01X8.6485Y0.2134
M16
G05
G00X8.6485Y0.0154
M15
G01X8.6485Y0.0587
M16
G05
T0
M30
