G04 #@! TF.GenerationSoftware,KiCad,Pcbnew,5.1.9*
G04 #@! TF.CreationDate,2021-01-26T11:46:09+01:00*
G04 #@! TF.ProjectId,Shoto,53686f74-6f2e-46b6-9963-61645f706362,rev?*
G04 #@! TF.SameCoordinates,PX4931cb0PY51c70f0*
G04 #@! TF.FileFunction,Legend,Bot*
G04 #@! TF.FilePolarity,Positive*
%FSLAX46Y46*%
G04 Gerber Fmt 4.6, Leading zero omitted, Abs format (unit mm)*
G04 Created by KiCad (PCBNEW 5.1.9) date 2021-01-26 11:46:09*
%MOMM*%
%LPD*%
G01*
G04 APERTURE LIST*
G04 #@! TA.AperFunction,Profile*
%ADD10C,0.050000*%
G04 #@! TD*
%ADD11C,0.010000*%
%ADD12C,0.150000*%
G04 APERTURE END LIST*
D10*
X116948000Y2331800D02*
X116948000Y130000D01*
X123552000Y2331800D02*
X123552000Y130000D01*
X11634201Y-58342000D02*
X13134200Y-58342000D01*
X10547287Y-52735673D02*
G75*
G02*
X13134200Y-58342000I2586913J-2206327D01*
G01*
X247859199Y-58342000D02*
X246359200Y-58342000D01*
X248951233Y-52741690D02*
G75*
G03*
X246359200Y-58342000I-2592033J-2200310D01*
G01*
X261327200Y-35748000D02*
X258609200Y-35748000D01*
X257593200Y-34732000D02*
G75*
G03*
X258609200Y-35748000I1016000J0D01*
G01*
X-1856800Y-35749160D02*
X890800Y-35749160D01*
X890800Y-35749160D02*
G75*
G03*
X1906800Y-34733160I0J1016000D01*
G01*
X123552000Y2331800D02*
X208486000Y2334000D01*
X28552000Y2331800D02*
X116948000Y2331800D01*
X7673200Y2331800D02*
X21948000Y2331800D01*
X6656800Y-15742000D02*
X6657200Y1315800D01*
X1906800Y-34733160D02*
X1906800Y-17774000D01*
X-2872800Y-51738536D02*
X-2872800Y-36765160D01*
X10547287Y-52735673D02*
X-1872800Y-52738536D01*
X11629800Y-71827200D02*
X11634201Y-58342000D01*
X78946000Y-72831800D02*
X12645800Y-72843200D01*
X175720000Y-72831800D02*
X85550000Y-72831800D01*
X246843200Y-72843200D02*
X182324000Y-72831800D01*
X247859199Y-58342000D02*
X247859200Y-71827200D01*
X261327200Y-52738536D02*
X248951233Y-52741690D01*
X262331666Y-36764000D02*
X262343200Y-51722536D01*
X257593200Y-17774400D02*
X257593200Y-34732000D01*
X252843200Y1318000D02*
X252843200Y-15742400D01*
X237552000Y2334000D02*
X251827200Y2334000D01*
X222202000Y2334000D02*
X230948000Y2334000D01*
X7673200Y2331800D02*
G75*
G03*
X6657200Y1315800I0J-1016000D01*
G01*
X5640800Y-16758000D02*
G75*
G03*
X6656800Y-15742000I0J1016000D01*
G01*
X2922800Y-16758000D02*
G75*
G03*
X1906800Y-17774000I0J-1016000D01*
G01*
X-1856800Y-35749160D02*
G75*
G03*
X-2872800Y-36765160I0J-1016000D01*
G01*
X-2872800Y-51738536D02*
G75*
G03*
X-1872800Y-52738536I1000000J0D01*
G01*
X11629800Y-71827200D02*
G75*
G03*
X12645800Y-72843200I1016000J0D01*
G01*
X246843200Y-72843200D02*
G75*
G03*
X247859200Y-71827200I0J1016000D01*
G01*
X261327200Y-52738536D02*
G75*
G03*
X262343200Y-51722536I0J1016000D01*
G01*
X262331666Y-36764000D02*
G75*
G03*
X261327200Y-35748000I-1016066J0D01*
G01*
X253859200Y-16758400D02*
X256577200Y-16758400D01*
X257593200Y-17774400D02*
G75*
G03*
X256577200Y-16758400I-1016000J0D01*
G01*
X252843200Y-15742400D02*
G75*
G03*
X253859200Y-16758400I1016000J0D01*
G01*
X252843200Y1318000D02*
G75*
G03*
X251827200Y2334000I-1016000J0D01*
G01*
X5640800Y-16758000D02*
X2922800Y-16758000D01*
X182324000Y-71130000D02*
X182324000Y-72831800D01*
X175720000Y-71130000D02*
X175720000Y-72831800D01*
X85550000Y-71130000D02*
X85550000Y-72831800D01*
X78946000Y-71130000D02*
X78946000Y-72831800D01*
X21948000Y130000D02*
X21948000Y2331800D01*
X28552000Y130000D02*
X28552000Y2331800D01*
X116948000Y130000D02*
G75*
G03*
X123552000Y130000I3302000J0D01*
G01*
X21948000Y130000D02*
G75*
G03*
X28552000Y130000I3302000J0D01*
G01*
X182324000Y-71130000D02*
G75*
G03*
X175720000Y-71130000I-3302000J0D01*
G01*
X85550000Y-71130000D02*
G75*
G03*
X78946000Y-71130000I-3302000J0D01*
G01*
X230948000Y130000D02*
X230948000Y2334000D01*
X237552000Y130000D02*
X237552000Y2334000D01*
X230948000Y130000D02*
G75*
G03*
X237552000Y130000I3302000J0D01*
G01*
X209756000Y6144000D02*
X209756000Y3604000D01*
X220932000Y6144000D02*
X209756000Y6144000D01*
X220932000Y3604000D02*
X220932000Y6144000D01*
X208486000Y2334000D02*
G75*
G03*
X209756000Y3604000I0J1270000D01*
G01*
X220932000Y3604000D02*
G75*
G03*
X222202000Y2334000I1270000J0D01*
G01*
D11*
G36*
X126577202Y-13809330D02*
G01*
X124521121Y-14160566D01*
X124016708Y-14292953D01*
X121169256Y-15346168D01*
X118433814Y-16804261D01*
X115929039Y-18589396D01*
X113773589Y-20623740D01*
X113025500Y-21502795D01*
X111926434Y-23093956D01*
X110849492Y-25016979D01*
X109891267Y-27074199D01*
X109148353Y-29067952D01*
X108892617Y-29960138D01*
X108565959Y-31770857D01*
X108389513Y-33880234D01*
X108368972Y-36072090D01*
X108510026Y-38130247D01*
X108652164Y-39092474D01*
X109431282Y-41962655D01*
X110679662Y-44791150D01*
X112336956Y-47462415D01*
X114197496Y-49709749D01*
X116731856Y-52007693D01*
X119500846Y-53826906D01*
X122491238Y-55162479D01*
X125689804Y-56009507D01*
X129083317Y-56363081D01*
X131928691Y-56287431D01*
X135049022Y-55773048D01*
X138032022Y-54774600D01*
X140829411Y-53335288D01*
X143392910Y-51498317D01*
X145674240Y-49306890D01*
X147625121Y-46804211D01*
X149197274Y-44033482D01*
X150342419Y-41037908D01*
X150743728Y-39450564D01*
X151036722Y-37400255D01*
X151136205Y-35110660D01*
X151129119Y-34930527D01*
X150598221Y-34930527D01*
X150385686Y-38180232D01*
X149739743Y-41167319D01*
X148636770Y-43947668D01*
X147053142Y-46577157D01*
X144965237Y-49111668D01*
X144321646Y-49777257D01*
X143141637Y-50923282D01*
X142147727Y-51779594D01*
X141180660Y-52464740D01*
X140081182Y-53097265D01*
X139375263Y-53459220D01*
X138045897Y-54072436D01*
X136621847Y-54648455D01*
X135330651Y-55098056D01*
X134830000Y-55241452D01*
X132726312Y-55618712D01*
X130353724Y-55777691D01*
X127931522Y-55718327D01*
X125678992Y-55440555D01*
X124779611Y-55244407D01*
X121660017Y-54188228D01*
X118812277Y-52710652D01*
X116264602Y-50857640D01*
X114045207Y-48675154D01*
X112182305Y-46209154D01*
X110704108Y-43505602D01*
X109638830Y-40610458D01*
X109014685Y-37569684D01*
X108859885Y-34429240D01*
X109202643Y-31235089D01*
X109419119Y-30221201D01*
X110444408Y-27048967D01*
X111917132Y-24135228D01*
X113798291Y-21517241D01*
X116048886Y-19232261D01*
X118629920Y-17317544D01*
X121502394Y-15810344D01*
X124627308Y-14747919D01*
X125917684Y-14459941D01*
X129141068Y-14099672D01*
X132288368Y-14239079D01*
X135318714Y-14844264D01*
X138191232Y-15881324D01*
X140865052Y-17316362D01*
X143299302Y-19115478D01*
X145453111Y-21244770D01*
X147285607Y-23670340D01*
X148755917Y-26358288D01*
X149823172Y-29274714D01*
X150446498Y-32385718D01*
X150598221Y-34930527D01*
X151129119Y-34930527D01*
X151045316Y-32800409D01*
X150767197Y-30688133D01*
X150607383Y-29960138D01*
X150004931Y-28069390D01*
X149139931Y-26018511D01*
X148108977Y-24005166D01*
X147008661Y-22227018D01*
X146474500Y-21502795D01*
X144494700Y-19389504D01*
X142117413Y-17493828D01*
X139461294Y-15893601D01*
X136645000Y-14666658D01*
X135483292Y-14292953D01*
X133533473Y-13888763D01*
X131272862Y-13673429D01*
X128890944Y-13646951D01*
X126577202Y-13809330D01*
G37*
X126577202Y-13809330D02*
X124521121Y-14160566D01*
X124016708Y-14292953D01*
X121169256Y-15346168D01*
X118433814Y-16804261D01*
X115929039Y-18589396D01*
X113773589Y-20623740D01*
X113025500Y-21502795D01*
X111926434Y-23093956D01*
X110849492Y-25016979D01*
X109891267Y-27074199D01*
X109148353Y-29067952D01*
X108892617Y-29960138D01*
X108565959Y-31770857D01*
X108389513Y-33880234D01*
X108368972Y-36072090D01*
X108510026Y-38130247D01*
X108652164Y-39092474D01*
X109431282Y-41962655D01*
X110679662Y-44791150D01*
X112336956Y-47462415D01*
X114197496Y-49709749D01*
X116731856Y-52007693D01*
X119500846Y-53826906D01*
X122491238Y-55162479D01*
X125689804Y-56009507D01*
X129083317Y-56363081D01*
X131928691Y-56287431D01*
X135049022Y-55773048D01*
X138032022Y-54774600D01*
X140829411Y-53335288D01*
X143392910Y-51498317D01*
X145674240Y-49306890D01*
X147625121Y-46804211D01*
X149197274Y-44033482D01*
X150342419Y-41037908D01*
X150743728Y-39450564D01*
X151036722Y-37400255D01*
X151136205Y-35110660D01*
X151129119Y-34930527D01*
X150598221Y-34930527D01*
X150385686Y-38180232D01*
X149739743Y-41167319D01*
X148636770Y-43947668D01*
X147053142Y-46577157D01*
X144965237Y-49111668D01*
X144321646Y-49777257D01*
X143141637Y-50923282D01*
X142147727Y-51779594D01*
X141180660Y-52464740D01*
X140081182Y-53097265D01*
X139375263Y-53459220D01*
X138045897Y-54072436D01*
X136621847Y-54648455D01*
X135330651Y-55098056D01*
X134830000Y-55241452D01*
X132726312Y-55618712D01*
X130353724Y-55777691D01*
X127931522Y-55718327D01*
X125678992Y-55440555D01*
X124779611Y-55244407D01*
X121660017Y-54188228D01*
X118812277Y-52710652D01*
X116264602Y-50857640D01*
X114045207Y-48675154D01*
X112182305Y-46209154D01*
X110704108Y-43505602D01*
X109638830Y-40610458D01*
X109014685Y-37569684D01*
X108859885Y-34429240D01*
X109202643Y-31235089D01*
X109419119Y-30221201D01*
X110444408Y-27048967D01*
X111917132Y-24135228D01*
X113798291Y-21517241D01*
X116048886Y-19232261D01*
X118629920Y-17317544D01*
X121502394Y-15810344D01*
X124627308Y-14747919D01*
X125917684Y-14459941D01*
X129141068Y-14099672D01*
X132288368Y-14239079D01*
X135318714Y-14844264D01*
X138191232Y-15881324D01*
X140865052Y-17316362D01*
X143299302Y-19115478D01*
X145453111Y-21244770D01*
X147285607Y-23670340D01*
X148755917Y-26358288D01*
X149823172Y-29274714D01*
X150446498Y-32385718D01*
X150598221Y-34930527D01*
X151129119Y-34930527D01*
X151045316Y-32800409D01*
X150767197Y-30688133D01*
X150607383Y-29960138D01*
X150004931Y-28069390D01*
X149139931Y-26018511D01*
X148108977Y-24005166D01*
X147008661Y-22227018D01*
X146474500Y-21502795D01*
X144494700Y-19389504D01*
X142117413Y-17493828D01*
X139461294Y-15893601D01*
X136645000Y-14666658D01*
X135483292Y-14292953D01*
X133533473Y-13888763D01*
X131272862Y-13673429D01*
X128890944Y-13646951D01*
X126577202Y-13809330D01*
G36*
X126817733Y-15933610D02*
G01*
X124357758Y-16420474D01*
X122182616Y-17236264D01*
X121590411Y-17551260D01*
X120590379Y-18116803D01*
X119427925Y-18758676D01*
X118687792Y-19159176D01*
X116692858Y-20508525D01*
X114872827Y-22294386D01*
X113292210Y-24430054D01*
X112015518Y-26828821D01*
X111131037Y-29315790D01*
X110864559Y-30720729D01*
X110703344Y-32479161D01*
X110647287Y-34420327D01*
X110696278Y-36373470D01*
X110850212Y-38167829D01*
X111108980Y-39632645D01*
X111137589Y-39743158D01*
X112042789Y-42281297D01*
X113346203Y-44751821D01*
X114961002Y-47023483D01*
X116800355Y-48965034D01*
X117766312Y-49762896D01*
X119615948Y-51039299D01*
X121551299Y-52174563D01*
X123399323Y-53072241D01*
X124392057Y-53455944D01*
X125538683Y-53731510D01*
X127043780Y-53934430D01*
X128734877Y-54055663D01*
X130439505Y-54086170D01*
X131985193Y-54016910D01*
X132894907Y-53901619D01*
X134844349Y-53437069D01*
X136833259Y-52763506D01*
X138606813Y-51970393D01*
X138991259Y-51761319D01*
X140140193Y-50991498D01*
X139224344Y-50991498D01*
X139215898Y-51014185D01*
X138874079Y-51253495D01*
X138143126Y-51597622D01*
X137146852Y-52000302D01*
X136009074Y-52415270D01*
X134853605Y-52796259D01*
X133804261Y-53097005D01*
X133359474Y-53202531D01*
X131168539Y-53524092D01*
X128897254Y-53599667D01*
X126767379Y-53427833D01*
X125833643Y-53250790D01*
X123707725Y-52587359D01*
X121836952Y-51686414D01*
X120254010Y-50595434D01*
X118991586Y-49361899D01*
X118082366Y-48033289D01*
X117559034Y-46657084D01*
X117454278Y-45280764D01*
X117608447Y-44689474D01*
X116916316Y-44689474D01*
X116782632Y-44823158D01*
X116648947Y-44689474D01*
X116782632Y-44555790D01*
X116916316Y-44689474D01*
X117608447Y-44689474D01*
X117800783Y-43951807D01*
X118222515Y-43319269D01*
X117366996Y-43319269D01*
X117338036Y-43421199D01*
X117006143Y-43808435D01*
X116479169Y-43822476D01*
X115900961Y-43503735D01*
X115415364Y-42892625D01*
X115408280Y-42879044D01*
X114990252Y-42070666D01*
X115997050Y-42234047D01*
X116901955Y-42461761D01*
X117337842Y-42805122D01*
X117366996Y-43319269D01*
X118222515Y-43319269D01*
X118603366Y-42748049D01*
X119484527Y-42099121D01*
X120540482Y-41790770D01*
X121655767Y-41793360D01*
X122714918Y-42077254D01*
X123602472Y-42612815D01*
X124202966Y-43370406D01*
X124402632Y-44236583D01*
X124182212Y-45047628D01*
X123622605Y-45622804D01*
X122876286Y-45894526D01*
X122095730Y-45795210D01*
X121708498Y-45535594D01*
X120896127Y-45535594D01*
X120792894Y-45543927D01*
X120436048Y-45367465D01*
X120030843Y-45080475D01*
X119974519Y-44884253D01*
X120254919Y-44927124D01*
X120598998Y-45204516D01*
X120896127Y-45535594D01*
X121708498Y-45535594D01*
X121614361Y-45472481D01*
X121262390Y-45076920D01*
X121287713Y-44795922D01*
X121612310Y-44443254D01*
X121775855Y-44154737D01*
X120926842Y-44154737D01*
X120793158Y-44288421D01*
X120659474Y-44154737D01*
X120793158Y-44021053D01*
X120926842Y-44154737D01*
X121775855Y-44154737D01*
X121888250Y-43956458D01*
X121677812Y-43612857D01*
X121044747Y-43486316D01*
X120215334Y-43709669D01*
X119646128Y-44314083D01*
X119360697Y-45201093D01*
X119382611Y-46272233D01*
X119735439Y-47429039D01*
X119985340Y-47912267D01*
X120992417Y-49134332D01*
X122417014Y-50162039D01*
X124170151Y-50972493D01*
X126162845Y-51542796D01*
X128306116Y-51850053D01*
X130510982Y-51871367D01*
X132688462Y-51583843D01*
X133493158Y-51388027D01*
X134325047Y-51206466D01*
X135347569Y-51053804D01*
X135545537Y-51032832D01*
X130980966Y-51032832D01*
X130961590Y-51085003D01*
X130438454Y-51204792D01*
X129143567Y-51330223D01*
X127949193Y-51169091D01*
X127669275Y-51043142D01*
X126407895Y-51043142D01*
X125624480Y-50857023D01*
X125041381Y-50586153D01*
X124246688Y-50049284D01*
X123755601Y-49646088D01*
X122708687Y-49646088D01*
X122456243Y-49554185D01*
X121914053Y-49199062D01*
X121465574Y-48859577D01*
X121046786Y-48462510D01*
X120930248Y-48208468D01*
X120937100Y-48199567D01*
X121194527Y-48283351D01*
X121710742Y-48644053D01*
X122136263Y-48997458D01*
X122619367Y-49464077D01*
X122708687Y-49646088D01*
X123755601Y-49646088D01*
X123406219Y-49359236D01*
X123355644Y-49313314D01*
X122460436Y-48530577D01*
X121557902Y-47798462D01*
X120863796Y-47289700D01*
X120245660Y-46787157D01*
X119893325Y-46318279D01*
X119863291Y-45987545D01*
X120108282Y-45892632D01*
X120455411Y-46053840D01*
X121106329Y-46484965D01*
X121959393Y-47107255D01*
X122912961Y-47841961D01*
X123865388Y-48610332D01*
X124715033Y-49333618D01*
X125360252Y-49933068D01*
X125472105Y-50048390D01*
X126407895Y-51043142D01*
X127669275Y-51043142D01*
X127020251Y-50751115D01*
X126785376Y-50546489D01*
X126409019Y-50115285D01*
X126286054Y-49909559D01*
X126294447Y-49906608D01*
X126588142Y-49982373D01*
X127247127Y-50177385D01*
X128102768Y-50441344D01*
X129098700Y-50724876D01*
X129989630Y-50929588D01*
X130509084Y-51004266D01*
X130980966Y-51032832D01*
X135545537Y-51032832D01*
X136443714Y-50937683D01*
X137496474Y-50865749D01*
X138388838Y-50845644D01*
X139003798Y-50885013D01*
X139224344Y-50991498D01*
X140140193Y-50991498D01*
X140941527Y-50454580D01*
X141017655Y-50389228D01*
X134481386Y-50389228D01*
X134377117Y-50534287D01*
X133956069Y-50662749D01*
X133124407Y-50695304D01*
X131997006Y-50635043D01*
X130688746Y-50485062D01*
X130284737Y-50424082D01*
X129066299Y-50146117D01*
X127726670Y-49716323D01*
X126849808Y-49358517D01*
X125792751Y-48813124D01*
X124778029Y-48196442D01*
X123913484Y-47585027D01*
X123306957Y-47055434D01*
X123066289Y-46684220D01*
X123065789Y-46672270D01*
X123247703Y-46429770D01*
X123722932Y-46508613D01*
X124385710Y-46874226D01*
X124888488Y-47268067D01*
X126407939Y-48310063D01*
X128277257Y-49131744D01*
X130338097Y-49679126D01*
X132432116Y-49898226D01*
X132608431Y-49899985D01*
X133721251Y-49958255D01*
X134351666Y-50123522D01*
X134481386Y-50389228D01*
X141017655Y-50389228D01*
X142851709Y-48814794D01*
X144622415Y-46953310D01*
X146154255Y-44981475D01*
X147347839Y-43010636D01*
X147893091Y-41788509D01*
X148456300Y-39784479D01*
X148802715Y-37471847D01*
X148925978Y-35031726D01*
X148893489Y-34301976D01*
X148370002Y-34301976D01*
X148312803Y-36634075D01*
X148035906Y-38920610D01*
X147556616Y-40962739D01*
X147373771Y-41503908D01*
X146453365Y-43504798D01*
X145232368Y-45421266D01*
X143805328Y-47137389D01*
X142266793Y-48537240D01*
X140939212Y-49393289D01*
X139406976Y-50063287D01*
X138070066Y-50359359D01*
X136767337Y-50306169D01*
X136033158Y-50144125D01*
X134853589Y-49628883D01*
X134313340Y-49144193D01*
X133346105Y-49144193D01*
X133324029Y-49295718D01*
X132891858Y-49362340D01*
X132166478Y-49349890D01*
X131264777Y-49264200D01*
X130303642Y-49111102D01*
X129625664Y-48958570D01*
X128364423Y-48550999D01*
X127149022Y-48019528D01*
X126065932Y-47420096D01*
X125201623Y-46808646D01*
X124642566Y-46241118D01*
X124475232Y-45773451D01*
X124518284Y-45654440D01*
X124813708Y-45644193D01*
X125411214Y-45958656D01*
X125949980Y-46340039D01*
X127588284Y-47405516D01*
X129341144Y-48138426D01*
X131299093Y-48604981D01*
X132243349Y-48795817D01*
X132980907Y-48990738D01*
X133346105Y-49144193D01*
X134313340Y-49144193D01*
X134008096Y-48870341D01*
X133568510Y-48023188D01*
X132958421Y-48023188D01*
X132889632Y-48210940D01*
X132621197Y-48275021D01*
X132060015Y-48210352D01*
X131112984Y-48011854D01*
X130610530Y-47895083D01*
X129061001Y-47424019D01*
X127641428Y-46796602D01*
X126437891Y-46069853D01*
X125536471Y-45300795D01*
X125023247Y-44546450D01*
X124937368Y-44137014D01*
X124968153Y-43825250D01*
X125116753Y-43780142D01*
X125467533Y-44039454D01*
X126104861Y-44640955D01*
X126140521Y-44675594D01*
X127800718Y-45985197D01*
X129708863Y-46891616D01*
X130953158Y-47252990D01*
X131962027Y-47494626D01*
X132558813Y-47654278D01*
X132851703Y-47773498D01*
X132948884Y-47893839D01*
X132958421Y-48023188D01*
X133568510Y-48023188D01*
X133536611Y-47961715D01*
X133479066Y-46996221D01*
X133579469Y-46760835D01*
X132958421Y-46760835D01*
X132729644Y-46923073D01*
X132127733Y-46919451D01*
X131279322Y-46774311D01*
X130311042Y-46511997D01*
X129349527Y-46156853D01*
X129010969Y-46001988D01*
X128401788Y-45686901D01*
X127851587Y-45345951D01*
X127291574Y-44916639D01*
X126652958Y-44336464D01*
X125866949Y-43542925D01*
X124864754Y-42473522D01*
X124151971Y-41693957D01*
X118638466Y-41693957D01*
X118565059Y-41958706D01*
X118519567Y-42016945D01*
X118201467Y-42329722D01*
X117870235Y-42356204D01*
X117325477Y-42096221D01*
X117183684Y-42015790D01*
X116415313Y-41732159D01*
X115655723Y-41624211D01*
X114853636Y-41440064D01*
X114510000Y-41080000D01*
X114377548Y-40747299D01*
X114526852Y-40593075D01*
X115065147Y-40551350D01*
X115369540Y-40551135D01*
X116354017Y-40674020D01*
X117406345Y-40973298D01*
X117683358Y-41087028D01*
X118371948Y-41433849D01*
X118638466Y-41693957D01*
X124151971Y-41693957D01*
X123925878Y-41446681D01*
X123067847Y-41446681D01*
X122792578Y-41435732D01*
X122641871Y-41408436D01*
X122213107Y-41241971D01*
X120430999Y-41241971D01*
X120091691Y-41349089D01*
X119497743Y-41262227D01*
X118735410Y-40966567D01*
X118393535Y-40781154D01*
X117366020Y-40367365D01*
X116026061Y-40107551D01*
X115704568Y-40076128D01*
X114754633Y-39976937D01*
X114226268Y-39843988D01*
X114006366Y-39635620D01*
X113975263Y-39439184D01*
X114046984Y-39155118D01*
X114343442Y-39005283D01*
X114986578Y-38950635D01*
X115512632Y-38946925D01*
X117357075Y-39202778D01*
X119104572Y-39910624D01*
X120000675Y-40505064D01*
X120429412Y-40955690D01*
X120430999Y-41241971D01*
X122213107Y-41241971D01*
X122033247Y-41172142D01*
X121214983Y-40704846D01*
X120544791Y-40240188D01*
X118794675Y-39159714D01*
X116993302Y-38564272D01*
X115280256Y-38406316D01*
X114271226Y-38337969D01*
X113638301Y-38150195D01*
X113441220Y-37868897D01*
X113561789Y-37661194D01*
X113898390Y-37560088D01*
X114616743Y-37460428D01*
X115564215Y-37383155D01*
X115605728Y-37380769D01*
X116696859Y-37351062D01*
X117516440Y-37445158D01*
X118322850Y-37715301D01*
X119134007Y-38094209D01*
X120256673Y-38760281D01*
X121409401Y-39617831D01*
X122088133Y-40231698D01*
X122749543Y-40916744D01*
X123064808Y-41297711D01*
X123067847Y-41446681D01*
X123925878Y-41446681D01*
X123577583Y-41065755D01*
X123576123Y-41064150D01*
X122168200Y-39606911D01*
X120904013Y-38480996D01*
X119852019Y-37747259D01*
X119832965Y-37736644D01*
X119083011Y-37349228D01*
X118428654Y-37111273D01*
X117695132Y-36987065D01*
X116707686Y-36940893D01*
X115914005Y-36935790D01*
X114741069Y-36924161D01*
X114005362Y-36877331D01*
X113609655Y-36777380D01*
X113456718Y-36606390D01*
X113440847Y-36480010D01*
X113693483Y-36095500D01*
X114425506Y-35846958D01*
X115597137Y-35742244D01*
X116996146Y-35777569D01*
X118608853Y-36038668D01*
X120125155Y-36636177D01*
X121609334Y-37612786D01*
X123125671Y-39011182D01*
X124738446Y-40874055D01*
X124814473Y-40969685D01*
X126292434Y-42737411D01*
X127612497Y-44084293D01*
X128853308Y-45069056D01*
X130093515Y-45750429D01*
X131411764Y-46187140D01*
X131955789Y-46302311D01*
X132598852Y-46484871D01*
X132941214Y-46707148D01*
X132958421Y-46760835D01*
X133579469Y-46760835D01*
X133875392Y-46067075D01*
X134149426Y-45746795D01*
X134988973Y-45225234D01*
X135957191Y-45088471D01*
X136862792Y-45344037D01*
X137236316Y-45625263D01*
X137676209Y-46317148D01*
X137652794Y-46939624D01*
X137209524Y-47371021D01*
X136567895Y-47496842D01*
X135954331Y-47352051D01*
X135685579Y-47176000D01*
X135416135Y-47015877D01*
X135353278Y-47199788D01*
X135478006Y-47586944D01*
X135771319Y-48036558D01*
X135807228Y-48077369D01*
X136551508Y-48525157D01*
X137551644Y-48576976D01*
X138736131Y-48259679D01*
X140033464Y-47600118D01*
X141372139Y-46625146D01*
X142489668Y-45567890D01*
X142747674Y-45232079D01*
X141863629Y-45232079D01*
X141642373Y-45598095D01*
X141168909Y-46100615D01*
X140534123Y-46651676D01*
X139828899Y-47163319D01*
X139259680Y-47492806D01*
X138334058Y-47901267D01*
X137776843Y-48036972D01*
X137619462Y-47897941D01*
X137805157Y-47584403D01*
X138260708Y-47164666D01*
X138990742Y-46625040D01*
X139851121Y-46056835D01*
X140697710Y-45551362D01*
X141386372Y-45199932D01*
X141741795Y-45090527D01*
X141863629Y-45232079D01*
X142747674Y-45232079D01*
X143711442Y-43977679D01*
X143078758Y-43977679D01*
X142762350Y-44209096D01*
X141982876Y-44476954D01*
X141818703Y-44520437D01*
X140824583Y-44862358D01*
X139881242Y-45322778D01*
X139612913Y-45493662D01*
X138757569Y-46009755D01*
X138235058Y-46112422D01*
X138040105Y-45802512D01*
X138038421Y-45747594D01*
X138271462Y-45412445D01*
X138877776Y-44990562D01*
X139718147Y-44547855D01*
X140653362Y-44150235D01*
X141544205Y-43863612D01*
X142249474Y-43753895D01*
X142913875Y-43815135D01*
X143078758Y-43977679D01*
X143711442Y-43977679D01*
X143987972Y-43617759D01*
X144333546Y-42945102D01*
X143619093Y-42945102D01*
X143234718Y-43111432D01*
X142337850Y-43261272D01*
X142067814Y-43288433D01*
X140137531Y-43723758D01*
X139059919Y-44211316D01*
X138005183Y-44709660D01*
X137309159Y-44857522D01*
X136989126Y-44652414D01*
X136968947Y-44512393D01*
X137210938Y-44191626D01*
X137853320Y-43819141D01*
X138770713Y-43440707D01*
X139837732Y-43102097D01*
X140928996Y-42849080D01*
X141848421Y-42731139D01*
X142910828Y-42716557D01*
X143506091Y-42800677D01*
X143619093Y-42945102D01*
X144333546Y-42945102D01*
X144810976Y-42015790D01*
X143894829Y-42015790D01*
X143833286Y-42165519D01*
X143247106Y-42214993D01*
X142552740Y-42191630D01*
X140448662Y-42339580D01*
X138328613Y-43020812D01*
X136898089Y-43776926D01*
X136095417Y-44213165D01*
X135404349Y-44495805D01*
X135108261Y-44555790D01*
X134571636Y-44725164D01*
X133931269Y-45140430D01*
X133842278Y-45215762D01*
X133249761Y-45609006D01*
X132618697Y-45849041D01*
X132111768Y-45896152D01*
X131891653Y-45710623D01*
X131891108Y-45692106D01*
X132052198Y-45510991D01*
X132554626Y-45176498D01*
X133430699Y-44670209D01*
X134712728Y-43973701D01*
X136433020Y-43068555D01*
X137102632Y-42720812D01*
X138075623Y-42240059D01*
X138845393Y-41950941D01*
X139620527Y-41805211D01*
X140609610Y-41754623D01*
X141300316Y-41749884D01*
X142381923Y-41778336D01*
X143264256Y-41855507D01*
X143806651Y-41966980D01*
X143894829Y-42015790D01*
X144810976Y-42015790D01*
X145085695Y-41481053D01*
X144455263Y-41481053D01*
X144321579Y-41614737D01*
X144187895Y-41481053D01*
X144321579Y-41347369D01*
X144455263Y-41481053D01*
X145085695Y-41481053D01*
X145173917Y-41309330D01*
X145204901Y-41213685D01*
X143998418Y-41213685D01*
X138893616Y-41213685D01*
X134841315Y-43285790D01*
X133496938Y-43967689D01*
X132319016Y-44554673D01*
X131389302Y-45006847D01*
X130789547Y-45284313D01*
X130603718Y-45353801D01*
X130240891Y-45222941D01*
X130025112Y-45100970D01*
X129857663Y-45005617D01*
X129757721Y-44925392D01*
X129784043Y-44824471D01*
X129995388Y-44667030D01*
X130450511Y-44417247D01*
X131208172Y-44039297D01*
X132327128Y-43497358D01*
X133866137Y-42755606D01*
X133894211Y-42742056D01*
X135847258Y-41836416D01*
X137446908Y-41193177D01*
X138792881Y-40790792D01*
X139984899Y-40607713D01*
X141122682Y-40622392D01*
X142305951Y-40813282D01*
X142555788Y-40870459D01*
X143998418Y-41213685D01*
X145204901Y-41213685D01*
X145479178Y-40367018D01*
X143564035Y-40367018D01*
X143527334Y-40525968D01*
X143385789Y-40545263D01*
X143165715Y-40447438D01*
X143207544Y-40367018D01*
X143524848Y-40335019D01*
X143564035Y-40367018D01*
X145479178Y-40367018D01*
X145754906Y-39515876D01*
X145255006Y-39515876D01*
X145150036Y-39904583D01*
X144830839Y-40196879D01*
X144519852Y-40138143D01*
X144437052Y-40107417D01*
X142590103Y-40107417D01*
X142466537Y-40165799D01*
X141893410Y-40141840D01*
X141376419Y-40097162D01*
X139472551Y-40129455D01*
X137430139Y-40581334D01*
X135192888Y-41467780D01*
X134035495Y-42050843D01*
X132166394Y-43017775D01*
X130704252Y-43698039D01*
X129612732Y-44104021D01*
X128855499Y-44248103D01*
X128396215Y-44142672D01*
X128275199Y-44014136D01*
X128382912Y-43759249D01*
X128865731Y-43482303D01*
X128994682Y-43434378D01*
X129630365Y-43175549D01*
X130575853Y-42742639D01*
X130780414Y-42643154D01*
X129348947Y-42643154D01*
X128680526Y-42914103D01*
X128088470Y-43116439D01*
X127627101Y-43118041D01*
X127178577Y-42858014D01*
X126625054Y-42275466D01*
X126036614Y-41547895D01*
X125432913Y-40758442D01*
X125000361Y-40143441D01*
X124812015Y-39808465D01*
X124812823Y-39779394D01*
X125119175Y-39811057D01*
X125730763Y-40079623D01*
X126517229Y-40511837D01*
X127348212Y-41034443D01*
X128093352Y-41574186D01*
X128279474Y-41727477D01*
X129348947Y-42643154D01*
X130780414Y-42643154D01*
X131668172Y-42211409D01*
X131867131Y-42110783D01*
X130442333Y-42110783D01*
X130303029Y-42307537D01*
X130134922Y-42362496D01*
X129845058Y-42229408D01*
X129340480Y-41862020D01*
X128528235Y-41214078D01*
X128347662Y-41068502D01*
X127056069Y-40155168D01*
X125807432Y-39502378D01*
X125293975Y-39318146D01*
X124450623Y-39020012D01*
X123802790Y-38696682D01*
X123590184Y-38527539D01*
X123528402Y-38249060D01*
X123863912Y-38124096D01*
X124484987Y-38142331D01*
X125279898Y-38293453D01*
X126136914Y-38567148D01*
X126689609Y-38813645D01*
X127600665Y-39347590D01*
X128523515Y-40002283D01*
X129362193Y-40693409D01*
X130020733Y-41336654D01*
X130403170Y-41847701D01*
X130442333Y-42110783D01*
X131867131Y-42110783D01*
X132152935Y-41966235D01*
X133312174Y-41389301D01*
X131996716Y-41389301D01*
X131791809Y-41571765D01*
X131470389Y-41534153D01*
X130954560Y-41236853D01*
X130166427Y-40640249D01*
X129571233Y-40155815D01*
X128036666Y-38987086D01*
X126694699Y-38200388D01*
X125427652Y-37742241D01*
X124117844Y-37559166D01*
X123839087Y-37550834D01*
X122844922Y-37476264D01*
X122172249Y-37311040D01*
X121872119Y-37094491D01*
X121995586Y-36865948D01*
X122593701Y-36664739D01*
X122669572Y-36649874D01*
X124237084Y-36564426D01*
X125878550Y-36821089D01*
X127335357Y-37376496D01*
X127476659Y-37455976D01*
X128239910Y-37956707D01*
X129119265Y-38614596D01*
X130020978Y-39348064D01*
X130851304Y-40075534D01*
X131516497Y-40715430D01*
X131922810Y-41186174D01*
X131996716Y-41389301D01*
X133312174Y-41389301D01*
X133891196Y-41101132D01*
X134963216Y-40622462D01*
X133357841Y-40622462D01*
X133229922Y-40797940D01*
X132748687Y-40869205D01*
X132294133Y-40582309D01*
X131828682Y-40175123D01*
X131108971Y-39547068D01*
X130284147Y-38828288D01*
X130217444Y-38770203D01*
X128775975Y-37609889D01*
X127504700Y-36827447D01*
X126266237Y-36363326D01*
X124923206Y-36157973D01*
X124135263Y-36133685D01*
X123080936Y-36158919D01*
X122182730Y-36225368D01*
X121622024Y-36319148D01*
X121595263Y-36328107D01*
X120978030Y-36374276D01*
X120659474Y-36261265D01*
X120443826Y-35988375D01*
X120685981Y-35730052D01*
X121410447Y-35473983D01*
X122641731Y-35207855D01*
X122820795Y-35175358D01*
X124400046Y-35033356D01*
X125913475Y-35212428D01*
X127432970Y-35743024D01*
X129030419Y-36655588D01*
X130777711Y-37980569D01*
X132022632Y-39072605D01*
X132816217Y-39826424D01*
X133244196Y-40318619D01*
X133357841Y-40622462D01*
X134963216Y-40622462D01*
X135288296Y-40477310D01*
X136460173Y-40058556D01*
X137522768Y-39808661D01*
X138592019Y-39691412D01*
X138864455Y-39684679D01*
X135087509Y-39684679D01*
X135083095Y-39833187D01*
X134962749Y-39940500D01*
X134916581Y-39967388D01*
X134624035Y-40091315D01*
X134316810Y-40082678D01*
X133915099Y-39894343D01*
X133339092Y-39479174D01*
X132508982Y-38790039D01*
X131621579Y-38021379D01*
X130539879Y-37135877D01*
X129380609Y-36279891D01*
X128339354Y-35595064D01*
X128012105Y-35407445D01*
X127117709Y-34958178D01*
X126371862Y-34699349D01*
X125557242Y-34581532D01*
X124456528Y-34555299D01*
X124268947Y-34556111D01*
X122563276Y-34658716D01*
X121177606Y-34962894D01*
X120739993Y-35120004D01*
X119960109Y-35400440D01*
X119402309Y-35547602D01*
X119224589Y-35545467D01*
X119232195Y-35242502D01*
X119630164Y-34837416D01*
X120306424Y-34411122D01*
X121148903Y-34044532D01*
X121426867Y-33955498D01*
X123670490Y-33537955D01*
X125800364Y-33636027D01*
X127846789Y-34255634D01*
X129840066Y-35402696D01*
X130200887Y-35669722D01*
X131821514Y-36912455D01*
X133060652Y-37871977D01*
X133962562Y-38588625D01*
X134571501Y-39102734D01*
X134931730Y-39454640D01*
X135087509Y-39684679D01*
X138864455Y-39684679D01*
X139508947Y-39668751D01*
X140617061Y-39705403D01*
X141592118Y-39800084D01*
X142249210Y-39933676D01*
X142316316Y-39959021D01*
X142590103Y-40107417D01*
X144437052Y-40107417D01*
X144010836Y-39949256D01*
X143204850Y-39674301D01*
X142618485Y-39482882D01*
X141827448Y-39179364D01*
X141633836Y-39006844D01*
X137669251Y-39006844D01*
X137529035Y-39136657D01*
X137236316Y-39229605D01*
X136551199Y-39401740D01*
X136090562Y-39375187D01*
X135585965Y-39103235D01*
X135272326Y-38887859D01*
X134708834Y-38469830D01*
X133864891Y-37813546D01*
X132871735Y-37022004D01*
X132191540Y-36470026D01*
X130176008Y-34950854D01*
X128341252Y-33870418D01*
X126599200Y-33205218D01*
X124861783Y-32931749D01*
X123040929Y-33026510D01*
X121048568Y-33465999D01*
X120993684Y-33481813D01*
X120533980Y-33525467D01*
X120394201Y-33214765D01*
X120392105Y-33126665D01*
X120489323Y-32804176D01*
X120854916Y-32563639D01*
X121599798Y-32344868D01*
X121994171Y-32257297D01*
X124070809Y-32014115D01*
X126119300Y-32138214D01*
X127976816Y-32613579D01*
X128658005Y-32912681D01*
X129445508Y-33368763D01*
X130510009Y-34062449D01*
X131710118Y-34898338D01*
X132869617Y-35754446D01*
X134027407Y-36615319D01*
X135146139Y-37408888D01*
X136099471Y-38047846D01*
X136761057Y-38444886D01*
X136768981Y-38449002D01*
X137432747Y-38805765D01*
X137669251Y-39006844D01*
X141633836Y-39006844D01*
X141565645Y-38946082D01*
X141832092Y-38783892D01*
X142625807Y-38693646D01*
X143549732Y-38673685D01*
X144574978Y-38756725D01*
X145129704Y-39026919D01*
X145255006Y-39515876D01*
X145754906Y-39515876D01*
X146004164Y-38746443D01*
X146128144Y-37980582D01*
X145524737Y-37980582D01*
X145307193Y-38152631D01*
X144630415Y-38215081D01*
X143716456Y-38187935D01*
X142175744Y-38204835D01*
X141050095Y-38460579D01*
X140975929Y-38491595D01*
X140096842Y-38823309D01*
X139585389Y-38902643D01*
X139485472Y-38724925D01*
X139526154Y-38645844D01*
X139971819Y-38269748D01*
X140754918Y-37881594D01*
X141685094Y-37555246D01*
X142571992Y-37364567D01*
X142884474Y-37342714D01*
X143976119Y-37397305D01*
X144855398Y-37555873D01*
X145402874Y-37789562D01*
X145524737Y-37980582D01*
X146128144Y-37980582D01*
X146317917Y-36808312D01*
X145792105Y-36808312D01*
X145546661Y-36925656D01*
X144882066Y-36945147D01*
X144196584Y-36894510D01*
X142463627Y-36889206D01*
X140904693Y-37223769D01*
X139659710Y-37867865D01*
X139641030Y-37882115D01*
X139043705Y-38261955D01*
X138600077Y-38412146D01*
X138415060Y-38321975D01*
X138585947Y-37989853D01*
X139301885Y-37377105D01*
X140332408Y-36785130D01*
X141464343Y-36320813D01*
X142340730Y-36107205D01*
X143187046Y-36073432D01*
X144109258Y-36158794D01*
X144953419Y-36332019D01*
X145565583Y-36561835D01*
X145792105Y-36808312D01*
X146317917Y-36808312D01*
X146427129Y-36133685D01*
X146504833Y-35573917D01*
X145792105Y-35573917D01*
X145596145Y-35835679D01*
X145234767Y-35804191D01*
X144876542Y-35645755D01*
X145013215Y-35445849D01*
X145034240Y-35432264D01*
X145314914Y-35315885D01*
X142364417Y-35315885D01*
X142125542Y-35494441D01*
X141446518Y-35714155D01*
X140560578Y-36074497D01*
X139553997Y-36644931D01*
X138947794Y-37071270D01*
X138014141Y-37763299D01*
X137452191Y-38087008D01*
X137251145Y-38047755D01*
X137280877Y-37898266D01*
X137520557Y-37614396D01*
X138057632Y-37111931D01*
X138701352Y-36561912D01*
X139923695Y-35682176D01*
X140992329Y-35163417D01*
X141842422Y-35032020D01*
X142199825Y-35138018D01*
X142364417Y-35315885D01*
X145314914Y-35315885D01*
X145557366Y-35215355D01*
X145780463Y-35429765D01*
X145792105Y-35573917D01*
X146504833Y-35573917D01*
X146576519Y-35057514D01*
X146812794Y-34029532D01*
X146981210Y-33531913D01*
X147274736Y-32652377D01*
X147533334Y-31582570D01*
X147615025Y-31125597D01*
X147644989Y-30929959D01*
X147028816Y-30929959D01*
X146748003Y-32598658D01*
X146430438Y-33376928D01*
X145682739Y-34313850D01*
X144671121Y-34833370D01*
X143498967Y-34906712D01*
X142306912Y-34524611D01*
X142000404Y-34262106D01*
X140979474Y-34262106D01*
X140798696Y-34617282D01*
X140642816Y-34663158D01*
X140291736Y-34818641D01*
X139641459Y-35233985D01*
X138808359Y-35832532D01*
X138437027Y-36116152D01*
X137400930Y-36895724D01*
X136682496Y-37381591D01*
X136305301Y-37562830D01*
X136292927Y-37428517D01*
X136668950Y-36967730D01*
X136721815Y-36910764D01*
X137258442Y-36401610D01*
X138006146Y-35771711D01*
X138845057Y-35112075D01*
X139655305Y-34513715D01*
X140317020Y-34067640D01*
X140710332Y-33864860D01*
X140738597Y-33861053D01*
X140952420Y-34078001D01*
X140979474Y-34262106D01*
X142000404Y-34262106D01*
X141646185Y-33958741D01*
X141330526Y-33222454D01*
X141335111Y-32904211D01*
X140703875Y-32904211D01*
X140607026Y-33193201D01*
X140135337Y-33586572D01*
X139709474Y-33832881D01*
X138996168Y-34282907D01*
X138099520Y-34960098D01*
X137236316Y-35697757D01*
X136331219Y-36498830D01*
X135748021Y-36940196D01*
X135441512Y-37050963D01*
X135364737Y-36902655D01*
X135563384Y-36608040D01*
X136090683Y-36082132D01*
X136843669Y-35409313D01*
X137719379Y-34673968D01*
X138614849Y-33960479D01*
X139427115Y-33353229D01*
X140053212Y-32936600D01*
X140377895Y-32794174D01*
X140703875Y-32904211D01*
X141335111Y-32904211D01*
X141341576Y-32455548D01*
X141660975Y-31797826D01*
X142194765Y-31439794D01*
X141154633Y-31439794D01*
X140892272Y-31757445D01*
X140359539Y-32151177D01*
X139833127Y-32442239D01*
X139129979Y-32869338D01*
X138196772Y-33549528D01*
X137189537Y-34365934D01*
X136738302Y-34760439D01*
X135878984Y-35492690D01*
X135149854Y-36040579D01*
X134648558Y-36334675D01*
X134492150Y-36357493D01*
X134492814Y-36108825D01*
X134878143Y-35709590D01*
X134990025Y-35625065D01*
X135605223Y-35143679D01*
X136011844Y-34802183D01*
X135231053Y-34802183D01*
X134428947Y-35245241D01*
X133856092Y-35522442D01*
X133495193Y-35515017D01*
X133127654Y-35242571D01*
X132791069Y-34907406D01*
X132878005Y-34769886D01*
X133190820Y-34711886D01*
X133895752Y-34678390D01*
X134492113Y-34714557D01*
X135231053Y-34802183D01*
X136011844Y-34802183D01*
X136417159Y-34461785D01*
X137102493Y-33858787D01*
X137237092Y-33743579D01*
X136184472Y-33743579D01*
X135897822Y-33952193D01*
X135102568Y-34122015D01*
X134228421Y-34194470D01*
X133085789Y-34243742D01*
X132369476Y-34256010D01*
X131971716Y-34220677D01*
X131784744Y-34127143D01*
X131700795Y-33964809D01*
X131694198Y-33945227D01*
X131842852Y-33660238D01*
X132459803Y-33454484D01*
X133482339Y-33344187D01*
X134072869Y-33329967D01*
X135263989Y-33387967D01*
X135970526Y-33540670D01*
X136184472Y-33743579D01*
X137237092Y-33743579D01*
X137964189Y-33121235D01*
X137064136Y-33121235D01*
X136731476Y-33236050D01*
X136474008Y-33171647D01*
X135980270Y-33049856D01*
X135152798Y-32930194D01*
X134388552Y-32856587D01*
X133256427Y-32842626D01*
X132211694Y-32949682D01*
X131757095Y-33058343D01*
X130919293Y-33235966D01*
X130506352Y-33120142D01*
X130546872Y-32886685D01*
X130994779Y-32620264D01*
X131727575Y-32359784D01*
X132622761Y-32144149D01*
X133557840Y-32012264D01*
X134066452Y-31989474D01*
X134928468Y-32069158D01*
X135793110Y-32274301D01*
X136525657Y-32554039D01*
X136991389Y-32857511D01*
X137064136Y-33121235D01*
X137964189Y-33121235D01*
X138514474Y-32650230D01*
X139198260Y-32154455D01*
X137837213Y-32154455D01*
X137797289Y-32321308D01*
X137337437Y-32255356D01*
X136628706Y-31979573D01*
X135081809Y-31538935D01*
X133366728Y-31481873D01*
X131683803Y-31804496D01*
X130953158Y-32089824D01*
X130010055Y-32478097D01*
X129445660Y-32586221D01*
X129289092Y-32411960D01*
X129377349Y-32210888D01*
X129699622Y-31952420D01*
X130349622Y-31578272D01*
X130919078Y-31296186D01*
X132718992Y-30731942D01*
X134530171Y-30694887D01*
X136304426Y-31184607D01*
X136649846Y-31345349D01*
X137455352Y-31810550D01*
X137837213Y-32154455D01*
X139198260Y-32154455D01*
X139640458Y-31833842D01*
X140522624Y-31379605D01*
X140643581Y-31338647D01*
X141090457Y-31274701D01*
X141154633Y-31439794D01*
X142194765Y-31439794D01*
X142270365Y-31389087D01*
X142727621Y-31321053D01*
X143259822Y-31374294D01*
X143478174Y-31641969D01*
X143519761Y-32256842D01*
X143632696Y-32929258D01*
X143956274Y-33116996D01*
X144468497Y-32816854D01*
X144819828Y-32446012D01*
X145152728Y-31696303D01*
X145177189Y-31454737D01*
X144722632Y-31454737D01*
X144519171Y-31714336D01*
X144455263Y-31722106D01*
X144195664Y-31518645D01*
X144187895Y-31454737D01*
X144391355Y-31195138D01*
X144455263Y-31187369D01*
X144714862Y-31390829D01*
X144722632Y-31454737D01*
X145177189Y-31454737D01*
X145264832Y-30589236D01*
X145260502Y-30529708D01*
X140752852Y-30529708D01*
X140350895Y-30808762D01*
X139910000Y-31053685D01*
X139181586Y-31445609D01*
X138780230Y-31641982D01*
X138555149Y-31687276D01*
X138355558Y-31625965D01*
X138193973Y-31559816D01*
X137803923Y-31306161D01*
X137946947Y-31050581D01*
X138621396Y-30794651D01*
X139121055Y-30674787D01*
X140156015Y-30471405D01*
X140693919Y-30420150D01*
X140752852Y-30529708D01*
X145260502Y-30529708D01*
X145240483Y-30254523D01*
X144165412Y-30254523D01*
X144054211Y-30225866D01*
X142987036Y-30017875D01*
X141657537Y-29931151D01*
X140299684Y-29966505D01*
X139147444Y-30124744D01*
X138840526Y-30207842D01*
X137722122Y-30514411D01*
X136911756Y-30617363D01*
X136483024Y-30511042D01*
X136434211Y-30392732D01*
X136669444Y-30185256D01*
X137279109Y-29913707D01*
X137939093Y-29695352D01*
X139468942Y-29414380D01*
X141101723Y-29384542D01*
X142628825Y-29596770D01*
X143653158Y-29943763D01*
X144109910Y-30181489D01*
X144165412Y-30254523D01*
X145240483Y-30254523D01*
X145181916Y-29449474D01*
X144455263Y-29449474D01*
X144321579Y-29583158D01*
X144187895Y-29449474D01*
X144319875Y-29317494D01*
X144054211Y-29317494D01*
X143252105Y-29116116D01*
X142609192Y-29022860D01*
X141619389Y-28955212D01*
X140470363Y-28924868D01*
X140177368Y-28924493D01*
X138810214Y-28971652D01*
X137789987Y-29119721D01*
X136933531Y-29399213D01*
X136701579Y-29503543D01*
X135689399Y-29919812D01*
X134962842Y-30089531D01*
X134594005Y-29999463D01*
X134562632Y-29896230D01*
X134784995Y-29672067D01*
X135359828Y-29322662D01*
X135946309Y-29027282D01*
X136725175Y-28705336D01*
X137491338Y-28509442D01*
X138418945Y-28411086D01*
X139682142Y-28381752D01*
X139889993Y-28381527D01*
X141269755Y-28410936D01*
X142240710Y-28508704D01*
X142926340Y-28692045D01*
X143252105Y-28850274D01*
X144054211Y-29317494D01*
X144319875Y-29317494D01*
X144321579Y-29315790D01*
X144455263Y-29449474D01*
X145181916Y-29449474D01*
X145167348Y-29249238D01*
X145044414Y-28647369D01*
X144455263Y-28647369D01*
X144321579Y-28781053D01*
X144187895Y-28647369D01*
X144321579Y-28513685D01*
X144455263Y-28647369D01*
X145044414Y-28647369D01*
X144989803Y-28380000D01*
X143920526Y-28380000D01*
X143786842Y-28513685D01*
X143653158Y-28380000D01*
X143786842Y-28246316D01*
X143920526Y-28380000D01*
X144989803Y-28380000D01*
X144936564Y-28119348D01*
X143313118Y-28119348D01*
X143300279Y-28153581D01*
X143003911Y-28143672D01*
X142437783Y-27970548D01*
X142420239Y-27963829D01*
X141053175Y-27665895D01*
X139418298Y-27662472D01*
X137674264Y-27925480D01*
X135979733Y-28426840D01*
X134493362Y-29138473D01*
X134028513Y-29449018D01*
X133404176Y-29827771D01*
X132807732Y-30065601D01*
X132370945Y-30130381D01*
X132225579Y-29989987D01*
X132273732Y-29876850D01*
X132560517Y-29613049D01*
X133161862Y-29162548D01*
X133872229Y-28673666D01*
X135512485Y-27800716D01*
X137289482Y-27221419D01*
X139023901Y-26984053D01*
X139985163Y-27027893D01*
X140808367Y-27181815D01*
X141688487Y-27414009D01*
X142489802Y-27678386D01*
X143076586Y-27928861D01*
X143313118Y-28119348D01*
X144936564Y-28119348D01*
X144871485Y-27800737D01*
X144822706Y-27656066D01*
X144134534Y-27656066D01*
X144054211Y-27703391D01*
X143614823Y-27570266D01*
X143385789Y-27444211D01*
X143171782Y-27232356D01*
X143252105Y-27185031D01*
X143691492Y-27318155D01*
X143920526Y-27444211D01*
X144134534Y-27656066D01*
X144822706Y-27656066D01*
X144619942Y-27054707D01*
X142794943Y-27054707D01*
X142516745Y-27033559D01*
X141878631Y-26897692D01*
X141246482Y-26736814D01*
X139207509Y-26457697D01*
X137118077Y-26680446D01*
X135045186Y-27385250D01*
X133055835Y-28552297D01*
X131888947Y-29503731D01*
X130842257Y-30404177D01*
X129842322Y-31163539D01*
X128992012Y-31710793D01*
X128394196Y-31974919D01*
X128290000Y-31988475D01*
X128362794Y-31823111D01*
X128568187Y-31593855D01*
X127343684Y-31593855D01*
X127319829Y-31682455D01*
X127178898Y-31696332D01*
X126816839Y-31613138D01*
X126129603Y-31410527D01*
X125611448Y-31250892D01*
X123734211Y-31250892D01*
X122397368Y-31594517D01*
X121224613Y-31865276D01*
X120498047Y-31953121D01*
X120162792Y-31861887D01*
X120124737Y-31753289D01*
X120373938Y-31486506D01*
X121055738Y-31301967D01*
X122071427Y-31221434D01*
X122531053Y-31222781D01*
X123734211Y-31250892D01*
X125611448Y-31250892D01*
X125299742Y-31154861D01*
X123977992Y-30813831D01*
X122776403Y-30690154D01*
X121528421Y-30733190D01*
X120491649Y-30771617D01*
X119839728Y-30720556D01*
X119607728Y-30604797D01*
X119830719Y-30449128D01*
X120543772Y-30278339D01*
X120821318Y-30233381D01*
X122445441Y-30132273D01*
X124103786Y-30272243D01*
X125583438Y-30627200D01*
X126226724Y-30895774D01*
X126884521Y-31256122D01*
X127285883Y-31523733D01*
X127343684Y-31593855D01*
X128568187Y-31593855D01*
X128763264Y-31376114D01*
X129205117Y-30936754D01*
X128145789Y-30936754D01*
X128118108Y-31118931D01*
X127963192Y-31147719D01*
X127573228Y-30993366D01*
X126840409Y-30626118D01*
X126633096Y-30519282D01*
X124578947Y-29735977D01*
X122481816Y-29485297D01*
X120715473Y-29678836D01*
X119832781Y-29831238D01*
X119178925Y-29882738D01*
X118908274Y-29828999D01*
X119018103Y-29595845D01*
X119547178Y-29361455D01*
X120380784Y-29153418D01*
X121404208Y-28999325D01*
X122502735Y-28926764D01*
X122668630Y-28924608D01*
X123796975Y-28960098D01*
X124702974Y-29121560D01*
X125645027Y-29470556D01*
X126344946Y-29800438D01*
X127210156Y-30256994D01*
X127848076Y-30652734D01*
X128139331Y-30912334D01*
X128145789Y-30936754D01*
X129205117Y-30936754D01*
X129420623Y-30722464D01*
X129888710Y-30282602D01*
X128832069Y-30282602D01*
X128627278Y-30248104D01*
X128044079Y-29988851D01*
X127039209Y-29494564D01*
X126770365Y-29359840D01*
X124828710Y-28585917D01*
X122964570Y-28289880D01*
X121041538Y-28459531D01*
X119910829Y-28746469D01*
X118825138Y-29070804D01*
X118163751Y-29246967D01*
X117841202Y-29288274D01*
X117772027Y-29208042D01*
X117839230Y-29069254D01*
X118153587Y-28866787D01*
X118833629Y-28570273D01*
X119733951Y-28242921D01*
X119760250Y-28234148D01*
X121920003Y-27763318D01*
X124012258Y-27790405D01*
X125976888Y-28304932D01*
X127753763Y-29296422D01*
X128279474Y-29718459D01*
X128701714Y-30102627D01*
X128832069Y-30282602D01*
X129888710Y-30282602D01*
X129992856Y-30184737D01*
X130544838Y-29706166D01*
X129753989Y-29706166D01*
X129650641Y-29849897D01*
X129628188Y-29850527D01*
X129364230Y-29708661D01*
X128789650Y-29336832D01*
X128032771Y-28818262D01*
X127049697Y-28210058D01*
X126019414Y-27696657D01*
X125346013Y-27446336D01*
X123794026Y-27211813D01*
X121987154Y-27259072D01*
X120113572Y-27570499D01*
X118451565Y-28091655D01*
X117503880Y-28439486D01*
X116710629Y-28669830D01*
X116233913Y-28736146D01*
X116216409Y-28733407D01*
X116268787Y-28608834D01*
X116739398Y-28337212D01*
X117546360Y-27960779D01*
X118424318Y-27594447D01*
X119745990Y-27090305D01*
X120766738Y-26774700D01*
X121668433Y-26606276D01*
X122632947Y-26543677D01*
X123065789Y-26539017D01*
X124327888Y-26584198D01*
X125276252Y-26750980D01*
X126125812Y-27080626D01*
X126274211Y-27154977D01*
X127237154Y-27695867D01*
X128146368Y-28285536D01*
X128922088Y-28859880D01*
X129484550Y-29354792D01*
X129753989Y-29706166D01*
X130544838Y-29706166D01*
X131779681Y-28635554D01*
X130734948Y-28635554D01*
X130708463Y-28744366D01*
X130424935Y-29009419D01*
X130026241Y-28935344D01*
X129401608Y-28494287D01*
X129266006Y-28381669D01*
X128529994Y-27829403D01*
X127626969Y-27237851D01*
X127307071Y-27048047D01*
X126666811Y-26656478D01*
X126468052Y-26449610D01*
X126670731Y-26379680D01*
X126745019Y-26377958D01*
X127450880Y-26497777D01*
X128300498Y-26815768D01*
X129173793Y-27260235D01*
X129950686Y-27759485D01*
X130511097Y-28241823D01*
X130734948Y-28635554D01*
X131779681Y-28635554D01*
X131872324Y-28555233D01*
X133033574Y-27713256D01*
X131888947Y-27713256D01*
X131770539Y-27946528D01*
X131378058Y-27885475D01*
X130655615Y-27513383D01*
X130119366Y-27184055D01*
X129216253Y-26664094D01*
X128322746Y-26231760D01*
X127943647Y-26084775D01*
X127359623Y-25861323D01*
X127213884Y-25662277D01*
X127428213Y-25373586D01*
X127444618Y-25357111D01*
X127778656Y-25098426D01*
X128146534Y-25102836D01*
X128742105Y-25358228D01*
X129535570Y-25798622D01*
X130373382Y-26348793D01*
X131129145Y-26914147D01*
X131676462Y-27400092D01*
X131888938Y-27712037D01*
X131888947Y-27713256D01*
X133033574Y-27713256D01*
X133543612Y-27343448D01*
X134293553Y-26939437D01*
X132806219Y-26939437D01*
X132664350Y-27111047D01*
X132462355Y-27120899D01*
X132096514Y-26922062D01*
X131463111Y-26467603D01*
X131008528Y-26125974D01*
X130155460Y-25524493D01*
X129356796Y-25031772D01*
X128881053Y-24795749D01*
X128284236Y-24451031D01*
X128175717Y-24083917D01*
X128421957Y-23829299D01*
X128804588Y-23857664D01*
X129455532Y-24150493D01*
X130262467Y-24628106D01*
X131113072Y-25210823D01*
X131895025Y-25818964D01*
X132496004Y-26372849D01*
X132803687Y-26792800D01*
X132806219Y-26939437D01*
X134293553Y-26939437D01*
X135082861Y-26514219D01*
X136197574Y-26152127D01*
X134104953Y-26152127D01*
X134103463Y-26210046D01*
X133854937Y-26348173D01*
X133506490Y-26273128D01*
X132965573Y-25939017D01*
X132139637Y-25299946D01*
X131937757Y-25136107D01*
X131045843Y-24449816D01*
X130182312Y-23852742D01*
X129549474Y-23482377D01*
X129042561Y-23116591D01*
X128716052Y-22665980D01*
X128667594Y-22424826D01*
X128066069Y-22424826D01*
X127767614Y-23527811D01*
X127225378Y-24568595D01*
X126805393Y-25082583D01*
X125978653Y-25641383D01*
X125068262Y-25851291D01*
X124201898Y-25739632D01*
X124019995Y-25633343D01*
X122948362Y-25633343D01*
X122694694Y-25794552D01*
X122372325Y-25875209D01*
X121422646Y-26047821D01*
X120957606Y-26050543D01*
X120985734Y-25886087D01*
X121461579Y-25585689D01*
X122157000Y-25281949D01*
X122601377Y-25289654D01*
X122773378Y-25396370D01*
X122948362Y-25633343D01*
X124019995Y-25633343D01*
X123507241Y-25333733D01*
X123111972Y-24660919D01*
X123065789Y-24282246D01*
X123144466Y-23940997D01*
X122531053Y-23940997D01*
X122302057Y-24444028D01*
X121978760Y-24642414D01*
X121492522Y-24875786D01*
X120728650Y-25326411D01*
X119844721Y-25900842D01*
X119764490Y-25955539D01*
X118618716Y-26715655D01*
X117808358Y-27202761D01*
X117355140Y-27409857D01*
X117280786Y-27329943D01*
X117607018Y-26956020D01*
X118119474Y-26485591D01*
X119240634Y-25562528D01*
X120434685Y-24678001D01*
X121515673Y-23966443D01*
X121929474Y-23731215D01*
X122371945Y-23552333D01*
X122520250Y-23723300D01*
X122531053Y-23940997D01*
X123144466Y-23940997D01*
X123227272Y-23581844D01*
X123629325Y-23031538D01*
X124148358Y-22698232D01*
X124660779Y-22648828D01*
X125042998Y-22950230D01*
X125127267Y-23166316D01*
X125366371Y-23636766D01*
X125719112Y-23588482D01*
X125993424Y-23316169D01*
X126265681Y-22613786D01*
X126138620Y-22014459D01*
X125724881Y-22014459D01*
X125565342Y-22223468D01*
X124966550Y-22196258D01*
X124102370Y-22210088D01*
X123002069Y-22562688D01*
X121640817Y-23268084D01*
X119993786Y-24340303D01*
X118036147Y-25793372D01*
X116656355Y-26891023D01*
X115590157Y-27739714D01*
X114879050Y-28257557D01*
X114478435Y-28468939D01*
X114343714Y-28398249D01*
X114410913Y-28118886D01*
X114698721Y-27750869D01*
X115281932Y-27216307D01*
X115806206Y-26802958D01*
X116620207Y-26182871D01*
X117647937Y-25376079D01*
X118692041Y-24537866D01*
X118885356Y-24380202D01*
X119873916Y-23610714D01*
X120861378Y-22907164D01*
X121669113Y-22395304D01*
X121826409Y-22309770D01*
X122902646Y-21849736D01*
X123951330Y-21560113D01*
X124827709Y-21468872D01*
X125387031Y-21603987D01*
X125405263Y-21618164D01*
X125724881Y-22014459D01*
X126138620Y-22014459D01*
X126097091Y-21818574D01*
X125530309Y-21066105D01*
X125204737Y-20809544D01*
X125142193Y-20772693D01*
X124001579Y-20772693D01*
X122458916Y-21407072D01*
X121606039Y-21787214D01*
X120810522Y-22221437D01*
X119968049Y-22780888D01*
X118974301Y-23536714D01*
X117724960Y-24560062D01*
X117246926Y-24961750D01*
X116457103Y-25614229D01*
X115828919Y-26107198D01*
X115467996Y-26358649D01*
X115427074Y-26374737D01*
X115450185Y-26175089D01*
X115692586Y-25682347D01*
X115764743Y-25557303D01*
X116537764Y-24500084D01*
X117593588Y-23382295D01*
X118766266Y-22357933D01*
X119889845Y-21580997D01*
X120257383Y-21388246D01*
X121436943Y-20971119D01*
X122601192Y-20774456D01*
X122798421Y-20768958D01*
X124001579Y-20772693D01*
X125142193Y-20772693D01*
X124612711Y-20460722D01*
X124027350Y-20288661D01*
X123250218Y-20255892D01*
X122484217Y-20295883D01*
X121050929Y-20510903D01*
X119775395Y-20987854D01*
X118528140Y-21794803D01*
X117179689Y-22999816D01*
X117000744Y-23178618D01*
X115584081Y-24900421D01*
X114409520Y-26900728D01*
X113707170Y-28647369D01*
X113354836Y-29495393D01*
X112911887Y-30216761D01*
X112827242Y-30317367D01*
X112445376Y-30835061D01*
X112452209Y-31064556D01*
X112778139Y-30993158D01*
X113353562Y-30608176D01*
X113543607Y-30447999D01*
X114755635Y-29681589D01*
X116008675Y-29408366D01*
X117220270Y-29601230D01*
X118307963Y-30233080D01*
X119189295Y-31276818D01*
X119717472Y-32477079D01*
X119756932Y-33395800D01*
X119385958Y-34208282D01*
X118721046Y-34803173D01*
X117878693Y-35069119D01*
X117122040Y-34957916D01*
X116518221Y-34544376D01*
X116503512Y-34515315D01*
X115749228Y-34515315D01*
X115667093Y-34781166D01*
X115289632Y-35061230D01*
X114777368Y-35229540D01*
X114097977Y-35349511D01*
X113667250Y-35425463D01*
X113641053Y-35430067D01*
X113462381Y-35248527D01*
X113440526Y-35076326D01*
X113675705Y-34790584D01*
X114254302Y-34539885D01*
X114985913Y-34390481D01*
X115445789Y-34378574D01*
X115749228Y-34515315D01*
X116503512Y-34515315D01*
X116235208Y-33985241D01*
X116255926Y-33424578D01*
X116563303Y-33006457D01*
X117140263Y-32874945D01*
X117364371Y-32913169D01*
X117838223Y-32942044D01*
X117983655Y-32629689D01*
X117985789Y-32544466D01*
X117849332Y-32209620D01*
X117150007Y-32209620D01*
X116979008Y-32256842D01*
X116608272Y-32430504D01*
X116053867Y-32865582D01*
X115846842Y-33058948D01*
X115224124Y-33541309D01*
X114611579Y-33823463D01*
X114148867Y-33862595D01*
X113975263Y-33632726D01*
X114141460Y-33300881D01*
X114548768Y-32787004D01*
X114620896Y-32707750D01*
X115341703Y-32127785D01*
X116107092Y-31813280D01*
X116755464Y-31815556D01*
X116989365Y-31955576D01*
X117150007Y-32209620D01*
X117849332Y-32209620D01*
X117752714Y-31972535D01*
X117180414Y-31475970D01*
X116459283Y-31203967D01*
X116255246Y-31188368D01*
X115347948Y-31431056D01*
X114441766Y-32084201D01*
X113670322Y-33040198D01*
X113444443Y-33451910D01*
X113134958Y-34176668D01*
X112970040Y-34863802D01*
X112923534Y-35702514D01*
X112969285Y-36882004D01*
X112969578Y-36886983D01*
X113214325Y-38856932D01*
X113739805Y-40680478D01*
X114603495Y-42515859D01*
X115604053Y-44140169D01*
X116197576Y-45082055D01*
X116651290Y-45905816D01*
X116894117Y-46478059D01*
X116916316Y-46602937D01*
X117038733Y-47147786D01*
X117343774Y-47890142D01*
X117456945Y-48112405D01*
X117997574Y-49121101D01*
X117335299Y-48687163D01*
X116846640Y-48272872D01*
X116163780Y-47576827D01*
X115422148Y-46738328D01*
X115311028Y-46605033D01*
X113611296Y-44200967D01*
X112378251Y-41643632D01*
X111591334Y-38872642D01*
X111229986Y-35827607D01*
X111199987Y-34529474D01*
X111410443Y-31289022D01*
X112038080Y-28372824D01*
X113088751Y-25763441D01*
X114568309Y-23443439D01*
X115161160Y-22727599D01*
X116685558Y-21252062D01*
X118384098Y-20044671D01*
X120168742Y-19139368D01*
X121951449Y-18570097D01*
X123644179Y-18370801D01*
X125158893Y-18575423D01*
X125560019Y-18718382D01*
X126465447Y-19289911D01*
X127304767Y-20139626D01*
X127902651Y-21073333D01*
X128047247Y-21473250D01*
X128066069Y-22424826D01*
X128667594Y-22424826D01*
X128637973Y-22277422D01*
X128876348Y-22097797D01*
X128907779Y-22096842D01*
X129274384Y-22248830D01*
X129913767Y-22654150D01*
X130729974Y-23236839D01*
X131627049Y-23920936D01*
X132509039Y-24630476D01*
X133279989Y-25289496D01*
X133843946Y-25822034D01*
X134104953Y-26152127D01*
X136197574Y-26152127D01*
X136566214Y-26032382D01*
X138069814Y-25862771D01*
X139234097Y-25916951D01*
X139982085Y-26041846D01*
X140847361Y-26253577D01*
X141691709Y-26507982D01*
X142376914Y-26760898D01*
X142764761Y-26968164D01*
X142794943Y-27054707D01*
X144619942Y-27054707D01*
X144476358Y-26628865D01*
X143886934Y-26628865D01*
X143786001Y-26784669D01*
X143299304Y-26614913D01*
X143273266Y-26603098D01*
X142822138Y-26254021D01*
X142767134Y-25940409D01*
X143055767Y-25597708D01*
X143419507Y-25760637D01*
X143643751Y-26089792D01*
X143886934Y-26628865D01*
X144476358Y-26628865D01*
X144388453Y-26368159D01*
X144242048Y-26032071D01*
X143632876Y-24964002D01*
X142735501Y-24964002D01*
X142438464Y-25475612D01*
X141963241Y-25806195D01*
X141762765Y-25840000D01*
X141391637Y-25757787D01*
X141453130Y-25421695D01*
X141490206Y-25350116D01*
X141921662Y-24739399D01*
X142360276Y-24410262D01*
X142681582Y-24451313D01*
X142705930Y-24484650D01*
X142735501Y-24964002D01*
X143632876Y-24964002D01*
X143476826Y-24690399D01*
X142794451Y-23788212D01*
X141874188Y-23788212D01*
X141479578Y-24479885D01*
X141379650Y-24614226D01*
X140794662Y-25301060D01*
X140393768Y-25553088D01*
X140110369Y-25407835D01*
X140071962Y-25351018D01*
X140122290Y-25012034D01*
X140443863Y-24502681D01*
X140909033Y-23963787D01*
X141390150Y-23536179D01*
X141759568Y-23360684D01*
X141847268Y-23392426D01*
X141874188Y-23788212D01*
X142794451Y-23788212D01*
X142438914Y-23318148D01*
X141672337Y-22500857D01*
X140984266Y-22500857D01*
X140983579Y-22781921D01*
X140661272Y-23330474D01*
X140315845Y-23767920D01*
X139791128Y-24418473D01*
X139449698Y-24913814D01*
X139375263Y-25086021D01*
X139158025Y-25280722D01*
X138974211Y-25305263D01*
X138618104Y-25182227D01*
X138573158Y-25078011D01*
X138725494Y-24729290D01*
X139103638Y-24135199D01*
X139589290Y-23459681D01*
X140064151Y-22866676D01*
X140409923Y-22520124D01*
X140427077Y-22508809D01*
X140883594Y-22456771D01*
X140984266Y-22500857D01*
X141672337Y-22500857D01*
X141258903Y-22060073D01*
X141166569Y-21982646D01*
X139906709Y-21982646D01*
X139570359Y-22570058D01*
X139389236Y-22790198D01*
X138781006Y-23558515D01*
X138267443Y-24331376D01*
X138170239Y-24506767D01*
X137781025Y-25052421D01*
X137390838Y-25303430D01*
X137363134Y-25305263D01*
X137010814Y-25249973D01*
X136968947Y-25205255D01*
X137113374Y-24821701D01*
X137479225Y-24169271D01*
X137573514Y-24021146D01*
X136709538Y-24021146D01*
X136601723Y-24643539D01*
X136424804Y-25055472D01*
X136065127Y-25513316D01*
X135788837Y-25462676D01*
X135643351Y-24928591D01*
X135638040Y-24790810D01*
X135097368Y-24790810D01*
X135073682Y-25450261D01*
X134955055Y-25678000D01*
X134670135Y-25576528D01*
X134586124Y-25525254D01*
X134162141Y-25038807D01*
X133915846Y-24410810D01*
X133873697Y-24075850D01*
X133147572Y-24075850D01*
X132908898Y-24214257D01*
X132513721Y-23901878D01*
X132322409Y-23634211D01*
X132000023Y-22943363D01*
X131895094Y-22592207D01*
X131327545Y-22592207D01*
X131154829Y-22710802D01*
X130706971Y-22487114D01*
X130685789Y-22473309D01*
X130208878Y-22089192D01*
X130017368Y-21797413D01*
X129908827Y-21442847D01*
X129813803Y-21216577D01*
X129197880Y-21216577D01*
X129080168Y-21529051D01*
X128941277Y-21562106D01*
X128661210Y-21339454D01*
X128389531Y-20826842D01*
X128011772Y-20128995D01*
X127458878Y-19403041D01*
X127393517Y-19332169D01*
X126675263Y-18572760D01*
X127336457Y-18663748D01*
X127808357Y-18896317D01*
X128298564Y-19390902D01*
X128738963Y-20024485D01*
X129061440Y-20674050D01*
X129197880Y-21216577D01*
X129813803Y-21216577D01*
X129628509Y-20775358D01*
X129348947Y-20173914D01*
X128919076Y-19246324D01*
X128725506Y-18696259D01*
X128751532Y-18430149D01*
X128980445Y-18354425D01*
X129023932Y-18353685D01*
X129406573Y-18593143D01*
X129903041Y-19255078D01*
X130457592Y-20254827D01*
X130871377Y-21159510D01*
X131231076Y-22089165D01*
X131327545Y-22592207D01*
X131895094Y-22592207D01*
X131752011Y-22113367D01*
X131748566Y-22096842D01*
X131507851Y-21289765D01*
X131120317Y-20322758D01*
X130920215Y-19899941D01*
X130511595Y-19069296D01*
X130332646Y-18606142D01*
X130366373Y-18403523D01*
X130595780Y-18354485D01*
X130674519Y-18353685D01*
X131124352Y-18599932D01*
X131629746Y-19273901D01*
X132144074Y-20278432D01*
X132620710Y-21516363D01*
X133013026Y-22890534D01*
X133144459Y-23500527D01*
X133147572Y-24075850D01*
X133873697Y-24075850D01*
X133830818Y-23735102D01*
X133986457Y-23473205D01*
X134450824Y-23532818D01*
X134542483Y-23560974D01*
X134920870Y-23805768D01*
X135078418Y-24322210D01*
X135097368Y-24790810D01*
X135638040Y-24790810D01*
X135632105Y-24636842D01*
X135660233Y-24017902D01*
X135729384Y-23708985D01*
X135743922Y-23701053D01*
X136058209Y-23617878D01*
X136278659Y-23538763D01*
X136597129Y-23603891D01*
X136709538Y-24021146D01*
X137573514Y-24021146D01*
X137965356Y-23405579D01*
X138456549Y-22708219D01*
X137727954Y-22708219D01*
X137662900Y-22857637D01*
X137393688Y-23144669D01*
X137238918Y-23085789D01*
X137236316Y-23048411D01*
X137426222Y-22822267D01*
X137544995Y-22739732D01*
X137727954Y-22708219D01*
X138456549Y-22708219D01*
X138470623Y-22688239D01*
X138893882Y-22174866D01*
X138947701Y-22121747D01*
X139546298Y-21684183D01*
X139882328Y-21662585D01*
X139906709Y-21982646D01*
X141166569Y-21982646D01*
X140253275Y-21216806D01*
X138731757Y-21216806D01*
X138695424Y-21313212D01*
X138437318Y-21550288D01*
X138311019Y-21280265D01*
X138305789Y-21145274D01*
X138437336Y-20869897D01*
X138577519Y-20896380D01*
X138731757Y-21216806D01*
X140253275Y-21216806D01*
X140067383Y-21060927D01*
X139366936Y-20628209D01*
X138551969Y-20090406D01*
X137788674Y-19403067D01*
X137715077Y-19321084D01*
X137230413Y-18865749D01*
X136998454Y-18843274D01*
X137053287Y-19198513D01*
X137399474Y-19831670D01*
X137688952Y-20716738D01*
X137467416Y-21660701D01*
X136804748Y-22552717D01*
X136204885Y-23018852D01*
X135562186Y-23121677D01*
X135178249Y-23075856D01*
X134221522Y-22772101D01*
X133556802Y-22274335D01*
X133247013Y-21676170D01*
X133355082Y-21071218D01*
X133623437Y-20762826D01*
X134155557Y-20560327D01*
X134629978Y-20717313D01*
X134830000Y-21152662D01*
X134996363Y-21504125D01*
X135374756Y-21514255D01*
X135784137Y-21204263D01*
X135899474Y-21027369D01*
X136038661Y-20304734D01*
X135990292Y-20207868D01*
X135314377Y-20207868D01*
X135229055Y-20343824D01*
X134773248Y-20117078D01*
X134727451Y-20087394D01*
X134667939Y-20038956D01*
X133586781Y-20038956D01*
X133568365Y-20060934D01*
X133127898Y-20209753D01*
X132642484Y-19834602D01*
X132369278Y-19421468D01*
X132085176Y-18884373D01*
X132082517Y-18664660D01*
X132367666Y-18621151D01*
X132405370Y-18621053D01*
X132832947Y-18797963D01*
X133267458Y-19210972D01*
X133566278Y-19683497D01*
X133586781Y-20038956D01*
X134667939Y-20038956D01*
X134236462Y-19687774D01*
X134027956Y-19363408D01*
X134027895Y-19359797D01*
X134191878Y-19279287D01*
X134569919Y-19457329D01*
X134991156Y-19781289D01*
X135284728Y-20138531D01*
X135314377Y-20207868D01*
X135990292Y-20207868D01*
X135703519Y-19633569D01*
X134953744Y-19037781D01*
X133849032Y-18541275D01*
X132449081Y-18167956D01*
X130813585Y-17941730D01*
X129002243Y-17886502D01*
X128148830Y-17923598D01*
X126810349Y-17970745D01*
X125408739Y-17953675D01*
X124227697Y-17876468D01*
X124135263Y-17865911D01*
X122397368Y-17656906D01*
X123867895Y-17192349D01*
X126768873Y-16537129D01*
X129752105Y-16348730D01*
X132736179Y-16608375D01*
X135639682Y-17297291D01*
X138381203Y-18396701D01*
X140879329Y-19887831D01*
X142880009Y-21576870D01*
X144367645Y-23307882D01*
X145551097Y-25190963D01*
X146405610Y-27143846D01*
X146906434Y-29084266D01*
X147028816Y-30929959D01*
X147644989Y-30929959D01*
X147830796Y-29716842D01*
X148190197Y-32123158D01*
X148370002Y-34301976D01*
X148893489Y-34301976D01*
X148819728Y-32645229D01*
X148477608Y-30493468D01*
X148311747Y-29865379D01*
X147850307Y-28593732D01*
X147175844Y-27088045D01*
X146370641Y-25503763D01*
X145516980Y-23996331D01*
X144697146Y-22721193D01*
X144154036Y-22010873D01*
X142837204Y-20715649D01*
X141166905Y-19425668D01*
X139312463Y-18258581D01*
X137443200Y-17332043D01*
X137385938Y-17308058D01*
X134846643Y-16462896D01*
X132168176Y-15953189D01*
X129456539Y-15777305D01*
X126817733Y-15933610D01*
G37*
X126817733Y-15933610D02*
X124357758Y-16420474D01*
X122182616Y-17236264D01*
X121590411Y-17551260D01*
X120590379Y-18116803D01*
X119427925Y-18758676D01*
X118687792Y-19159176D01*
X116692858Y-20508525D01*
X114872827Y-22294386D01*
X113292210Y-24430054D01*
X112015518Y-26828821D01*
X111131037Y-29315790D01*
X110864559Y-30720729D01*
X110703344Y-32479161D01*
X110647287Y-34420327D01*
X110696278Y-36373470D01*
X110850212Y-38167829D01*
X111108980Y-39632645D01*
X111137589Y-39743158D01*
X112042789Y-42281297D01*
X113346203Y-44751821D01*
X114961002Y-47023483D01*
X116800355Y-48965034D01*
X117766312Y-49762896D01*
X119615948Y-51039299D01*
X121551299Y-52174563D01*
X123399323Y-53072241D01*
X124392057Y-53455944D01*
X125538683Y-53731510D01*
X127043780Y-53934430D01*
X128734877Y-54055663D01*
X130439505Y-54086170D01*
X131985193Y-54016910D01*
X132894907Y-53901619D01*
X134844349Y-53437069D01*
X136833259Y-52763506D01*
X138606813Y-51970393D01*
X138991259Y-51761319D01*
X140140193Y-50991498D01*
X139224344Y-50991498D01*
X139215898Y-51014185D01*
X138874079Y-51253495D01*
X138143126Y-51597622D01*
X137146852Y-52000302D01*
X136009074Y-52415270D01*
X134853605Y-52796259D01*
X133804261Y-53097005D01*
X133359474Y-53202531D01*
X131168539Y-53524092D01*
X128897254Y-53599667D01*
X126767379Y-53427833D01*
X125833643Y-53250790D01*
X123707725Y-52587359D01*
X121836952Y-51686414D01*
X120254010Y-50595434D01*
X118991586Y-49361899D01*
X118082366Y-48033289D01*
X117559034Y-46657084D01*
X117454278Y-45280764D01*
X117608447Y-44689474D01*
X116916316Y-44689474D01*
X116782632Y-44823158D01*
X116648947Y-44689474D01*
X116782632Y-44555790D01*
X116916316Y-44689474D01*
X117608447Y-44689474D01*
X117800783Y-43951807D01*
X118222515Y-43319269D01*
X117366996Y-43319269D01*
X117338036Y-43421199D01*
X117006143Y-43808435D01*
X116479169Y-43822476D01*
X115900961Y-43503735D01*
X115415364Y-42892625D01*
X115408280Y-42879044D01*
X114990252Y-42070666D01*
X115997050Y-42234047D01*
X116901955Y-42461761D01*
X117337842Y-42805122D01*
X117366996Y-43319269D01*
X118222515Y-43319269D01*
X118603366Y-42748049D01*
X119484527Y-42099121D01*
X120540482Y-41790770D01*
X121655767Y-41793360D01*
X122714918Y-42077254D01*
X123602472Y-42612815D01*
X124202966Y-43370406D01*
X124402632Y-44236583D01*
X124182212Y-45047628D01*
X123622605Y-45622804D01*
X122876286Y-45894526D01*
X122095730Y-45795210D01*
X121708498Y-45535594D01*
X120896127Y-45535594D01*
X120792894Y-45543927D01*
X120436048Y-45367465D01*
X120030843Y-45080475D01*
X119974519Y-44884253D01*
X120254919Y-44927124D01*
X120598998Y-45204516D01*
X120896127Y-45535594D01*
X121708498Y-45535594D01*
X121614361Y-45472481D01*
X121262390Y-45076920D01*
X121287713Y-44795922D01*
X121612310Y-44443254D01*
X121775855Y-44154737D01*
X120926842Y-44154737D01*
X120793158Y-44288421D01*
X120659474Y-44154737D01*
X120793158Y-44021053D01*
X120926842Y-44154737D01*
X121775855Y-44154737D01*
X121888250Y-43956458D01*
X121677812Y-43612857D01*
X121044747Y-43486316D01*
X120215334Y-43709669D01*
X119646128Y-44314083D01*
X119360697Y-45201093D01*
X119382611Y-46272233D01*
X119735439Y-47429039D01*
X119985340Y-47912267D01*
X120992417Y-49134332D01*
X122417014Y-50162039D01*
X124170151Y-50972493D01*
X126162845Y-51542796D01*
X128306116Y-51850053D01*
X130510982Y-51871367D01*
X132688462Y-51583843D01*
X133493158Y-51388027D01*
X134325047Y-51206466D01*
X135347569Y-51053804D01*
X135545537Y-51032832D01*
X130980966Y-51032832D01*
X130961590Y-51085003D01*
X130438454Y-51204792D01*
X129143567Y-51330223D01*
X127949193Y-51169091D01*
X127669275Y-51043142D01*
X126407895Y-51043142D01*
X125624480Y-50857023D01*
X125041381Y-50586153D01*
X124246688Y-50049284D01*
X123755601Y-49646088D01*
X122708687Y-49646088D01*
X122456243Y-49554185D01*
X121914053Y-49199062D01*
X121465574Y-48859577D01*
X121046786Y-48462510D01*
X120930248Y-48208468D01*
X120937100Y-48199567D01*
X121194527Y-48283351D01*
X121710742Y-48644053D01*
X122136263Y-48997458D01*
X122619367Y-49464077D01*
X122708687Y-49646088D01*
X123755601Y-49646088D01*
X123406219Y-49359236D01*
X123355644Y-49313314D01*
X122460436Y-48530577D01*
X121557902Y-47798462D01*
X120863796Y-47289700D01*
X120245660Y-46787157D01*
X119893325Y-46318279D01*
X119863291Y-45987545D01*
X120108282Y-45892632D01*
X120455411Y-46053840D01*
X121106329Y-46484965D01*
X121959393Y-47107255D01*
X122912961Y-47841961D01*
X123865388Y-48610332D01*
X124715033Y-49333618D01*
X125360252Y-49933068D01*
X125472105Y-50048390D01*
X126407895Y-51043142D01*
X127669275Y-51043142D01*
X127020251Y-50751115D01*
X126785376Y-50546489D01*
X126409019Y-50115285D01*
X126286054Y-49909559D01*
X126294447Y-49906608D01*
X126588142Y-49982373D01*
X127247127Y-50177385D01*
X128102768Y-50441344D01*
X129098700Y-50724876D01*
X129989630Y-50929588D01*
X130509084Y-51004266D01*
X130980966Y-51032832D01*
X135545537Y-51032832D01*
X136443714Y-50937683D01*
X137496474Y-50865749D01*
X138388838Y-50845644D01*
X139003798Y-50885013D01*
X139224344Y-50991498D01*
X140140193Y-50991498D01*
X140941527Y-50454580D01*
X141017655Y-50389228D01*
X134481386Y-50389228D01*
X134377117Y-50534287D01*
X133956069Y-50662749D01*
X133124407Y-50695304D01*
X131997006Y-50635043D01*
X130688746Y-50485062D01*
X130284737Y-50424082D01*
X129066299Y-50146117D01*
X127726670Y-49716323D01*
X126849808Y-49358517D01*
X125792751Y-48813124D01*
X124778029Y-48196442D01*
X123913484Y-47585027D01*
X123306957Y-47055434D01*
X123066289Y-46684220D01*
X123065789Y-46672270D01*
X123247703Y-46429770D01*
X123722932Y-46508613D01*
X124385710Y-46874226D01*
X124888488Y-47268067D01*
X126407939Y-48310063D01*
X128277257Y-49131744D01*
X130338097Y-49679126D01*
X132432116Y-49898226D01*
X132608431Y-49899985D01*
X133721251Y-49958255D01*
X134351666Y-50123522D01*
X134481386Y-50389228D01*
X141017655Y-50389228D01*
X142851709Y-48814794D01*
X144622415Y-46953310D01*
X146154255Y-44981475D01*
X147347839Y-43010636D01*
X147893091Y-41788509D01*
X148456300Y-39784479D01*
X148802715Y-37471847D01*
X148925978Y-35031726D01*
X148893489Y-34301976D01*
X148370002Y-34301976D01*
X148312803Y-36634075D01*
X148035906Y-38920610D01*
X147556616Y-40962739D01*
X147373771Y-41503908D01*
X146453365Y-43504798D01*
X145232368Y-45421266D01*
X143805328Y-47137389D01*
X142266793Y-48537240D01*
X140939212Y-49393289D01*
X139406976Y-50063287D01*
X138070066Y-50359359D01*
X136767337Y-50306169D01*
X136033158Y-50144125D01*
X134853589Y-49628883D01*
X134313340Y-49144193D01*
X133346105Y-49144193D01*
X133324029Y-49295718D01*
X132891858Y-49362340D01*
X132166478Y-49349890D01*
X131264777Y-49264200D01*
X130303642Y-49111102D01*
X129625664Y-48958570D01*
X128364423Y-48550999D01*
X127149022Y-48019528D01*
X126065932Y-47420096D01*
X125201623Y-46808646D01*
X124642566Y-46241118D01*
X124475232Y-45773451D01*
X124518284Y-45654440D01*
X124813708Y-45644193D01*
X125411214Y-45958656D01*
X125949980Y-46340039D01*
X127588284Y-47405516D01*
X129341144Y-48138426D01*
X131299093Y-48604981D01*
X132243349Y-48795817D01*
X132980907Y-48990738D01*
X133346105Y-49144193D01*
X134313340Y-49144193D01*
X134008096Y-48870341D01*
X133568510Y-48023188D01*
X132958421Y-48023188D01*
X132889632Y-48210940D01*
X132621197Y-48275021D01*
X132060015Y-48210352D01*
X131112984Y-48011854D01*
X130610530Y-47895083D01*
X129061001Y-47424019D01*
X127641428Y-46796602D01*
X126437891Y-46069853D01*
X125536471Y-45300795D01*
X125023247Y-44546450D01*
X124937368Y-44137014D01*
X124968153Y-43825250D01*
X125116753Y-43780142D01*
X125467533Y-44039454D01*
X126104861Y-44640955D01*
X126140521Y-44675594D01*
X127800718Y-45985197D01*
X129708863Y-46891616D01*
X130953158Y-47252990D01*
X131962027Y-47494626D01*
X132558813Y-47654278D01*
X132851703Y-47773498D01*
X132948884Y-47893839D01*
X132958421Y-48023188D01*
X133568510Y-48023188D01*
X133536611Y-47961715D01*
X133479066Y-46996221D01*
X133579469Y-46760835D01*
X132958421Y-46760835D01*
X132729644Y-46923073D01*
X132127733Y-46919451D01*
X131279322Y-46774311D01*
X130311042Y-46511997D01*
X129349527Y-46156853D01*
X129010969Y-46001988D01*
X128401788Y-45686901D01*
X127851587Y-45345951D01*
X127291574Y-44916639D01*
X126652958Y-44336464D01*
X125866949Y-43542925D01*
X124864754Y-42473522D01*
X124151971Y-41693957D01*
X118638466Y-41693957D01*
X118565059Y-41958706D01*
X118519567Y-42016945D01*
X118201467Y-42329722D01*
X117870235Y-42356204D01*
X117325477Y-42096221D01*
X117183684Y-42015790D01*
X116415313Y-41732159D01*
X115655723Y-41624211D01*
X114853636Y-41440064D01*
X114510000Y-41080000D01*
X114377548Y-40747299D01*
X114526852Y-40593075D01*
X115065147Y-40551350D01*
X115369540Y-40551135D01*
X116354017Y-40674020D01*
X117406345Y-40973298D01*
X117683358Y-41087028D01*
X118371948Y-41433849D01*
X118638466Y-41693957D01*
X124151971Y-41693957D01*
X123925878Y-41446681D01*
X123067847Y-41446681D01*
X122792578Y-41435732D01*
X122641871Y-41408436D01*
X122213107Y-41241971D01*
X120430999Y-41241971D01*
X120091691Y-41349089D01*
X119497743Y-41262227D01*
X118735410Y-40966567D01*
X118393535Y-40781154D01*
X117366020Y-40367365D01*
X116026061Y-40107551D01*
X115704568Y-40076128D01*
X114754633Y-39976937D01*
X114226268Y-39843988D01*
X114006366Y-39635620D01*
X113975263Y-39439184D01*
X114046984Y-39155118D01*
X114343442Y-39005283D01*
X114986578Y-38950635D01*
X115512632Y-38946925D01*
X117357075Y-39202778D01*
X119104572Y-39910624D01*
X120000675Y-40505064D01*
X120429412Y-40955690D01*
X120430999Y-41241971D01*
X122213107Y-41241971D01*
X122033247Y-41172142D01*
X121214983Y-40704846D01*
X120544791Y-40240188D01*
X118794675Y-39159714D01*
X116993302Y-38564272D01*
X115280256Y-38406316D01*
X114271226Y-38337969D01*
X113638301Y-38150195D01*
X113441220Y-37868897D01*
X113561789Y-37661194D01*
X113898390Y-37560088D01*
X114616743Y-37460428D01*
X115564215Y-37383155D01*
X115605728Y-37380769D01*
X116696859Y-37351062D01*
X117516440Y-37445158D01*
X118322850Y-37715301D01*
X119134007Y-38094209D01*
X120256673Y-38760281D01*
X121409401Y-39617831D01*
X122088133Y-40231698D01*
X122749543Y-40916744D01*
X123064808Y-41297711D01*
X123067847Y-41446681D01*
X123925878Y-41446681D01*
X123577583Y-41065755D01*
X123576123Y-41064150D01*
X122168200Y-39606911D01*
X120904013Y-38480996D01*
X119852019Y-37747259D01*
X119832965Y-37736644D01*
X119083011Y-37349228D01*
X118428654Y-37111273D01*
X117695132Y-36987065D01*
X116707686Y-36940893D01*
X115914005Y-36935790D01*
X114741069Y-36924161D01*
X114005362Y-36877331D01*
X113609655Y-36777380D01*
X113456718Y-36606390D01*
X113440847Y-36480010D01*
X113693483Y-36095500D01*
X114425506Y-35846958D01*
X115597137Y-35742244D01*
X116996146Y-35777569D01*
X118608853Y-36038668D01*
X120125155Y-36636177D01*
X121609334Y-37612786D01*
X123125671Y-39011182D01*
X124738446Y-40874055D01*
X124814473Y-40969685D01*
X126292434Y-42737411D01*
X127612497Y-44084293D01*
X128853308Y-45069056D01*
X130093515Y-45750429D01*
X131411764Y-46187140D01*
X131955789Y-46302311D01*
X132598852Y-46484871D01*
X132941214Y-46707148D01*
X132958421Y-46760835D01*
X133579469Y-46760835D01*
X133875392Y-46067075D01*
X134149426Y-45746795D01*
X134988973Y-45225234D01*
X135957191Y-45088471D01*
X136862792Y-45344037D01*
X137236316Y-45625263D01*
X137676209Y-46317148D01*
X137652794Y-46939624D01*
X137209524Y-47371021D01*
X136567895Y-47496842D01*
X135954331Y-47352051D01*
X135685579Y-47176000D01*
X135416135Y-47015877D01*
X135353278Y-47199788D01*
X135478006Y-47586944D01*
X135771319Y-48036558D01*
X135807228Y-48077369D01*
X136551508Y-48525157D01*
X137551644Y-48576976D01*
X138736131Y-48259679D01*
X140033464Y-47600118D01*
X141372139Y-46625146D01*
X142489668Y-45567890D01*
X142747674Y-45232079D01*
X141863629Y-45232079D01*
X141642373Y-45598095D01*
X141168909Y-46100615D01*
X140534123Y-46651676D01*
X139828899Y-47163319D01*
X139259680Y-47492806D01*
X138334058Y-47901267D01*
X137776843Y-48036972D01*
X137619462Y-47897941D01*
X137805157Y-47584403D01*
X138260708Y-47164666D01*
X138990742Y-46625040D01*
X139851121Y-46056835D01*
X140697710Y-45551362D01*
X141386372Y-45199932D01*
X141741795Y-45090527D01*
X141863629Y-45232079D01*
X142747674Y-45232079D01*
X143711442Y-43977679D01*
X143078758Y-43977679D01*
X142762350Y-44209096D01*
X141982876Y-44476954D01*
X141818703Y-44520437D01*
X140824583Y-44862358D01*
X139881242Y-45322778D01*
X139612913Y-45493662D01*
X138757569Y-46009755D01*
X138235058Y-46112422D01*
X138040105Y-45802512D01*
X138038421Y-45747594D01*
X138271462Y-45412445D01*
X138877776Y-44990562D01*
X139718147Y-44547855D01*
X140653362Y-44150235D01*
X141544205Y-43863612D01*
X142249474Y-43753895D01*
X142913875Y-43815135D01*
X143078758Y-43977679D01*
X143711442Y-43977679D01*
X143987972Y-43617759D01*
X144333546Y-42945102D01*
X143619093Y-42945102D01*
X143234718Y-43111432D01*
X142337850Y-43261272D01*
X142067814Y-43288433D01*
X140137531Y-43723758D01*
X139059919Y-44211316D01*
X138005183Y-44709660D01*
X137309159Y-44857522D01*
X136989126Y-44652414D01*
X136968947Y-44512393D01*
X137210938Y-44191626D01*
X137853320Y-43819141D01*
X138770713Y-43440707D01*
X139837732Y-43102097D01*
X140928996Y-42849080D01*
X141848421Y-42731139D01*
X142910828Y-42716557D01*
X143506091Y-42800677D01*
X143619093Y-42945102D01*
X144333546Y-42945102D01*
X144810976Y-42015790D01*
X143894829Y-42015790D01*
X143833286Y-42165519D01*
X143247106Y-42214993D01*
X142552740Y-42191630D01*
X140448662Y-42339580D01*
X138328613Y-43020812D01*
X136898089Y-43776926D01*
X136095417Y-44213165D01*
X135404349Y-44495805D01*
X135108261Y-44555790D01*
X134571636Y-44725164D01*
X133931269Y-45140430D01*
X133842278Y-45215762D01*
X133249761Y-45609006D01*
X132618697Y-45849041D01*
X132111768Y-45896152D01*
X131891653Y-45710623D01*
X131891108Y-45692106D01*
X132052198Y-45510991D01*
X132554626Y-45176498D01*
X133430699Y-44670209D01*
X134712728Y-43973701D01*
X136433020Y-43068555D01*
X137102632Y-42720812D01*
X138075623Y-42240059D01*
X138845393Y-41950941D01*
X139620527Y-41805211D01*
X140609610Y-41754623D01*
X141300316Y-41749884D01*
X142381923Y-41778336D01*
X143264256Y-41855507D01*
X143806651Y-41966980D01*
X143894829Y-42015790D01*
X144810976Y-42015790D01*
X145085695Y-41481053D01*
X144455263Y-41481053D01*
X144321579Y-41614737D01*
X144187895Y-41481053D01*
X144321579Y-41347369D01*
X144455263Y-41481053D01*
X145085695Y-41481053D01*
X145173917Y-41309330D01*
X145204901Y-41213685D01*
X143998418Y-41213685D01*
X138893616Y-41213685D01*
X134841315Y-43285790D01*
X133496938Y-43967689D01*
X132319016Y-44554673D01*
X131389302Y-45006847D01*
X130789547Y-45284313D01*
X130603718Y-45353801D01*
X130240891Y-45222941D01*
X130025112Y-45100970D01*
X129857663Y-45005617D01*
X129757721Y-44925392D01*
X129784043Y-44824471D01*
X129995388Y-44667030D01*
X130450511Y-44417247D01*
X131208172Y-44039297D01*
X132327128Y-43497358D01*
X133866137Y-42755606D01*
X133894211Y-42742056D01*
X135847258Y-41836416D01*
X137446908Y-41193177D01*
X138792881Y-40790792D01*
X139984899Y-40607713D01*
X141122682Y-40622392D01*
X142305951Y-40813282D01*
X142555788Y-40870459D01*
X143998418Y-41213685D01*
X145204901Y-41213685D01*
X145479178Y-40367018D01*
X143564035Y-40367018D01*
X143527334Y-40525968D01*
X143385789Y-40545263D01*
X143165715Y-40447438D01*
X143207544Y-40367018D01*
X143524848Y-40335019D01*
X143564035Y-40367018D01*
X145479178Y-40367018D01*
X145754906Y-39515876D01*
X145255006Y-39515876D01*
X145150036Y-39904583D01*
X144830839Y-40196879D01*
X144519852Y-40138143D01*
X144437052Y-40107417D01*
X142590103Y-40107417D01*
X142466537Y-40165799D01*
X141893410Y-40141840D01*
X141376419Y-40097162D01*
X139472551Y-40129455D01*
X137430139Y-40581334D01*
X135192888Y-41467780D01*
X134035495Y-42050843D01*
X132166394Y-43017775D01*
X130704252Y-43698039D01*
X129612732Y-44104021D01*
X128855499Y-44248103D01*
X128396215Y-44142672D01*
X128275199Y-44014136D01*
X128382912Y-43759249D01*
X128865731Y-43482303D01*
X128994682Y-43434378D01*
X129630365Y-43175549D01*
X130575853Y-42742639D01*
X130780414Y-42643154D01*
X129348947Y-42643154D01*
X128680526Y-42914103D01*
X128088470Y-43116439D01*
X127627101Y-43118041D01*
X127178577Y-42858014D01*
X126625054Y-42275466D01*
X126036614Y-41547895D01*
X125432913Y-40758442D01*
X125000361Y-40143441D01*
X124812015Y-39808465D01*
X124812823Y-39779394D01*
X125119175Y-39811057D01*
X125730763Y-40079623D01*
X126517229Y-40511837D01*
X127348212Y-41034443D01*
X128093352Y-41574186D01*
X128279474Y-41727477D01*
X129348947Y-42643154D01*
X130780414Y-42643154D01*
X131668172Y-42211409D01*
X131867131Y-42110783D01*
X130442333Y-42110783D01*
X130303029Y-42307537D01*
X130134922Y-42362496D01*
X129845058Y-42229408D01*
X129340480Y-41862020D01*
X128528235Y-41214078D01*
X128347662Y-41068502D01*
X127056069Y-40155168D01*
X125807432Y-39502378D01*
X125293975Y-39318146D01*
X124450623Y-39020012D01*
X123802790Y-38696682D01*
X123590184Y-38527539D01*
X123528402Y-38249060D01*
X123863912Y-38124096D01*
X124484987Y-38142331D01*
X125279898Y-38293453D01*
X126136914Y-38567148D01*
X126689609Y-38813645D01*
X127600665Y-39347590D01*
X128523515Y-40002283D01*
X129362193Y-40693409D01*
X130020733Y-41336654D01*
X130403170Y-41847701D01*
X130442333Y-42110783D01*
X131867131Y-42110783D01*
X132152935Y-41966235D01*
X133312174Y-41389301D01*
X131996716Y-41389301D01*
X131791809Y-41571765D01*
X131470389Y-41534153D01*
X130954560Y-41236853D01*
X130166427Y-40640249D01*
X129571233Y-40155815D01*
X128036666Y-38987086D01*
X126694699Y-38200388D01*
X125427652Y-37742241D01*
X124117844Y-37559166D01*
X123839087Y-37550834D01*
X122844922Y-37476264D01*
X122172249Y-37311040D01*
X121872119Y-37094491D01*
X121995586Y-36865948D01*
X122593701Y-36664739D01*
X122669572Y-36649874D01*
X124237084Y-36564426D01*
X125878550Y-36821089D01*
X127335357Y-37376496D01*
X127476659Y-37455976D01*
X128239910Y-37956707D01*
X129119265Y-38614596D01*
X130020978Y-39348064D01*
X130851304Y-40075534D01*
X131516497Y-40715430D01*
X131922810Y-41186174D01*
X131996716Y-41389301D01*
X133312174Y-41389301D01*
X133891196Y-41101132D01*
X134963216Y-40622462D01*
X133357841Y-40622462D01*
X133229922Y-40797940D01*
X132748687Y-40869205D01*
X132294133Y-40582309D01*
X131828682Y-40175123D01*
X131108971Y-39547068D01*
X130284147Y-38828288D01*
X130217444Y-38770203D01*
X128775975Y-37609889D01*
X127504700Y-36827447D01*
X126266237Y-36363326D01*
X124923206Y-36157973D01*
X124135263Y-36133685D01*
X123080936Y-36158919D01*
X122182730Y-36225368D01*
X121622024Y-36319148D01*
X121595263Y-36328107D01*
X120978030Y-36374276D01*
X120659474Y-36261265D01*
X120443826Y-35988375D01*
X120685981Y-35730052D01*
X121410447Y-35473983D01*
X122641731Y-35207855D01*
X122820795Y-35175358D01*
X124400046Y-35033356D01*
X125913475Y-35212428D01*
X127432970Y-35743024D01*
X129030419Y-36655588D01*
X130777711Y-37980569D01*
X132022632Y-39072605D01*
X132816217Y-39826424D01*
X133244196Y-40318619D01*
X133357841Y-40622462D01*
X134963216Y-40622462D01*
X135288296Y-40477310D01*
X136460173Y-40058556D01*
X137522768Y-39808661D01*
X138592019Y-39691412D01*
X138864455Y-39684679D01*
X135087509Y-39684679D01*
X135083095Y-39833187D01*
X134962749Y-39940500D01*
X134916581Y-39967388D01*
X134624035Y-40091315D01*
X134316810Y-40082678D01*
X133915099Y-39894343D01*
X133339092Y-39479174D01*
X132508982Y-38790039D01*
X131621579Y-38021379D01*
X130539879Y-37135877D01*
X129380609Y-36279891D01*
X128339354Y-35595064D01*
X128012105Y-35407445D01*
X127117709Y-34958178D01*
X126371862Y-34699349D01*
X125557242Y-34581532D01*
X124456528Y-34555299D01*
X124268947Y-34556111D01*
X122563276Y-34658716D01*
X121177606Y-34962894D01*
X120739993Y-35120004D01*
X119960109Y-35400440D01*
X119402309Y-35547602D01*
X119224589Y-35545467D01*
X119232195Y-35242502D01*
X119630164Y-34837416D01*
X120306424Y-34411122D01*
X121148903Y-34044532D01*
X121426867Y-33955498D01*
X123670490Y-33537955D01*
X125800364Y-33636027D01*
X127846789Y-34255634D01*
X129840066Y-35402696D01*
X130200887Y-35669722D01*
X131821514Y-36912455D01*
X133060652Y-37871977D01*
X133962562Y-38588625D01*
X134571501Y-39102734D01*
X134931730Y-39454640D01*
X135087509Y-39684679D01*
X138864455Y-39684679D01*
X139508947Y-39668751D01*
X140617061Y-39705403D01*
X141592118Y-39800084D01*
X142249210Y-39933676D01*
X142316316Y-39959021D01*
X142590103Y-40107417D01*
X144437052Y-40107417D01*
X144010836Y-39949256D01*
X143204850Y-39674301D01*
X142618485Y-39482882D01*
X141827448Y-39179364D01*
X141633836Y-39006844D01*
X137669251Y-39006844D01*
X137529035Y-39136657D01*
X137236316Y-39229605D01*
X136551199Y-39401740D01*
X136090562Y-39375187D01*
X135585965Y-39103235D01*
X135272326Y-38887859D01*
X134708834Y-38469830D01*
X133864891Y-37813546D01*
X132871735Y-37022004D01*
X132191540Y-36470026D01*
X130176008Y-34950854D01*
X128341252Y-33870418D01*
X126599200Y-33205218D01*
X124861783Y-32931749D01*
X123040929Y-33026510D01*
X121048568Y-33465999D01*
X120993684Y-33481813D01*
X120533980Y-33525467D01*
X120394201Y-33214765D01*
X120392105Y-33126665D01*
X120489323Y-32804176D01*
X120854916Y-32563639D01*
X121599798Y-32344868D01*
X121994171Y-32257297D01*
X124070809Y-32014115D01*
X126119300Y-32138214D01*
X127976816Y-32613579D01*
X128658005Y-32912681D01*
X129445508Y-33368763D01*
X130510009Y-34062449D01*
X131710118Y-34898338D01*
X132869617Y-35754446D01*
X134027407Y-36615319D01*
X135146139Y-37408888D01*
X136099471Y-38047846D01*
X136761057Y-38444886D01*
X136768981Y-38449002D01*
X137432747Y-38805765D01*
X137669251Y-39006844D01*
X141633836Y-39006844D01*
X141565645Y-38946082D01*
X141832092Y-38783892D01*
X142625807Y-38693646D01*
X143549732Y-38673685D01*
X144574978Y-38756725D01*
X145129704Y-39026919D01*
X145255006Y-39515876D01*
X145754906Y-39515876D01*
X146004164Y-38746443D01*
X146128144Y-37980582D01*
X145524737Y-37980582D01*
X145307193Y-38152631D01*
X144630415Y-38215081D01*
X143716456Y-38187935D01*
X142175744Y-38204835D01*
X141050095Y-38460579D01*
X140975929Y-38491595D01*
X140096842Y-38823309D01*
X139585389Y-38902643D01*
X139485472Y-38724925D01*
X139526154Y-38645844D01*
X139971819Y-38269748D01*
X140754918Y-37881594D01*
X141685094Y-37555246D01*
X142571992Y-37364567D01*
X142884474Y-37342714D01*
X143976119Y-37397305D01*
X144855398Y-37555873D01*
X145402874Y-37789562D01*
X145524737Y-37980582D01*
X146128144Y-37980582D01*
X146317917Y-36808312D01*
X145792105Y-36808312D01*
X145546661Y-36925656D01*
X144882066Y-36945147D01*
X144196584Y-36894510D01*
X142463627Y-36889206D01*
X140904693Y-37223769D01*
X139659710Y-37867865D01*
X139641030Y-37882115D01*
X139043705Y-38261955D01*
X138600077Y-38412146D01*
X138415060Y-38321975D01*
X138585947Y-37989853D01*
X139301885Y-37377105D01*
X140332408Y-36785130D01*
X141464343Y-36320813D01*
X142340730Y-36107205D01*
X143187046Y-36073432D01*
X144109258Y-36158794D01*
X144953419Y-36332019D01*
X145565583Y-36561835D01*
X145792105Y-36808312D01*
X146317917Y-36808312D01*
X146427129Y-36133685D01*
X146504833Y-35573917D01*
X145792105Y-35573917D01*
X145596145Y-35835679D01*
X145234767Y-35804191D01*
X144876542Y-35645755D01*
X145013215Y-35445849D01*
X145034240Y-35432264D01*
X145314914Y-35315885D01*
X142364417Y-35315885D01*
X142125542Y-35494441D01*
X141446518Y-35714155D01*
X140560578Y-36074497D01*
X139553997Y-36644931D01*
X138947794Y-37071270D01*
X138014141Y-37763299D01*
X137452191Y-38087008D01*
X137251145Y-38047755D01*
X137280877Y-37898266D01*
X137520557Y-37614396D01*
X138057632Y-37111931D01*
X138701352Y-36561912D01*
X139923695Y-35682176D01*
X140992329Y-35163417D01*
X141842422Y-35032020D01*
X142199825Y-35138018D01*
X142364417Y-35315885D01*
X145314914Y-35315885D01*
X145557366Y-35215355D01*
X145780463Y-35429765D01*
X145792105Y-35573917D01*
X146504833Y-35573917D01*
X146576519Y-35057514D01*
X146812794Y-34029532D01*
X146981210Y-33531913D01*
X147274736Y-32652377D01*
X147533334Y-31582570D01*
X147615025Y-31125597D01*
X147644989Y-30929959D01*
X147028816Y-30929959D01*
X146748003Y-32598658D01*
X146430438Y-33376928D01*
X145682739Y-34313850D01*
X144671121Y-34833370D01*
X143498967Y-34906712D01*
X142306912Y-34524611D01*
X142000404Y-34262106D01*
X140979474Y-34262106D01*
X140798696Y-34617282D01*
X140642816Y-34663158D01*
X140291736Y-34818641D01*
X139641459Y-35233985D01*
X138808359Y-35832532D01*
X138437027Y-36116152D01*
X137400930Y-36895724D01*
X136682496Y-37381591D01*
X136305301Y-37562830D01*
X136292927Y-37428517D01*
X136668950Y-36967730D01*
X136721815Y-36910764D01*
X137258442Y-36401610D01*
X138006146Y-35771711D01*
X138845057Y-35112075D01*
X139655305Y-34513715D01*
X140317020Y-34067640D01*
X140710332Y-33864860D01*
X140738597Y-33861053D01*
X140952420Y-34078001D01*
X140979474Y-34262106D01*
X142000404Y-34262106D01*
X141646185Y-33958741D01*
X141330526Y-33222454D01*
X141335111Y-32904211D01*
X140703875Y-32904211D01*
X140607026Y-33193201D01*
X140135337Y-33586572D01*
X139709474Y-33832881D01*
X138996168Y-34282907D01*
X138099520Y-34960098D01*
X137236316Y-35697757D01*
X136331219Y-36498830D01*
X135748021Y-36940196D01*
X135441512Y-37050963D01*
X135364737Y-36902655D01*
X135563384Y-36608040D01*
X136090683Y-36082132D01*
X136843669Y-35409313D01*
X137719379Y-34673968D01*
X138614849Y-33960479D01*
X139427115Y-33353229D01*
X140053212Y-32936600D01*
X140377895Y-32794174D01*
X140703875Y-32904211D01*
X141335111Y-32904211D01*
X141341576Y-32455548D01*
X141660975Y-31797826D01*
X142194765Y-31439794D01*
X141154633Y-31439794D01*
X140892272Y-31757445D01*
X140359539Y-32151177D01*
X139833127Y-32442239D01*
X139129979Y-32869338D01*
X138196772Y-33549528D01*
X137189537Y-34365934D01*
X136738302Y-34760439D01*
X135878984Y-35492690D01*
X135149854Y-36040579D01*
X134648558Y-36334675D01*
X134492150Y-36357493D01*
X134492814Y-36108825D01*
X134878143Y-35709590D01*
X134990025Y-35625065D01*
X135605223Y-35143679D01*
X136011844Y-34802183D01*
X135231053Y-34802183D01*
X134428947Y-35245241D01*
X133856092Y-35522442D01*
X133495193Y-35515017D01*
X133127654Y-35242571D01*
X132791069Y-34907406D01*
X132878005Y-34769886D01*
X133190820Y-34711886D01*
X133895752Y-34678390D01*
X134492113Y-34714557D01*
X135231053Y-34802183D01*
X136011844Y-34802183D01*
X136417159Y-34461785D01*
X137102493Y-33858787D01*
X137237092Y-33743579D01*
X136184472Y-33743579D01*
X135897822Y-33952193D01*
X135102568Y-34122015D01*
X134228421Y-34194470D01*
X133085789Y-34243742D01*
X132369476Y-34256010D01*
X131971716Y-34220677D01*
X131784744Y-34127143D01*
X131700795Y-33964809D01*
X131694198Y-33945227D01*
X131842852Y-33660238D01*
X132459803Y-33454484D01*
X133482339Y-33344187D01*
X134072869Y-33329967D01*
X135263989Y-33387967D01*
X135970526Y-33540670D01*
X136184472Y-33743579D01*
X137237092Y-33743579D01*
X137964189Y-33121235D01*
X137064136Y-33121235D01*
X136731476Y-33236050D01*
X136474008Y-33171647D01*
X135980270Y-33049856D01*
X135152798Y-32930194D01*
X134388552Y-32856587D01*
X133256427Y-32842626D01*
X132211694Y-32949682D01*
X131757095Y-33058343D01*
X130919293Y-33235966D01*
X130506352Y-33120142D01*
X130546872Y-32886685D01*
X130994779Y-32620264D01*
X131727575Y-32359784D01*
X132622761Y-32144149D01*
X133557840Y-32012264D01*
X134066452Y-31989474D01*
X134928468Y-32069158D01*
X135793110Y-32274301D01*
X136525657Y-32554039D01*
X136991389Y-32857511D01*
X137064136Y-33121235D01*
X137964189Y-33121235D01*
X138514474Y-32650230D01*
X139198260Y-32154455D01*
X137837213Y-32154455D01*
X137797289Y-32321308D01*
X137337437Y-32255356D01*
X136628706Y-31979573D01*
X135081809Y-31538935D01*
X133366728Y-31481873D01*
X131683803Y-31804496D01*
X130953158Y-32089824D01*
X130010055Y-32478097D01*
X129445660Y-32586221D01*
X129289092Y-32411960D01*
X129377349Y-32210888D01*
X129699622Y-31952420D01*
X130349622Y-31578272D01*
X130919078Y-31296186D01*
X132718992Y-30731942D01*
X134530171Y-30694887D01*
X136304426Y-31184607D01*
X136649846Y-31345349D01*
X137455352Y-31810550D01*
X137837213Y-32154455D01*
X139198260Y-32154455D01*
X139640458Y-31833842D01*
X140522624Y-31379605D01*
X140643581Y-31338647D01*
X141090457Y-31274701D01*
X141154633Y-31439794D01*
X142194765Y-31439794D01*
X142270365Y-31389087D01*
X142727621Y-31321053D01*
X143259822Y-31374294D01*
X143478174Y-31641969D01*
X143519761Y-32256842D01*
X143632696Y-32929258D01*
X143956274Y-33116996D01*
X144468497Y-32816854D01*
X144819828Y-32446012D01*
X145152728Y-31696303D01*
X145177189Y-31454737D01*
X144722632Y-31454737D01*
X144519171Y-31714336D01*
X144455263Y-31722106D01*
X144195664Y-31518645D01*
X144187895Y-31454737D01*
X144391355Y-31195138D01*
X144455263Y-31187369D01*
X144714862Y-31390829D01*
X144722632Y-31454737D01*
X145177189Y-31454737D01*
X145264832Y-30589236D01*
X145260502Y-30529708D01*
X140752852Y-30529708D01*
X140350895Y-30808762D01*
X139910000Y-31053685D01*
X139181586Y-31445609D01*
X138780230Y-31641982D01*
X138555149Y-31687276D01*
X138355558Y-31625965D01*
X138193973Y-31559816D01*
X137803923Y-31306161D01*
X137946947Y-31050581D01*
X138621396Y-30794651D01*
X139121055Y-30674787D01*
X140156015Y-30471405D01*
X140693919Y-30420150D01*
X140752852Y-30529708D01*
X145260502Y-30529708D01*
X145240483Y-30254523D01*
X144165412Y-30254523D01*
X144054211Y-30225866D01*
X142987036Y-30017875D01*
X141657537Y-29931151D01*
X140299684Y-29966505D01*
X139147444Y-30124744D01*
X138840526Y-30207842D01*
X137722122Y-30514411D01*
X136911756Y-30617363D01*
X136483024Y-30511042D01*
X136434211Y-30392732D01*
X136669444Y-30185256D01*
X137279109Y-29913707D01*
X137939093Y-29695352D01*
X139468942Y-29414380D01*
X141101723Y-29384542D01*
X142628825Y-29596770D01*
X143653158Y-29943763D01*
X144109910Y-30181489D01*
X144165412Y-30254523D01*
X145240483Y-30254523D01*
X145181916Y-29449474D01*
X144455263Y-29449474D01*
X144321579Y-29583158D01*
X144187895Y-29449474D01*
X144319875Y-29317494D01*
X144054211Y-29317494D01*
X143252105Y-29116116D01*
X142609192Y-29022860D01*
X141619389Y-28955212D01*
X140470363Y-28924868D01*
X140177368Y-28924493D01*
X138810214Y-28971652D01*
X137789987Y-29119721D01*
X136933531Y-29399213D01*
X136701579Y-29503543D01*
X135689399Y-29919812D01*
X134962842Y-30089531D01*
X134594005Y-29999463D01*
X134562632Y-29896230D01*
X134784995Y-29672067D01*
X135359828Y-29322662D01*
X135946309Y-29027282D01*
X136725175Y-28705336D01*
X137491338Y-28509442D01*
X138418945Y-28411086D01*
X139682142Y-28381752D01*
X139889993Y-28381527D01*
X141269755Y-28410936D01*
X142240710Y-28508704D01*
X142926340Y-28692045D01*
X143252105Y-28850274D01*
X144054211Y-29317494D01*
X144319875Y-29317494D01*
X144321579Y-29315790D01*
X144455263Y-29449474D01*
X145181916Y-29449474D01*
X145167348Y-29249238D01*
X145044414Y-28647369D01*
X144455263Y-28647369D01*
X144321579Y-28781053D01*
X144187895Y-28647369D01*
X144321579Y-28513685D01*
X144455263Y-28647369D01*
X145044414Y-28647369D01*
X144989803Y-28380000D01*
X143920526Y-28380000D01*
X143786842Y-28513685D01*
X143653158Y-28380000D01*
X143786842Y-28246316D01*
X143920526Y-28380000D01*
X144989803Y-28380000D01*
X144936564Y-28119348D01*
X143313118Y-28119348D01*
X143300279Y-28153581D01*
X143003911Y-28143672D01*
X142437783Y-27970548D01*
X142420239Y-27963829D01*
X141053175Y-27665895D01*
X139418298Y-27662472D01*
X137674264Y-27925480D01*
X135979733Y-28426840D01*
X134493362Y-29138473D01*
X134028513Y-29449018D01*
X133404176Y-29827771D01*
X132807732Y-30065601D01*
X132370945Y-30130381D01*
X132225579Y-29989987D01*
X132273732Y-29876850D01*
X132560517Y-29613049D01*
X133161862Y-29162548D01*
X133872229Y-28673666D01*
X135512485Y-27800716D01*
X137289482Y-27221419D01*
X139023901Y-26984053D01*
X139985163Y-27027893D01*
X140808367Y-27181815D01*
X141688487Y-27414009D01*
X142489802Y-27678386D01*
X143076586Y-27928861D01*
X143313118Y-28119348D01*
X144936564Y-28119348D01*
X144871485Y-27800737D01*
X144822706Y-27656066D01*
X144134534Y-27656066D01*
X144054211Y-27703391D01*
X143614823Y-27570266D01*
X143385789Y-27444211D01*
X143171782Y-27232356D01*
X143252105Y-27185031D01*
X143691492Y-27318155D01*
X143920526Y-27444211D01*
X144134534Y-27656066D01*
X144822706Y-27656066D01*
X144619942Y-27054707D01*
X142794943Y-27054707D01*
X142516745Y-27033559D01*
X141878631Y-26897692D01*
X141246482Y-26736814D01*
X139207509Y-26457697D01*
X137118077Y-26680446D01*
X135045186Y-27385250D01*
X133055835Y-28552297D01*
X131888947Y-29503731D01*
X130842257Y-30404177D01*
X129842322Y-31163539D01*
X128992012Y-31710793D01*
X128394196Y-31974919D01*
X128290000Y-31988475D01*
X128362794Y-31823111D01*
X128568187Y-31593855D01*
X127343684Y-31593855D01*
X127319829Y-31682455D01*
X127178898Y-31696332D01*
X126816839Y-31613138D01*
X126129603Y-31410527D01*
X125611448Y-31250892D01*
X123734211Y-31250892D01*
X122397368Y-31594517D01*
X121224613Y-31865276D01*
X120498047Y-31953121D01*
X120162792Y-31861887D01*
X120124737Y-31753289D01*
X120373938Y-31486506D01*
X121055738Y-31301967D01*
X122071427Y-31221434D01*
X122531053Y-31222781D01*
X123734211Y-31250892D01*
X125611448Y-31250892D01*
X125299742Y-31154861D01*
X123977992Y-30813831D01*
X122776403Y-30690154D01*
X121528421Y-30733190D01*
X120491649Y-30771617D01*
X119839728Y-30720556D01*
X119607728Y-30604797D01*
X119830719Y-30449128D01*
X120543772Y-30278339D01*
X120821318Y-30233381D01*
X122445441Y-30132273D01*
X124103786Y-30272243D01*
X125583438Y-30627200D01*
X126226724Y-30895774D01*
X126884521Y-31256122D01*
X127285883Y-31523733D01*
X127343684Y-31593855D01*
X128568187Y-31593855D01*
X128763264Y-31376114D01*
X129205117Y-30936754D01*
X128145789Y-30936754D01*
X128118108Y-31118931D01*
X127963192Y-31147719D01*
X127573228Y-30993366D01*
X126840409Y-30626118D01*
X126633096Y-30519282D01*
X124578947Y-29735977D01*
X122481816Y-29485297D01*
X120715473Y-29678836D01*
X119832781Y-29831238D01*
X119178925Y-29882738D01*
X118908274Y-29828999D01*
X119018103Y-29595845D01*
X119547178Y-29361455D01*
X120380784Y-29153418D01*
X121404208Y-28999325D01*
X122502735Y-28926764D01*
X122668630Y-28924608D01*
X123796975Y-28960098D01*
X124702974Y-29121560D01*
X125645027Y-29470556D01*
X126344946Y-29800438D01*
X127210156Y-30256994D01*
X127848076Y-30652734D01*
X128139331Y-30912334D01*
X128145789Y-30936754D01*
X129205117Y-30936754D01*
X129420623Y-30722464D01*
X129888710Y-30282602D01*
X128832069Y-30282602D01*
X128627278Y-30248104D01*
X128044079Y-29988851D01*
X127039209Y-29494564D01*
X126770365Y-29359840D01*
X124828710Y-28585917D01*
X122964570Y-28289880D01*
X121041538Y-28459531D01*
X119910829Y-28746469D01*
X118825138Y-29070804D01*
X118163751Y-29246967D01*
X117841202Y-29288274D01*
X117772027Y-29208042D01*
X117839230Y-29069254D01*
X118153587Y-28866787D01*
X118833629Y-28570273D01*
X119733951Y-28242921D01*
X119760250Y-28234148D01*
X121920003Y-27763318D01*
X124012258Y-27790405D01*
X125976888Y-28304932D01*
X127753763Y-29296422D01*
X128279474Y-29718459D01*
X128701714Y-30102627D01*
X128832069Y-30282602D01*
X129888710Y-30282602D01*
X129992856Y-30184737D01*
X130544838Y-29706166D01*
X129753989Y-29706166D01*
X129650641Y-29849897D01*
X129628188Y-29850527D01*
X129364230Y-29708661D01*
X128789650Y-29336832D01*
X128032771Y-28818262D01*
X127049697Y-28210058D01*
X126019414Y-27696657D01*
X125346013Y-27446336D01*
X123794026Y-27211813D01*
X121987154Y-27259072D01*
X120113572Y-27570499D01*
X118451565Y-28091655D01*
X117503880Y-28439486D01*
X116710629Y-28669830D01*
X116233913Y-28736146D01*
X116216409Y-28733407D01*
X116268787Y-28608834D01*
X116739398Y-28337212D01*
X117546360Y-27960779D01*
X118424318Y-27594447D01*
X119745990Y-27090305D01*
X120766738Y-26774700D01*
X121668433Y-26606276D01*
X122632947Y-26543677D01*
X123065789Y-26539017D01*
X124327888Y-26584198D01*
X125276252Y-26750980D01*
X126125812Y-27080626D01*
X126274211Y-27154977D01*
X127237154Y-27695867D01*
X128146368Y-28285536D01*
X128922088Y-28859880D01*
X129484550Y-29354792D01*
X129753989Y-29706166D01*
X130544838Y-29706166D01*
X131779681Y-28635554D01*
X130734948Y-28635554D01*
X130708463Y-28744366D01*
X130424935Y-29009419D01*
X130026241Y-28935344D01*
X129401608Y-28494287D01*
X129266006Y-28381669D01*
X128529994Y-27829403D01*
X127626969Y-27237851D01*
X127307071Y-27048047D01*
X126666811Y-26656478D01*
X126468052Y-26449610D01*
X126670731Y-26379680D01*
X126745019Y-26377958D01*
X127450880Y-26497777D01*
X128300498Y-26815768D01*
X129173793Y-27260235D01*
X129950686Y-27759485D01*
X130511097Y-28241823D01*
X130734948Y-28635554D01*
X131779681Y-28635554D01*
X131872324Y-28555233D01*
X133033574Y-27713256D01*
X131888947Y-27713256D01*
X131770539Y-27946528D01*
X131378058Y-27885475D01*
X130655615Y-27513383D01*
X130119366Y-27184055D01*
X129216253Y-26664094D01*
X128322746Y-26231760D01*
X127943647Y-26084775D01*
X127359623Y-25861323D01*
X127213884Y-25662277D01*
X127428213Y-25373586D01*
X127444618Y-25357111D01*
X127778656Y-25098426D01*
X128146534Y-25102836D01*
X128742105Y-25358228D01*
X129535570Y-25798622D01*
X130373382Y-26348793D01*
X131129145Y-26914147D01*
X131676462Y-27400092D01*
X131888938Y-27712037D01*
X131888947Y-27713256D01*
X133033574Y-27713256D01*
X133543612Y-27343448D01*
X134293553Y-26939437D01*
X132806219Y-26939437D01*
X132664350Y-27111047D01*
X132462355Y-27120899D01*
X132096514Y-26922062D01*
X131463111Y-26467603D01*
X131008528Y-26125974D01*
X130155460Y-25524493D01*
X129356796Y-25031772D01*
X128881053Y-24795749D01*
X128284236Y-24451031D01*
X128175717Y-24083917D01*
X128421957Y-23829299D01*
X128804588Y-23857664D01*
X129455532Y-24150493D01*
X130262467Y-24628106D01*
X131113072Y-25210823D01*
X131895025Y-25818964D01*
X132496004Y-26372849D01*
X132803687Y-26792800D01*
X132806219Y-26939437D01*
X134293553Y-26939437D01*
X135082861Y-26514219D01*
X136197574Y-26152127D01*
X134104953Y-26152127D01*
X134103463Y-26210046D01*
X133854937Y-26348173D01*
X133506490Y-26273128D01*
X132965573Y-25939017D01*
X132139637Y-25299946D01*
X131937757Y-25136107D01*
X131045843Y-24449816D01*
X130182312Y-23852742D01*
X129549474Y-23482377D01*
X129042561Y-23116591D01*
X128716052Y-22665980D01*
X128667594Y-22424826D01*
X128066069Y-22424826D01*
X127767614Y-23527811D01*
X127225378Y-24568595D01*
X126805393Y-25082583D01*
X125978653Y-25641383D01*
X125068262Y-25851291D01*
X124201898Y-25739632D01*
X124019995Y-25633343D01*
X122948362Y-25633343D01*
X122694694Y-25794552D01*
X122372325Y-25875209D01*
X121422646Y-26047821D01*
X120957606Y-26050543D01*
X120985734Y-25886087D01*
X121461579Y-25585689D01*
X122157000Y-25281949D01*
X122601377Y-25289654D01*
X122773378Y-25396370D01*
X122948362Y-25633343D01*
X124019995Y-25633343D01*
X123507241Y-25333733D01*
X123111972Y-24660919D01*
X123065789Y-24282246D01*
X123144466Y-23940997D01*
X122531053Y-23940997D01*
X122302057Y-24444028D01*
X121978760Y-24642414D01*
X121492522Y-24875786D01*
X120728650Y-25326411D01*
X119844721Y-25900842D01*
X119764490Y-25955539D01*
X118618716Y-26715655D01*
X117808358Y-27202761D01*
X117355140Y-27409857D01*
X117280786Y-27329943D01*
X117607018Y-26956020D01*
X118119474Y-26485591D01*
X119240634Y-25562528D01*
X120434685Y-24678001D01*
X121515673Y-23966443D01*
X121929474Y-23731215D01*
X122371945Y-23552333D01*
X122520250Y-23723300D01*
X122531053Y-23940997D01*
X123144466Y-23940997D01*
X123227272Y-23581844D01*
X123629325Y-23031538D01*
X124148358Y-22698232D01*
X124660779Y-22648828D01*
X125042998Y-22950230D01*
X125127267Y-23166316D01*
X125366371Y-23636766D01*
X125719112Y-23588482D01*
X125993424Y-23316169D01*
X126265681Y-22613786D01*
X126138620Y-22014459D01*
X125724881Y-22014459D01*
X125565342Y-22223468D01*
X124966550Y-22196258D01*
X124102370Y-22210088D01*
X123002069Y-22562688D01*
X121640817Y-23268084D01*
X119993786Y-24340303D01*
X118036147Y-25793372D01*
X116656355Y-26891023D01*
X115590157Y-27739714D01*
X114879050Y-28257557D01*
X114478435Y-28468939D01*
X114343714Y-28398249D01*
X114410913Y-28118886D01*
X114698721Y-27750869D01*
X115281932Y-27216307D01*
X115806206Y-26802958D01*
X116620207Y-26182871D01*
X117647937Y-25376079D01*
X118692041Y-24537866D01*
X118885356Y-24380202D01*
X119873916Y-23610714D01*
X120861378Y-22907164D01*
X121669113Y-22395304D01*
X121826409Y-22309770D01*
X122902646Y-21849736D01*
X123951330Y-21560113D01*
X124827709Y-21468872D01*
X125387031Y-21603987D01*
X125405263Y-21618164D01*
X125724881Y-22014459D01*
X126138620Y-22014459D01*
X126097091Y-21818574D01*
X125530309Y-21066105D01*
X125204737Y-20809544D01*
X125142193Y-20772693D01*
X124001579Y-20772693D01*
X122458916Y-21407072D01*
X121606039Y-21787214D01*
X120810522Y-22221437D01*
X119968049Y-22780888D01*
X118974301Y-23536714D01*
X117724960Y-24560062D01*
X117246926Y-24961750D01*
X116457103Y-25614229D01*
X115828919Y-26107198D01*
X115467996Y-26358649D01*
X115427074Y-26374737D01*
X115450185Y-26175089D01*
X115692586Y-25682347D01*
X115764743Y-25557303D01*
X116537764Y-24500084D01*
X117593588Y-23382295D01*
X118766266Y-22357933D01*
X119889845Y-21580997D01*
X120257383Y-21388246D01*
X121436943Y-20971119D01*
X122601192Y-20774456D01*
X122798421Y-20768958D01*
X124001579Y-20772693D01*
X125142193Y-20772693D01*
X124612711Y-20460722D01*
X124027350Y-20288661D01*
X123250218Y-20255892D01*
X122484217Y-20295883D01*
X121050929Y-20510903D01*
X119775395Y-20987854D01*
X118528140Y-21794803D01*
X117179689Y-22999816D01*
X117000744Y-23178618D01*
X115584081Y-24900421D01*
X114409520Y-26900728D01*
X113707170Y-28647369D01*
X113354836Y-29495393D01*
X112911887Y-30216761D01*
X112827242Y-30317367D01*
X112445376Y-30835061D01*
X112452209Y-31064556D01*
X112778139Y-30993158D01*
X113353562Y-30608176D01*
X113543607Y-30447999D01*
X114755635Y-29681589D01*
X116008675Y-29408366D01*
X117220270Y-29601230D01*
X118307963Y-30233080D01*
X119189295Y-31276818D01*
X119717472Y-32477079D01*
X119756932Y-33395800D01*
X119385958Y-34208282D01*
X118721046Y-34803173D01*
X117878693Y-35069119D01*
X117122040Y-34957916D01*
X116518221Y-34544376D01*
X116503512Y-34515315D01*
X115749228Y-34515315D01*
X115667093Y-34781166D01*
X115289632Y-35061230D01*
X114777368Y-35229540D01*
X114097977Y-35349511D01*
X113667250Y-35425463D01*
X113641053Y-35430067D01*
X113462381Y-35248527D01*
X113440526Y-35076326D01*
X113675705Y-34790584D01*
X114254302Y-34539885D01*
X114985913Y-34390481D01*
X115445789Y-34378574D01*
X115749228Y-34515315D01*
X116503512Y-34515315D01*
X116235208Y-33985241D01*
X116255926Y-33424578D01*
X116563303Y-33006457D01*
X117140263Y-32874945D01*
X117364371Y-32913169D01*
X117838223Y-32942044D01*
X117983655Y-32629689D01*
X117985789Y-32544466D01*
X117849332Y-32209620D01*
X117150007Y-32209620D01*
X116979008Y-32256842D01*
X116608272Y-32430504D01*
X116053867Y-32865582D01*
X115846842Y-33058948D01*
X115224124Y-33541309D01*
X114611579Y-33823463D01*
X114148867Y-33862595D01*
X113975263Y-33632726D01*
X114141460Y-33300881D01*
X114548768Y-32787004D01*
X114620896Y-32707750D01*
X115341703Y-32127785D01*
X116107092Y-31813280D01*
X116755464Y-31815556D01*
X116989365Y-31955576D01*
X117150007Y-32209620D01*
X117849332Y-32209620D01*
X117752714Y-31972535D01*
X117180414Y-31475970D01*
X116459283Y-31203967D01*
X116255246Y-31188368D01*
X115347948Y-31431056D01*
X114441766Y-32084201D01*
X113670322Y-33040198D01*
X113444443Y-33451910D01*
X113134958Y-34176668D01*
X112970040Y-34863802D01*
X112923534Y-35702514D01*
X112969285Y-36882004D01*
X112969578Y-36886983D01*
X113214325Y-38856932D01*
X113739805Y-40680478D01*
X114603495Y-42515859D01*
X115604053Y-44140169D01*
X116197576Y-45082055D01*
X116651290Y-45905816D01*
X116894117Y-46478059D01*
X116916316Y-46602937D01*
X117038733Y-47147786D01*
X117343774Y-47890142D01*
X117456945Y-48112405D01*
X117997574Y-49121101D01*
X117335299Y-48687163D01*
X116846640Y-48272872D01*
X116163780Y-47576827D01*
X115422148Y-46738328D01*
X115311028Y-46605033D01*
X113611296Y-44200967D01*
X112378251Y-41643632D01*
X111591334Y-38872642D01*
X111229986Y-35827607D01*
X111199987Y-34529474D01*
X111410443Y-31289022D01*
X112038080Y-28372824D01*
X113088751Y-25763441D01*
X114568309Y-23443439D01*
X115161160Y-22727599D01*
X116685558Y-21252062D01*
X118384098Y-20044671D01*
X120168742Y-19139368D01*
X121951449Y-18570097D01*
X123644179Y-18370801D01*
X125158893Y-18575423D01*
X125560019Y-18718382D01*
X126465447Y-19289911D01*
X127304767Y-20139626D01*
X127902651Y-21073333D01*
X128047247Y-21473250D01*
X128066069Y-22424826D01*
X128667594Y-22424826D01*
X128637973Y-22277422D01*
X128876348Y-22097797D01*
X128907779Y-22096842D01*
X129274384Y-22248830D01*
X129913767Y-22654150D01*
X130729974Y-23236839D01*
X131627049Y-23920936D01*
X132509039Y-24630476D01*
X133279989Y-25289496D01*
X133843946Y-25822034D01*
X134104953Y-26152127D01*
X136197574Y-26152127D01*
X136566214Y-26032382D01*
X138069814Y-25862771D01*
X139234097Y-25916951D01*
X139982085Y-26041846D01*
X140847361Y-26253577D01*
X141691709Y-26507982D01*
X142376914Y-26760898D01*
X142764761Y-26968164D01*
X142794943Y-27054707D01*
X144619942Y-27054707D01*
X144476358Y-26628865D01*
X143886934Y-26628865D01*
X143786001Y-26784669D01*
X143299304Y-26614913D01*
X143273266Y-26603098D01*
X142822138Y-26254021D01*
X142767134Y-25940409D01*
X143055767Y-25597708D01*
X143419507Y-25760637D01*
X143643751Y-26089792D01*
X143886934Y-26628865D01*
X144476358Y-26628865D01*
X144388453Y-26368159D01*
X144242048Y-26032071D01*
X143632876Y-24964002D01*
X142735501Y-24964002D01*
X142438464Y-25475612D01*
X141963241Y-25806195D01*
X141762765Y-25840000D01*
X141391637Y-25757787D01*
X141453130Y-25421695D01*
X141490206Y-25350116D01*
X141921662Y-24739399D01*
X142360276Y-24410262D01*
X142681582Y-24451313D01*
X142705930Y-24484650D01*
X142735501Y-24964002D01*
X143632876Y-24964002D01*
X143476826Y-24690399D01*
X142794451Y-23788212D01*
X141874188Y-23788212D01*
X141479578Y-24479885D01*
X141379650Y-24614226D01*
X140794662Y-25301060D01*
X140393768Y-25553088D01*
X140110369Y-25407835D01*
X140071962Y-25351018D01*
X140122290Y-25012034D01*
X140443863Y-24502681D01*
X140909033Y-23963787D01*
X141390150Y-23536179D01*
X141759568Y-23360684D01*
X141847268Y-23392426D01*
X141874188Y-23788212D01*
X142794451Y-23788212D01*
X142438914Y-23318148D01*
X141672337Y-22500857D01*
X140984266Y-22500857D01*
X140983579Y-22781921D01*
X140661272Y-23330474D01*
X140315845Y-23767920D01*
X139791128Y-24418473D01*
X139449698Y-24913814D01*
X139375263Y-25086021D01*
X139158025Y-25280722D01*
X138974211Y-25305263D01*
X138618104Y-25182227D01*
X138573158Y-25078011D01*
X138725494Y-24729290D01*
X139103638Y-24135199D01*
X139589290Y-23459681D01*
X140064151Y-22866676D01*
X140409923Y-22520124D01*
X140427077Y-22508809D01*
X140883594Y-22456771D01*
X140984266Y-22500857D01*
X141672337Y-22500857D01*
X141258903Y-22060073D01*
X141166569Y-21982646D01*
X139906709Y-21982646D01*
X139570359Y-22570058D01*
X139389236Y-22790198D01*
X138781006Y-23558515D01*
X138267443Y-24331376D01*
X138170239Y-24506767D01*
X137781025Y-25052421D01*
X137390838Y-25303430D01*
X137363134Y-25305263D01*
X137010814Y-25249973D01*
X136968947Y-25205255D01*
X137113374Y-24821701D01*
X137479225Y-24169271D01*
X137573514Y-24021146D01*
X136709538Y-24021146D01*
X136601723Y-24643539D01*
X136424804Y-25055472D01*
X136065127Y-25513316D01*
X135788837Y-25462676D01*
X135643351Y-24928591D01*
X135638040Y-24790810D01*
X135097368Y-24790810D01*
X135073682Y-25450261D01*
X134955055Y-25678000D01*
X134670135Y-25576528D01*
X134586124Y-25525254D01*
X134162141Y-25038807D01*
X133915846Y-24410810D01*
X133873697Y-24075850D01*
X133147572Y-24075850D01*
X132908898Y-24214257D01*
X132513721Y-23901878D01*
X132322409Y-23634211D01*
X132000023Y-22943363D01*
X131895094Y-22592207D01*
X131327545Y-22592207D01*
X131154829Y-22710802D01*
X130706971Y-22487114D01*
X130685789Y-22473309D01*
X130208878Y-22089192D01*
X130017368Y-21797413D01*
X129908827Y-21442847D01*
X129813803Y-21216577D01*
X129197880Y-21216577D01*
X129080168Y-21529051D01*
X128941277Y-21562106D01*
X128661210Y-21339454D01*
X128389531Y-20826842D01*
X128011772Y-20128995D01*
X127458878Y-19403041D01*
X127393517Y-19332169D01*
X126675263Y-18572760D01*
X127336457Y-18663748D01*
X127808357Y-18896317D01*
X128298564Y-19390902D01*
X128738963Y-20024485D01*
X129061440Y-20674050D01*
X129197880Y-21216577D01*
X129813803Y-21216577D01*
X129628509Y-20775358D01*
X129348947Y-20173914D01*
X128919076Y-19246324D01*
X128725506Y-18696259D01*
X128751532Y-18430149D01*
X128980445Y-18354425D01*
X129023932Y-18353685D01*
X129406573Y-18593143D01*
X129903041Y-19255078D01*
X130457592Y-20254827D01*
X130871377Y-21159510D01*
X131231076Y-22089165D01*
X131327545Y-22592207D01*
X131895094Y-22592207D01*
X131752011Y-22113367D01*
X131748566Y-22096842D01*
X131507851Y-21289765D01*
X131120317Y-20322758D01*
X130920215Y-19899941D01*
X130511595Y-19069296D01*
X130332646Y-18606142D01*
X130366373Y-18403523D01*
X130595780Y-18354485D01*
X130674519Y-18353685D01*
X131124352Y-18599932D01*
X131629746Y-19273901D01*
X132144074Y-20278432D01*
X132620710Y-21516363D01*
X133013026Y-22890534D01*
X133144459Y-23500527D01*
X133147572Y-24075850D01*
X133873697Y-24075850D01*
X133830818Y-23735102D01*
X133986457Y-23473205D01*
X134450824Y-23532818D01*
X134542483Y-23560974D01*
X134920870Y-23805768D01*
X135078418Y-24322210D01*
X135097368Y-24790810D01*
X135638040Y-24790810D01*
X135632105Y-24636842D01*
X135660233Y-24017902D01*
X135729384Y-23708985D01*
X135743922Y-23701053D01*
X136058209Y-23617878D01*
X136278659Y-23538763D01*
X136597129Y-23603891D01*
X136709538Y-24021146D01*
X137573514Y-24021146D01*
X137965356Y-23405579D01*
X138456549Y-22708219D01*
X137727954Y-22708219D01*
X137662900Y-22857637D01*
X137393688Y-23144669D01*
X137238918Y-23085789D01*
X137236316Y-23048411D01*
X137426222Y-22822267D01*
X137544995Y-22739732D01*
X137727954Y-22708219D01*
X138456549Y-22708219D01*
X138470623Y-22688239D01*
X138893882Y-22174866D01*
X138947701Y-22121747D01*
X139546298Y-21684183D01*
X139882328Y-21662585D01*
X139906709Y-21982646D01*
X141166569Y-21982646D01*
X140253275Y-21216806D01*
X138731757Y-21216806D01*
X138695424Y-21313212D01*
X138437318Y-21550288D01*
X138311019Y-21280265D01*
X138305789Y-21145274D01*
X138437336Y-20869897D01*
X138577519Y-20896380D01*
X138731757Y-21216806D01*
X140253275Y-21216806D01*
X140067383Y-21060927D01*
X139366936Y-20628209D01*
X138551969Y-20090406D01*
X137788674Y-19403067D01*
X137715077Y-19321084D01*
X137230413Y-18865749D01*
X136998454Y-18843274D01*
X137053287Y-19198513D01*
X137399474Y-19831670D01*
X137688952Y-20716738D01*
X137467416Y-21660701D01*
X136804748Y-22552717D01*
X136204885Y-23018852D01*
X135562186Y-23121677D01*
X135178249Y-23075856D01*
X134221522Y-22772101D01*
X133556802Y-22274335D01*
X133247013Y-21676170D01*
X133355082Y-21071218D01*
X133623437Y-20762826D01*
X134155557Y-20560327D01*
X134629978Y-20717313D01*
X134830000Y-21152662D01*
X134996363Y-21504125D01*
X135374756Y-21514255D01*
X135784137Y-21204263D01*
X135899474Y-21027369D01*
X136038661Y-20304734D01*
X135990292Y-20207868D01*
X135314377Y-20207868D01*
X135229055Y-20343824D01*
X134773248Y-20117078D01*
X134727451Y-20087394D01*
X134667939Y-20038956D01*
X133586781Y-20038956D01*
X133568365Y-20060934D01*
X133127898Y-20209753D01*
X132642484Y-19834602D01*
X132369278Y-19421468D01*
X132085176Y-18884373D01*
X132082517Y-18664660D01*
X132367666Y-18621151D01*
X132405370Y-18621053D01*
X132832947Y-18797963D01*
X133267458Y-19210972D01*
X133566278Y-19683497D01*
X133586781Y-20038956D01*
X134667939Y-20038956D01*
X134236462Y-19687774D01*
X134027956Y-19363408D01*
X134027895Y-19359797D01*
X134191878Y-19279287D01*
X134569919Y-19457329D01*
X134991156Y-19781289D01*
X135284728Y-20138531D01*
X135314377Y-20207868D01*
X135990292Y-20207868D01*
X135703519Y-19633569D01*
X134953744Y-19037781D01*
X133849032Y-18541275D01*
X132449081Y-18167956D01*
X130813585Y-17941730D01*
X129002243Y-17886502D01*
X128148830Y-17923598D01*
X126810349Y-17970745D01*
X125408739Y-17953675D01*
X124227697Y-17876468D01*
X124135263Y-17865911D01*
X122397368Y-17656906D01*
X123867895Y-17192349D01*
X126768873Y-16537129D01*
X129752105Y-16348730D01*
X132736179Y-16608375D01*
X135639682Y-17297291D01*
X138381203Y-18396701D01*
X140879329Y-19887831D01*
X142880009Y-21576870D01*
X144367645Y-23307882D01*
X145551097Y-25190963D01*
X146405610Y-27143846D01*
X146906434Y-29084266D01*
X147028816Y-30929959D01*
X147644989Y-30929959D01*
X147830796Y-29716842D01*
X148190197Y-32123158D01*
X148370002Y-34301976D01*
X148893489Y-34301976D01*
X148819728Y-32645229D01*
X148477608Y-30493468D01*
X148311747Y-29865379D01*
X147850307Y-28593732D01*
X147175844Y-27088045D01*
X146370641Y-25503763D01*
X145516980Y-23996331D01*
X144697146Y-22721193D01*
X144154036Y-22010873D01*
X142837204Y-20715649D01*
X141166905Y-19425668D01*
X139312463Y-18258581D01*
X137443200Y-17332043D01*
X137385938Y-17308058D01*
X134846643Y-16462896D01*
X132168176Y-15953189D01*
X129456539Y-15777305D01*
X126817733Y-15933610D01*
D12*
X59011904Y-53002380D02*
X59011904Y-52002380D01*
X59011904Y-52478571D02*
X58440476Y-52478571D01*
X58440476Y-53002380D02*
X58440476Y-52002380D01*
X57535714Y-52002380D02*
X57726190Y-52002380D01*
X57821428Y-52050000D01*
X57869047Y-52097619D01*
X57964285Y-52240476D01*
X58011904Y-52430952D01*
X58011904Y-52811904D01*
X57964285Y-52907142D01*
X57916666Y-52954761D01*
X57821428Y-53002380D01*
X57630952Y-53002380D01*
X57535714Y-52954761D01*
X57488095Y-52907142D01*
X57440476Y-52811904D01*
X57440476Y-52573809D01*
X57488095Y-52478571D01*
X57535714Y-52430952D01*
X57630952Y-52383333D01*
X57821428Y-52383333D01*
X57916666Y-52430952D01*
X57964285Y-52478571D01*
X58011904Y-52573809D01*
X78011904Y-33002380D02*
X78011904Y-32002380D01*
X78011904Y-32478571D02*
X77440476Y-32478571D01*
X77440476Y-33002380D02*
X77440476Y-32002380D01*
X76488095Y-32002380D02*
X76964285Y-32002380D01*
X77011904Y-32478571D01*
X76964285Y-32430952D01*
X76869047Y-32383333D01*
X76630952Y-32383333D01*
X76535714Y-32430952D01*
X76488095Y-32478571D01*
X76440476Y-32573809D01*
X76440476Y-32811904D01*
X76488095Y-32907142D01*
X76535714Y-32954761D01*
X76630952Y-33002380D01*
X76869047Y-33002380D01*
X76964285Y-32954761D01*
X77011904Y-32907142D01*
X59011904Y-15002380D02*
X59011904Y-14002380D01*
X59011904Y-14478571D02*
X58440476Y-14478571D01*
X58440476Y-15002380D02*
X58440476Y-14002380D01*
X57535714Y-14335714D02*
X57535714Y-15002380D01*
X57773809Y-13954761D02*
X58011904Y-14669047D01*
X57392857Y-14669047D01*
X183011904Y-33002380D02*
X183011904Y-32002380D01*
X183011904Y-32478571D02*
X182440476Y-32478571D01*
X182440476Y-33002380D02*
X182440476Y-32002380D01*
X182059523Y-32002380D02*
X181440476Y-32002380D01*
X181773809Y-32383333D01*
X181630952Y-32383333D01*
X181535714Y-32430952D01*
X181488095Y-32478571D01*
X181440476Y-32573809D01*
X181440476Y-32811904D01*
X181488095Y-32907142D01*
X181535714Y-32954761D01*
X181630952Y-33002380D01*
X181916666Y-33002380D01*
X182011904Y-32954761D01*
X182059523Y-32907142D01*
X202011904Y-53002380D02*
X202011904Y-52002380D01*
X202011904Y-52478571D02*
X201440476Y-52478571D01*
X201440476Y-53002380D02*
X201440476Y-52002380D01*
X201011904Y-52097619D02*
X200964285Y-52050000D01*
X200869047Y-52002380D01*
X200630952Y-52002380D01*
X200535714Y-52050000D01*
X200488095Y-52097619D01*
X200440476Y-52192857D01*
X200440476Y-52288095D01*
X200488095Y-52430952D01*
X201059523Y-53002380D01*
X200440476Y-53002380D01*
X202011904Y-15002380D02*
X202011904Y-14002380D01*
X202011904Y-14478571D02*
X201440476Y-14478571D01*
X201440476Y-15002380D02*
X201440476Y-14002380D01*
X200440476Y-15002380D02*
X201011904Y-15002380D01*
X200726190Y-15002380D02*
X200726190Y-14002380D01*
X200821428Y-14145238D01*
X200916666Y-14240476D01*
X201011904Y-14288095D01*
M02*
