G04 #@! TF.GenerationSoftware,KiCad,Pcbnew,5.1.9*
G04 #@! TF.CreationDate,2021-01-24T20:38:43+01:00*
G04 #@! TF.ProjectId,Shoto,53686f74-6f2e-46b6-9963-61645f706362,rev?*
G04 #@! TF.SameCoordinates,Original*
G04 #@! TF.FileFunction,Profile,NP*
%FSLAX46Y46*%
G04 Gerber Fmt 4.6, Leading zero omitted, Abs format (unit mm)*
G04 Created by KiCad (PCBNEW 5.1.9) date 2021-01-24 20:38:43*
%MOMM*%
%LPD*%
G01*
G04 APERTURE LIST*
G04 #@! TA.AperFunction,Profile*
%ADD10C,0.050000*%
G04 #@! TD*
G04 APERTURE END LIST*
D10*
X174302000Y-28918200D02*
X174302000Y-31120000D01*
X167698000Y-28918200D02*
X167698000Y-31120000D01*
X279615799Y-89592000D02*
X278115800Y-89592000D01*
X280702713Y-83985673D02*
G75*
G03*
X278115800Y-89592000I-2586913J-2206327D01*
G01*
X43390801Y-89592000D02*
X44890800Y-89592000D01*
X42298767Y-83991690D02*
G75*
G02*
X44890800Y-89592000I2592033J-2200310D01*
G01*
X29922800Y-66998000D02*
X32640800Y-66998000D01*
X33656800Y-65982000D02*
G75*
G02*
X32640800Y-66998000I-1016000J0D01*
G01*
X293106800Y-66999160D02*
X290359200Y-66999160D01*
X290359200Y-66999160D02*
G75*
G02*
X289343200Y-65983160I0J1016000D01*
G01*
X167698000Y-28918200D02*
X82764000Y-28916000D01*
X262698000Y-28918200D02*
X174302000Y-28918200D01*
X283576800Y-28918200D02*
X269302000Y-28918200D01*
X284593200Y-46992000D02*
X284592800Y-29934200D01*
X289343200Y-65983160D02*
X289343200Y-49024000D01*
X294122800Y-82988536D02*
X294122800Y-68015160D01*
X280702713Y-83985673D02*
X293122800Y-83988536D01*
X279620200Y-103077200D02*
X279615799Y-89592000D01*
X212304000Y-104081800D02*
X278604200Y-104093200D01*
X115530000Y-104081800D02*
X205700000Y-104081800D01*
X44406800Y-104093200D02*
X108926000Y-104081800D01*
X43390801Y-89592000D02*
X43390800Y-103077200D01*
X29922800Y-83988536D02*
X42298767Y-83991690D01*
X28918334Y-68014000D02*
X28906800Y-82972536D01*
X33656800Y-49024400D02*
X33656800Y-65982000D01*
X38406800Y-29932000D02*
X38406800Y-46992400D01*
X53698000Y-28916000D02*
X39422800Y-28916000D01*
X69048000Y-28916000D02*
X60302000Y-28916000D01*
X283576800Y-28918200D02*
G75*
G02*
X284592800Y-29934200I0J-1016000D01*
G01*
X285609200Y-48008000D02*
G75*
G02*
X284593200Y-46992000I0J1016000D01*
G01*
X288327200Y-48008000D02*
G75*
G02*
X289343200Y-49024000I0J-1016000D01*
G01*
X293106800Y-66999160D02*
G75*
G02*
X294122800Y-68015160I0J-1016000D01*
G01*
X294122800Y-82988536D02*
G75*
G02*
X293122800Y-83988536I-1000000J0D01*
G01*
X279620200Y-103077200D02*
G75*
G02*
X278604200Y-104093200I-1016000J0D01*
G01*
X44406800Y-104093200D02*
G75*
G02*
X43390800Y-103077200I0J1016000D01*
G01*
X29922800Y-83988536D02*
G75*
G02*
X28906800Y-82972536I0J1016000D01*
G01*
X28918334Y-68014000D02*
G75*
G02*
X29922800Y-66998000I1016066J0D01*
G01*
X37390800Y-48008400D02*
X34672800Y-48008400D01*
X33656800Y-49024400D02*
G75*
G02*
X34672800Y-48008400I1016000J0D01*
G01*
X38406800Y-46992400D02*
G75*
G02*
X37390800Y-48008400I-1016000J0D01*
G01*
X38406800Y-29932000D02*
G75*
G02*
X39422800Y-28916000I1016000J0D01*
G01*
X285609200Y-48008000D02*
X288327200Y-48008000D01*
X108926000Y-102380000D02*
X108926000Y-104081800D01*
X115530000Y-102380000D02*
X115530000Y-104081800D01*
X205700000Y-102380000D02*
X205700000Y-104081800D01*
X212304000Y-102380000D02*
X212304000Y-104081800D01*
X269302000Y-31120000D02*
X269302000Y-28918200D01*
X262698000Y-31120000D02*
X262698000Y-28918200D01*
X174302000Y-31120000D02*
G75*
G02*
X167698000Y-31120000I-3302000J0D01*
G01*
X269302000Y-31120000D02*
G75*
G02*
X262698000Y-31120000I-3302000J0D01*
G01*
X108926000Y-102380000D02*
G75*
G02*
X115530000Y-102380000I3302000J0D01*
G01*
X205700000Y-102380000D02*
G75*
G02*
X212304000Y-102380000I3302000J0D01*
G01*
X60302000Y-31120000D02*
X60302000Y-28916000D01*
X53698000Y-31120000D02*
X53698000Y-28916000D01*
X60302000Y-31120000D02*
G75*
G02*
X53698000Y-31120000I-3302000J0D01*
G01*
X81494000Y-25106000D02*
X81494000Y-27646000D01*
X70318000Y-25106000D02*
X81494000Y-25106000D01*
X70318000Y-27646000D02*
X70318000Y-25106000D01*
X82764000Y-28916000D02*
G75*
G02*
X81494000Y-27646000I0J1270000D01*
G01*
X70318000Y-27646000D02*
G75*
G02*
X69048000Y-28916000I-1270000J0D01*
G01*
M02*
