M48
; DRILL file {KiCad 5.1.9} date Tue Jan 26 11:46:53 2021
; FORMAT={-:-/ absolute / inch / decimal}
; #@! TF.CreationDate,2021-01-26T11:46:53+01:00
; #@! TF.GenerationSoftware,Kicad,Pcbnew,5.1.9
; #@! TF.FileFunction,NonPlated,1,2,NPTH
FMAT,2
INCH
T1C0.0256
T2C0.0669
T3C0.0866
T4C0.1161
T5C0.1200
T6C0.1567
T7C0.1570
%
G90
G05
T1
X8.3647Y0.0579
X8.5922Y0.0579
T2
X0.0461Y-1.7618
X0.2331Y-1.0138
X0.4201Y-0.2657
X0.4461Y-1.7618
X0.6331Y-1.0138
X0.7005Y-2.5098
X0.7941Y-1.7618
X0.8201Y-0.2657
X0.9811Y-1.0138
X1.1005Y-2.5098
X1.1681Y-0.2657
X1.1941Y-1.7618
X1.3811Y-1.0138
X1.5421Y-1.7618
X1.5681Y-0.2657
X1.6356Y-2.5098
X1.7291Y-1.0138
X1.9161Y-0.2657
X1.9421Y-1.7618
X2.0356Y-2.5098
X2.1291Y-1.0138
X2.2902Y-1.7618
X2.3161Y-0.2657
X2.4772Y-1.0138
X2.5706Y-2.5098
X2.6642Y-0.2657
X2.6902Y-1.7618
X2.8772Y-1.0138
X2.9706Y-2.5098
X3.0382Y-1.7618
X3.0642Y-0.2657
X3.2252Y-1.0138
X3.4122Y-0.2657
X3.4382Y-1.7618
X3.6252Y-1.0138
X3.7862Y-1.7618
X3.8122Y-0.2657
X3.9732Y-1.0138
X4.0667Y-2.5098
X4.1602Y-0.2657
X4.1862Y-1.7618
X4.3732Y-1.0138
X4.4667Y-2.5098
X4.5343Y-1.7618
X4.5602Y-0.2657
X4.9083Y-0.2657
X4.9083Y-1.0138
X4.9343Y-1.7618
X5.2823Y-1.7618
X5.3083Y-0.2657
X5.3083Y-1.0138
X5.6563Y-0.2657
X5.6823Y-1.7618
X5.8433Y-1.0138
X5.9367Y-2.5098
X6.0303Y-1.7618
X6.0563Y-0.2657
X6.2433Y-1.0138
X6.3367Y-2.5098
X6.4043Y-0.2657
X6.4303Y-1.7618
X6.5913Y-1.0138
X6.7783Y-1.7618
X6.8043Y-0.2657
X6.9913Y-1.0138
X7.1524Y-0.2657
X7.1783Y-1.7618
X7.2458Y-2.5098
X7.3394Y-1.0138
X7.5264Y-1.7618
X7.5524Y-0.2657
X7.6458Y-2.5098
X7.7394Y-1.0138
X7.9004Y-0.2657
X7.9264Y-1.7618
X8.0874Y-1.0138
X8.1808Y-2.5098
X8.2744Y-1.7618
X8.3004Y-0.2657
X8.4874Y-1.0138
X8.5808Y-2.5098
X8.6484Y-0.2657
X8.6744Y-1.7618
X8.8354Y-1.0138
X9.0224Y-1.7618
X9.0484Y-0.2657
X9.1159Y-2.5098
X9.2354Y-1.0138
X9.3965Y-0.2657
X9.4224Y-1.7618
X9.5159Y-2.5098
X9.5835Y-1.0138
X9.7705Y-1.7618
X9.7965Y-0.2657
X9.9835Y-1.0138
X10.1705Y-1.7618
T3
X2.2933Y-0.6988
X2.2933Y-2.1949
X3.0413Y-1.4075
X7.1752Y-1.4075
X7.9232Y-0.6988
X7.9232Y-2.1949
T4
X0.0961Y-1.8618
X0.2831Y-1.1138
X0.3461Y-1.9618
X0.4701Y-0.3657
X0.5331Y-1.2138
X0.7201Y-0.4657
X0.7505Y-2.6098
X0.8441Y-1.8618
X1.0005Y-2.7098
X1.0311Y-1.1138
X1.0941Y-1.9618
X1.2181Y-0.3657
X1.2811Y-1.2138
X1.4681Y-0.4657
X1.5921Y-1.8618
X1.6856Y-2.6098
X1.7791Y-1.1138
X1.8421Y-1.9618
X1.9356Y-2.7098
X1.9661Y-0.3657
X2.0291Y-1.2138
X2.2161Y-0.4657
X2.3402Y-1.8618
X2.5272Y-1.1138
X2.5902Y-1.9618
X2.6206Y-2.6098
X2.7142Y-0.3657
X2.7772Y-1.2138
X2.8706Y-2.7098
X2.9642Y-0.4657
X3.0882Y-1.8618
X3.2752Y-1.1138
X3.3382Y-1.9618
X3.4622Y-0.3657
X3.5252Y-1.2138
X3.7122Y-0.4657
X3.8362Y-1.8618
X4.0232Y-1.1138
X4.0862Y-1.9618
X4.1667Y-2.3098
X4.2102Y-0.3657
X4.2732Y-1.2138
X4.4167Y-2.4098
X4.4602Y-0.4657
X4.5843Y-1.8618
X4.8343Y-1.9618
X4.9583Y-0.3657
X4.9583Y-1.1138
X5.2083Y-0.4657
X5.2083Y-1.2138
X5.3323Y-1.8618
X5.5823Y-1.9618
X5.7063Y-0.3657
X5.8933Y-1.1138
X5.9563Y-0.4657
X6.0367Y-2.3098
X6.0803Y-1.8618
X6.1433Y-1.2138
X6.2867Y-2.4098
X6.3303Y-1.9618
X6.4543Y-0.3657
X6.6413Y-1.1138
X6.7043Y-0.4657
X6.8283Y-1.8618
X6.8913Y-1.2138
X7.0783Y-1.9618
X7.2024Y-0.3657
X7.2958Y-2.6098
X7.3894Y-1.1138
X7.4524Y-0.4657
X7.5458Y-2.7098
X7.5764Y-1.8618
X7.6394Y-1.2138
X7.8264Y-1.9618
X7.9504Y-0.3657
X8.1374Y-1.1138
X8.2004Y-0.4657
X8.2308Y-2.6098
X8.3244Y-1.8618
X8.3874Y-1.2138
X8.4808Y-2.7098
X8.5744Y-1.9618
X8.6984Y-0.3657
X8.8854Y-1.1138
X8.9484Y-0.4657
X9.0724Y-1.8618
X9.1354Y-1.2138
X9.1659Y-2.6098
X9.3224Y-1.9618
X9.4159Y-2.7098
X9.4465Y-0.3657
X9.6335Y-1.1138
X9.6965Y-0.4657
X9.8205Y-1.8618
X9.8835Y-1.2138
X10.0705Y-1.9618
T5
X3.7967Y-2.7848
X4.7367Y-2.7848
X5.6667Y-2.7848
X6.6067Y-2.7848
T6
X0.2461Y-1.7618
X0.4331Y-1.0138
X0.6201Y-0.2657
X0.9005Y-2.5098
X0.9941Y-1.7618
X1.1811Y-1.0138
X1.3681Y-0.2657
X1.7421Y-1.7618
X1.8356Y-2.5098
X1.9291Y-1.0138
X2.1161Y-0.2657
X2.4902Y-1.7618
X2.6772Y-1.0138
X2.7706Y-2.5098
X2.8642Y-0.2657
X3.2382Y-1.7618
X3.4252Y-1.0138
X3.6122Y-0.2657
X3.9862Y-1.7618
X4.1732Y-1.0138
X4.2667Y-2.5098
X4.3602Y-0.2657
X4.7343Y-1.7618
X5.1083Y-0.2657
X5.1083Y-1.0138
X5.4823Y-1.7618
X5.8563Y-0.2657
X6.0433Y-1.0138
X6.1367Y-2.5098
X6.2303Y-1.7618
X6.6043Y-0.2657
X6.7913Y-1.0138
X6.9783Y-1.7618
X7.3524Y-0.2657
X7.4458Y-2.5098
X7.5394Y-1.0138
X7.7264Y-1.7618
X8.1004Y-0.2657
X8.2874Y-1.0138
X8.3808Y-2.5098
X8.4744Y-1.7618
X8.8484Y-0.2657
X9.0354Y-1.0138
X9.2224Y-1.7618
X9.3159Y-2.5098
X9.5965Y-0.2657
X9.7835Y-1.0138
X9.9705Y-1.7618
T7
X3.7967Y-2.1848
X4.7367Y-2.1848
X5.6667Y-2.1848
X6.6067Y-2.1848
T0
M30
