G04 #@! TF.GenerationSoftware,KiCad,Pcbnew,5.1.9*
G04 #@! TF.CreationDate,2021-01-26T11:46:09+01:00*
G04 #@! TF.ProjectId,Shoto,53686f74-6f2e-46b6-9963-61645f706362,rev?*
G04 #@! TF.SameCoordinates,PX4931cb0PY51c70f0*
G04 #@! TF.FileFunction,Legend,Top*
G04 #@! TF.FilePolarity,Positive*
%FSLAX46Y46*%
G04 Gerber Fmt 4.6, Leading zero omitted, Abs format (unit mm)*
G04 Created by KiCad (PCBNEW 5.1.9) date 2021-01-26 11:46:09*
%MOMM*%
%LPD*%
G01*
G04 APERTURE LIST*
G04 #@! TA.AperFunction,Profile*
%ADD10C,0.050000*%
G04 #@! TD*
%ADD11C,0.150000*%
%ADD12C,0.120000*%
%ADD13C,0.127000*%
%ADD14C,0.304800*%
G04 APERTURE END LIST*
D10*
X116948000Y2331800D02*
X116948000Y130000D01*
X123552000Y2331800D02*
X123552000Y130000D01*
X11634201Y-58342000D02*
X13134200Y-58342000D01*
X10547287Y-52735673D02*
G75*
G02*
X13134200Y-58342000I2586913J-2206327D01*
G01*
X247859199Y-58342000D02*
X246359200Y-58342000D01*
X248951233Y-52741690D02*
G75*
G03*
X246359200Y-58342000I-2592033J-2200310D01*
G01*
X261327200Y-35748000D02*
X258609200Y-35748000D01*
X257593200Y-34732000D02*
G75*
G03*
X258609200Y-35748000I1016000J0D01*
G01*
X-1856800Y-35749160D02*
X890800Y-35749160D01*
X890800Y-35749160D02*
G75*
G03*
X1906800Y-34733160I0J1016000D01*
G01*
X123552000Y2331800D02*
X208486000Y2334000D01*
X28552000Y2331800D02*
X116948000Y2331800D01*
X7673200Y2331800D02*
X21948000Y2331800D01*
X6656800Y-15742000D02*
X6657200Y1315800D01*
X1906800Y-34733160D02*
X1906800Y-17774000D01*
X-2872800Y-51738536D02*
X-2872800Y-36765160D01*
X10547287Y-52735673D02*
X-1872800Y-52738536D01*
X11629800Y-71827200D02*
X11634201Y-58342000D01*
X78946000Y-72831800D02*
X12645800Y-72843200D01*
X175720000Y-72831800D02*
X85550000Y-72831800D01*
X246843200Y-72843200D02*
X182324000Y-72831800D01*
X247859199Y-58342000D02*
X247859200Y-71827200D01*
X261327200Y-52738536D02*
X248951233Y-52741690D01*
X262331666Y-36764000D02*
X262343200Y-51722536D01*
X257593200Y-17774400D02*
X257593200Y-34732000D01*
X252843200Y1318000D02*
X252843200Y-15742400D01*
X237552000Y2334000D02*
X251827200Y2334000D01*
X222202000Y2334000D02*
X230948000Y2334000D01*
X7673200Y2331800D02*
G75*
G03*
X6657200Y1315800I0J-1016000D01*
G01*
X5640800Y-16758000D02*
G75*
G03*
X6656800Y-15742000I0J1016000D01*
G01*
X2922800Y-16758000D02*
G75*
G03*
X1906800Y-17774000I0J-1016000D01*
G01*
X-1856800Y-35749160D02*
G75*
G03*
X-2872800Y-36765160I0J-1016000D01*
G01*
X-2872800Y-51738536D02*
G75*
G03*
X-1872800Y-52738536I1000000J0D01*
G01*
X11629800Y-71827200D02*
G75*
G03*
X12645800Y-72843200I1016000J0D01*
G01*
X246843200Y-72843200D02*
G75*
G03*
X247859200Y-71827200I0J1016000D01*
G01*
X261327200Y-52738536D02*
G75*
G03*
X262343200Y-51722536I0J1016000D01*
G01*
X262331666Y-36764000D02*
G75*
G03*
X261327200Y-35748000I-1016066J0D01*
G01*
X253859200Y-16758400D02*
X256577200Y-16758400D01*
X257593200Y-17774400D02*
G75*
G03*
X256577200Y-16758400I-1016000J0D01*
G01*
X252843200Y-15742400D02*
G75*
G03*
X253859200Y-16758400I1016000J0D01*
G01*
X252843200Y1318000D02*
G75*
G03*
X251827200Y2334000I-1016000J0D01*
G01*
X5640800Y-16758000D02*
X2922800Y-16758000D01*
X182324000Y-71130000D02*
X182324000Y-72831800D01*
X175720000Y-71130000D02*
X175720000Y-72831800D01*
X85550000Y-71130000D02*
X85550000Y-72831800D01*
X78946000Y-71130000D02*
X78946000Y-72831800D01*
X21948000Y130000D02*
X21948000Y2331800D01*
X28552000Y130000D02*
X28552000Y2331800D01*
X116948000Y130000D02*
G75*
G03*
X123552000Y130000I3302000J0D01*
G01*
X21948000Y130000D02*
G75*
G03*
X28552000Y130000I3302000J0D01*
G01*
X182324000Y-71130000D02*
G75*
G03*
X175720000Y-71130000I-3302000J0D01*
G01*
X85550000Y-71130000D02*
G75*
G03*
X78946000Y-71130000I-3302000J0D01*
G01*
X230948000Y130000D02*
X230948000Y2334000D01*
X237552000Y130000D02*
X237552000Y2334000D01*
X230948000Y130000D02*
G75*
G03*
X237552000Y130000I3302000J0D01*
G01*
X209756000Y6144000D02*
X209756000Y3604000D01*
X220932000Y6144000D02*
X209756000Y6144000D01*
X220932000Y3604000D02*
X220932000Y6144000D01*
X208486000Y2334000D02*
G75*
G03*
X209756000Y3604000I0J1270000D01*
G01*
X220932000Y3604000D02*
G75*
G03*
X222202000Y2334000I1270000J0D01*
G01*
D11*
X109238000Y-61210000D02*
X103508000Y-61210000D01*
X112833000Y-56995000D02*
X103508000Y-56995000D01*
X103508000Y-57000000D02*
X103508000Y-61210000D01*
X114508000Y-58670000D02*
X114508000Y-62885000D01*
X114508000Y-62885000D02*
X110913000Y-62885000D01*
X110913000Y-62885000D02*
G75*
G03*
X109238000Y-61210000I-1675000J0D01*
G01*
X114508000Y-58670000D02*
G75*
G03*
X112833000Y-56995000I-1675000J0D01*
G01*
X69508000Y-66290000D02*
X75238000Y-66290000D01*
X65913000Y-70505000D02*
X75238000Y-70505000D01*
X75238000Y-70500000D02*
X75238000Y-66290000D01*
X64238000Y-68830000D02*
X64238000Y-64615000D01*
X64238000Y-64615000D02*
X67833000Y-64615000D01*
X67833000Y-64615000D02*
G75*
G03*
X69508000Y-66290000I1675000J0D01*
G01*
X64238000Y-68830000D02*
G75*
G03*
X65913000Y-70505000I1675000J0D01*
G01*
X45758000Y-66290000D02*
X51488000Y-66290000D01*
X42163000Y-70505000D02*
X51488000Y-70505000D01*
X51488000Y-70500000D02*
X51488000Y-66290000D01*
X40488000Y-68830000D02*
X40488000Y-64615000D01*
X40488000Y-64615000D02*
X44083000Y-64615000D01*
X44083000Y-64615000D02*
G75*
G03*
X45758000Y-66290000I1675000J0D01*
G01*
X40488000Y-68830000D02*
G75*
G03*
X42163000Y-70505000I1675000J0D01*
G01*
X22008000Y-66290000D02*
X27738000Y-66290000D01*
X18413000Y-70505000D02*
X27738000Y-70505000D01*
X27738000Y-70500000D02*
X27738000Y-66290000D01*
X16738000Y-68830000D02*
X16738000Y-64615000D01*
X16738000Y-64615000D02*
X20333000Y-64615000D01*
X20333000Y-64615000D02*
G75*
G03*
X22008000Y-66290000I1675000J0D01*
G01*
X16738000Y-68830000D02*
G75*
G03*
X18413000Y-70505000I1675000J0D01*
G01*
X5385000Y-47290000D02*
X11115000Y-47290000D01*
X1790000Y-51505000D02*
X11115000Y-51505000D01*
X11115000Y-51500000D02*
X11115000Y-47290000D01*
X115000Y-49830000D02*
X115000Y-45615000D01*
X115000Y-45615000D02*
X3710000Y-45615000D01*
X3710000Y-45615000D02*
G75*
G03*
X5385000Y-47290000I1675000J0D01*
G01*
X115000Y-49830000D02*
G75*
G03*
X1790000Y-51505000I1675000J0D01*
G01*
X24385000Y-47290000D02*
X30115000Y-47290000D01*
X20790000Y-51505000D02*
X30115000Y-51505000D01*
X30115000Y-51500000D02*
X30115000Y-47290000D01*
X19115000Y-49830000D02*
X19115000Y-45615000D01*
X19115000Y-45615000D02*
X22710000Y-45615000D01*
X22710000Y-45615000D02*
G75*
G03*
X24385000Y-47290000I1675000J0D01*
G01*
X19115000Y-49830000D02*
G75*
G03*
X20790000Y-51505000I1675000J0D01*
G01*
X43385000Y-47290000D02*
X49115000Y-47290000D01*
X39790000Y-51505000D02*
X49115000Y-51505000D01*
X49115000Y-51500000D02*
X49115000Y-47290000D01*
X38115000Y-49830000D02*
X38115000Y-45615000D01*
X38115000Y-45615000D02*
X41710000Y-45615000D01*
X41710000Y-45615000D02*
G75*
G03*
X43385000Y-47290000I1675000J0D01*
G01*
X38115000Y-49830000D02*
G75*
G03*
X39790000Y-51505000I1675000J0D01*
G01*
X62385000Y-47290000D02*
X68115000Y-47290000D01*
X58790000Y-51505000D02*
X68115000Y-51505000D01*
X68115000Y-51500000D02*
X68115000Y-47290000D01*
X57115000Y-49830000D02*
X57115000Y-45615000D01*
X57115000Y-45615000D02*
X60710000Y-45615000D01*
X60710000Y-45615000D02*
G75*
G03*
X62385000Y-47290000I1675000J0D01*
G01*
X57115000Y-49830000D02*
G75*
G03*
X58790000Y-51505000I1675000J0D01*
G01*
X81385000Y-47290000D02*
X87115000Y-47290000D01*
X77790000Y-51505000D02*
X87115000Y-51505000D01*
X87115000Y-51500000D02*
X87115000Y-47290000D01*
X76115000Y-49830000D02*
X76115000Y-45615000D01*
X76115000Y-45615000D02*
X79710000Y-45615000D01*
X79710000Y-45615000D02*
G75*
G03*
X81385000Y-47290000I1675000J0D01*
G01*
X76115000Y-49830000D02*
G75*
G03*
X77790000Y-51505000I1675000J0D01*
G01*
X100385000Y-47290000D02*
X106115000Y-47290000D01*
X96790000Y-51505000D02*
X106115000Y-51505000D01*
X106115000Y-51500000D02*
X106115000Y-47290000D01*
X95115000Y-49830000D02*
X95115000Y-45615000D01*
X95115000Y-45615000D02*
X98710000Y-45615000D01*
X98710000Y-45615000D02*
G75*
G03*
X100385000Y-47290000I1675000J0D01*
G01*
X95115000Y-49830000D02*
G75*
G03*
X96790000Y-51505000I1675000J0D01*
G01*
X119385000Y-47290000D02*
X125115000Y-47290000D01*
X115790000Y-51505000D02*
X125115000Y-51505000D01*
X125115000Y-51500000D02*
X125115000Y-47290000D01*
X114115000Y-49830000D02*
X114115000Y-45615000D01*
X114115000Y-45615000D02*
X117710000Y-45615000D01*
X117710000Y-45615000D02*
G75*
G03*
X119385000Y-47290000I1675000J0D01*
G01*
X114115000Y-49830000D02*
G75*
G03*
X115790000Y-51505000I1675000J0D01*
G01*
X235758000Y-66290000D02*
X241488000Y-66290000D01*
X232163000Y-70505000D02*
X241488000Y-70505000D01*
X241488000Y-70500000D02*
X241488000Y-66290000D01*
X230488000Y-68830000D02*
X230488000Y-64615000D01*
X230488000Y-64615000D02*
X234083000Y-64615000D01*
X234083000Y-64615000D02*
G75*
G03*
X235758000Y-66290000I1675000J0D01*
G01*
X230488000Y-68830000D02*
G75*
G03*
X232163000Y-70505000I1675000J0D01*
G01*
X212008000Y-66290000D02*
X217738000Y-66290000D01*
X208413000Y-70505000D02*
X217738000Y-70505000D01*
X217738000Y-70500000D02*
X217738000Y-66290000D01*
X206738000Y-68830000D02*
X206738000Y-64615000D01*
X206738000Y-64615000D02*
X210333000Y-64615000D01*
X210333000Y-64615000D02*
G75*
G03*
X212008000Y-66290000I1675000J0D01*
G01*
X206738000Y-68830000D02*
G75*
G03*
X208413000Y-70505000I1675000J0D01*
G01*
X188258000Y-66290000D02*
X193988000Y-66290000D01*
X184663000Y-70505000D02*
X193988000Y-70505000D01*
X193988000Y-70500000D02*
X193988000Y-66290000D01*
X182988000Y-68830000D02*
X182988000Y-64615000D01*
X182988000Y-64615000D02*
X186583000Y-64615000D01*
X186583000Y-64615000D02*
G75*
G03*
X188258000Y-66290000I1675000J0D01*
G01*
X182988000Y-68830000D02*
G75*
G03*
X184663000Y-70505000I1675000J0D01*
G01*
X156738000Y-61210000D02*
X151008000Y-61210000D01*
X160333000Y-56995000D02*
X151008000Y-56995000D01*
X151008000Y-57000000D02*
X151008000Y-61210000D01*
X162008000Y-58670000D02*
X162008000Y-62885000D01*
X162008000Y-62885000D02*
X158413000Y-62885000D01*
X158413000Y-62885000D02*
G75*
G03*
X156738000Y-61210000I-1675000J0D01*
G01*
X162008000Y-58670000D02*
G75*
G03*
X160333000Y-56995000I-1675000J0D01*
G01*
X138385000Y-47290000D02*
X144115000Y-47290000D01*
X134790000Y-51505000D02*
X144115000Y-51505000D01*
X144115000Y-51500000D02*
X144115000Y-47290000D01*
X133115000Y-49830000D02*
X133115000Y-45615000D01*
X133115000Y-45615000D02*
X136710000Y-45615000D01*
X136710000Y-45615000D02*
G75*
G03*
X138385000Y-47290000I1675000J0D01*
G01*
X133115000Y-49830000D02*
G75*
G03*
X134790000Y-51505000I1675000J0D01*
G01*
X157385000Y-47290000D02*
X163115000Y-47290000D01*
X153790000Y-51505000D02*
X163115000Y-51505000D01*
X163115000Y-51500000D02*
X163115000Y-47290000D01*
X152115000Y-49830000D02*
X152115000Y-45615000D01*
X152115000Y-45615000D02*
X155710000Y-45615000D01*
X155710000Y-45615000D02*
G75*
G03*
X157385000Y-47290000I1675000J0D01*
G01*
X152115000Y-49830000D02*
G75*
G03*
X153790000Y-51505000I1675000J0D01*
G01*
X176385000Y-47290000D02*
X182115000Y-47290000D01*
X172790000Y-51505000D02*
X182115000Y-51505000D01*
X182115000Y-51500000D02*
X182115000Y-47290000D01*
X171115000Y-49830000D02*
X171115000Y-45615000D01*
X171115000Y-45615000D02*
X174710000Y-45615000D01*
X174710000Y-45615000D02*
G75*
G03*
X176385000Y-47290000I1675000J0D01*
G01*
X171115000Y-49830000D02*
G75*
G03*
X172790000Y-51505000I1675000J0D01*
G01*
X195385000Y-47290000D02*
X201115000Y-47290000D01*
X191790000Y-51505000D02*
X201115000Y-51505000D01*
X201115000Y-51500000D02*
X201115000Y-47290000D01*
X190115000Y-49830000D02*
X190115000Y-45615000D01*
X190115000Y-45615000D02*
X193710000Y-45615000D01*
X193710000Y-45615000D02*
G75*
G03*
X195385000Y-47290000I1675000J0D01*
G01*
X190115000Y-49830000D02*
G75*
G03*
X191790000Y-51505000I1675000J0D01*
G01*
X214385000Y-47290000D02*
X220115000Y-47290000D01*
X210790000Y-51505000D02*
X220115000Y-51505000D01*
X220115000Y-51500000D02*
X220115000Y-47290000D01*
X209115000Y-49830000D02*
X209115000Y-45615000D01*
X209115000Y-45615000D02*
X212710000Y-45615000D01*
X212710000Y-45615000D02*
G75*
G03*
X214385000Y-47290000I1675000J0D01*
G01*
X209115000Y-49830000D02*
G75*
G03*
X210790000Y-51505000I1675000J0D01*
G01*
X233385000Y-47290000D02*
X239115000Y-47290000D01*
X229790000Y-51505000D02*
X239115000Y-51505000D01*
X239115000Y-51500000D02*
X239115000Y-47290000D01*
X228115000Y-49830000D02*
X228115000Y-45615000D01*
X228115000Y-45615000D02*
X231710000Y-45615000D01*
X231710000Y-45615000D02*
G75*
G03*
X233385000Y-47290000I1675000J0D01*
G01*
X228115000Y-49830000D02*
G75*
G03*
X229790000Y-51505000I1675000J0D01*
G01*
X252385000Y-47290000D02*
X258115000Y-47290000D01*
X248790000Y-51505000D02*
X258115000Y-51505000D01*
X258115000Y-51500000D02*
X258115000Y-47290000D01*
X247115000Y-49830000D02*
X247115000Y-45615000D01*
X247115000Y-45615000D02*
X250710000Y-45615000D01*
X250710000Y-45615000D02*
G75*
G03*
X252385000Y-47290000I1675000J0D01*
G01*
X247115000Y-49830000D02*
G75*
G03*
X248790000Y-51505000I1675000J0D01*
G01*
X247635000Y-28290000D02*
X253365000Y-28290000D01*
X244040000Y-32505000D02*
X253365000Y-32505000D01*
X253365000Y-32500000D02*
X253365000Y-28290000D01*
X242365000Y-30830000D02*
X242365000Y-26615000D01*
X242365000Y-26615000D02*
X245960000Y-26615000D01*
X245960000Y-26615000D02*
G75*
G03*
X247635000Y-28290000I1675000J0D01*
G01*
X242365000Y-30830000D02*
G75*
G03*
X244040000Y-32505000I1675000J0D01*
G01*
X228635000Y-28290000D02*
X234365000Y-28290000D01*
X225040000Y-32505000D02*
X234365000Y-32505000D01*
X234365000Y-32500000D02*
X234365000Y-28290000D01*
X223365000Y-30830000D02*
X223365000Y-26615000D01*
X223365000Y-26615000D02*
X226960000Y-26615000D01*
X226960000Y-26615000D02*
G75*
G03*
X228635000Y-28290000I1675000J0D01*
G01*
X223365000Y-30830000D02*
G75*
G03*
X225040000Y-32505000I1675000J0D01*
G01*
X209635000Y-28290000D02*
X215365000Y-28290000D01*
X206040000Y-32505000D02*
X215365000Y-32505000D01*
X215365000Y-32500000D02*
X215365000Y-28290000D01*
X204365000Y-30830000D02*
X204365000Y-26615000D01*
X204365000Y-26615000D02*
X207960000Y-26615000D01*
X207960000Y-26615000D02*
G75*
G03*
X209635000Y-28290000I1675000J0D01*
G01*
X204365000Y-30830000D02*
G75*
G03*
X206040000Y-32505000I1675000J0D01*
G01*
X190635000Y-28290000D02*
X196365000Y-28290000D01*
X187040000Y-32505000D02*
X196365000Y-32505000D01*
X196365000Y-32500000D02*
X196365000Y-28290000D01*
X185365000Y-30830000D02*
X185365000Y-26615000D01*
X185365000Y-26615000D02*
X188960000Y-26615000D01*
X188960000Y-26615000D02*
G75*
G03*
X190635000Y-28290000I1675000J0D01*
G01*
X185365000Y-30830000D02*
G75*
G03*
X187040000Y-32505000I1675000J0D01*
G01*
X171635000Y-28290000D02*
X177365000Y-28290000D01*
X168040000Y-32505000D02*
X177365000Y-32505000D01*
X177365000Y-32500000D02*
X177365000Y-28290000D01*
X166365000Y-30830000D02*
X166365000Y-26615000D01*
X166365000Y-26615000D02*
X169960000Y-26615000D01*
X169960000Y-26615000D02*
G75*
G03*
X171635000Y-28290000I1675000J0D01*
G01*
X166365000Y-30830000D02*
G75*
G03*
X168040000Y-32505000I1675000J0D01*
G01*
X152635000Y-28290000D02*
X158365000Y-28290000D01*
X149040000Y-32505000D02*
X158365000Y-32505000D01*
X158365000Y-32500000D02*
X158365000Y-28290000D01*
X147365000Y-30830000D02*
X147365000Y-26615000D01*
X147365000Y-26615000D02*
X150960000Y-26615000D01*
X150960000Y-26615000D02*
G75*
G03*
X152635000Y-28290000I1675000J0D01*
G01*
X147365000Y-30830000D02*
G75*
G03*
X149040000Y-32505000I1675000J0D01*
G01*
X128885000Y-28290000D02*
X134615000Y-28290000D01*
X125290000Y-32505000D02*
X134615000Y-32505000D01*
X134615000Y-32500000D02*
X134615000Y-28290000D01*
X123615000Y-30830000D02*
X123615000Y-26615000D01*
X123615000Y-26615000D02*
X127210000Y-26615000D01*
X127210000Y-26615000D02*
G75*
G03*
X128885000Y-28290000I1675000J0D01*
G01*
X123615000Y-30830000D02*
G75*
G03*
X125290000Y-32505000I1675000J0D01*
G01*
X105135000Y-28290000D02*
X110865000Y-28290000D01*
X101540000Y-32505000D02*
X110865000Y-32505000D01*
X110865000Y-32500000D02*
X110865000Y-28290000D01*
X99865000Y-30830000D02*
X99865000Y-26615000D01*
X99865000Y-26615000D02*
X103460000Y-26615000D01*
X103460000Y-26615000D02*
G75*
G03*
X105135000Y-28290000I1675000J0D01*
G01*
X99865000Y-30830000D02*
G75*
G03*
X101540000Y-32505000I1675000J0D01*
G01*
X86135000Y-28290000D02*
X91865000Y-28290000D01*
X82540000Y-32505000D02*
X91865000Y-32505000D01*
X91865000Y-32500000D02*
X91865000Y-28290000D01*
X80865000Y-30830000D02*
X80865000Y-26615000D01*
X80865000Y-26615000D02*
X84460000Y-26615000D01*
X84460000Y-26615000D02*
G75*
G03*
X86135000Y-28290000I1675000J0D01*
G01*
X80865000Y-30830000D02*
G75*
G03*
X82540000Y-32505000I1675000J0D01*
G01*
X67135000Y-28290000D02*
X72865000Y-28290000D01*
X63540000Y-32505000D02*
X72865000Y-32505000D01*
X72865000Y-32500000D02*
X72865000Y-28290000D01*
X61865000Y-30830000D02*
X61865000Y-26615000D01*
X61865000Y-26615000D02*
X65460000Y-26615000D01*
X65460000Y-26615000D02*
G75*
G03*
X67135000Y-28290000I1675000J0D01*
G01*
X61865000Y-30830000D02*
G75*
G03*
X63540000Y-32505000I1675000J0D01*
G01*
X48135000Y-28290000D02*
X53865000Y-28290000D01*
X44540000Y-32505000D02*
X53865000Y-32505000D01*
X53865000Y-32500000D02*
X53865000Y-28290000D01*
X42865000Y-30830000D02*
X42865000Y-26615000D01*
X42865000Y-26615000D02*
X46460000Y-26615000D01*
X46460000Y-26615000D02*
G75*
G03*
X48135000Y-28290000I1675000J0D01*
G01*
X42865000Y-30830000D02*
G75*
G03*
X44540000Y-32505000I1675000J0D01*
G01*
X29135000Y-28290000D02*
X34865000Y-28290000D01*
X25540000Y-32505000D02*
X34865000Y-32505000D01*
X34865000Y-32500000D02*
X34865000Y-28290000D01*
X23865000Y-30830000D02*
X23865000Y-26615000D01*
X23865000Y-26615000D02*
X27460000Y-26615000D01*
X27460000Y-26615000D02*
G75*
G03*
X29135000Y-28290000I1675000J0D01*
G01*
X23865000Y-30830000D02*
G75*
G03*
X25540000Y-32505000I1675000J0D01*
G01*
X10135000Y-28290000D02*
X15865000Y-28290000D01*
X6540000Y-32505000D02*
X15865000Y-32505000D01*
X15865000Y-32500000D02*
X15865000Y-28290000D01*
X4865000Y-30830000D02*
X4865000Y-26615000D01*
X4865000Y-26615000D02*
X8460000Y-26615000D01*
X8460000Y-26615000D02*
G75*
G03*
X10135000Y-28290000I1675000J0D01*
G01*
X4865000Y-30830000D02*
G75*
G03*
X6540000Y-32505000I1675000J0D01*
G01*
X14885000Y-9290000D02*
X20615000Y-9290000D01*
X11290000Y-13505000D02*
X20615000Y-13505000D01*
X20615000Y-13500000D02*
X20615000Y-9290000D01*
X9615000Y-11830000D02*
X9615000Y-7615000D01*
X9615000Y-7615000D02*
X13210000Y-7615000D01*
X13210000Y-7615000D02*
G75*
G03*
X14885000Y-9290000I1675000J0D01*
G01*
X9615000Y-11830000D02*
G75*
G03*
X11290000Y-13505000I1675000J0D01*
G01*
X33885000Y-9290000D02*
X39615000Y-9290000D01*
X30290000Y-13505000D02*
X39615000Y-13505000D01*
X39615000Y-13500000D02*
X39615000Y-9290000D01*
X28615000Y-11830000D02*
X28615000Y-7615000D01*
X28615000Y-7615000D02*
X32210000Y-7615000D01*
X32210000Y-7615000D02*
G75*
G03*
X33885000Y-9290000I1675000J0D01*
G01*
X28615000Y-11830000D02*
G75*
G03*
X30290000Y-13505000I1675000J0D01*
G01*
X52885000Y-9290000D02*
X58615000Y-9290000D01*
X49290000Y-13505000D02*
X58615000Y-13505000D01*
X58615000Y-13500000D02*
X58615000Y-9290000D01*
X47615000Y-11830000D02*
X47615000Y-7615000D01*
X47615000Y-7615000D02*
X51210000Y-7615000D01*
X51210000Y-7615000D02*
G75*
G03*
X52885000Y-9290000I1675000J0D01*
G01*
X47615000Y-11830000D02*
G75*
G03*
X49290000Y-13505000I1675000J0D01*
G01*
X71885000Y-9290000D02*
X77615000Y-9290000D01*
X68290000Y-13505000D02*
X77615000Y-13505000D01*
X77615000Y-13500000D02*
X77615000Y-9290000D01*
X66615000Y-11830000D02*
X66615000Y-7615000D01*
X66615000Y-7615000D02*
X70210000Y-7615000D01*
X70210000Y-7615000D02*
G75*
G03*
X71885000Y-9290000I1675000J0D01*
G01*
X66615000Y-11830000D02*
G75*
G03*
X68290000Y-13505000I1675000J0D01*
G01*
X242885000Y-9290000D02*
X248615000Y-9290000D01*
X239290000Y-13505000D02*
X248615000Y-13505000D01*
X248615000Y-13500000D02*
X248615000Y-9290000D01*
X237615000Y-11830000D02*
X237615000Y-7615000D01*
X237615000Y-7615000D02*
X241210000Y-7615000D01*
X241210000Y-7615000D02*
G75*
G03*
X242885000Y-9290000I1675000J0D01*
G01*
X237615000Y-11830000D02*
G75*
G03*
X239290000Y-13505000I1675000J0D01*
G01*
X223885000Y-9290000D02*
X229615000Y-9290000D01*
X220290000Y-13505000D02*
X229615000Y-13505000D01*
X229615000Y-13500000D02*
X229615000Y-9290000D01*
X218615000Y-11830000D02*
X218615000Y-7615000D01*
X218615000Y-7615000D02*
X222210000Y-7615000D01*
X222210000Y-7615000D02*
G75*
G03*
X223885000Y-9290000I1675000J0D01*
G01*
X218615000Y-11830000D02*
G75*
G03*
X220290000Y-13505000I1675000J0D01*
G01*
X204885000Y-9290000D02*
X210615000Y-9290000D01*
X201290000Y-13505000D02*
X210615000Y-13505000D01*
X210615000Y-13500000D02*
X210615000Y-9290000D01*
X199615000Y-11830000D02*
X199615000Y-7615000D01*
X199615000Y-7615000D02*
X203210000Y-7615000D01*
X203210000Y-7615000D02*
G75*
G03*
X204885000Y-9290000I1675000J0D01*
G01*
X199615000Y-11830000D02*
G75*
G03*
X201290000Y-13505000I1675000J0D01*
G01*
X185885000Y-9290000D02*
X191615000Y-9290000D01*
X182290000Y-13505000D02*
X191615000Y-13505000D01*
X191615000Y-13500000D02*
X191615000Y-9290000D01*
X180615000Y-11830000D02*
X180615000Y-7615000D01*
X180615000Y-7615000D02*
X184210000Y-7615000D01*
X184210000Y-7615000D02*
G75*
G03*
X185885000Y-9290000I1675000J0D01*
G01*
X180615000Y-11830000D02*
G75*
G03*
X182290000Y-13505000I1675000J0D01*
G01*
X166885000Y-9290000D02*
X172615000Y-9290000D01*
X163290000Y-13505000D02*
X172615000Y-13505000D01*
X172615000Y-13500000D02*
X172615000Y-9290000D01*
X161615000Y-11830000D02*
X161615000Y-7615000D01*
X161615000Y-7615000D02*
X165210000Y-7615000D01*
X165210000Y-7615000D02*
G75*
G03*
X166885000Y-9290000I1675000J0D01*
G01*
X161615000Y-11830000D02*
G75*
G03*
X163290000Y-13505000I1675000J0D01*
G01*
X147885000Y-9290000D02*
X153615000Y-9290000D01*
X144290000Y-13505000D02*
X153615000Y-13505000D01*
X153615000Y-13500000D02*
X153615000Y-9290000D01*
X142615000Y-11830000D02*
X142615000Y-7615000D01*
X142615000Y-7615000D02*
X146210000Y-7615000D01*
X146210000Y-7615000D02*
G75*
G03*
X147885000Y-9290000I1675000J0D01*
G01*
X142615000Y-11830000D02*
G75*
G03*
X144290000Y-13505000I1675000J0D01*
G01*
X128885000Y-9290000D02*
X134615000Y-9290000D01*
X125290000Y-13505000D02*
X134615000Y-13505000D01*
X134615000Y-13500000D02*
X134615000Y-9290000D01*
X123615000Y-11830000D02*
X123615000Y-7615000D01*
X123615000Y-7615000D02*
X127210000Y-7615000D01*
X127210000Y-7615000D02*
G75*
G03*
X128885000Y-9290000I1675000J0D01*
G01*
X123615000Y-11830000D02*
G75*
G03*
X125290000Y-13505000I1675000J0D01*
G01*
X109885000Y-9290000D02*
X115615000Y-9290000D01*
X106290000Y-13505000D02*
X115615000Y-13505000D01*
X115615000Y-13500000D02*
X115615000Y-9290000D01*
X104615000Y-11830000D02*
X104615000Y-7615000D01*
X104615000Y-7615000D02*
X108210000Y-7615000D01*
X108210000Y-7615000D02*
G75*
G03*
X109885000Y-9290000I1675000J0D01*
G01*
X104615000Y-11830000D02*
G75*
G03*
X106290000Y-13505000I1675000J0D01*
G01*
X90885000Y-9290000D02*
X96615000Y-9290000D01*
X87290000Y-13505000D02*
X96615000Y-13505000D01*
X96615000Y-13500000D02*
X96615000Y-9290000D01*
X85615000Y-11830000D02*
X85615000Y-7615000D01*
X85615000Y-7615000D02*
X89210000Y-7615000D01*
X89210000Y-7615000D02*
G75*
G03*
X90885000Y-9290000I1675000J0D01*
G01*
X85615000Y-11830000D02*
G75*
G03*
X87290000Y-13505000I1675000J0D01*
G01*
D12*
X141744200Y-18723160D02*
X137844200Y-18723160D01*
X141744200Y-16723160D02*
X137844200Y-16723160D01*
X141744200Y-18723160D02*
X141744200Y-16723160D01*
X203518200Y-3653660D02*
X203518200Y246340D01*
X205518200Y-3653660D02*
X205518200Y246340D01*
X203518200Y-3653660D02*
X205518200Y-3653660D01*
X206338700Y-2005724D02*
X206338700Y-801596D01*
X208158700Y-2005724D02*
X208158700Y-801596D01*
X216276700Y-3540160D02*
X214476700Y-3540160D01*
X214476700Y-6760160D02*
X216926700Y-6760160D01*
D13*
X16586700Y-41281660D02*
X16586700Y-41942060D01*
X14681700Y-41281660D02*
X14681700Y-41942060D01*
X15634200Y-39884660D02*
X15634200Y-39224260D01*
X14135600Y-39884660D02*
X17132800Y-39884660D01*
X17132800Y-39884660D02*
X17132800Y-41281660D01*
X17132800Y-41281660D02*
X14135600Y-41281660D01*
X14135600Y-41281660D02*
X14135600Y-39884660D01*
D12*
X121461200Y-17522660D02*
X121011200Y-17072660D01*
X118061200Y-17522660D02*
X118511200Y-17072660D01*
X118061200Y-22122660D02*
X118511200Y-22572660D01*
X121461200Y-22122660D02*
X121011200Y-22572660D01*
X117011200Y-20822660D02*
X117011200Y-18822660D01*
X121011200Y-17072660D02*
X118511200Y-17072660D01*
X122511200Y-20822660D02*
X122511200Y-18822660D01*
X121011200Y-22572660D02*
X118511200Y-22572660D01*
X220052800Y7970400D02*
X210652800Y7970400D01*
X210652800Y2170400D02*
X210652800Y4170400D01*
X210652800Y6070400D02*
X210652800Y7970400D01*
X220052800Y2170400D02*
X220052800Y4170400D01*
X220052800Y6070400D02*
X220052800Y7970400D01*
X226202264Y268340D02*
X224998136Y268340D01*
X226202264Y-1551660D02*
X224998136Y-1551660D01*
D13*
X235742420Y-12432340D02*
X235742420Y-13829340D01*
X232745220Y-12432340D02*
X235742420Y-12432340D01*
X232745220Y-13829340D02*
X232745220Y-12432340D01*
X235742420Y-13829340D02*
X232745220Y-13829340D01*
X234243820Y-13829340D02*
X234243820Y-14489740D01*
X235196320Y-12432340D02*
X235196320Y-11771940D01*
X233291320Y-12432340D02*
X233291320Y-11771940D01*
X197742420Y-12432340D02*
X197742420Y-13829340D01*
X194745220Y-12432340D02*
X197742420Y-12432340D01*
X194745220Y-13829340D02*
X194745220Y-12432340D01*
X197742420Y-13829340D02*
X194745220Y-13829340D01*
X196243820Y-13829340D02*
X196243820Y-14489740D01*
X197196320Y-12432340D02*
X197196320Y-11771940D01*
X195291320Y-12432340D02*
X195291320Y-11771940D01*
X159742420Y-12432340D02*
X159742420Y-13829340D01*
X156745220Y-12432340D02*
X159742420Y-12432340D01*
X156745220Y-13829340D02*
X156745220Y-12432340D01*
X159742420Y-13829340D02*
X156745220Y-13829340D01*
X158243820Y-13829340D02*
X158243820Y-14489740D01*
X159196320Y-12432340D02*
X159196320Y-11771940D01*
X157291320Y-12432340D02*
X157291320Y-11771940D01*
X102742420Y-12432340D02*
X102742420Y-13829340D01*
X99745220Y-12432340D02*
X102742420Y-12432340D01*
X99745220Y-13829340D02*
X99745220Y-12432340D01*
X102742420Y-13829340D02*
X99745220Y-13829340D01*
X101243820Y-13829340D02*
X101243820Y-14489740D01*
X102196320Y-12432340D02*
X102196320Y-11771940D01*
X100291320Y-12432340D02*
X100291320Y-11771940D01*
X64742420Y-12432340D02*
X64742420Y-13829340D01*
X61745220Y-12432340D02*
X64742420Y-12432340D01*
X61745220Y-13829340D02*
X61745220Y-12432340D01*
X64742420Y-13829340D02*
X61745220Y-13829340D01*
X63243820Y-13829340D02*
X63243820Y-14489740D01*
X64196320Y-12432340D02*
X64196320Y-11771940D01*
X62291320Y-12432340D02*
X62291320Y-11771940D01*
X26742420Y-12432340D02*
X26742420Y-13829340D01*
X23745220Y-12432340D02*
X26742420Y-12432340D01*
X23745220Y-13829340D02*
X23745220Y-12432340D01*
X26742420Y-13829340D02*
X23745220Y-13829340D01*
X25243820Y-13829340D02*
X25243820Y-14489740D01*
X26196320Y-12432340D02*
X26196320Y-11771940D01*
X24291320Y-12432340D02*
X24291320Y-11771940D01*
X240560800Y-33026660D02*
X240560800Y-34423660D01*
X237563600Y-33026660D02*
X240560800Y-33026660D01*
X237563600Y-34423660D02*
X237563600Y-33026660D01*
X240560800Y-34423660D02*
X237563600Y-34423660D01*
X239062200Y-34423660D02*
X239062200Y-35084060D01*
X240014700Y-33026660D02*
X240014700Y-32366260D01*
X238109700Y-33026660D02*
X238109700Y-32366260D01*
X202560800Y-33026660D02*
X202560800Y-34423660D01*
X199563600Y-33026660D02*
X202560800Y-33026660D01*
X199563600Y-34423660D02*
X199563600Y-33026660D01*
X202560800Y-34423660D02*
X199563600Y-34423660D01*
X201062200Y-34423660D02*
X201062200Y-35084060D01*
X202014700Y-33026660D02*
X202014700Y-32366260D01*
X200109700Y-33026660D02*
X200109700Y-32366260D01*
X164560800Y-33026660D02*
X164560800Y-34423660D01*
X161563600Y-33026660D02*
X164560800Y-33026660D01*
X161563600Y-34423660D02*
X161563600Y-33026660D01*
X164560800Y-34423660D02*
X161563600Y-34423660D01*
X163062200Y-34423660D02*
X163062200Y-35084060D01*
X164014700Y-33026660D02*
X164014700Y-32366260D01*
X162109700Y-33026660D02*
X162109700Y-32366260D01*
X98060800Y-33026660D02*
X98060800Y-34423660D01*
X95063600Y-33026660D02*
X98060800Y-33026660D01*
X95063600Y-34423660D02*
X95063600Y-33026660D01*
X98060800Y-34423660D02*
X95063600Y-34423660D01*
X96562200Y-34423660D02*
X96562200Y-35084060D01*
X97514700Y-33026660D02*
X97514700Y-32366260D01*
X95609700Y-33026660D02*
X95609700Y-32366260D01*
X60060800Y-33026660D02*
X60060800Y-34423660D01*
X57063600Y-33026660D02*
X60060800Y-33026660D01*
X57063600Y-34423660D02*
X57063600Y-33026660D01*
X60060800Y-34423660D02*
X57063600Y-34423660D01*
X58562200Y-34423660D02*
X58562200Y-35084060D01*
X59514700Y-33026660D02*
X59514700Y-32366260D01*
X57609700Y-33026660D02*
X57609700Y-32366260D01*
X22060800Y-33026660D02*
X22060800Y-34423660D01*
X19063600Y-33026660D02*
X22060800Y-33026660D01*
X19063600Y-34423660D02*
X19063600Y-33026660D01*
X22060800Y-34423660D02*
X19063600Y-34423660D01*
X20562200Y-34423660D02*
X20562200Y-35084060D01*
X21514700Y-33026660D02*
X21514700Y-32366260D01*
X19609700Y-33026660D02*
X19609700Y-32366260D01*
X242135600Y-41281660D02*
X242135600Y-39884660D01*
X245132800Y-41281660D02*
X242135600Y-41281660D01*
X245132800Y-39884660D02*
X245132800Y-41281660D01*
X242135600Y-39884660D02*
X245132800Y-39884660D01*
X243634200Y-39884660D02*
X243634200Y-39224260D01*
X242681700Y-41281660D02*
X242681700Y-41942060D01*
X244586700Y-41281660D02*
X244586700Y-41942060D01*
X204135600Y-41281660D02*
X204135600Y-39884660D01*
X207132800Y-41281660D02*
X204135600Y-41281660D01*
X207132800Y-39884660D02*
X207132800Y-41281660D01*
X204135600Y-39884660D02*
X207132800Y-39884660D01*
X205634200Y-39884660D02*
X205634200Y-39224260D01*
X204681700Y-41281660D02*
X204681700Y-41942060D01*
X206586700Y-41281660D02*
X206586700Y-41942060D01*
X166135600Y-41281660D02*
X166135600Y-39884660D01*
X169132800Y-41281660D02*
X166135600Y-41281660D01*
X169132800Y-39884660D02*
X169132800Y-41281660D01*
X166135600Y-39884660D02*
X169132800Y-39884660D01*
X167634200Y-39884660D02*
X167634200Y-39224260D01*
X166681700Y-41281660D02*
X166681700Y-41942060D01*
X168586700Y-41281660D02*
X168586700Y-41942060D01*
X90135600Y-41281660D02*
X90135600Y-39884660D01*
X93132800Y-41281660D02*
X90135600Y-41281660D01*
X93132800Y-39884660D02*
X93132800Y-41281660D01*
X90135600Y-39884660D02*
X93132800Y-39884660D01*
X91634200Y-39884660D02*
X91634200Y-39224260D01*
X90681700Y-41281660D02*
X90681700Y-41942060D01*
X92586700Y-41281660D02*
X92586700Y-41942060D01*
X52135600Y-41281660D02*
X52135600Y-39884660D01*
X55132800Y-41281660D02*
X52135600Y-41281660D01*
X55132800Y-39884660D02*
X55132800Y-41281660D01*
X52135600Y-39884660D02*
X55132800Y-39884660D01*
X53634200Y-39884660D02*
X53634200Y-39224260D01*
X52681700Y-41281660D02*
X52681700Y-41942060D01*
X54586700Y-41281660D02*
X54586700Y-41942060D01*
D12*
X138104700Y-22356660D02*
X139034700Y-22356660D01*
X141264700Y-22356660D02*
X140334700Y-22356660D01*
X141264700Y-22356660D02*
X141264700Y-20196660D01*
X138104700Y-22356660D02*
X138104700Y-20896660D01*
X123260000Y-64162779D02*
X123260000Y-63837221D01*
X122240000Y-64162779D02*
X122240000Y-63837221D01*
X139980200Y-63915381D02*
X139980200Y-64240939D01*
X141000200Y-63915381D02*
X141000200Y-64240939D01*
X133128979Y-54309160D02*
X133454537Y-54309160D01*
X133128979Y-55329160D02*
X133454537Y-55329160D01*
X129662779Y-72010000D02*
X129337221Y-72010000D01*
X129662779Y-70990000D02*
X129337221Y-70990000D01*
X221534200Y-740939D02*
X221534200Y-415381D01*
X222554200Y-740939D02*
X222554200Y-415381D01*
X133128978Y-56017456D02*
X133454536Y-56017456D01*
X133128978Y-57037456D02*
X133454536Y-57037456D01*
X132837221Y-72010000D02*
X133162779Y-72010000D01*
X132837221Y-70990000D02*
X133162779Y-70990000D01*
X141694700Y-63915381D02*
X141694700Y-64240939D01*
X142714700Y-63915381D02*
X142714700Y-64240939D01*
X142667200Y-22013439D02*
X142667200Y-21687881D01*
X143687200Y-22013439D02*
X143687200Y-21687881D01*
X136126700Y-21433881D02*
X136126700Y-21759439D01*
X137146700Y-21433881D02*
X137146700Y-21759439D01*
X108837221Y-16490000D02*
X109162779Y-16490000D01*
X108837221Y-17510000D02*
X109162779Y-17510000D01*
X108760000Y-20162779D02*
X108760000Y-19837221D01*
X107740000Y-20162779D02*
X107740000Y-19837221D01*
X125260000Y-64162779D02*
X125260000Y-63837221D01*
X124240000Y-64162779D02*
X124240000Y-63837221D01*
X219349479Y-2675660D02*
X219023921Y-2675660D01*
X219349479Y-1655660D02*
X219023921Y-1655660D01*
X211340421Y-1655660D02*
X211665979Y-1655660D01*
X211340421Y-2675660D02*
X211665979Y-2675660D01*
X111412779Y-22490000D02*
X111087221Y-22490000D01*
X111412779Y-23510000D02*
X111087221Y-23510000D01*
X110490000Y-18420000D02*
X110490000Y-19350000D01*
X110490000Y-21580000D02*
X110490000Y-20650000D01*
X110490000Y-21580000D02*
X112650000Y-21580000D01*
X110490000Y-18420000D02*
X111950000Y-18420000D01*
X117237258Y-23727500D02*
X116762742Y-23727500D01*
X117237258Y-24772500D02*
X116762742Y-24772500D01*
X113727500Y-20237258D02*
X113727500Y-19762742D01*
X114772500Y-20237258D02*
X114772500Y-19762742D01*
X138291000Y-15750000D02*
X138291000Y-11850000D01*
X140291000Y-15750000D02*
X140291000Y-11850000D01*
X138291000Y-15750000D02*
X140291000Y-15750000D01*
X138367200Y-35750000D02*
X140367200Y-35750000D01*
X140367200Y-35750000D02*
X140367200Y-31850000D01*
X138367200Y-35750000D02*
X138367200Y-31850000D01*
X149638200Y-38750000D02*
X149638200Y-42650000D01*
X147638200Y-38750000D02*
X147638200Y-42650000D01*
X149638200Y-38750000D02*
X147638200Y-38750000D01*
X109750000Y-55000000D02*
X109750000Y-51100000D01*
X111750000Y-55000000D02*
X111750000Y-51100000D01*
X109750000Y-55000000D02*
X111750000Y-55000000D01*
X240694000Y-52656000D02*
X238694000Y-52656000D01*
X238694000Y-52656000D02*
X238694000Y-56556000D01*
X240694000Y-52656000D02*
X240694000Y-56556000D01*
X216944000Y-52656000D02*
X216944000Y-56556000D01*
X214944000Y-52656000D02*
X214944000Y-56556000D01*
X216944000Y-52656000D02*
X214944000Y-52656000D01*
X193194000Y-52656000D02*
X191194000Y-52656000D01*
X191194000Y-52656000D02*
X191194000Y-56556000D01*
X193194000Y-52656000D02*
X193194000Y-56556000D01*
X150781200Y-50500000D02*
X150781200Y-54400000D01*
X148781200Y-50500000D02*
X148781200Y-54400000D01*
X150781200Y-50500000D02*
X148781200Y-50500000D01*
X92361200Y-52656000D02*
X90361200Y-52656000D01*
X90361200Y-52656000D02*
X90361200Y-56556000D01*
X92361200Y-52656000D02*
X92361200Y-56556000D01*
X74428800Y-52656000D02*
X74428800Y-56556000D01*
X72428800Y-52656000D02*
X72428800Y-56556000D01*
X74428800Y-52656000D02*
X72428800Y-52656000D01*
X50678800Y-52656000D02*
X48678800Y-52656000D01*
X48678800Y-52656000D02*
X48678800Y-56556000D01*
X50678800Y-52656000D02*
X50678800Y-56556000D01*
X26928800Y-52500000D02*
X24928800Y-52500000D01*
X24928800Y-52500000D02*
X24928800Y-56400000D01*
X26928800Y-52500000D02*
X26928800Y-56400000D01*
X127747209Y-64465856D02*
X126835041Y-65378024D01*
X127429011Y-64147658D02*
X127747209Y-64465856D01*
X127747209Y-63829460D02*
X127429011Y-64147658D01*
X132534322Y-59042347D02*
X132852520Y-59360545D01*
X132216124Y-59360545D02*
X132534322Y-59042347D01*
X132534322Y-69252969D02*
X132216124Y-68934771D01*
X132852520Y-68934771D02*
X132534322Y-69252969D01*
X137639633Y-64147658D02*
X137321435Y-63829460D01*
X137321435Y-64465856D02*
X137639633Y-64147658D01*
D14*
X106522428Y-70800088D02*
X106522428Y-69276088D01*
X107393285Y-70800088D02*
X106740142Y-69929231D01*
X107393285Y-69276088D02*
X106522428Y-70146945D01*
X108699571Y-69784088D02*
X108699571Y-70800088D01*
X108336714Y-69203517D02*
X107973857Y-70292088D01*
X108917285Y-70292088D01*
X110223571Y-69276088D02*
X109497857Y-69276088D01*
X109425285Y-70001802D01*
X109497857Y-69929231D01*
X109643000Y-69856660D01*
X110005857Y-69856660D01*
X110151000Y-69929231D01*
X110223571Y-70001802D01*
X110296142Y-70146945D01*
X110296142Y-70509802D01*
X110223571Y-70654945D01*
X110151000Y-70727517D01*
X110005857Y-70800088D01*
X109643000Y-70800088D01*
X109497857Y-70727517D01*
X109425285Y-70654945D01*
X72141928Y-61027428D02*
X72141928Y-59503428D01*
X73012785Y-61027428D02*
X72359642Y-60156571D01*
X73012785Y-59503428D02*
X72141928Y-60374285D01*
X74319071Y-60011428D02*
X74319071Y-61027428D01*
X73956214Y-59430857D02*
X73593357Y-60519428D01*
X74536785Y-60519428D01*
X75770500Y-59503428D02*
X75480214Y-59503428D01*
X75335071Y-59576000D01*
X75262500Y-59648571D01*
X75117357Y-59866285D01*
X75044785Y-60156571D01*
X75044785Y-60737142D01*
X75117357Y-60882285D01*
X75189928Y-60954857D01*
X75335071Y-61027428D01*
X75625357Y-61027428D01*
X75770500Y-60954857D01*
X75843071Y-60882285D01*
X75915642Y-60737142D01*
X75915642Y-60374285D01*
X75843071Y-60229142D01*
X75770500Y-60156571D01*
X75625357Y-60084000D01*
X75335071Y-60084000D01*
X75189928Y-60156571D01*
X75117357Y-60229142D01*
X75044785Y-60374285D01*
X48391928Y-61027428D02*
X48391928Y-59503428D01*
X49262785Y-61027428D02*
X48609642Y-60156571D01*
X49262785Y-59503428D02*
X48391928Y-60374285D01*
X50569071Y-60011428D02*
X50569071Y-61027428D01*
X50206214Y-59430857D02*
X49843357Y-60519428D01*
X50786785Y-60519428D01*
X51222214Y-59503428D02*
X52238214Y-59503428D01*
X51585071Y-61027428D01*
X24641928Y-61027428D02*
X24641928Y-59503428D01*
X25512785Y-61027428D02*
X24859642Y-60156571D01*
X25512785Y-59503428D02*
X24641928Y-60374285D01*
X26819071Y-60011428D02*
X26819071Y-61027428D01*
X26456214Y-59430857D02*
X26093357Y-60519428D01*
X27036785Y-60519428D01*
X27835071Y-60156571D02*
X27689928Y-60084000D01*
X27617357Y-60011428D01*
X27544785Y-59866285D01*
X27544785Y-59793714D01*
X27617357Y-59648571D01*
X27689928Y-59576000D01*
X27835071Y-59503428D01*
X28125357Y-59503428D01*
X28270500Y-59576000D01*
X28343071Y-59648571D01*
X28415642Y-59793714D01*
X28415642Y-59866285D01*
X28343071Y-60011428D01*
X28270500Y-60084000D01*
X28125357Y-60156571D01*
X27835071Y-60156571D01*
X27689928Y-60229142D01*
X27617357Y-60301714D01*
X27544785Y-60446857D01*
X27544785Y-60737142D01*
X27617357Y-60882285D01*
X27689928Y-60954857D01*
X27835071Y-61027428D01*
X28125357Y-61027428D01*
X28270500Y-60954857D01*
X28343071Y-60882285D01*
X28415642Y-60737142D01*
X28415642Y-60446857D01*
X28343071Y-60301714D01*
X28270500Y-60229142D01*
X28125357Y-60156571D01*
X8018928Y-42027428D02*
X8018928Y-40503428D01*
X8889785Y-42027428D02*
X8236642Y-41156571D01*
X8889785Y-40503428D02*
X8018928Y-41374285D01*
X9397785Y-40503428D02*
X10341214Y-40503428D01*
X9833214Y-41084000D01*
X10050928Y-41084000D01*
X10196071Y-41156571D01*
X10268642Y-41229142D01*
X10341214Y-41374285D01*
X10341214Y-41737142D01*
X10268642Y-41882285D01*
X10196071Y-41954857D01*
X10050928Y-42027428D01*
X9615500Y-42027428D01*
X9470357Y-41954857D01*
X9397785Y-41882285D01*
X11066928Y-42027428D02*
X11357214Y-42027428D01*
X11502357Y-41954857D01*
X11574928Y-41882285D01*
X11720071Y-41664571D01*
X11792642Y-41374285D01*
X11792642Y-40793714D01*
X11720071Y-40648571D01*
X11647500Y-40576000D01*
X11502357Y-40503428D01*
X11212071Y-40503428D01*
X11066928Y-40576000D01*
X10994357Y-40648571D01*
X10921785Y-40793714D01*
X10921785Y-41156571D01*
X10994357Y-41301714D01*
X11066928Y-41374285D01*
X11212071Y-41446857D01*
X11502357Y-41446857D01*
X11647500Y-41374285D01*
X11720071Y-41301714D01*
X11792642Y-41156571D01*
X27018928Y-42027428D02*
X27018928Y-40503428D01*
X27889785Y-42027428D02*
X27236642Y-41156571D01*
X27889785Y-40503428D02*
X27018928Y-41374285D01*
X28397785Y-40503428D02*
X29341214Y-40503428D01*
X28833214Y-41084000D01*
X29050928Y-41084000D01*
X29196071Y-41156571D01*
X29268642Y-41229142D01*
X29341214Y-41374285D01*
X29341214Y-41737142D01*
X29268642Y-41882285D01*
X29196071Y-41954857D01*
X29050928Y-42027428D01*
X28615500Y-42027428D01*
X28470357Y-41954857D01*
X28397785Y-41882285D01*
X30212071Y-41156571D02*
X30066928Y-41084000D01*
X29994357Y-41011428D01*
X29921785Y-40866285D01*
X29921785Y-40793714D01*
X29994357Y-40648571D01*
X30066928Y-40576000D01*
X30212071Y-40503428D01*
X30502357Y-40503428D01*
X30647500Y-40576000D01*
X30720071Y-40648571D01*
X30792642Y-40793714D01*
X30792642Y-40866285D01*
X30720071Y-41011428D01*
X30647500Y-41084000D01*
X30502357Y-41156571D01*
X30212071Y-41156571D01*
X30066928Y-41229142D01*
X29994357Y-41301714D01*
X29921785Y-41446857D01*
X29921785Y-41737142D01*
X29994357Y-41882285D01*
X30066928Y-41954857D01*
X30212071Y-42027428D01*
X30502357Y-42027428D01*
X30647500Y-41954857D01*
X30720071Y-41882285D01*
X30792642Y-41737142D01*
X30792642Y-41446857D01*
X30720071Y-41301714D01*
X30647500Y-41229142D01*
X30502357Y-41156571D01*
X46018928Y-42027428D02*
X46018928Y-40503428D01*
X46889785Y-42027428D02*
X46236642Y-41156571D01*
X46889785Y-40503428D02*
X46018928Y-41374285D01*
X47397785Y-40503428D02*
X48341214Y-40503428D01*
X47833214Y-41084000D01*
X48050928Y-41084000D01*
X48196071Y-41156571D01*
X48268642Y-41229142D01*
X48341214Y-41374285D01*
X48341214Y-41737142D01*
X48268642Y-41882285D01*
X48196071Y-41954857D01*
X48050928Y-42027428D01*
X47615500Y-42027428D01*
X47470357Y-41954857D01*
X47397785Y-41882285D01*
X48849214Y-40503428D02*
X49865214Y-40503428D01*
X49212071Y-42027428D01*
X65018928Y-42027428D02*
X65018928Y-40503428D01*
X65889785Y-42027428D02*
X65236642Y-41156571D01*
X65889785Y-40503428D02*
X65018928Y-41374285D01*
X66397785Y-40503428D02*
X67341214Y-40503428D01*
X66833214Y-41084000D01*
X67050928Y-41084000D01*
X67196071Y-41156571D01*
X67268642Y-41229142D01*
X67341214Y-41374285D01*
X67341214Y-41737142D01*
X67268642Y-41882285D01*
X67196071Y-41954857D01*
X67050928Y-42027428D01*
X66615500Y-42027428D01*
X66470357Y-41954857D01*
X66397785Y-41882285D01*
X68647500Y-40503428D02*
X68357214Y-40503428D01*
X68212071Y-40576000D01*
X68139500Y-40648571D01*
X67994357Y-40866285D01*
X67921785Y-41156571D01*
X67921785Y-41737142D01*
X67994357Y-41882285D01*
X68066928Y-41954857D01*
X68212071Y-42027428D01*
X68502357Y-42027428D01*
X68647500Y-41954857D01*
X68720071Y-41882285D01*
X68792642Y-41737142D01*
X68792642Y-41374285D01*
X68720071Y-41229142D01*
X68647500Y-41156571D01*
X68502357Y-41084000D01*
X68212071Y-41084000D01*
X68066928Y-41156571D01*
X67994357Y-41229142D01*
X67921785Y-41374285D01*
X84018928Y-42027428D02*
X84018928Y-40503428D01*
X84889785Y-42027428D02*
X84236642Y-41156571D01*
X84889785Y-40503428D02*
X84018928Y-41374285D01*
X85397785Y-40503428D02*
X86341214Y-40503428D01*
X85833214Y-41084000D01*
X86050928Y-41084000D01*
X86196071Y-41156571D01*
X86268642Y-41229142D01*
X86341214Y-41374285D01*
X86341214Y-41737142D01*
X86268642Y-41882285D01*
X86196071Y-41954857D01*
X86050928Y-42027428D01*
X85615500Y-42027428D01*
X85470357Y-41954857D01*
X85397785Y-41882285D01*
X87720071Y-40503428D02*
X86994357Y-40503428D01*
X86921785Y-41229142D01*
X86994357Y-41156571D01*
X87139500Y-41084000D01*
X87502357Y-41084000D01*
X87647500Y-41156571D01*
X87720071Y-41229142D01*
X87792642Y-41374285D01*
X87792642Y-41737142D01*
X87720071Y-41882285D01*
X87647500Y-41954857D01*
X87502357Y-42027428D01*
X87139500Y-42027428D01*
X86994357Y-41954857D01*
X86921785Y-41882285D01*
X103018928Y-42027428D02*
X103018928Y-40503428D01*
X103889785Y-42027428D02*
X103236642Y-41156571D01*
X103889785Y-40503428D02*
X103018928Y-41374285D01*
X104397785Y-40503428D02*
X105341214Y-40503428D01*
X104833214Y-41084000D01*
X105050928Y-41084000D01*
X105196071Y-41156571D01*
X105268642Y-41229142D01*
X105341214Y-41374285D01*
X105341214Y-41737142D01*
X105268642Y-41882285D01*
X105196071Y-41954857D01*
X105050928Y-42027428D01*
X104615500Y-42027428D01*
X104470357Y-41954857D01*
X104397785Y-41882285D01*
X106647500Y-41011428D02*
X106647500Y-42027428D01*
X106284642Y-40430857D02*
X105921785Y-41519428D01*
X106865214Y-41519428D01*
X122018928Y-42027428D02*
X122018928Y-40503428D01*
X122889785Y-42027428D02*
X122236642Y-41156571D01*
X122889785Y-40503428D02*
X122018928Y-41374285D01*
X124196071Y-41011428D02*
X124196071Y-42027428D01*
X123833214Y-40430857D02*
X123470357Y-41519428D01*
X124413785Y-41519428D01*
X125284642Y-40503428D02*
X125429785Y-40503428D01*
X125574928Y-40576000D01*
X125647500Y-40648571D01*
X125720071Y-40793714D01*
X125792642Y-41084000D01*
X125792642Y-41446857D01*
X125720071Y-41737142D01*
X125647500Y-41882285D01*
X125574928Y-41954857D01*
X125429785Y-42027428D01*
X125284642Y-42027428D01*
X125139500Y-41954857D01*
X125066928Y-41882285D01*
X124994357Y-41737142D01*
X124921785Y-41446857D01*
X124921785Y-41084000D01*
X124994357Y-40793714D01*
X125066928Y-40648571D01*
X125139500Y-40576000D01*
X125284642Y-40503428D01*
X238391928Y-61027428D02*
X238391928Y-59503428D01*
X239262785Y-61027428D02*
X238609642Y-60156571D01*
X239262785Y-59503428D02*
X238391928Y-60374285D01*
X240569071Y-60011428D02*
X240569071Y-61027428D01*
X240206214Y-59430857D02*
X239843357Y-60519428D01*
X240786785Y-60519428D01*
X242165642Y-61027428D02*
X241294785Y-61027428D01*
X241730214Y-61027428D02*
X241730214Y-59503428D01*
X241585071Y-59721142D01*
X241439928Y-59866285D01*
X241294785Y-59938857D01*
X214641928Y-61027428D02*
X214641928Y-59503428D01*
X215512785Y-61027428D02*
X214859642Y-60156571D01*
X215512785Y-59503428D02*
X214641928Y-60374285D01*
X216819071Y-60011428D02*
X216819071Y-61027428D01*
X216456214Y-59430857D02*
X216093357Y-60519428D01*
X217036785Y-60519428D01*
X217544785Y-59648571D02*
X217617357Y-59576000D01*
X217762500Y-59503428D01*
X218125357Y-59503428D01*
X218270500Y-59576000D01*
X218343071Y-59648571D01*
X218415642Y-59793714D01*
X218415642Y-59938857D01*
X218343071Y-60156571D01*
X217472214Y-61027428D01*
X218415642Y-61027428D01*
X190891928Y-61027428D02*
X190891928Y-59503428D01*
X191762785Y-61027428D02*
X191109642Y-60156571D01*
X191762785Y-59503428D02*
X190891928Y-60374285D01*
X193069071Y-60011428D02*
X193069071Y-61027428D01*
X192706214Y-59430857D02*
X192343357Y-60519428D01*
X193286785Y-60519428D01*
X193722214Y-59503428D02*
X194665642Y-59503428D01*
X194157642Y-60084000D01*
X194375357Y-60084000D01*
X194520500Y-60156571D01*
X194593071Y-60229142D01*
X194665642Y-60374285D01*
X194665642Y-60737142D01*
X194593071Y-60882285D01*
X194520500Y-60954857D01*
X194375357Y-61027428D01*
X193939928Y-61027428D01*
X193794785Y-60954857D01*
X193722214Y-60882285D01*
X154022428Y-71308088D02*
X154022428Y-69784088D01*
X154893285Y-71308088D02*
X154240142Y-70437231D01*
X154893285Y-69784088D02*
X154022428Y-70654945D01*
X156199571Y-70292088D02*
X156199571Y-71308088D01*
X155836714Y-69711517D02*
X155473857Y-70800088D01*
X156417285Y-70800088D01*
X157651000Y-70292088D02*
X157651000Y-71308088D01*
X157288142Y-69711517D02*
X156925285Y-70800088D01*
X157868714Y-70800088D01*
X141018928Y-42027428D02*
X141018928Y-40503428D01*
X141889785Y-42027428D02*
X141236642Y-41156571D01*
X141889785Y-40503428D02*
X141018928Y-41374285D01*
X142397785Y-40503428D02*
X143341214Y-40503428D01*
X142833214Y-41084000D01*
X143050928Y-41084000D01*
X143196071Y-41156571D01*
X143268642Y-41229142D01*
X143341214Y-41374285D01*
X143341214Y-41737142D01*
X143268642Y-41882285D01*
X143196071Y-41954857D01*
X143050928Y-42027428D01*
X142615500Y-42027428D01*
X142470357Y-41954857D01*
X142397785Y-41882285D01*
X143849214Y-40503428D02*
X144792642Y-40503428D01*
X144284642Y-41084000D01*
X144502357Y-41084000D01*
X144647500Y-41156571D01*
X144720071Y-41229142D01*
X144792642Y-41374285D01*
X144792642Y-41737142D01*
X144720071Y-41882285D01*
X144647500Y-41954857D01*
X144502357Y-42027428D01*
X144066928Y-42027428D01*
X143921785Y-41954857D01*
X143849214Y-41882285D01*
X160018928Y-42027428D02*
X160018928Y-40503428D01*
X160889785Y-42027428D02*
X160236642Y-41156571D01*
X160889785Y-40503428D02*
X160018928Y-41374285D01*
X161397785Y-40503428D02*
X162341214Y-40503428D01*
X161833214Y-41084000D01*
X162050928Y-41084000D01*
X162196071Y-41156571D01*
X162268642Y-41229142D01*
X162341214Y-41374285D01*
X162341214Y-41737142D01*
X162268642Y-41882285D01*
X162196071Y-41954857D01*
X162050928Y-42027428D01*
X161615500Y-42027428D01*
X161470357Y-41954857D01*
X161397785Y-41882285D01*
X162921785Y-40648571D02*
X162994357Y-40576000D01*
X163139500Y-40503428D01*
X163502357Y-40503428D01*
X163647500Y-40576000D01*
X163720071Y-40648571D01*
X163792642Y-40793714D01*
X163792642Y-40938857D01*
X163720071Y-41156571D01*
X162849214Y-42027428D01*
X163792642Y-42027428D01*
X179018928Y-42027428D02*
X179018928Y-40503428D01*
X179889785Y-42027428D02*
X179236642Y-41156571D01*
X179889785Y-40503428D02*
X179018928Y-41374285D01*
X180397785Y-40503428D02*
X181341214Y-40503428D01*
X180833214Y-41084000D01*
X181050928Y-41084000D01*
X181196071Y-41156571D01*
X181268642Y-41229142D01*
X181341214Y-41374285D01*
X181341214Y-41737142D01*
X181268642Y-41882285D01*
X181196071Y-41954857D01*
X181050928Y-42027428D01*
X180615500Y-42027428D01*
X180470357Y-41954857D01*
X180397785Y-41882285D01*
X182792642Y-42027428D02*
X181921785Y-42027428D01*
X182357214Y-42027428D02*
X182357214Y-40503428D01*
X182212071Y-40721142D01*
X182066928Y-40866285D01*
X181921785Y-40938857D01*
X198018928Y-42027428D02*
X198018928Y-40503428D01*
X198889785Y-42027428D02*
X198236642Y-41156571D01*
X198889785Y-40503428D02*
X198018928Y-41374285D01*
X199397785Y-40503428D02*
X200341214Y-40503428D01*
X199833214Y-41084000D01*
X200050928Y-41084000D01*
X200196071Y-41156571D01*
X200268642Y-41229142D01*
X200341214Y-41374285D01*
X200341214Y-41737142D01*
X200268642Y-41882285D01*
X200196071Y-41954857D01*
X200050928Y-42027428D01*
X199615500Y-42027428D01*
X199470357Y-41954857D01*
X199397785Y-41882285D01*
X201284642Y-40503428D02*
X201429785Y-40503428D01*
X201574928Y-40576000D01*
X201647500Y-40648571D01*
X201720071Y-40793714D01*
X201792642Y-41084000D01*
X201792642Y-41446857D01*
X201720071Y-41737142D01*
X201647500Y-41882285D01*
X201574928Y-41954857D01*
X201429785Y-42027428D01*
X201284642Y-42027428D01*
X201139500Y-41954857D01*
X201066928Y-41882285D01*
X200994357Y-41737142D01*
X200921785Y-41446857D01*
X200921785Y-41084000D01*
X200994357Y-40793714D01*
X201066928Y-40648571D01*
X201139500Y-40576000D01*
X201284642Y-40503428D01*
X217018928Y-42027428D02*
X217018928Y-40503428D01*
X217889785Y-42027428D02*
X217236642Y-41156571D01*
X217889785Y-40503428D02*
X217018928Y-41374285D01*
X218470357Y-40648571D02*
X218542928Y-40576000D01*
X218688071Y-40503428D01*
X219050928Y-40503428D01*
X219196071Y-40576000D01*
X219268642Y-40648571D01*
X219341214Y-40793714D01*
X219341214Y-40938857D01*
X219268642Y-41156571D01*
X218397785Y-42027428D01*
X219341214Y-42027428D01*
X220066928Y-42027428D02*
X220357214Y-42027428D01*
X220502357Y-41954857D01*
X220574928Y-41882285D01*
X220720071Y-41664571D01*
X220792642Y-41374285D01*
X220792642Y-40793714D01*
X220720071Y-40648571D01*
X220647500Y-40576000D01*
X220502357Y-40503428D01*
X220212071Y-40503428D01*
X220066928Y-40576000D01*
X219994357Y-40648571D01*
X219921785Y-40793714D01*
X219921785Y-41156571D01*
X219994357Y-41301714D01*
X220066928Y-41374285D01*
X220212071Y-41446857D01*
X220502357Y-41446857D01*
X220647500Y-41374285D01*
X220720071Y-41301714D01*
X220792642Y-41156571D01*
X236018928Y-42027428D02*
X236018928Y-40503428D01*
X236889785Y-42027428D02*
X236236642Y-41156571D01*
X236889785Y-40503428D02*
X236018928Y-41374285D01*
X237470357Y-40648571D02*
X237542928Y-40576000D01*
X237688071Y-40503428D01*
X238050928Y-40503428D01*
X238196071Y-40576000D01*
X238268642Y-40648571D01*
X238341214Y-40793714D01*
X238341214Y-40938857D01*
X238268642Y-41156571D01*
X237397785Y-42027428D01*
X238341214Y-42027428D01*
X239212071Y-41156571D02*
X239066928Y-41084000D01*
X238994357Y-41011428D01*
X238921785Y-40866285D01*
X238921785Y-40793714D01*
X238994357Y-40648571D01*
X239066928Y-40576000D01*
X239212071Y-40503428D01*
X239502357Y-40503428D01*
X239647500Y-40576000D01*
X239720071Y-40648571D01*
X239792642Y-40793714D01*
X239792642Y-40866285D01*
X239720071Y-41011428D01*
X239647500Y-41084000D01*
X239502357Y-41156571D01*
X239212071Y-41156571D01*
X239066928Y-41229142D01*
X238994357Y-41301714D01*
X238921785Y-41446857D01*
X238921785Y-41737142D01*
X238994357Y-41882285D01*
X239066928Y-41954857D01*
X239212071Y-42027428D01*
X239502357Y-42027428D01*
X239647500Y-41954857D01*
X239720071Y-41882285D01*
X239792642Y-41737142D01*
X239792642Y-41446857D01*
X239720071Y-41301714D01*
X239647500Y-41229142D01*
X239502357Y-41156571D01*
X255018928Y-42027428D02*
X255018928Y-40503428D01*
X255889785Y-42027428D02*
X255236642Y-41156571D01*
X255889785Y-40503428D02*
X255018928Y-41374285D01*
X256470357Y-40648571D02*
X256542928Y-40576000D01*
X256688071Y-40503428D01*
X257050928Y-40503428D01*
X257196071Y-40576000D01*
X257268642Y-40648571D01*
X257341214Y-40793714D01*
X257341214Y-40938857D01*
X257268642Y-41156571D01*
X256397785Y-42027428D01*
X257341214Y-42027428D01*
X257849214Y-40503428D02*
X258865214Y-40503428D01*
X258212071Y-42027428D01*
X250268928Y-23027428D02*
X250268928Y-21503428D01*
X251139785Y-23027428D02*
X250486642Y-22156571D01*
X251139785Y-21503428D02*
X250268928Y-22374285D01*
X252591214Y-23027428D02*
X251720357Y-23027428D01*
X252155785Y-23027428D02*
X252155785Y-21503428D01*
X252010642Y-21721142D01*
X251865500Y-21866285D01*
X251720357Y-21938857D01*
X253897500Y-22011428D02*
X253897500Y-23027428D01*
X253534642Y-21430857D02*
X253171785Y-22519428D01*
X254115214Y-22519428D01*
X231268928Y-23027428D02*
X231268928Y-21503428D01*
X232139785Y-23027428D02*
X231486642Y-22156571D01*
X232139785Y-21503428D02*
X231268928Y-22374285D01*
X233591214Y-23027428D02*
X232720357Y-23027428D01*
X233155785Y-23027428D02*
X233155785Y-21503428D01*
X233010642Y-21721142D01*
X232865500Y-21866285D01*
X232720357Y-21938857D01*
X234970071Y-21503428D02*
X234244357Y-21503428D01*
X234171785Y-22229142D01*
X234244357Y-22156571D01*
X234389500Y-22084000D01*
X234752357Y-22084000D01*
X234897500Y-22156571D01*
X234970071Y-22229142D01*
X235042642Y-22374285D01*
X235042642Y-22737142D01*
X234970071Y-22882285D01*
X234897500Y-22954857D01*
X234752357Y-23027428D01*
X234389500Y-23027428D01*
X234244357Y-22954857D01*
X234171785Y-22882285D01*
X212268928Y-23027428D02*
X212268928Y-21503428D01*
X213139785Y-23027428D02*
X212486642Y-22156571D01*
X213139785Y-21503428D02*
X212268928Y-22374285D01*
X214591214Y-23027428D02*
X213720357Y-23027428D01*
X214155785Y-23027428D02*
X214155785Y-21503428D01*
X214010642Y-21721142D01*
X213865500Y-21866285D01*
X213720357Y-21938857D01*
X215897500Y-21503428D02*
X215607214Y-21503428D01*
X215462071Y-21576000D01*
X215389500Y-21648571D01*
X215244357Y-21866285D01*
X215171785Y-22156571D01*
X215171785Y-22737142D01*
X215244357Y-22882285D01*
X215316928Y-22954857D01*
X215462071Y-23027428D01*
X215752357Y-23027428D01*
X215897500Y-22954857D01*
X215970071Y-22882285D01*
X216042642Y-22737142D01*
X216042642Y-22374285D01*
X215970071Y-22229142D01*
X215897500Y-22156571D01*
X215752357Y-22084000D01*
X215462071Y-22084000D01*
X215316928Y-22156571D01*
X215244357Y-22229142D01*
X215171785Y-22374285D01*
X193268928Y-23027428D02*
X193268928Y-21503428D01*
X194139785Y-23027428D02*
X193486642Y-22156571D01*
X194139785Y-21503428D02*
X193268928Y-22374285D01*
X195591214Y-23027428D02*
X194720357Y-23027428D01*
X195155785Y-23027428D02*
X195155785Y-21503428D01*
X195010642Y-21721142D01*
X194865500Y-21866285D01*
X194720357Y-21938857D01*
X196099214Y-21503428D02*
X197115214Y-21503428D01*
X196462071Y-23027428D01*
X174268928Y-23027428D02*
X174268928Y-21503428D01*
X175139785Y-23027428D02*
X174486642Y-22156571D01*
X175139785Y-21503428D02*
X174268928Y-22374285D01*
X176591214Y-23027428D02*
X175720357Y-23027428D01*
X176155785Y-23027428D02*
X176155785Y-21503428D01*
X176010642Y-21721142D01*
X175865500Y-21866285D01*
X175720357Y-21938857D01*
X177462071Y-22156571D02*
X177316928Y-22084000D01*
X177244357Y-22011428D01*
X177171785Y-21866285D01*
X177171785Y-21793714D01*
X177244357Y-21648571D01*
X177316928Y-21576000D01*
X177462071Y-21503428D01*
X177752357Y-21503428D01*
X177897500Y-21576000D01*
X177970071Y-21648571D01*
X178042642Y-21793714D01*
X178042642Y-21866285D01*
X177970071Y-22011428D01*
X177897500Y-22084000D01*
X177752357Y-22156571D01*
X177462071Y-22156571D01*
X177316928Y-22229142D01*
X177244357Y-22301714D01*
X177171785Y-22446857D01*
X177171785Y-22737142D01*
X177244357Y-22882285D01*
X177316928Y-22954857D01*
X177462071Y-23027428D01*
X177752357Y-23027428D01*
X177897500Y-22954857D01*
X177970071Y-22882285D01*
X178042642Y-22737142D01*
X178042642Y-22446857D01*
X177970071Y-22301714D01*
X177897500Y-22229142D01*
X177752357Y-22156571D01*
X155268928Y-23027428D02*
X155268928Y-21503428D01*
X156139785Y-23027428D02*
X155486642Y-22156571D01*
X156139785Y-21503428D02*
X155268928Y-22374285D01*
X157591214Y-23027428D02*
X156720357Y-23027428D01*
X157155785Y-23027428D02*
X157155785Y-21503428D01*
X157010642Y-21721142D01*
X156865500Y-21866285D01*
X156720357Y-21938857D01*
X158316928Y-23027428D02*
X158607214Y-23027428D01*
X158752357Y-22954857D01*
X158824928Y-22882285D01*
X158970071Y-22664571D01*
X159042642Y-22374285D01*
X159042642Y-21793714D01*
X158970071Y-21648571D01*
X158897500Y-21576000D01*
X158752357Y-21503428D01*
X158462071Y-21503428D01*
X158316928Y-21576000D01*
X158244357Y-21648571D01*
X158171785Y-21793714D01*
X158171785Y-22156571D01*
X158244357Y-22301714D01*
X158316928Y-22374285D01*
X158462071Y-22446857D01*
X158752357Y-22446857D01*
X158897500Y-22374285D01*
X158970071Y-22301714D01*
X159042642Y-22156571D01*
X128563128Y-22222588D02*
X128563128Y-20698588D01*
X129433985Y-22222588D02*
X128780842Y-21351731D01*
X129433985Y-20698588D02*
X128563128Y-21569445D01*
X130014557Y-20843731D02*
X130087128Y-20771160D01*
X130232271Y-20698588D01*
X130595128Y-20698588D01*
X130740271Y-20771160D01*
X130812842Y-20843731D01*
X130885414Y-20988874D01*
X130885414Y-21134017D01*
X130812842Y-21351731D01*
X129941985Y-22222588D01*
X130885414Y-22222588D01*
X131828842Y-20698588D02*
X131973985Y-20698588D01*
X132119128Y-20771160D01*
X132191700Y-20843731D01*
X132264271Y-20988874D01*
X132336842Y-21279160D01*
X132336842Y-21642017D01*
X132264271Y-21932302D01*
X132191700Y-22077445D01*
X132119128Y-22150017D01*
X131973985Y-22222588D01*
X131828842Y-22222588D01*
X131683700Y-22150017D01*
X131611128Y-22077445D01*
X131538557Y-21932302D01*
X131465985Y-21642017D01*
X131465985Y-21279160D01*
X131538557Y-20988874D01*
X131611128Y-20843731D01*
X131683700Y-20771160D01*
X131828842Y-20698588D01*
X99035628Y-23873588D02*
X99035628Y-22349588D01*
X99906485Y-23873588D02*
X99253342Y-23002731D01*
X99906485Y-22349588D02*
X99035628Y-23220445D01*
X100487057Y-22494731D02*
X100559628Y-22422160D01*
X100704771Y-22349588D01*
X101067628Y-22349588D01*
X101212771Y-22422160D01*
X101285342Y-22494731D01*
X101357914Y-22639874D01*
X101357914Y-22785017D01*
X101285342Y-23002731D01*
X100414485Y-23873588D01*
X101357914Y-23873588D01*
X102809342Y-23873588D02*
X101938485Y-23873588D01*
X102373914Y-23873588D02*
X102373914Y-22349588D01*
X102228771Y-22567302D01*
X102083628Y-22712445D01*
X101938485Y-22785017D01*
X88768928Y-23027428D02*
X88768928Y-21503428D01*
X89639785Y-23027428D02*
X88986642Y-22156571D01*
X89639785Y-21503428D02*
X88768928Y-22374285D01*
X90220357Y-21648571D02*
X90292928Y-21576000D01*
X90438071Y-21503428D01*
X90800928Y-21503428D01*
X90946071Y-21576000D01*
X91018642Y-21648571D01*
X91091214Y-21793714D01*
X91091214Y-21938857D01*
X91018642Y-22156571D01*
X90147785Y-23027428D01*
X91091214Y-23027428D01*
X91671785Y-21648571D02*
X91744357Y-21576000D01*
X91889500Y-21503428D01*
X92252357Y-21503428D01*
X92397500Y-21576000D01*
X92470071Y-21648571D01*
X92542642Y-21793714D01*
X92542642Y-21938857D01*
X92470071Y-22156571D01*
X91599214Y-23027428D01*
X92542642Y-23027428D01*
X69768928Y-23027428D02*
X69768928Y-21503428D01*
X70639785Y-23027428D02*
X69986642Y-22156571D01*
X70639785Y-21503428D02*
X69768928Y-22374285D01*
X71220357Y-21648571D02*
X71292928Y-21576000D01*
X71438071Y-21503428D01*
X71800928Y-21503428D01*
X71946071Y-21576000D01*
X72018642Y-21648571D01*
X72091214Y-21793714D01*
X72091214Y-21938857D01*
X72018642Y-22156571D01*
X71147785Y-23027428D01*
X72091214Y-23027428D01*
X72599214Y-21503428D02*
X73542642Y-21503428D01*
X73034642Y-22084000D01*
X73252357Y-22084000D01*
X73397500Y-22156571D01*
X73470071Y-22229142D01*
X73542642Y-22374285D01*
X73542642Y-22737142D01*
X73470071Y-22882285D01*
X73397500Y-22954857D01*
X73252357Y-23027428D01*
X72816928Y-23027428D01*
X72671785Y-22954857D01*
X72599214Y-22882285D01*
X50768928Y-23027428D02*
X50768928Y-21503428D01*
X51639785Y-23027428D02*
X50986642Y-22156571D01*
X51639785Y-21503428D02*
X50768928Y-22374285D01*
X52220357Y-21648571D02*
X52292928Y-21576000D01*
X52438071Y-21503428D01*
X52800928Y-21503428D01*
X52946071Y-21576000D01*
X53018642Y-21648571D01*
X53091214Y-21793714D01*
X53091214Y-21938857D01*
X53018642Y-22156571D01*
X52147785Y-23027428D01*
X53091214Y-23027428D01*
X54397500Y-22011428D02*
X54397500Y-23027428D01*
X54034642Y-21430857D02*
X53671785Y-22519428D01*
X54615214Y-22519428D01*
X31768928Y-23027428D02*
X31768928Y-21503428D01*
X32639785Y-23027428D02*
X31986642Y-22156571D01*
X32639785Y-21503428D02*
X31768928Y-22374285D01*
X33220357Y-21648571D02*
X33292928Y-21576000D01*
X33438071Y-21503428D01*
X33800928Y-21503428D01*
X33946071Y-21576000D01*
X34018642Y-21648571D01*
X34091214Y-21793714D01*
X34091214Y-21938857D01*
X34018642Y-22156571D01*
X33147785Y-23027428D01*
X34091214Y-23027428D01*
X35470071Y-21503428D02*
X34744357Y-21503428D01*
X34671785Y-22229142D01*
X34744357Y-22156571D01*
X34889500Y-22084000D01*
X35252357Y-22084000D01*
X35397500Y-22156571D01*
X35470071Y-22229142D01*
X35542642Y-22374285D01*
X35542642Y-22737142D01*
X35470071Y-22882285D01*
X35397500Y-22954857D01*
X35252357Y-23027428D01*
X34889500Y-23027428D01*
X34744357Y-22954857D01*
X34671785Y-22882285D01*
X12768928Y-23027428D02*
X12768928Y-21503428D01*
X13639785Y-23027428D02*
X12986642Y-22156571D01*
X13639785Y-21503428D02*
X12768928Y-22374285D01*
X14220357Y-21648571D02*
X14292928Y-21576000D01*
X14438071Y-21503428D01*
X14800928Y-21503428D01*
X14946071Y-21576000D01*
X15018642Y-21648571D01*
X15091214Y-21793714D01*
X15091214Y-21938857D01*
X15018642Y-22156571D01*
X14147785Y-23027428D01*
X15091214Y-23027428D01*
X16397500Y-21503428D02*
X16107214Y-21503428D01*
X15962071Y-21576000D01*
X15889500Y-21648571D01*
X15744357Y-21866285D01*
X15671785Y-22156571D01*
X15671785Y-22737142D01*
X15744357Y-22882285D01*
X15816928Y-22954857D01*
X15962071Y-23027428D01*
X16252357Y-23027428D01*
X16397500Y-22954857D01*
X16470071Y-22882285D01*
X16542642Y-22737142D01*
X16542642Y-22374285D01*
X16470071Y-22229142D01*
X16397500Y-22156571D01*
X16252357Y-22084000D01*
X15962071Y-22084000D01*
X15816928Y-22156571D01*
X15744357Y-22229142D01*
X15671785Y-22374285D01*
X17518928Y-4027428D02*
X17518928Y-2503428D01*
X18389785Y-4027428D02*
X17736642Y-3156571D01*
X18389785Y-2503428D02*
X17518928Y-3374285D01*
X19841214Y-4027428D02*
X18970357Y-4027428D01*
X19405785Y-4027428D02*
X19405785Y-2503428D01*
X19260642Y-2721142D01*
X19115500Y-2866285D01*
X18970357Y-2938857D01*
X20349214Y-2503428D02*
X21292642Y-2503428D01*
X20784642Y-3084000D01*
X21002357Y-3084000D01*
X21147500Y-3156571D01*
X21220071Y-3229142D01*
X21292642Y-3374285D01*
X21292642Y-3737142D01*
X21220071Y-3882285D01*
X21147500Y-3954857D01*
X21002357Y-4027428D01*
X20566928Y-4027428D01*
X20421785Y-3954857D01*
X20349214Y-3882285D01*
X36518928Y-4027428D02*
X36518928Y-2503428D01*
X37389785Y-4027428D02*
X36736642Y-3156571D01*
X37389785Y-2503428D02*
X36518928Y-3374285D01*
X38841214Y-4027428D02*
X37970357Y-4027428D01*
X38405785Y-4027428D02*
X38405785Y-2503428D01*
X38260642Y-2721142D01*
X38115500Y-2866285D01*
X37970357Y-2938857D01*
X39421785Y-2648571D02*
X39494357Y-2576000D01*
X39639500Y-2503428D01*
X40002357Y-2503428D01*
X40147500Y-2576000D01*
X40220071Y-2648571D01*
X40292642Y-2793714D01*
X40292642Y-2938857D01*
X40220071Y-3156571D01*
X39349214Y-4027428D01*
X40292642Y-4027428D01*
X55518928Y-4027428D02*
X55518928Y-2503428D01*
X56389785Y-4027428D02*
X55736642Y-3156571D01*
X56389785Y-2503428D02*
X55518928Y-3374285D01*
X57841214Y-4027428D02*
X56970357Y-4027428D01*
X57405785Y-4027428D02*
X57405785Y-2503428D01*
X57260642Y-2721142D01*
X57115500Y-2866285D01*
X56970357Y-2938857D01*
X59292642Y-4027428D02*
X58421785Y-4027428D01*
X58857214Y-4027428D02*
X58857214Y-2503428D01*
X58712071Y-2721142D01*
X58566928Y-2866285D01*
X58421785Y-2938857D01*
X74518928Y-4027428D02*
X74518928Y-2503428D01*
X75389785Y-4027428D02*
X74736642Y-3156571D01*
X75389785Y-2503428D02*
X74518928Y-3374285D01*
X76841214Y-4027428D02*
X75970357Y-4027428D01*
X76405785Y-4027428D02*
X76405785Y-2503428D01*
X76260642Y-2721142D01*
X76115500Y-2866285D01*
X75970357Y-2938857D01*
X77784642Y-2503428D02*
X77929785Y-2503428D01*
X78074928Y-2576000D01*
X78147500Y-2648571D01*
X78220071Y-2793714D01*
X78292642Y-3084000D01*
X78292642Y-3446857D01*
X78220071Y-3737142D01*
X78147500Y-3882285D01*
X78074928Y-3954857D01*
X77929785Y-4027428D01*
X77784642Y-4027428D01*
X77639500Y-3954857D01*
X77566928Y-3882285D01*
X77494357Y-3737142D01*
X77421785Y-3446857D01*
X77421785Y-3084000D01*
X77494357Y-2793714D01*
X77566928Y-2648571D01*
X77639500Y-2576000D01*
X77784642Y-2503428D01*
X246244642Y-4027428D02*
X246244642Y-2503428D01*
X247115500Y-4027428D02*
X246462357Y-3156571D01*
X247115500Y-2503428D02*
X246244642Y-3374285D01*
X248566928Y-4027428D02*
X247696071Y-4027428D01*
X248131500Y-4027428D02*
X248131500Y-2503428D01*
X247986357Y-2721142D01*
X247841214Y-2866285D01*
X247696071Y-2938857D01*
X227244642Y-4027428D02*
X227244642Y-2503428D01*
X228115500Y-4027428D02*
X227462357Y-3156571D01*
X228115500Y-2503428D02*
X227244642Y-3374285D01*
X228696071Y-2648571D02*
X228768642Y-2576000D01*
X228913785Y-2503428D01*
X229276642Y-2503428D01*
X229421785Y-2576000D01*
X229494357Y-2648571D01*
X229566928Y-2793714D01*
X229566928Y-2938857D01*
X229494357Y-3156571D01*
X228623500Y-4027428D01*
X229566928Y-4027428D01*
X198313342Y-5331588D02*
X198313342Y-3807588D01*
X199184200Y-5331588D02*
X198531057Y-4460731D01*
X199184200Y-3807588D02*
X198313342Y-4678445D01*
X199692200Y-3807588D02*
X200635628Y-3807588D01*
X200127628Y-4388160D01*
X200345342Y-4388160D01*
X200490485Y-4460731D01*
X200563057Y-4533302D01*
X200635628Y-4678445D01*
X200635628Y-5041302D01*
X200563057Y-5186445D01*
X200490485Y-5259017D01*
X200345342Y-5331588D01*
X199909914Y-5331588D01*
X199764771Y-5259017D01*
X199692200Y-5186445D01*
X189244642Y-4027428D02*
X189244642Y-2503428D01*
X190115500Y-4027428D02*
X189462357Y-3156571D01*
X190115500Y-2503428D02*
X189244642Y-3374285D01*
X191421785Y-3011428D02*
X191421785Y-4027428D01*
X191058928Y-2430857D02*
X190696071Y-3519428D01*
X191639500Y-3519428D01*
X170244642Y-4027428D02*
X170244642Y-2503428D01*
X171115500Y-4027428D02*
X170462357Y-3156571D01*
X171115500Y-2503428D02*
X170244642Y-3374285D01*
X172494357Y-2503428D02*
X171768642Y-2503428D01*
X171696071Y-3229142D01*
X171768642Y-3156571D01*
X171913785Y-3084000D01*
X172276642Y-3084000D01*
X172421785Y-3156571D01*
X172494357Y-3229142D01*
X172566928Y-3374285D01*
X172566928Y-3737142D01*
X172494357Y-3882285D01*
X172421785Y-3954857D01*
X172276642Y-4027428D01*
X171913785Y-4027428D01*
X171768642Y-3954857D01*
X171696071Y-3882285D01*
X151244642Y-4027428D02*
X151244642Y-2503428D01*
X152115500Y-4027428D02*
X151462357Y-3156571D01*
X152115500Y-2503428D02*
X151244642Y-3374285D01*
X153421785Y-2503428D02*
X153131500Y-2503428D01*
X152986357Y-2576000D01*
X152913785Y-2648571D01*
X152768642Y-2866285D01*
X152696071Y-3156571D01*
X152696071Y-3737142D01*
X152768642Y-3882285D01*
X152841214Y-3954857D01*
X152986357Y-4027428D01*
X153276642Y-4027428D01*
X153421785Y-3954857D01*
X153494357Y-3882285D01*
X153566928Y-3737142D01*
X153566928Y-3374285D01*
X153494357Y-3229142D01*
X153421785Y-3156571D01*
X153276642Y-3084000D01*
X152986357Y-3084000D01*
X152841214Y-3156571D01*
X152768642Y-3229142D01*
X152696071Y-3374285D01*
X132244642Y-4027428D02*
X132244642Y-2503428D01*
X133115500Y-4027428D02*
X132462357Y-3156571D01*
X133115500Y-2503428D02*
X132244642Y-3374285D01*
X133623500Y-2503428D02*
X134639500Y-2503428D01*
X133986357Y-4027428D01*
X113244642Y-4027428D02*
X113244642Y-2503428D01*
X114115500Y-4027428D02*
X113462357Y-3156571D01*
X114115500Y-2503428D02*
X113244642Y-3374285D01*
X114986357Y-3156571D02*
X114841214Y-3084000D01*
X114768642Y-3011428D01*
X114696071Y-2866285D01*
X114696071Y-2793714D01*
X114768642Y-2648571D01*
X114841214Y-2576000D01*
X114986357Y-2503428D01*
X115276642Y-2503428D01*
X115421785Y-2576000D01*
X115494357Y-2648571D01*
X115566928Y-2793714D01*
X115566928Y-2866285D01*
X115494357Y-3011428D01*
X115421785Y-3084000D01*
X115276642Y-3156571D01*
X114986357Y-3156571D01*
X114841214Y-3229142D01*
X114768642Y-3301714D01*
X114696071Y-3446857D01*
X114696071Y-3737142D01*
X114768642Y-3882285D01*
X114841214Y-3954857D01*
X114986357Y-4027428D01*
X115276642Y-4027428D01*
X115421785Y-3954857D01*
X115494357Y-3882285D01*
X115566928Y-3737142D01*
X115566928Y-3446857D01*
X115494357Y-3301714D01*
X115421785Y-3229142D01*
X115276642Y-3156571D01*
X94244642Y-4027428D02*
X94244642Y-2503428D01*
X95115500Y-4027428D02*
X94462357Y-3156571D01*
X95115500Y-2503428D02*
X94244642Y-3374285D01*
X95841214Y-4027428D02*
X96131500Y-4027428D01*
X96276642Y-3954857D01*
X96349214Y-3882285D01*
X96494357Y-3664571D01*
X96566928Y-3374285D01*
X96566928Y-2793714D01*
X96494357Y-2648571D01*
X96421785Y-2576000D01*
X96276642Y-2503428D01*
X95986357Y-2503428D01*
X95841214Y-2576000D01*
X95768642Y-2648571D01*
X95696071Y-2793714D01*
X95696071Y-3156571D01*
X95768642Y-3301714D01*
X95841214Y-3374285D01*
X95986357Y-3446857D01*
X96276642Y-3446857D01*
X96421785Y-3374285D01*
X96494357Y-3301714D01*
X96566928Y-3156571D01*
D11*
X138819604Y-16397540D02*
X138819604Y-15397540D01*
X139057700Y-15397540D01*
X139200557Y-15445160D01*
X139295795Y-15540398D01*
X139343414Y-15635636D01*
X139391033Y-15826112D01*
X139391033Y-15968969D01*
X139343414Y-16159445D01*
X139295795Y-16254683D01*
X139200557Y-16349921D01*
X139057700Y-16397540D01*
X138819604Y-16397540D01*
X139771985Y-15492779D02*
X139819604Y-15445160D01*
X139914842Y-15397540D01*
X140152938Y-15397540D01*
X140248176Y-15445160D01*
X140295795Y-15492779D01*
X140343414Y-15588017D01*
X140343414Y-15683255D01*
X140295795Y-15826112D01*
X139724366Y-16397540D01*
X140343414Y-16397540D01*
X202970580Y-2141755D02*
X201970580Y-2141755D01*
X201970580Y-1903660D01*
X202018200Y-1760802D01*
X202113438Y-1665564D01*
X202208676Y-1617945D01*
X202399152Y-1570326D01*
X202542009Y-1570326D01*
X202732485Y-1617945D01*
X202827723Y-1665564D01*
X202922961Y-1760802D01*
X202970580Y-1903660D01*
X202970580Y-2141755D01*
X202970580Y-617945D02*
X202970580Y-1189374D01*
X202970580Y-903660D02*
X201970580Y-903660D01*
X202113438Y-998898D01*
X202208676Y-1094136D01*
X202256295Y-1189374D01*
X208891771Y-1800493D02*
X208891771Y-2133826D01*
X209415580Y-2133826D02*
X208415580Y-2133826D01*
X208415580Y-1657636D01*
X209415580Y-752874D02*
X209415580Y-1324302D01*
X209415580Y-1038588D02*
X208415580Y-1038588D01*
X208558438Y-1133826D01*
X208653676Y-1229064D01*
X208701295Y-1324302D01*
X213559080Y-9785564D02*
X214368604Y-9785564D01*
X214463842Y-9737945D01*
X214511461Y-9690326D01*
X214559080Y-9595088D01*
X214559080Y-9404612D01*
X214511461Y-9309374D01*
X214463842Y-9261755D01*
X214368604Y-9214136D01*
X213559080Y-9214136D01*
X213559080Y-8833183D02*
X213559080Y-8214136D01*
X213940033Y-8547469D01*
X213940033Y-8404612D01*
X213987652Y-8309374D01*
X214035271Y-8261755D01*
X214130509Y-8214136D01*
X214368604Y-8214136D01*
X214463842Y-8261755D01*
X214511461Y-8309374D01*
X214559080Y-8404612D01*
X214559080Y-8690326D01*
X214511461Y-8785564D01*
X214463842Y-8833183D01*
X14262771Y-40945064D02*
X14262771Y-40145064D01*
X14453247Y-40145064D01*
X14567533Y-40183160D01*
X14643723Y-40259350D01*
X14681819Y-40335540D01*
X14719914Y-40487921D01*
X14719914Y-40602207D01*
X14681819Y-40754588D01*
X14643723Y-40830779D01*
X14567533Y-40906969D01*
X14453247Y-40945064D01*
X14262771Y-40945064D01*
X15062771Y-40945064D02*
X15062771Y-40145064D01*
X15253247Y-40145064D01*
X15367533Y-40183160D01*
X15443723Y-40259350D01*
X15481819Y-40335540D01*
X15519914Y-40487921D01*
X15519914Y-40602207D01*
X15481819Y-40754588D01*
X15443723Y-40830779D01*
X15367533Y-40906969D01*
X15253247Y-40945064D01*
X15062771Y-40945064D01*
X16281819Y-40945064D02*
X15824676Y-40945064D01*
X16053247Y-40945064D02*
X16053247Y-40145064D01*
X15977057Y-40259350D01*
X15900866Y-40335540D01*
X15824676Y-40373636D01*
X16738961Y-40487921D02*
X16662771Y-40449826D01*
X16624676Y-40411731D01*
X16586580Y-40335540D01*
X16586580Y-40297445D01*
X16624676Y-40221255D01*
X16662771Y-40183160D01*
X16738961Y-40145064D01*
X16891342Y-40145064D01*
X16967533Y-40183160D01*
X17005628Y-40221255D01*
X17043723Y-40297445D01*
X17043723Y-40335540D01*
X17005628Y-40411731D01*
X16967533Y-40449826D01*
X16891342Y-40487921D01*
X16738961Y-40487921D01*
X16662771Y-40526017D01*
X16624676Y-40564112D01*
X16586580Y-40640302D01*
X16586580Y-40792683D01*
X16624676Y-40868874D01*
X16662771Y-40906969D01*
X16738961Y-40945064D01*
X16891342Y-40945064D01*
X16967533Y-40906969D01*
X17005628Y-40868874D01*
X17043723Y-40792683D01*
X17043723Y-40640302D01*
X17005628Y-40564112D01*
X16967533Y-40526017D01*
X16891342Y-40487921D01*
X118427866Y-16353921D02*
X118570723Y-16401540D01*
X118808819Y-16401540D01*
X118904057Y-16353921D01*
X118951676Y-16306302D01*
X118999295Y-16211064D01*
X118999295Y-16115826D01*
X118951676Y-16020588D01*
X118904057Y-15972969D01*
X118808819Y-15925350D01*
X118618342Y-15877731D01*
X118523104Y-15830112D01*
X118475485Y-15782493D01*
X118427866Y-15687255D01*
X118427866Y-15592017D01*
X118475485Y-15496779D01*
X118523104Y-15449160D01*
X118618342Y-15401540D01*
X118856438Y-15401540D01*
X118999295Y-15449160D01*
X119332628Y-15401540D02*
X119570723Y-16401540D01*
X119761200Y-15687255D01*
X119951676Y-16401540D01*
X120189771Y-15401540D01*
X121094533Y-16401540D02*
X120523104Y-16401540D01*
X120808819Y-16401540D02*
X120808819Y-15401540D01*
X120713580Y-15544398D01*
X120618342Y-15639636D01*
X120523104Y-15687255D01*
X215019466Y-1026980D02*
X215019466Y-1741266D01*
X214971847Y-1884123D01*
X214876609Y-1979361D01*
X214733752Y-2026980D01*
X214638514Y-2026980D01*
X216019466Y-2026980D02*
X215448038Y-2026980D01*
X215733752Y-2026980D02*
X215733752Y-1026980D01*
X215638514Y-1169838D01*
X215543276Y-1265076D01*
X215448038Y-1312695D01*
X233902866Y-2595540D02*
X233902866Y-3309826D01*
X233855247Y-3452683D01*
X233760009Y-3547921D01*
X233617152Y-3595540D01*
X233521914Y-3595540D01*
X234331438Y-2690779D02*
X234379057Y-2643160D01*
X234474295Y-2595540D01*
X234712390Y-2595540D01*
X234807628Y-2643160D01*
X234855247Y-2690779D01*
X234902866Y-2786017D01*
X234902866Y-2881255D01*
X234855247Y-3024112D01*
X234283819Y-3595540D01*
X234902866Y-3595540D01*
X229164080Y-490826D02*
X228687890Y-824160D01*
X229164080Y-1062255D02*
X228164080Y-1062255D01*
X228164080Y-681302D01*
X228211700Y-586064D01*
X228259319Y-538445D01*
X228354557Y-490826D01*
X228497414Y-490826D01*
X228592652Y-538445D01*
X228640271Y-586064D01*
X228687890Y-681302D01*
X228687890Y-1062255D01*
X228164080Y-157493D02*
X228164080Y461555D01*
X228545033Y128221D01*
X228545033Y271079D01*
X228592652Y366317D01*
X228640271Y413936D01*
X228735509Y461555D01*
X228973604Y461555D01*
X229068842Y413936D01*
X229116461Y366317D01*
X229164080Y271079D01*
X229164080Y-14636D01*
X229116461Y-109874D01*
X229068842Y-157493D01*
X233253343Y-13492744D02*
X233253343Y-12692744D01*
X233443820Y-12692744D01*
X233558105Y-12730840D01*
X233634296Y-12807030D01*
X233672391Y-12883220D01*
X233710486Y-13035601D01*
X233710486Y-13149887D01*
X233672391Y-13302268D01*
X233634296Y-13378459D01*
X233558105Y-13454649D01*
X233443820Y-13492744D01*
X233253343Y-13492744D01*
X234053343Y-13492744D02*
X234053343Y-12692744D01*
X234243820Y-12692744D01*
X234358105Y-12730840D01*
X234434296Y-12807030D01*
X234472391Y-12883220D01*
X234510486Y-13035601D01*
X234510486Y-13149887D01*
X234472391Y-13302268D01*
X234434296Y-13378459D01*
X234358105Y-13454649D01*
X234243820Y-13492744D01*
X234053343Y-13492744D01*
X235272391Y-13492744D02*
X234815248Y-13492744D01*
X235043820Y-13492744D02*
X235043820Y-12692744D01*
X234967629Y-12807030D01*
X234891439Y-12883220D01*
X234815248Y-12921316D01*
X195253343Y-13492744D02*
X195253343Y-12692744D01*
X195443820Y-12692744D01*
X195558105Y-12730840D01*
X195634296Y-12807030D01*
X195672391Y-12883220D01*
X195710486Y-13035601D01*
X195710486Y-13149887D01*
X195672391Y-13302268D01*
X195634296Y-13378459D01*
X195558105Y-13454649D01*
X195443820Y-13492744D01*
X195253343Y-13492744D01*
X196053343Y-13492744D02*
X196053343Y-12692744D01*
X196243820Y-12692744D01*
X196358105Y-12730840D01*
X196434296Y-12807030D01*
X196472391Y-12883220D01*
X196510486Y-13035601D01*
X196510486Y-13149887D01*
X196472391Y-13302268D01*
X196434296Y-13378459D01*
X196358105Y-13454649D01*
X196243820Y-13492744D01*
X196053343Y-13492744D01*
X196815248Y-12768935D02*
X196853343Y-12730840D01*
X196929534Y-12692744D01*
X197120010Y-12692744D01*
X197196200Y-12730840D01*
X197234296Y-12768935D01*
X197272391Y-12845125D01*
X197272391Y-12921316D01*
X197234296Y-13035601D01*
X196777153Y-13492744D01*
X197272391Y-13492744D01*
X157253343Y-13492744D02*
X157253343Y-12692744D01*
X157443820Y-12692744D01*
X157558105Y-12730840D01*
X157634296Y-12807030D01*
X157672391Y-12883220D01*
X157710486Y-13035601D01*
X157710486Y-13149887D01*
X157672391Y-13302268D01*
X157634296Y-13378459D01*
X157558105Y-13454649D01*
X157443820Y-13492744D01*
X157253343Y-13492744D01*
X158053343Y-13492744D02*
X158053343Y-12692744D01*
X158243820Y-12692744D01*
X158358105Y-12730840D01*
X158434296Y-12807030D01*
X158472391Y-12883220D01*
X158510486Y-13035601D01*
X158510486Y-13149887D01*
X158472391Y-13302268D01*
X158434296Y-13378459D01*
X158358105Y-13454649D01*
X158243820Y-13492744D01*
X158053343Y-13492744D01*
X158777153Y-12692744D02*
X159272391Y-12692744D01*
X159005724Y-12997506D01*
X159120010Y-12997506D01*
X159196200Y-13035601D01*
X159234296Y-13073697D01*
X159272391Y-13149887D01*
X159272391Y-13340363D01*
X159234296Y-13416554D01*
X159196200Y-13454649D01*
X159120010Y-13492744D01*
X158891439Y-13492744D01*
X158815248Y-13454649D01*
X158777153Y-13416554D01*
X100253343Y-13492744D02*
X100253343Y-12692744D01*
X100443820Y-12692744D01*
X100558105Y-12730840D01*
X100634296Y-12807030D01*
X100672391Y-12883220D01*
X100710486Y-13035601D01*
X100710486Y-13149887D01*
X100672391Y-13302268D01*
X100634296Y-13378459D01*
X100558105Y-13454649D01*
X100443820Y-13492744D01*
X100253343Y-13492744D01*
X101053343Y-13492744D02*
X101053343Y-12692744D01*
X101243820Y-12692744D01*
X101358105Y-12730840D01*
X101434296Y-12807030D01*
X101472391Y-12883220D01*
X101510486Y-13035601D01*
X101510486Y-13149887D01*
X101472391Y-13302268D01*
X101434296Y-13378459D01*
X101358105Y-13454649D01*
X101243820Y-13492744D01*
X101053343Y-13492744D01*
X102196200Y-12959411D02*
X102196200Y-13492744D01*
X102005724Y-12654649D02*
X101815248Y-13226078D01*
X102310486Y-13226078D01*
X62253343Y-13492744D02*
X62253343Y-12692744D01*
X62443820Y-12692744D01*
X62558105Y-12730840D01*
X62634296Y-12807030D01*
X62672391Y-12883220D01*
X62710486Y-13035601D01*
X62710486Y-13149887D01*
X62672391Y-13302268D01*
X62634296Y-13378459D01*
X62558105Y-13454649D01*
X62443820Y-13492744D01*
X62253343Y-13492744D01*
X63053343Y-13492744D02*
X63053343Y-12692744D01*
X63243820Y-12692744D01*
X63358105Y-12730840D01*
X63434296Y-12807030D01*
X63472391Y-12883220D01*
X63510486Y-13035601D01*
X63510486Y-13149887D01*
X63472391Y-13302268D01*
X63434296Y-13378459D01*
X63358105Y-13454649D01*
X63243820Y-13492744D01*
X63053343Y-13492744D01*
X64234296Y-12692744D02*
X63853343Y-12692744D01*
X63815248Y-13073697D01*
X63853343Y-13035601D01*
X63929534Y-12997506D01*
X64120010Y-12997506D01*
X64196200Y-13035601D01*
X64234296Y-13073697D01*
X64272391Y-13149887D01*
X64272391Y-13340363D01*
X64234296Y-13416554D01*
X64196200Y-13454649D01*
X64120010Y-13492744D01*
X63929534Y-13492744D01*
X63853343Y-13454649D01*
X63815248Y-13416554D01*
X24253343Y-13492744D02*
X24253343Y-12692744D01*
X24443820Y-12692744D01*
X24558105Y-12730840D01*
X24634296Y-12807030D01*
X24672391Y-12883220D01*
X24710486Y-13035601D01*
X24710486Y-13149887D01*
X24672391Y-13302268D01*
X24634296Y-13378459D01*
X24558105Y-13454649D01*
X24443820Y-13492744D01*
X24253343Y-13492744D01*
X25053343Y-13492744D02*
X25053343Y-12692744D01*
X25243820Y-12692744D01*
X25358105Y-12730840D01*
X25434296Y-12807030D01*
X25472391Y-12883220D01*
X25510486Y-13035601D01*
X25510486Y-13149887D01*
X25472391Y-13302268D01*
X25434296Y-13378459D01*
X25358105Y-13454649D01*
X25243820Y-13492744D01*
X25053343Y-13492744D01*
X26196200Y-12692744D02*
X26043820Y-12692744D01*
X25967629Y-12730840D01*
X25929534Y-12768935D01*
X25853343Y-12883220D01*
X25815248Y-13035601D01*
X25815248Y-13340363D01*
X25853343Y-13416554D01*
X25891439Y-13454649D01*
X25967629Y-13492744D01*
X26120010Y-13492744D01*
X26196200Y-13454649D01*
X26234296Y-13416554D01*
X26272391Y-13340363D01*
X26272391Y-13149887D01*
X26234296Y-13073697D01*
X26196200Y-13035601D01*
X26120010Y-12997506D01*
X25967629Y-12997506D01*
X25891439Y-13035601D01*
X25853343Y-13073697D01*
X25815248Y-13149887D01*
X238071723Y-34087064D02*
X238071723Y-33287064D01*
X238262200Y-33287064D01*
X238376485Y-33325160D01*
X238452676Y-33401350D01*
X238490771Y-33477540D01*
X238528866Y-33629921D01*
X238528866Y-33744207D01*
X238490771Y-33896588D01*
X238452676Y-33972779D01*
X238376485Y-34048969D01*
X238262200Y-34087064D01*
X238071723Y-34087064D01*
X238871723Y-34087064D02*
X238871723Y-33287064D01*
X239062200Y-33287064D01*
X239176485Y-33325160D01*
X239252676Y-33401350D01*
X239290771Y-33477540D01*
X239328866Y-33629921D01*
X239328866Y-33744207D01*
X239290771Y-33896588D01*
X239252676Y-33972779D01*
X239176485Y-34048969D01*
X239062200Y-34087064D01*
X238871723Y-34087064D01*
X239595533Y-33287064D02*
X240128866Y-33287064D01*
X239786009Y-34087064D01*
X200071723Y-34087064D02*
X200071723Y-33287064D01*
X200262200Y-33287064D01*
X200376485Y-33325160D01*
X200452676Y-33401350D01*
X200490771Y-33477540D01*
X200528866Y-33629921D01*
X200528866Y-33744207D01*
X200490771Y-33896588D01*
X200452676Y-33972779D01*
X200376485Y-34048969D01*
X200262200Y-34087064D01*
X200071723Y-34087064D01*
X200871723Y-34087064D02*
X200871723Y-33287064D01*
X201062200Y-33287064D01*
X201176485Y-33325160D01*
X201252676Y-33401350D01*
X201290771Y-33477540D01*
X201328866Y-33629921D01*
X201328866Y-33744207D01*
X201290771Y-33896588D01*
X201252676Y-33972779D01*
X201176485Y-34048969D01*
X201062200Y-34087064D01*
X200871723Y-34087064D01*
X201786009Y-33629921D02*
X201709819Y-33591826D01*
X201671723Y-33553731D01*
X201633628Y-33477540D01*
X201633628Y-33439445D01*
X201671723Y-33363255D01*
X201709819Y-33325160D01*
X201786009Y-33287064D01*
X201938390Y-33287064D01*
X202014580Y-33325160D01*
X202052676Y-33363255D01*
X202090771Y-33439445D01*
X202090771Y-33477540D01*
X202052676Y-33553731D01*
X202014580Y-33591826D01*
X201938390Y-33629921D01*
X201786009Y-33629921D01*
X201709819Y-33668017D01*
X201671723Y-33706112D01*
X201633628Y-33782302D01*
X201633628Y-33934683D01*
X201671723Y-34010874D01*
X201709819Y-34048969D01*
X201786009Y-34087064D01*
X201938390Y-34087064D01*
X202014580Y-34048969D01*
X202052676Y-34010874D01*
X202090771Y-33934683D01*
X202090771Y-33782302D01*
X202052676Y-33706112D01*
X202014580Y-33668017D01*
X201938390Y-33629921D01*
X162071723Y-34087064D02*
X162071723Y-33287064D01*
X162262200Y-33287064D01*
X162376485Y-33325160D01*
X162452676Y-33401350D01*
X162490771Y-33477540D01*
X162528866Y-33629921D01*
X162528866Y-33744207D01*
X162490771Y-33896588D01*
X162452676Y-33972779D01*
X162376485Y-34048969D01*
X162262200Y-34087064D01*
X162071723Y-34087064D01*
X162871723Y-34087064D02*
X162871723Y-33287064D01*
X163062200Y-33287064D01*
X163176485Y-33325160D01*
X163252676Y-33401350D01*
X163290771Y-33477540D01*
X163328866Y-33629921D01*
X163328866Y-33744207D01*
X163290771Y-33896588D01*
X163252676Y-33972779D01*
X163176485Y-34048969D01*
X163062200Y-34087064D01*
X162871723Y-34087064D01*
X163709819Y-34087064D02*
X163862200Y-34087064D01*
X163938390Y-34048969D01*
X163976485Y-34010874D01*
X164052676Y-33896588D01*
X164090771Y-33744207D01*
X164090771Y-33439445D01*
X164052676Y-33363255D01*
X164014580Y-33325160D01*
X163938390Y-33287064D01*
X163786009Y-33287064D01*
X163709819Y-33325160D01*
X163671723Y-33363255D01*
X163633628Y-33439445D01*
X163633628Y-33629921D01*
X163671723Y-33706112D01*
X163709819Y-33744207D01*
X163786009Y-33782302D01*
X163938390Y-33782302D01*
X164014580Y-33744207D01*
X164052676Y-33706112D01*
X164090771Y-33629921D01*
X95190771Y-34087064D02*
X95190771Y-33287064D01*
X95381247Y-33287064D01*
X95495533Y-33325160D01*
X95571723Y-33401350D01*
X95609819Y-33477540D01*
X95647914Y-33629921D01*
X95647914Y-33744207D01*
X95609819Y-33896588D01*
X95571723Y-33972779D01*
X95495533Y-34048969D01*
X95381247Y-34087064D01*
X95190771Y-34087064D01*
X95990771Y-34087064D02*
X95990771Y-33287064D01*
X96181247Y-33287064D01*
X96295533Y-33325160D01*
X96371723Y-33401350D01*
X96409819Y-33477540D01*
X96447914Y-33629921D01*
X96447914Y-33744207D01*
X96409819Y-33896588D01*
X96371723Y-33972779D01*
X96295533Y-34048969D01*
X96181247Y-34087064D01*
X95990771Y-34087064D01*
X97209819Y-34087064D02*
X96752676Y-34087064D01*
X96981247Y-34087064D02*
X96981247Y-33287064D01*
X96905057Y-33401350D01*
X96828866Y-33477540D01*
X96752676Y-33515636D01*
X97705057Y-33287064D02*
X97781247Y-33287064D01*
X97857438Y-33325160D01*
X97895533Y-33363255D01*
X97933628Y-33439445D01*
X97971723Y-33591826D01*
X97971723Y-33782302D01*
X97933628Y-33934683D01*
X97895533Y-34010874D01*
X97857438Y-34048969D01*
X97781247Y-34087064D01*
X97705057Y-34087064D01*
X97628866Y-34048969D01*
X97590771Y-34010874D01*
X97552676Y-33934683D01*
X97514580Y-33782302D01*
X97514580Y-33591826D01*
X97552676Y-33439445D01*
X97590771Y-33363255D01*
X97628866Y-33325160D01*
X97705057Y-33287064D01*
X57190771Y-34087064D02*
X57190771Y-33287064D01*
X57381247Y-33287064D01*
X57495533Y-33325160D01*
X57571723Y-33401350D01*
X57609819Y-33477540D01*
X57647914Y-33629921D01*
X57647914Y-33744207D01*
X57609819Y-33896588D01*
X57571723Y-33972779D01*
X57495533Y-34048969D01*
X57381247Y-34087064D01*
X57190771Y-34087064D01*
X57990771Y-34087064D02*
X57990771Y-33287064D01*
X58181247Y-33287064D01*
X58295533Y-33325160D01*
X58371723Y-33401350D01*
X58409819Y-33477540D01*
X58447914Y-33629921D01*
X58447914Y-33744207D01*
X58409819Y-33896588D01*
X58371723Y-33972779D01*
X58295533Y-34048969D01*
X58181247Y-34087064D01*
X57990771Y-34087064D01*
X59209819Y-34087064D02*
X58752676Y-34087064D01*
X58981247Y-34087064D02*
X58981247Y-33287064D01*
X58905057Y-33401350D01*
X58828866Y-33477540D01*
X58752676Y-33515636D01*
X59971723Y-34087064D02*
X59514580Y-34087064D01*
X59743152Y-34087064D02*
X59743152Y-33287064D01*
X59666961Y-33401350D01*
X59590771Y-33477540D01*
X59514580Y-33515636D01*
X19190771Y-34087064D02*
X19190771Y-33287064D01*
X19381247Y-33287064D01*
X19495533Y-33325160D01*
X19571723Y-33401350D01*
X19609819Y-33477540D01*
X19647914Y-33629921D01*
X19647914Y-33744207D01*
X19609819Y-33896588D01*
X19571723Y-33972779D01*
X19495533Y-34048969D01*
X19381247Y-34087064D01*
X19190771Y-34087064D01*
X19990771Y-34087064D02*
X19990771Y-33287064D01*
X20181247Y-33287064D01*
X20295533Y-33325160D01*
X20371723Y-33401350D01*
X20409819Y-33477540D01*
X20447914Y-33629921D01*
X20447914Y-33744207D01*
X20409819Y-33896588D01*
X20371723Y-33972779D01*
X20295533Y-34048969D01*
X20181247Y-34087064D01*
X19990771Y-34087064D01*
X21209819Y-34087064D02*
X20752676Y-34087064D01*
X20981247Y-34087064D02*
X20981247Y-33287064D01*
X20905057Y-33401350D01*
X20828866Y-33477540D01*
X20752676Y-33515636D01*
X21514580Y-33363255D02*
X21552676Y-33325160D01*
X21628866Y-33287064D01*
X21819342Y-33287064D01*
X21895533Y-33325160D01*
X21933628Y-33363255D01*
X21971723Y-33439445D01*
X21971723Y-33515636D01*
X21933628Y-33629921D01*
X21476485Y-34087064D01*
X21971723Y-34087064D01*
X242262771Y-40945064D02*
X242262771Y-40145064D01*
X242453247Y-40145064D01*
X242567533Y-40183160D01*
X242643723Y-40259350D01*
X242681819Y-40335540D01*
X242719914Y-40487921D01*
X242719914Y-40602207D01*
X242681819Y-40754588D01*
X242643723Y-40830779D01*
X242567533Y-40906969D01*
X242453247Y-40945064D01*
X242262771Y-40945064D01*
X243062771Y-40945064D02*
X243062771Y-40145064D01*
X243253247Y-40145064D01*
X243367533Y-40183160D01*
X243443723Y-40259350D01*
X243481819Y-40335540D01*
X243519914Y-40487921D01*
X243519914Y-40602207D01*
X243481819Y-40754588D01*
X243443723Y-40830779D01*
X243367533Y-40906969D01*
X243253247Y-40945064D01*
X243062771Y-40945064D01*
X244281819Y-40945064D02*
X243824676Y-40945064D01*
X244053247Y-40945064D02*
X244053247Y-40145064D01*
X243977057Y-40259350D01*
X243900866Y-40335540D01*
X243824676Y-40373636D01*
X244548485Y-40145064D02*
X245043723Y-40145064D01*
X244777057Y-40449826D01*
X244891342Y-40449826D01*
X244967533Y-40487921D01*
X245005628Y-40526017D01*
X245043723Y-40602207D01*
X245043723Y-40792683D01*
X245005628Y-40868874D01*
X244967533Y-40906969D01*
X244891342Y-40945064D01*
X244662771Y-40945064D01*
X244586580Y-40906969D01*
X244548485Y-40868874D01*
X204262771Y-40945064D02*
X204262771Y-40145064D01*
X204453247Y-40145064D01*
X204567533Y-40183160D01*
X204643723Y-40259350D01*
X204681819Y-40335540D01*
X204719914Y-40487921D01*
X204719914Y-40602207D01*
X204681819Y-40754588D01*
X204643723Y-40830779D01*
X204567533Y-40906969D01*
X204453247Y-40945064D01*
X204262771Y-40945064D01*
X205062771Y-40945064D02*
X205062771Y-40145064D01*
X205253247Y-40145064D01*
X205367533Y-40183160D01*
X205443723Y-40259350D01*
X205481819Y-40335540D01*
X205519914Y-40487921D01*
X205519914Y-40602207D01*
X205481819Y-40754588D01*
X205443723Y-40830779D01*
X205367533Y-40906969D01*
X205253247Y-40945064D01*
X205062771Y-40945064D01*
X206281819Y-40945064D02*
X205824676Y-40945064D01*
X206053247Y-40945064D02*
X206053247Y-40145064D01*
X205977057Y-40259350D01*
X205900866Y-40335540D01*
X205824676Y-40373636D01*
X206967533Y-40411731D02*
X206967533Y-40945064D01*
X206777057Y-40106969D02*
X206586580Y-40678398D01*
X207081819Y-40678398D01*
X166262771Y-40945064D02*
X166262771Y-40145064D01*
X166453247Y-40145064D01*
X166567533Y-40183160D01*
X166643723Y-40259350D01*
X166681819Y-40335540D01*
X166719914Y-40487921D01*
X166719914Y-40602207D01*
X166681819Y-40754588D01*
X166643723Y-40830779D01*
X166567533Y-40906969D01*
X166453247Y-40945064D01*
X166262771Y-40945064D01*
X167062771Y-40945064D02*
X167062771Y-40145064D01*
X167253247Y-40145064D01*
X167367533Y-40183160D01*
X167443723Y-40259350D01*
X167481819Y-40335540D01*
X167519914Y-40487921D01*
X167519914Y-40602207D01*
X167481819Y-40754588D01*
X167443723Y-40830779D01*
X167367533Y-40906969D01*
X167253247Y-40945064D01*
X167062771Y-40945064D01*
X168281819Y-40945064D02*
X167824676Y-40945064D01*
X168053247Y-40945064D02*
X168053247Y-40145064D01*
X167977057Y-40259350D01*
X167900866Y-40335540D01*
X167824676Y-40373636D01*
X169005628Y-40145064D02*
X168624676Y-40145064D01*
X168586580Y-40526017D01*
X168624676Y-40487921D01*
X168700866Y-40449826D01*
X168891342Y-40449826D01*
X168967533Y-40487921D01*
X169005628Y-40526017D01*
X169043723Y-40602207D01*
X169043723Y-40792683D01*
X169005628Y-40868874D01*
X168967533Y-40906969D01*
X168891342Y-40945064D01*
X168700866Y-40945064D01*
X168624676Y-40906969D01*
X168586580Y-40868874D01*
X90262771Y-40945064D02*
X90262771Y-40145064D01*
X90453247Y-40145064D01*
X90567533Y-40183160D01*
X90643723Y-40259350D01*
X90681819Y-40335540D01*
X90719914Y-40487921D01*
X90719914Y-40602207D01*
X90681819Y-40754588D01*
X90643723Y-40830779D01*
X90567533Y-40906969D01*
X90453247Y-40945064D01*
X90262771Y-40945064D01*
X91062771Y-40945064D02*
X91062771Y-40145064D01*
X91253247Y-40145064D01*
X91367533Y-40183160D01*
X91443723Y-40259350D01*
X91481819Y-40335540D01*
X91519914Y-40487921D01*
X91519914Y-40602207D01*
X91481819Y-40754588D01*
X91443723Y-40830779D01*
X91367533Y-40906969D01*
X91253247Y-40945064D01*
X91062771Y-40945064D01*
X92281819Y-40945064D02*
X91824676Y-40945064D01*
X92053247Y-40945064D02*
X92053247Y-40145064D01*
X91977057Y-40259350D01*
X91900866Y-40335540D01*
X91824676Y-40373636D01*
X92967533Y-40145064D02*
X92815152Y-40145064D01*
X92738961Y-40183160D01*
X92700866Y-40221255D01*
X92624676Y-40335540D01*
X92586580Y-40487921D01*
X92586580Y-40792683D01*
X92624676Y-40868874D01*
X92662771Y-40906969D01*
X92738961Y-40945064D01*
X92891342Y-40945064D01*
X92967533Y-40906969D01*
X93005628Y-40868874D01*
X93043723Y-40792683D01*
X93043723Y-40602207D01*
X93005628Y-40526017D01*
X92967533Y-40487921D01*
X92891342Y-40449826D01*
X92738961Y-40449826D01*
X92662771Y-40487921D01*
X92624676Y-40526017D01*
X92586580Y-40602207D01*
X52262771Y-40945064D02*
X52262771Y-40145064D01*
X52453247Y-40145064D01*
X52567533Y-40183160D01*
X52643723Y-40259350D01*
X52681819Y-40335540D01*
X52719914Y-40487921D01*
X52719914Y-40602207D01*
X52681819Y-40754588D01*
X52643723Y-40830779D01*
X52567533Y-40906969D01*
X52453247Y-40945064D01*
X52262771Y-40945064D01*
X53062771Y-40945064D02*
X53062771Y-40145064D01*
X53253247Y-40145064D01*
X53367533Y-40183160D01*
X53443723Y-40259350D01*
X53481819Y-40335540D01*
X53519914Y-40487921D01*
X53519914Y-40602207D01*
X53481819Y-40754588D01*
X53443723Y-40830779D01*
X53367533Y-40906969D01*
X53253247Y-40945064D01*
X53062771Y-40945064D01*
X54281819Y-40945064D02*
X53824676Y-40945064D01*
X54053247Y-40945064D02*
X54053247Y-40145064D01*
X53977057Y-40259350D01*
X53900866Y-40335540D01*
X53824676Y-40373636D01*
X54548485Y-40145064D02*
X55081819Y-40145064D01*
X54738961Y-40945064D01*
X138922795Y-23589040D02*
X138922795Y-24398564D01*
X138970414Y-24493802D01*
X139018033Y-24541421D01*
X139113271Y-24589040D01*
X139303747Y-24589040D01*
X139398985Y-24541421D01*
X139446604Y-24493802D01*
X139494223Y-24398564D01*
X139494223Y-23589040D01*
X139922795Y-23684279D02*
X139970414Y-23636660D01*
X140065652Y-23589040D01*
X140303747Y-23589040D01*
X140398985Y-23636660D01*
X140446604Y-23684279D01*
X140494223Y-23779517D01*
X140494223Y-23874755D01*
X140446604Y-24017612D01*
X139875176Y-24589040D01*
X140494223Y-24589040D01*
X123043642Y-60229666D02*
X123091261Y-60277285D01*
X123138880Y-60420142D01*
X123138880Y-60515380D01*
X123091261Y-60658238D01*
X122996023Y-60753476D01*
X122900785Y-60801095D01*
X122710309Y-60848714D01*
X122567452Y-60848714D01*
X122376976Y-60801095D01*
X122281738Y-60753476D01*
X122186500Y-60658238D01*
X122138880Y-60515380D01*
X122138880Y-60420142D01*
X122186500Y-60277285D01*
X122234119Y-60229666D01*
X123138880Y-59277285D02*
X123138880Y-59848714D01*
X123138880Y-59563000D02*
X122138880Y-59563000D01*
X122281738Y-59658238D01*
X122376976Y-59753476D01*
X122424595Y-59848714D01*
X140720342Y-67800826D02*
X140767961Y-67848445D01*
X140815580Y-67991302D01*
X140815580Y-68086540D01*
X140767961Y-68229398D01*
X140672723Y-68324636D01*
X140577485Y-68372255D01*
X140387009Y-68419874D01*
X140244152Y-68419874D01*
X140053676Y-68372255D01*
X139958438Y-68324636D01*
X139863200Y-68229398D01*
X139815580Y-68086540D01*
X139815580Y-67991302D01*
X139863200Y-67848445D01*
X139910819Y-67800826D01*
X139910819Y-67419874D02*
X139863200Y-67372255D01*
X139815580Y-67277017D01*
X139815580Y-67038921D01*
X139863200Y-66943683D01*
X139910819Y-66896064D01*
X140006057Y-66848445D01*
X140101295Y-66848445D01*
X140244152Y-66896064D01*
X140815580Y-67467493D01*
X140815580Y-66848445D01*
X136775533Y-55176302D02*
X136727914Y-55223921D01*
X136585057Y-55271540D01*
X136489819Y-55271540D01*
X136346961Y-55223921D01*
X136251723Y-55128683D01*
X136204104Y-55033445D01*
X136156485Y-54842969D01*
X136156485Y-54700112D01*
X136204104Y-54509636D01*
X136251723Y-54414398D01*
X136346961Y-54319160D01*
X136489819Y-54271540D01*
X136585057Y-54271540D01*
X136727914Y-54319160D01*
X136775533Y-54366779D01*
X137108866Y-54271540D02*
X137727914Y-54271540D01*
X137394580Y-54652493D01*
X137537438Y-54652493D01*
X137632676Y-54700112D01*
X137680295Y-54747731D01*
X137727914Y-54842969D01*
X137727914Y-55081064D01*
X137680295Y-55176302D01*
X137632676Y-55223921D01*
X137537438Y-55271540D01*
X137251723Y-55271540D01*
X137156485Y-55223921D01*
X137108866Y-55176302D01*
X124945984Y-71851240D02*
X124898365Y-71898859D01*
X124755508Y-71946478D01*
X124660270Y-71946478D01*
X124517412Y-71898859D01*
X124422174Y-71803621D01*
X124374555Y-71708383D01*
X124326936Y-71517907D01*
X124326936Y-71375050D01*
X124374555Y-71184574D01*
X124422174Y-71089336D01*
X124517412Y-70994098D01*
X124660270Y-70946478D01*
X124755508Y-70946478D01*
X124898365Y-70994098D01*
X124945984Y-71041717D01*
X125803127Y-71279812D02*
X125803127Y-71946478D01*
X125565031Y-70898859D02*
X125326936Y-71613145D01*
X125945984Y-71613145D01*
X222337842Y-4300826D02*
X222385461Y-4348445D01*
X222433080Y-4491302D01*
X222433080Y-4586540D01*
X222385461Y-4729398D01*
X222290223Y-4824636D01*
X222194985Y-4872255D01*
X222004509Y-4919874D01*
X221861652Y-4919874D01*
X221671176Y-4872255D01*
X221575938Y-4824636D01*
X221480700Y-4729398D01*
X221433080Y-4586540D01*
X221433080Y-4491302D01*
X221480700Y-4348445D01*
X221528319Y-4300826D01*
X222433080Y-3824636D02*
X222433080Y-3634160D01*
X222385461Y-3538921D01*
X222337842Y-3491302D01*
X222194985Y-3396064D01*
X222004509Y-3348445D01*
X221623557Y-3348445D01*
X221528319Y-3396064D01*
X221480700Y-3443683D01*
X221433080Y-3538921D01*
X221433080Y-3729398D01*
X221480700Y-3824636D01*
X221528319Y-3872255D01*
X221623557Y-3919874D01*
X221861652Y-3919874D01*
X221956890Y-3872255D01*
X222004509Y-3824636D01*
X222052128Y-3729398D01*
X222052128Y-3538921D01*
X222004509Y-3443683D01*
X221956890Y-3396064D01*
X221861652Y-3348445D01*
X136839033Y-56890802D02*
X136791414Y-56938421D01*
X136648557Y-56986040D01*
X136553319Y-56986040D01*
X136410461Y-56938421D01*
X136315223Y-56843183D01*
X136267604Y-56747945D01*
X136219985Y-56557469D01*
X136219985Y-56414612D01*
X136267604Y-56224136D01*
X136315223Y-56128898D01*
X136410461Y-56033660D01*
X136553319Y-55986040D01*
X136648557Y-55986040D01*
X136791414Y-56033660D01*
X136839033Y-56081279D01*
X137696176Y-55986040D02*
X137505700Y-55986040D01*
X137410461Y-56033660D01*
X137362842Y-56081279D01*
X137267604Y-56224136D01*
X137219985Y-56414612D01*
X137219985Y-56795564D01*
X137267604Y-56890802D01*
X137315223Y-56938421D01*
X137410461Y-56986040D01*
X137600938Y-56986040D01*
X137696176Y-56938421D01*
X137743795Y-56890802D01*
X137791414Y-56795564D01*
X137791414Y-56557469D01*
X137743795Y-56462231D01*
X137696176Y-56414612D01*
X137600938Y-56366993D01*
X137410461Y-56366993D01*
X137315223Y-56414612D01*
X137267604Y-56462231D01*
X137219985Y-56557469D01*
X137214833Y-71857142D02*
X137167214Y-71904761D01*
X137024357Y-71952380D01*
X136929119Y-71952380D01*
X136786261Y-71904761D01*
X136691023Y-71809523D01*
X136643404Y-71714285D01*
X136595785Y-71523809D01*
X136595785Y-71380952D01*
X136643404Y-71190476D01*
X136691023Y-71095238D01*
X136786261Y-71000000D01*
X136929119Y-70952380D01*
X137024357Y-70952380D01*
X137167214Y-71000000D01*
X137214833Y-71047619D01*
X137548166Y-70952380D02*
X138214833Y-70952380D01*
X137786261Y-71952380D01*
X142561842Y-67864326D02*
X142609461Y-67911945D01*
X142657080Y-68054802D01*
X142657080Y-68150040D01*
X142609461Y-68292898D01*
X142514223Y-68388136D01*
X142418985Y-68435755D01*
X142228509Y-68483374D01*
X142085652Y-68483374D01*
X141895176Y-68435755D01*
X141799938Y-68388136D01*
X141704700Y-68292898D01*
X141657080Y-68150040D01*
X141657080Y-68054802D01*
X141704700Y-67911945D01*
X141752319Y-67864326D01*
X142085652Y-67292898D02*
X142038033Y-67388136D01*
X141990414Y-67435755D01*
X141895176Y-67483374D01*
X141847557Y-67483374D01*
X141752319Y-67435755D01*
X141704700Y-67388136D01*
X141657080Y-67292898D01*
X141657080Y-67102421D01*
X141704700Y-67007183D01*
X141752319Y-66959564D01*
X141847557Y-66911945D01*
X141895176Y-66911945D01*
X141990414Y-66959564D01*
X142038033Y-67007183D01*
X142085652Y-67102421D01*
X142085652Y-67292898D01*
X142133271Y-67388136D01*
X142180890Y-67435755D01*
X142276128Y-67483374D01*
X142466604Y-67483374D01*
X142561842Y-67435755D01*
X142609461Y-67388136D01*
X142657080Y-67292898D01*
X142657080Y-67102421D01*
X142609461Y-67007183D01*
X142561842Y-66959564D01*
X142466604Y-66911945D01*
X142276128Y-66911945D01*
X142180890Y-66959564D01*
X142133271Y-67007183D01*
X142085652Y-67102421D01*
X141883342Y-21922017D02*
X141930961Y-21969636D01*
X141978580Y-22112493D01*
X141978580Y-22207731D01*
X141930961Y-22350588D01*
X141835723Y-22445826D01*
X141740485Y-22493445D01*
X141550009Y-22541064D01*
X141407152Y-22541064D01*
X141216676Y-22493445D01*
X141121438Y-22445826D01*
X141026200Y-22350588D01*
X140978580Y-22207731D01*
X140978580Y-22112493D01*
X141026200Y-21969636D01*
X141073819Y-21922017D01*
X141978580Y-20969636D02*
X141978580Y-21541064D01*
X141978580Y-21255350D02*
X140978580Y-21255350D01*
X141121438Y-21350588D01*
X141216676Y-21445826D01*
X141264295Y-21541064D01*
X140978580Y-20350588D02*
X140978580Y-20255350D01*
X141026200Y-20160112D01*
X141073819Y-20112493D01*
X141169057Y-20064874D01*
X141359533Y-20017255D01*
X141597628Y-20017255D01*
X141788104Y-20064874D01*
X141883342Y-20112493D01*
X141930961Y-20160112D01*
X141978580Y-20255350D01*
X141978580Y-20350588D01*
X141930961Y-20445826D01*
X141883342Y-20493445D01*
X141788104Y-20541064D01*
X141597628Y-20588683D01*
X141359533Y-20588683D01*
X141169057Y-20541064D01*
X141073819Y-20493445D01*
X141026200Y-20445826D01*
X140978580Y-20350588D01*
X135406342Y-22366517D02*
X135453961Y-22414136D01*
X135501580Y-22556993D01*
X135501580Y-22652231D01*
X135453961Y-22795088D01*
X135358723Y-22890326D01*
X135263485Y-22937945D01*
X135073009Y-22985564D01*
X134930152Y-22985564D01*
X134739676Y-22937945D01*
X134644438Y-22890326D01*
X134549200Y-22795088D01*
X134501580Y-22652231D01*
X134501580Y-22556993D01*
X134549200Y-22414136D01*
X134596819Y-22366517D01*
X135501580Y-21414136D02*
X135501580Y-21985564D01*
X135501580Y-21699850D02*
X134501580Y-21699850D01*
X134644438Y-21795088D01*
X134739676Y-21890326D01*
X134787295Y-21985564D01*
X135501580Y-20461755D02*
X135501580Y-21033183D01*
X135501580Y-20747469D02*
X134501580Y-20747469D01*
X134644438Y-20842707D01*
X134739676Y-20937945D01*
X134787295Y-21033183D01*
X108357142Y-15927142D02*
X108309523Y-15974761D01*
X108166666Y-16022380D01*
X108071428Y-16022380D01*
X107928571Y-15974761D01*
X107833333Y-15879523D01*
X107785714Y-15784285D01*
X107738095Y-15593809D01*
X107738095Y-15450952D01*
X107785714Y-15260476D01*
X107833333Y-15165238D01*
X107928571Y-15070000D01*
X108071428Y-15022380D01*
X108166666Y-15022380D01*
X108309523Y-15070000D01*
X108357142Y-15117619D01*
X109309523Y-16022380D02*
X108738095Y-16022380D01*
X109023809Y-16022380D02*
X109023809Y-15022380D01*
X108928571Y-15165238D01*
X108833333Y-15260476D01*
X108738095Y-15308095D01*
X109690476Y-15117619D02*
X109738095Y-15070000D01*
X109833333Y-15022380D01*
X110071428Y-15022380D01*
X110166666Y-15070000D01*
X110214285Y-15117619D01*
X110261904Y-15212857D01*
X110261904Y-15308095D01*
X110214285Y-15450952D01*
X109642857Y-16022380D01*
X110261904Y-16022380D01*
X108543642Y-17150357D02*
X108591261Y-17197976D01*
X108638880Y-17340833D01*
X108638880Y-17436071D01*
X108591261Y-17578928D01*
X108496023Y-17674166D01*
X108400785Y-17721785D01*
X108210309Y-17769404D01*
X108067452Y-17769404D01*
X107876976Y-17721785D01*
X107781738Y-17674166D01*
X107686500Y-17578928D01*
X107638880Y-17436071D01*
X107638880Y-17340833D01*
X107686500Y-17197976D01*
X107734119Y-17150357D01*
X108638880Y-16197976D02*
X108638880Y-16769404D01*
X108638880Y-16483690D02*
X107638880Y-16483690D01*
X107781738Y-16578928D01*
X107876976Y-16674166D01*
X107924595Y-16769404D01*
X107638880Y-15864642D02*
X107638880Y-15245595D01*
X108019833Y-15578928D01*
X108019833Y-15436071D01*
X108067452Y-15340833D01*
X108115071Y-15293214D01*
X108210309Y-15245595D01*
X108448404Y-15245595D01*
X108543642Y-15293214D01*
X108591261Y-15340833D01*
X108638880Y-15436071D01*
X108638880Y-15721785D01*
X108591261Y-15817023D01*
X108543642Y-15864642D01*
X125107142Y-60229666D02*
X125154761Y-60277285D01*
X125202380Y-60420142D01*
X125202380Y-60515380D01*
X125154761Y-60658238D01*
X125059523Y-60753476D01*
X124964285Y-60801095D01*
X124773809Y-60848714D01*
X124630952Y-60848714D01*
X124440476Y-60801095D01*
X124345238Y-60753476D01*
X124250000Y-60658238D01*
X124202380Y-60515380D01*
X124202380Y-60420142D01*
X124250000Y-60277285D01*
X124297619Y-60229666D01*
X124202380Y-59324904D02*
X124202380Y-59801095D01*
X124678571Y-59848714D01*
X124630952Y-59801095D01*
X124583333Y-59705857D01*
X124583333Y-59467761D01*
X124630952Y-59372523D01*
X124678571Y-59324904D01*
X124773809Y-59277285D01*
X125011904Y-59277285D01*
X125107142Y-59324904D01*
X125154761Y-59372523D01*
X125202380Y-59467761D01*
X125202380Y-59705857D01*
X125154761Y-59801095D01*
X125107142Y-59848714D01*
X219020033Y-4048040D02*
X218686700Y-3571850D01*
X218448604Y-4048040D02*
X218448604Y-3048040D01*
X218829557Y-3048040D01*
X218924795Y-3095660D01*
X218972414Y-3143279D01*
X219020033Y-3238517D01*
X219020033Y-3381374D01*
X218972414Y-3476612D01*
X218924795Y-3524231D01*
X218829557Y-3571850D01*
X218448604Y-3571850D01*
X219972414Y-4048040D02*
X219400985Y-4048040D01*
X219686700Y-4048040D02*
X219686700Y-3048040D01*
X219591461Y-3190898D01*
X219496223Y-3286136D01*
X219400985Y-3333755D01*
X211273033Y-4142040D02*
X210939700Y-3665850D01*
X210701604Y-4142040D02*
X210701604Y-3142040D01*
X211082557Y-3142040D01*
X211177795Y-3189660D01*
X211225414Y-3237279D01*
X211273033Y-3332517D01*
X211273033Y-3475374D01*
X211225414Y-3570612D01*
X211177795Y-3618231D01*
X211082557Y-3665850D01*
X210701604Y-3665850D01*
X211653985Y-3237279D02*
X211701604Y-3189660D01*
X211796842Y-3142040D01*
X212034938Y-3142040D01*
X212130176Y-3189660D01*
X212177795Y-3237279D01*
X212225414Y-3332517D01*
X212225414Y-3427755D01*
X212177795Y-3570612D01*
X211606366Y-4142040D01*
X212225414Y-4142040D01*
X107654333Y-23515880D02*
X107321000Y-23039690D01*
X107082904Y-23515880D02*
X107082904Y-22515880D01*
X107463857Y-22515880D01*
X107559095Y-22563500D01*
X107606714Y-22611119D01*
X107654333Y-22706357D01*
X107654333Y-22849214D01*
X107606714Y-22944452D01*
X107559095Y-22992071D01*
X107463857Y-23039690D01*
X107082904Y-23039690D01*
X108511476Y-22515880D02*
X108321000Y-22515880D01*
X108225761Y-22563500D01*
X108178142Y-22611119D01*
X108082904Y-22753976D01*
X108035285Y-22944452D01*
X108035285Y-23325404D01*
X108082904Y-23420642D01*
X108130523Y-23468261D01*
X108225761Y-23515880D01*
X108416238Y-23515880D01*
X108511476Y-23468261D01*
X108559095Y-23420642D01*
X108606714Y-23325404D01*
X108606714Y-23087309D01*
X108559095Y-22992071D01*
X108511476Y-22944452D01*
X108416238Y-22896833D01*
X108225761Y-22896833D01*
X108130523Y-22944452D01*
X108082904Y-22992071D01*
X108035285Y-23087309D01*
X111154761Y-23047619D02*
X111059523Y-23000000D01*
X110964285Y-22904761D01*
X110821428Y-22761904D01*
X110726190Y-22714285D01*
X110630952Y-22714285D01*
X110678571Y-22952380D02*
X110583333Y-22904761D01*
X110488095Y-22809523D01*
X110440476Y-22619047D01*
X110440476Y-22285714D01*
X110488095Y-22095238D01*
X110583333Y-22000000D01*
X110678571Y-21952380D01*
X110869047Y-21952380D01*
X110964285Y-22000000D01*
X111059523Y-22095238D01*
X111107142Y-22285714D01*
X111107142Y-22619047D01*
X111059523Y-22809523D01*
X110964285Y-22904761D01*
X110869047Y-22952380D01*
X110678571Y-22952380D01*
X112059523Y-22952380D02*
X111488095Y-22952380D01*
X111773809Y-22952380D02*
X111773809Y-21952380D01*
X111678571Y-22095238D01*
X111583333Y-22190476D01*
X111488095Y-22238095D01*
X116833333Y-26132380D02*
X116500000Y-25656190D01*
X116261904Y-26132380D02*
X116261904Y-25132380D01*
X116642857Y-25132380D01*
X116738095Y-25180000D01*
X116785714Y-25227619D01*
X116833333Y-25322857D01*
X116833333Y-25465714D01*
X116785714Y-25560952D01*
X116738095Y-25608571D01*
X116642857Y-25656190D01*
X116261904Y-25656190D01*
X117690476Y-25465714D02*
X117690476Y-26132380D01*
X117452380Y-25084761D02*
X117214285Y-25799047D01*
X117833333Y-25799047D01*
X113272380Y-20166666D02*
X112796190Y-20500000D01*
X113272380Y-20738095D02*
X112272380Y-20738095D01*
X112272380Y-20357142D01*
X112320000Y-20261904D01*
X112367619Y-20214285D01*
X112462857Y-20166666D01*
X112605714Y-20166666D01*
X112700952Y-20214285D01*
X112748571Y-20261904D01*
X112796190Y-20357142D01*
X112796190Y-20738095D01*
X112272380Y-19261904D02*
X112272380Y-19738095D01*
X112748571Y-19785714D01*
X112700952Y-19738095D01*
X112653333Y-19642857D01*
X112653333Y-19404761D01*
X112700952Y-19309523D01*
X112748571Y-19261904D01*
X112843809Y-19214285D01*
X113081904Y-19214285D01*
X113177142Y-19261904D01*
X113224761Y-19309523D01*
X113272380Y-19404761D01*
X113272380Y-19642857D01*
X113224761Y-19738095D01*
X113177142Y-19785714D01*
X137743380Y-14238095D02*
X136743380Y-14238095D01*
X136743380Y-14000000D01*
X136791000Y-13857142D01*
X136886238Y-13761904D01*
X136981476Y-13714285D01*
X137171952Y-13666666D01*
X137314809Y-13666666D01*
X137505285Y-13714285D01*
X137600523Y-13761904D01*
X137695761Y-13857142D01*
X137743380Y-14000000D01*
X137743380Y-14238095D01*
X136743380Y-13333333D02*
X136743380Y-12714285D01*
X137124333Y-13047619D01*
X137124333Y-12904761D01*
X137171952Y-12809523D01*
X137219571Y-12761904D01*
X137314809Y-12714285D01*
X137552904Y-12714285D01*
X137648142Y-12761904D01*
X137695761Y-12809523D01*
X137743380Y-12904761D01*
X137743380Y-13190476D01*
X137695761Y-13285714D01*
X137648142Y-13333333D01*
X137819580Y-34238095D02*
X136819580Y-34238095D01*
X136819580Y-34000000D01*
X136867200Y-33857142D01*
X136962438Y-33761904D01*
X137057676Y-33714285D01*
X137248152Y-33666666D01*
X137391009Y-33666666D01*
X137581485Y-33714285D01*
X137676723Y-33761904D01*
X137771961Y-33857142D01*
X137819580Y-34000000D01*
X137819580Y-34238095D01*
X137152914Y-32809523D02*
X137819580Y-32809523D01*
X136771961Y-33047619D02*
X137486247Y-33285714D01*
X137486247Y-32666666D01*
X151090580Y-41738095D02*
X150090580Y-41738095D01*
X150090580Y-41500000D01*
X150138200Y-41357142D01*
X150233438Y-41261904D01*
X150328676Y-41214285D01*
X150519152Y-41166666D01*
X150662009Y-41166666D01*
X150852485Y-41214285D01*
X150947723Y-41261904D01*
X151042961Y-41357142D01*
X151090580Y-41500000D01*
X151090580Y-41738095D01*
X150090580Y-40261904D02*
X150090580Y-40738095D01*
X150566771Y-40785714D01*
X150519152Y-40738095D01*
X150471533Y-40642857D01*
X150471533Y-40404761D01*
X150519152Y-40309523D01*
X150566771Y-40261904D01*
X150662009Y-40214285D01*
X150900104Y-40214285D01*
X150995342Y-40261904D01*
X151042961Y-40309523D01*
X151090580Y-40404761D01*
X151090580Y-40642857D01*
X151042961Y-40738095D01*
X150995342Y-40785714D01*
X109202380Y-53488095D02*
X108202380Y-53488095D01*
X108202380Y-53250000D01*
X108250000Y-53107142D01*
X108345238Y-53011904D01*
X108440476Y-52964285D01*
X108630952Y-52916666D01*
X108773809Y-52916666D01*
X108964285Y-52964285D01*
X109059523Y-53011904D01*
X109154761Y-53107142D01*
X109202380Y-53250000D01*
X109202380Y-53488095D01*
X108202380Y-52059523D02*
X108202380Y-52250000D01*
X108250000Y-52345238D01*
X108297619Y-52392857D01*
X108440476Y-52488095D01*
X108630952Y-52535714D01*
X109011904Y-52535714D01*
X109107142Y-52488095D01*
X109154761Y-52440476D01*
X109202380Y-52345238D01*
X109202380Y-52154761D01*
X109154761Y-52059523D01*
X109107142Y-52011904D01*
X109011904Y-51964285D01*
X108773809Y-51964285D01*
X108678571Y-52011904D01*
X108630952Y-52059523D01*
X108583333Y-52154761D01*
X108583333Y-52345238D01*
X108630952Y-52440476D01*
X108678571Y-52488095D01*
X108773809Y-52535714D01*
X242146380Y-55644095D02*
X241146380Y-55644095D01*
X241146380Y-55406000D01*
X241194000Y-55263142D01*
X241289238Y-55167904D01*
X241384476Y-55120285D01*
X241574952Y-55072666D01*
X241717809Y-55072666D01*
X241908285Y-55120285D01*
X242003523Y-55167904D01*
X242098761Y-55263142D01*
X242146380Y-55406000D01*
X242146380Y-55644095D01*
X241146380Y-54739333D02*
X241146380Y-54072666D01*
X242146380Y-54501238D01*
X218396380Y-55644095D02*
X217396380Y-55644095D01*
X217396380Y-55406000D01*
X217444000Y-55263142D01*
X217539238Y-55167904D01*
X217634476Y-55120285D01*
X217824952Y-55072666D01*
X217967809Y-55072666D01*
X218158285Y-55120285D01*
X218253523Y-55167904D01*
X218348761Y-55263142D01*
X218396380Y-55406000D01*
X218396380Y-55644095D01*
X217824952Y-54501238D02*
X217777333Y-54596476D01*
X217729714Y-54644095D01*
X217634476Y-54691714D01*
X217586857Y-54691714D01*
X217491619Y-54644095D01*
X217444000Y-54596476D01*
X217396380Y-54501238D01*
X217396380Y-54310761D01*
X217444000Y-54215523D01*
X217491619Y-54167904D01*
X217586857Y-54120285D01*
X217634476Y-54120285D01*
X217729714Y-54167904D01*
X217777333Y-54215523D01*
X217824952Y-54310761D01*
X217824952Y-54501238D01*
X217872571Y-54596476D01*
X217920190Y-54644095D01*
X218015428Y-54691714D01*
X218205904Y-54691714D01*
X218301142Y-54644095D01*
X218348761Y-54596476D01*
X218396380Y-54501238D01*
X218396380Y-54310761D01*
X218348761Y-54215523D01*
X218301142Y-54167904D01*
X218205904Y-54120285D01*
X218015428Y-54120285D01*
X217920190Y-54167904D01*
X217872571Y-54215523D01*
X217824952Y-54310761D01*
X194646380Y-55644095D02*
X193646380Y-55644095D01*
X193646380Y-55406000D01*
X193694000Y-55263142D01*
X193789238Y-55167904D01*
X193884476Y-55120285D01*
X194074952Y-55072666D01*
X194217809Y-55072666D01*
X194408285Y-55120285D01*
X194503523Y-55167904D01*
X194598761Y-55263142D01*
X194646380Y-55406000D01*
X194646380Y-55644095D01*
X194646380Y-54596476D02*
X194646380Y-54406000D01*
X194598761Y-54310761D01*
X194551142Y-54263142D01*
X194408285Y-54167904D01*
X194217809Y-54120285D01*
X193836857Y-54120285D01*
X193741619Y-54167904D01*
X193694000Y-54215523D01*
X193646380Y-54310761D01*
X193646380Y-54501238D01*
X193694000Y-54596476D01*
X193741619Y-54644095D01*
X193836857Y-54691714D01*
X194074952Y-54691714D01*
X194170190Y-54644095D01*
X194217809Y-54596476D01*
X194265428Y-54501238D01*
X194265428Y-54310761D01*
X194217809Y-54215523D01*
X194170190Y-54167904D01*
X194074952Y-54120285D01*
X152233580Y-53964285D02*
X151233580Y-53964285D01*
X151233580Y-53726190D01*
X151281200Y-53583333D01*
X151376438Y-53488095D01*
X151471676Y-53440476D01*
X151662152Y-53392857D01*
X151805009Y-53392857D01*
X151995485Y-53440476D01*
X152090723Y-53488095D01*
X152185961Y-53583333D01*
X152233580Y-53726190D01*
X152233580Y-53964285D01*
X152233580Y-52440476D02*
X152233580Y-53011904D01*
X152233580Y-52726190D02*
X151233580Y-52726190D01*
X151376438Y-52821428D01*
X151471676Y-52916666D01*
X151519295Y-53011904D01*
X151233580Y-51821428D02*
X151233580Y-51726190D01*
X151281200Y-51630952D01*
X151328819Y-51583333D01*
X151424057Y-51535714D01*
X151614533Y-51488095D01*
X151852628Y-51488095D01*
X152043104Y-51535714D01*
X152138342Y-51583333D01*
X152185961Y-51630952D01*
X152233580Y-51726190D01*
X152233580Y-51821428D01*
X152185961Y-51916666D01*
X152138342Y-51964285D01*
X152043104Y-52011904D01*
X151852628Y-52059523D01*
X151614533Y-52059523D01*
X151424057Y-52011904D01*
X151328819Y-51964285D01*
X151281200Y-51916666D01*
X151233580Y-51821428D01*
X93813580Y-56120285D02*
X92813580Y-56120285D01*
X92813580Y-55882190D01*
X92861200Y-55739333D01*
X92956438Y-55644095D01*
X93051676Y-55596476D01*
X93242152Y-55548857D01*
X93385009Y-55548857D01*
X93575485Y-55596476D01*
X93670723Y-55644095D01*
X93765961Y-55739333D01*
X93813580Y-55882190D01*
X93813580Y-56120285D01*
X93813580Y-54596476D02*
X93813580Y-55167904D01*
X93813580Y-54882190D02*
X92813580Y-54882190D01*
X92956438Y-54977428D01*
X93051676Y-55072666D01*
X93099295Y-55167904D01*
X93813580Y-53644095D02*
X93813580Y-54215523D01*
X93813580Y-53929809D02*
X92813580Y-53929809D01*
X92956438Y-54025047D01*
X93051676Y-54120285D01*
X93099295Y-54215523D01*
X75881180Y-56120285D02*
X74881180Y-56120285D01*
X74881180Y-55882190D01*
X74928800Y-55739333D01*
X75024038Y-55644095D01*
X75119276Y-55596476D01*
X75309752Y-55548857D01*
X75452609Y-55548857D01*
X75643085Y-55596476D01*
X75738323Y-55644095D01*
X75833561Y-55739333D01*
X75881180Y-55882190D01*
X75881180Y-56120285D01*
X75881180Y-54596476D02*
X75881180Y-55167904D01*
X75881180Y-54882190D02*
X74881180Y-54882190D01*
X75024038Y-54977428D01*
X75119276Y-55072666D01*
X75166895Y-55167904D01*
X74976419Y-54215523D02*
X74928800Y-54167904D01*
X74881180Y-54072666D01*
X74881180Y-53834571D01*
X74928800Y-53739333D01*
X74976419Y-53691714D01*
X75071657Y-53644095D01*
X75166895Y-53644095D01*
X75309752Y-53691714D01*
X75881180Y-54263142D01*
X75881180Y-53644095D01*
X52131180Y-56120285D02*
X51131180Y-56120285D01*
X51131180Y-55882190D01*
X51178800Y-55739333D01*
X51274038Y-55644095D01*
X51369276Y-55596476D01*
X51559752Y-55548857D01*
X51702609Y-55548857D01*
X51893085Y-55596476D01*
X51988323Y-55644095D01*
X52083561Y-55739333D01*
X52131180Y-55882190D01*
X52131180Y-56120285D01*
X52131180Y-54596476D02*
X52131180Y-55167904D01*
X52131180Y-54882190D02*
X51131180Y-54882190D01*
X51274038Y-54977428D01*
X51369276Y-55072666D01*
X51416895Y-55167904D01*
X51131180Y-54263142D02*
X51131180Y-53644095D01*
X51512133Y-53977428D01*
X51512133Y-53834571D01*
X51559752Y-53739333D01*
X51607371Y-53691714D01*
X51702609Y-53644095D01*
X51940704Y-53644095D01*
X52035942Y-53691714D01*
X52083561Y-53739333D01*
X52131180Y-53834571D01*
X52131180Y-54120285D01*
X52083561Y-54215523D01*
X52035942Y-54263142D01*
X28381180Y-55964285D02*
X27381180Y-55964285D01*
X27381180Y-55726190D01*
X27428800Y-55583333D01*
X27524038Y-55488095D01*
X27619276Y-55440476D01*
X27809752Y-55392857D01*
X27952609Y-55392857D01*
X28143085Y-55440476D01*
X28238323Y-55488095D01*
X28333561Y-55583333D01*
X28381180Y-55726190D01*
X28381180Y-55964285D01*
X28381180Y-54440476D02*
X28381180Y-55011904D01*
X28381180Y-54726190D02*
X27381180Y-54726190D01*
X27524038Y-54821428D01*
X27619276Y-54916666D01*
X27666895Y-55011904D01*
X27714514Y-53583333D02*
X28381180Y-53583333D01*
X27333561Y-53821428D02*
X28047847Y-54059523D01*
X28047847Y-53440476D01*
X127471773Y-60162605D02*
X128044193Y-60735025D01*
X128145208Y-60768697D01*
X128212552Y-60768697D01*
X128313567Y-60735025D01*
X128448254Y-60600338D01*
X128481926Y-60499323D01*
X128481926Y-60431979D01*
X128448254Y-60330964D01*
X127875834Y-59758544D01*
X129290048Y-59758544D02*
X128885987Y-60162605D01*
X129088017Y-59960575D02*
X128380911Y-59253468D01*
X128414582Y-59421827D01*
X128414582Y-59556514D01*
X128380911Y-59657529D01*
M02*
